<svg xmlns="http://www.w3.org/2000/svg" viewBox="0 0 568.93 238.51"><defs><style>.cls-1{fill:#ffffff;}</style></defs><title>logo_full</title><g id="Layer_2" data-name="Layer 2"><g id="Layer_1-2" data-name="Layer 1"><path class="cls-1" d="M351.26,54.16c0,3.05-1.86,3.45-7.11,3.45s-6.91-.4-7.11-3.45c-.07-1.59-.2-3.19-.33-4.65H322.64c-.13,1.46-.27,3.05-.33,4.65-.2,3.05-1.79,3.45-7.11,3.45s-7.11-.4-7.11-3.45c0-12.75,5.71-31.94,13-42,1.86-2.52,3.65-2.72,8.57-2.72s6.71.2,8.57,2.72C345.55,22.22,351.26,41.41,351.26,54.16Zm-16-15.94a61.8,61.8,0,0,0-5.58-16.47,61.74,61.74,0,0,0-5.58,16.47Z"/><path class="cls-1" d="M356.77,54.09V12.86c0-3.05,1.79-3.45,7-3.45s7,.4,7,3.45v32.6h14.48c2.72,0,3.06,1.53,3.06,6s-.33,6-3.06,6h-25.1A3,3,0,0,1,356.77,54.09Z"/><path class="cls-1" d="M393,54.09V12.86c0-3.05,1.79-3.45,7-3.45s7,.4,7,3.45v32.6h14.48c2.72,0,3.06,1.53,3.06,6s-.33,6-3.06,6h-25.1A3,3,0,0,1,393,54.09Z"/><path class="cls-1" d="M348,72.5c0,4.45-.33,6-3.05,6H334.13v32.6c0,3.05-1.79,3.45-7,3.45s-7-.4-7-3.45V78.48H309.43c-2.72,0-3.05-1.53-3.05-6s.33-6,3.05-6H345C347.68,66.52,348,68.05,348,72.5Z"/><path class="cls-1" d="M392.3,69.78v41.3c0,3.05-1.79,3.45-7,3.45s-7-.4-7-3.45v-15H365.74v15c0,3.05-1.79,3.45-7,3.45s-7-.4-7-3.45V69.78c0-3.05,1.79-3.45,7-3.45s7,.4,7,3.45v14h12.62v-14c0-3.05,1.79-3.45,7-3.45S392.3,66.72,392.3,69.78Z"/><path class="cls-1" d="M399.61,111.08V69.78c0-3.05,1.79-3.45,7-3.45s7,.4,7,3.45v41.3c0,3.05-1.79,3.45-7,3.45S399.61,114.13,399.61,111.08Z"/><path class="cls-1" d="M461.56,69.78v41.3c0,3.05-1.46,3.45-5.71,3.45s-5.11-.46-5.58-2.06A70,70,0,0,0,434.8,85.32v25.76c0,3.05-1.79,3.45-7,3.45s-7-.4-7-3.45V69.78c0-3.05,1.53-3.45,5.84-3.45,2.86,0,4.18.27,5.45,1.2,5.25,3.85,11.22,10.43,15.47,16.8V69.78c0-3.05,1.79-3.45,7-3.45S461.56,66.72,461.56,69.78Z"/><path class="cls-1" d="M467,90.16c0-16.27,8.76-24.57,22.18-24.57,6.51,0,10.29.66,13.74,2.06,2.46,1,3.32,2.19,3.32,5.11s-1.2,7.37-3.45,7.37c-2,0-5.25-3-12.42-3-5.78,0-9.1,3.59-9.1,13s2.19,13.61,7.3,13.61c4.05,0,6-2.66,6-7.7a39.24,39.24,0,0,0-.4-5.71c-.47-3.05,1.46-3.65,6.57-3.65s6.44.8,7,3.32a30.88,30.88,0,0,1,.6,6.71c0,11.42-6.57,18.53-19.72,18.53C474.64,115.26,467,107,467,90.16Z"/><path class="cls-1" d="M531.75,77.75c-3.19,0-4.18.86-4.18,2.46,0,1.93,1.79,2.66,6.84,3.85,9.63,2.32,14.94,6.84,14.94,15,0,8.83-6.91,16.2-20.12,16.2a34.22,34.22,0,0,1-11.82-1.86c-3.92-1.39-4.91-3.59-4.91-6.64,0-3.25,1.39-6.91,3.92-6.91s5.78,3.25,13.41,3.25c3.78,0,4.65-1.06,4.65-2.46s-1.26-2.72-7-4.05c-8.57-2-14.61-6.64-14.61-14.94,0-9,6.31-16.07,19.12-16.07a38.21,38.21,0,0,1,9.89,1.13c4,1,5.25,3.12,5.25,6.18s-1.33,7.17-3.85,7.17C541.18,80.07,538.12,77.75,531.75,77.75Z"/><path class="cls-1" d="M309.89,167.93V126.76a3,3,0,0,1,3.32-3.32H329c11.22,0,17.13,5.18,17.13,12.42A10.54,10.54,0,0,1,339.24,146v.33c5.64,1.53,9.16,5.31,9.16,11.16,0,8.23-6.64,13.74-19.85,13.74H313.21A3,3,0,0,1,309.89,167.93ZM327,142.57c3.25,0,5.18-1.2,5.18-3.92s-1.79-3.92-5-3.92h-3.32v7.84Zm1.26,17.4c4.18,0,5.91-1.33,5.91-3.92s-1.66-3.92-5.91-3.92h-4.45V160Z"/><path class="cls-1" d="M353.65,168V126.7c0-3.06,1.79-3.45,7-3.45s7,.4,7,3.45V168c0,3.06-1.79,3.45-7,3.45S353.65,171.05,353.65,168Z"/><path class="cls-1" d="M374.9,168V126.76a3,3,0,0,1,3.32-3.32h14.94c13.55,0,20.32,4.85,20.32,14.34,0,7.7-4.52,12.08-11.16,13.74v.33a14.17,14.17,0,0,1,6.64,4.25c3.06,3.25,5.64,8.1,5.64,11.89,0,3.06-2.26,3.45-7.5,3.45s-6.84-.2-7.77-3.45a24.27,24.27,0,0,0-5.58-10.23,5.92,5.92,0,0,0-4.71-2h-.2V168c0,3.06-1.79,3.45-7,3.45S374.9,171.05,374.9,168Zm18.33-23.31c4.12,0,6-1.73,6-5s-1.73-5-5.84-5h-4.58v10Z"/><path class="cls-1" d="M456.31,129.42c0,4.45-.33,6-3.05,6H442.43V168c0,3.06-1.79,3.45-7,3.45s-7-.4-7-3.45v-32.6H417.73c-2.72,0-3.05-1.53-3.05-6s.33-6,3.05-6h35.53C456,123.44,456.31,125,456.31,129.42Z"/><path class="cls-1" d="M500.6,126.7V168c0,3.06-1.79,3.45-7,3.45s-7-.4-7-3.45V153H474v15c0,3.06-1.79,3.45-7,3.45s-7-.4-7-3.45V126.7c0-3.06,1.79-3.45,7-3.45s7,.4,7,3.45v14h12.62v-14c0-3.06,1.79-3.45,7-3.45S500.6,123.64,500.6,126.7Z"/><path class="cls-1" d="M561.71,168.13c-2.39,3.92-4,4.58-7.37,2.39-1.13-.73-2.26-1.46-3.39-2.26a25.74,25.74,0,0,1-14.14,3.92c-9.16,0-18.92-3.92-18.92-13.94,0-6.44,3.72-11,9.43-13.41-2.66-3.72-3.52-6.51-3.52-9.23,0-5.91,4.32-13.08,18.53-13.08a28.87,28.87,0,0,1,8.3,1.19c3.32,1,4.18,2.92,4.18,5.58,0,3.05-1.26,7.1-3.45,7.1-1.86,0-4.25-1.73-8.7-1.73-3.19,0-4.58.86-4.58,2.79,0,1.33.66,2.26,1.93,3.92a81.23,81.23,0,0,0,9.5,10.43,18.32,18.32,0,0,0-.33-8.37c-.73-3.06,1-3.52,5.11-3.52,4.71,0,5.84.4,6.64,3.45a23.09,23.09,0,0,1,.73,5.84,22.2,22.2,0,0,1-2.59,10.16c.73.53,1.53,1,2.26,1.46C564,162.49,564.16,164.15,561.71,168.13Zm-19.85-7.3c-2.72-2.52-5.38-5.18-7.9-8a5.31,5.31,0,0,0-1.73,3.85c0,3.19,3.12,4.52,6.44,4.52A12.31,12.31,0,0,0,541.85,160.83Z"/><path class="cls-1" d="M309.89,224.85V183.68a3,3,0,0,1,3.32-3.32H329c11.22,0,17.13,5.18,17.13,12.42a10.54,10.54,0,0,1-6.91,10.16v.33c5.64,1.53,9.16,5.31,9.16,11.16,0,8.23-6.64,13.74-19.85,13.74H313.21A3,3,0,0,1,309.89,224.85ZM327,199.48c3.25,0,5.18-1.2,5.18-3.92s-1.79-3.92-5-3.92h-3.32v7.84Zm1.26,17.4c4.18,0,5.91-1.33,5.91-3.92s-1.66-3.92-5.91-3.92h-4.45v7.84Z"/><path class="cls-1" d="M386.92,222.53c0,4.18-.33,5.64-3.06,5.64H357a3,3,0,0,1-3.32-3.32V183.68a3,3,0,0,1,3.32-3.32h26.49c2.72,0,3.06,1.46,3.06,5.64s-.33,5.64-3.06,5.64H367.6v6.71h12.09c2.72,0,3.06,1.46,3.06,5.64s-.33,5.64-3.06,5.64H367.6v7.24h16.27C386.59,216.88,386.92,218.34,386.92,222.53Z"/><path class="cls-1" d="M416.87,213.1v11.82c0,3.06-1.79,3.45-7,3.45s-7-.4-7-3.45V213.1c-7.57-8-13.21-21.12-13.21-29.48,0-3.06,1.86-3.45,7.11-3.45s6.84.4,7.11,3.45c.6,7,2.32,13.08,6.11,18.39,3.65-5.31,5.25-11.42,5.84-18.39.27-3.06,1.86-3.45,7.11-3.45s7.11.4,7.11,3.45C430.08,192,424.31,205.13,416.87,213.1Z"/><path class="cls-1" d="M431.21,204c0-16.8,7.64-24.57,21.58-24.57s21.71,7.77,21.71,24.57-7.7,25.1-21.71,25.1S431.21,220.8,431.21,204Zm29.08,0c0-9.43-2.32-13.08-7.5-13.08s-7.37,3.65-7.37,13.08,2.26,13.61,7.37,13.61S460.3,213.43,460.3,204Z"/><path class="cls-1" d="M520.66,183.61v41.3c0,3.06-1.46,3.45-5.71,3.45s-5.11-.46-5.58-2.06a70,70,0,0,0-15.47-27.16v25.76c0,3.06-1.79,3.45-7,3.45s-7-.4-7-3.45v-41.3c0-3.06,1.53-3.45,5.84-3.45,2.86,0,4.18.27,5.45,1.19,5.25,3.85,11.22,10.43,15.47,16.8V183.61c0-3.06,1.79-3.45,7-3.45S520.66,180.56,520.66,183.61Z"/><path class="cls-1" d="M528,224.85V183.68a3,3,0,0,1,3.32-3.32h14.28c15.54,0,23.37,6.44,23.37,23.91s-7.84,23.9-23.37,23.9H531.28A3,3,0,0,1,528,224.85Zm17.6-8c6.64,0,9.16-2.66,9.16-12.62s-2.52-12.62-9.16-12.62h-3.65v25.23Z"/><path class="cls-1" d="M273.91,42.89A78,78,0,0,0,266.65,32C254.7,17,237.28,6.21,218.32,3c-23.3-4-48.2,3.79-65.46,19.86a3.1,3.1,0,0,0,3.92,4.78,70,70,0,0,1,58.09-11.24C263,28.68,278,81.49,251.34,119.92a289.44,289.44,0,0,1-27.12,34.15c-15,15.8-34.41,27.6-50.59,42.27-8.58,7.78-20.12,15.9-27.6,25.2a2,2,0,0,1-3,.15c-6.87-7.35-39.12-28.9-42.9-31.81-19.88-15.35-36.39-33.61-51.34-53.7-12.65-17-29.64-36.07-25.93-59,3.94-24.38,16.28-44.9,39.65-55.38s58.58-9.94,72.56,16.35c2.35,4.42,5.06,12.17,7.47,20.13a4.94,4.94,0,0,1-.59.44c-1,.61-.71,3-.24,5a2.27,2.27,0,0,1-1.65,2.72c-2.74.71-5.47,4.07-6.68,5.9-2.58,3.9-1.73,9-.7,13.21,1.1,4.52-.32,7.63-2,11.48a1.19,1.19,0,0,1-1.7.55,33.37,33.37,0,0,0-6.42-2.52,154.14,154.14,0,0,0-29.78-3s-11.51-.54-13.71-2.12S77.9,79,77.9,79s2.73-9.93.18-12.12-11.94,2.2-13.89,5.86c-1.32,2.49-1.46,11.73-1.41,17.39a1.3,1.3,0,0,1-2.4.71L57.25,86S56,80.56,53.59,79.95s-2.13,3.35-2.68,6.58,2.5,5.54,3.79,20.1,7,12.83,11.56,11.27a15.56,15.56,0,0,1,6.32-.76c8.73.6,17.25,2.29,26,2.23a2,2,0,0,1,2,1.81l.48,5.06a3.92,3.92,0,0,1-1.29,3.24c-3.32,3.08-5.58,8.94-7.43,12.53-5.62,10.87-7.63,24.25.34,34.59,4.2,5.45,11.6,10,18.67,9.91s37.77,2.17,67.67-15,31.78-36.08,31.78-36.08a20.47,20.47,0,0,1,1.87-5.34A67.4,67.4,0,0,1,221.85,115a96.8,96.8,0,0,1,11.45-12.92c15-13.53,17-24.43,17.64-28a8,8,0,0,1,.24-1.13c.42-1,.33-15.35-6.52-27.56-5.25-9.36-13-14.93-23-16.57-24.88-4.08-33.07,3.2-40.31,9.62-1.33,1.18-2.58,2.29-3.93,3.34-5.15,4-6.72,10.88-8.11,16.93a69.66,69.66,0,0,1-2.07,7.53c-.75,2.13-2.32,3.59-3.33,5.57a14,14,0,0,0-.76,2,6.92,6.92,0,0,0-.51,3.61c.33,1.49,1.59,2.57,2.77,3.54-.2-.16-1.58,2.51-1.66,2.72-.87,2.19.91,1.85,1.41,3.82a11.64,11.64,0,0,0,.33,2.1c.42.91,1.48,1.18,2.07,1.94a6.46,6.46,0,0,1,.82,3.19,16.63,16.63,0,0,0,1,4.39c.81,1.84,4.65,3.07,7,3.68-1,.18-2.14.45-3.42.76l-.18,0s0,.05,0,.08c-2.56.64-15.07,4.65-19,6.07a62.21,62.21,0,0,1,3-32.77c2-5.45,4.92-11,4.08-16.75-.76-5.22-6.59-9.89-11.13-8.08a1.26,1.26,0,0,1-1.71-.89c-4.64-19.46-19.88-35.53-38.11-43.9-21.17-9.73-46.69-9.72-67.64.48S5.52,38.23,1.25,61.14c-4.85,26,4.93,53,20.87,74.12s37.57,37.07,59.37,52A454.38,454.38,0,0,1,143,237.93a2,2,0,0,0,2.8,0c33.3-33.14,79.42-55.55,110.85-90.43,9.55-10.59,17.63-22.68,22.42-36.11C287,89.16,285.29,63.56,273.91,42.89Z"/></g></g></svg>