<svg xmlns="http://www.w3.org/2000/svg" viewBox="0 0 1000 841.2">
    <path d="M681.77 333a9.79 9.79 0 11-9.79-9.8 9.79 9.79 0 019.79 9.8zm-18.36-203.42a9.79 9.79 0 1013.37-3.58 9.78 9.78 0 00-13.37 3.58zm-172-89.39A9.79 9.79 0 10495 26.81a9.8 9.8 0 00-3.57 13.38zM328 144.43a9.8 9.8 0 10-9.8-9.79 9.8 9.8 0 009.8 9.79zm8.57 193.62a9.79 9.79 0 10-13.38 3.59 9.79 9.79 0 0013.42-3.59zm172 89.39a9.79 9.79 0 10-3.57 13.38 9.78 9.78 0 003.58-13.38zm-28.26 111.27v30.52H466v-17.52h-24.47v83.13h14.33v13.5H412v-13.5h14.32v-83.13h-24.5v17.52h-14.3v-30.52zM258.86 635.8v13.5h-39V636h12.64l-8.12-23.18h-43.3L172.91 636h13.32v13.3h-39v-13.5h10l30.51-82.8H175.6v-13.29h55V553h-12.39l30.48 82.76zM220 600.16l-17.29-47.81-17.34 47.81zm80.65 37.17h-11.47v-110h-26v12.33h11.67v97.64h-11.66v12h37.5zm32.62-110h-26v12.33H319v97.64h-11.68v12h37.5v-12h-11.51zm154.33 110v12h36.15v-12h-10.61v-37.18c6-6.13 13.49-10.81 21.3-10.81 4.33 0 7.66 1.35 9.83 4 1.85 2.34 2.84 5.5 2.84 10.16v33.84h-10.65v12h36.15v-12h-11.19v-37c0-6.66-1.64-12.3-4.81-16.49-3.66-4.82-9.83-7.66-18-7.66-10.16 0-18.64 6-25.46 13.33v-49.83h-26v13h11.61v84.64zm108.12-75a10.66 10.66 0 0010.49-10.48 10.41 10.41 0 10-10.49 10.48zm20.32 75H604.6v-59.8h-26v12.3h11.64v47.5h-11.63v12h37.47zm41.46 0h-10.62v-37.18c6.17-6.13 13.66-10.81 21.48-10.81 5.18 0 8.67 1.84 10.68 5.67a18 18 0 011.65 8.48v33.84H670v12h36.15v-12H695v-37a29.31 29.31 0 00-3.66-15c-3.66-5.67-9.83-9.17-18.8-9.17-10.36 0-19.33 6.5-26.16 13.82v-12.45h-24.83v12.3h11.15v47.5h-11.15v12h36zm132.28-59.79v12.27h-11.14v61c0 8.8-2.33 16-6.66 21.16-6 7.3-15.83 10.68-27.15 10.68-11.86 0-21.3-3.7-26-8.35a11.78 11.78 0 01-3.83-8.67 9.05 9.05 0 019-9.35 8.07 8.07 0 018.35 8.21 8.65 8.65 0 01-1 4 33.06 33.06 0 0012.65 2.3c6.84 0 12.86-2 16.69-6.8 2.33-3 3.65-7.34 3.65-13.18V638.3c-5.7 5.84-12.18 10.18-22.49 10.18-18.48 0-33.49-14.46-33.49-35.68 0-19.8 14.47-36.63 34.68-36.63A31.53 31.53 0 01765 584.7v-7.16zm-25.51 18.11a29.24 29.24 0 00-19.16-7c-13 0-22.17 9.67-22.17 24s9.17 23.5 21.85 23.5c7.8 0 14.28-3.7 19.48-9zm59.13 55.17c15.64 0 29.33-8 29.33-22.33 0-13.49-11.35-17.65-26.85-21.67-11.48-3-17-5.15-17-10.49 0-4.65 5-9.17 14.19-9.17a28.4 28.4 0 0111.47 2.18 9.61 9.61 0 00-.66 3.66c0 4.84 3.66 8 8.68 8 4.48 0 7.65-3.33 7.65-8.51a12 12 0 00-3.66-8.67c-4.68-4.65-14-7.66-23.32-7.66-18.34 0-28.17 10.49-28.17 21.51 0 12.83 9.83 17.32 28.17 22 10.65 2.67 15.8 5.18 15.8 10.32 0 6.33-7 9.66-15.64 9.66-6.66 0-12-1.64-14.67-3.33a9 9 0 00.66-3.66c0-5.14-3.83-8.31-8.48-8.31-4.85 0-8.18 4-8.18 8.64a12.67 12.67 0 004 9.34c4.89 4.83 15.87 8.49 26.72 8.49zm-718.8 71.74A10.68 10.68 0 00115.12 712a10.41 10.41 0 10-10.48 10.53zm-19.33 55.17c0 17.65-14.28 30.34-39.47 30.34H0v-13.51h13.32v-82.62H0v-13.5h43.8c26.5 0 38.32 12.82 38.32 28.14 0 13-8.17 21.49-19.48 25.19 14.14 3.97 22.63 12.13 22.63 25.96zm-56.94-31.48H43c15.64 0 23.81-7.17 23.81-18 0-10.49-8.3-16.65-23.31-16.65H28.33zm41.61 30.47c0-12-9.67-18.29-26-18.29H28.33v36.45h17.79c14.88 0 23.82-6.98 23.82-18.16zm45.33-40.48h-26v12.34h11.64V796H89.28v12h37.47v-12h-11.48zm67-1.32c-8.35 0-16.66 7.82-22.33 17.65v-16.33H135.1v12.34h11.14V796H135.1v12h38.45v-12h-13.16v-32.61c3.5-6.83 9.67-12.8 15-14.48a10.14 10.14 0 009.5 6.17c5 0 9.17-4.49 9.17-9.67.01-5.67-4.01-10.49-11.83-10.49zm43.8-21l-14.31 5.84v16.49h-13.67a16.89 16.89 0 012.58 9.17 14.39 14.39 0 01-.33 3.17h11.38v41.29a25.33 25.33 0 002.14 10.53c3.17 6.16 9.33 9 17.35 9 1.58 0 4.85-.13 8.15-.33v-12.71h-4.16c-4.16 0-6.83-1.15-8.18-3.49a13 13 0 01-1-5.48v-38.82h14.18v-12.34H226zm93.13 45.16c0-6.66-1.65-12.34-4.82-16.49-3.66-4.82-9.83-7.66-18-7.66-10.16 0-18.63 6-25.49 13.33v-62.15h-25.52v12.33h11.15V796h-11.15v12h36.15v-12h-10.68v-37.1c6-6.16 13.52-10.82 21.34-10.82 4.32 0 7.65 1.32 9.82 4 1.82 2.34 2.84 5.5 2.84 10.15V796h-10.65v12h36.15v-12h-11.18zm155.31 58.21c-6.75 2.92-13.91 1.83-21.58-2.51a61.44 61.44 0 01-8.57-6.16l-14.83-13a48 48 0 01-34.31 14c-23.45 0-35.45-12.46-35.45-28 0-13.32 8.81-23 22.31-30.29-9.49-10.5-11-16.84-11-24 0-11.82 9.81-25.5 27.83-25.5 15.65 0 26.64 9.35 26.64 23.17 0 12-8 20.3-23.31 28.47 2.32 2.33 4.79 4.84 8 7.67 0 0 12.32 11.17 18.34 16.83a69.23 69.23 0 007.17-15h-9.18v-11.89h30.85v12.14h-9.68c-2.69 8.71-5.84 16.33-10 22.67 5.93 5.52 14.1 12.78 20.76 17.8 4 2.51 6.8 3.24 9.26 3.1a8.35 8.35 0 014.88-8.62c4-1.74 8.35-.32 10.41 4.42 2.19 5.2-1.28 11.59-8.58 14.69zm-88.78-89.65c0 4.29 1.19 9.27 8.67 18.3 11.5-6.53 16.47-12.18 16.47-21 0-6.34-4.65-11.5-11.95-11.5-8.07 0-13.23 6.8-13.23 14.19zm34.49 59.77c-6.16-5.84-18.79-17.52-18.79-17.52-4.52-4-8.35-7.62-11.55-10.81-9.62 5.7-15.32 12.5-15.32 21.67 0 8 7.2 16.51 20.66 16.51a36 36 0 0024.96-9.86zm174.42-9.67c0 17.65-14.37 30.34-39.51 30.34h-45.85v-13.52h13.33v-82.62h-13.33v-13.5h43.8c26.51 0 38.32 12.82 38.32 28.14 0 13-8.16 21.49-19.48 25.19 14.15 3.97 22.68 12.13 22.68 25.96zm-57-31.48h14.69c15.69 0 23.82-7.17 23.82-18 0-10.49-8.31-16.65-23.32-16.65h-15.26zm41.7 30.47c0-12-9.67-18.29-26-18.29h-15.77v36.45h17.88c14.79-.01 23.82-6.99 23.82-18.17zm91.43 0h-53.91c2 13.69 12 20.35 26 20.35 9.17 0 17-2.83 25.5-7.71l-1.19 13.19c-7.48 4.69-16.65 6.84-26.5 6.84-23.13 0-38.78-15-38.78-37 0-20.17 13.82-37.46 35.63-37.46 22.17 0 33.85 15.83 33.85 34.13a48.36 48.36 0 01-.67 7.65zM657 766.05c-.64-11.45-7.62-19.3-19.8-19.3-9.67 0-18.48 6.3-20.35 19.3zm98.47-29.81h-34.65v11.84h11.51l-19 42.65c0-.36-18.67-42.65-18.67-42.65h11v-11.84h-35v12.34H680l26.49 55.64-4.82 10c-1.68 3.33-3.16 6-4.51 8.14-2.68 3.86-5 5.68-7.33 6.5a8.3 8.3 0 00-7.81-6c-4.36 0-7.85 3-7.85 8.18 0 5.67 5.67 10.16 13.65 10.16 7.36 0 13.49-3.83 18.84-10.82a75.05 75.05 0 005.67-9.67l33.81-72.13h9.33zm73.3 36c0 20-14.87 37.18-37.46 37.18-23 0-37.5-17-37.5-37.18s14.65-37.28 37.5-37.28 37.47 16.94 37.47 37.25zm-14.87 0c0-14.65-9.27-25.14-22.59-25.14-13.55 0-22.85 10.49-22.85 25.14s9.3 25 22.85 25c13.33-.03 22.6-10.34 22.6-25.03zm91-13.14a29.48 29.48 0 00-3.66-15c-3.7-5.67-9.83-9.17-18.84-9.17-10.32 0-19.32 6.5-26.15 13.82v-12.5h-24.81v12.34h11.18V796h-11.18v12h36v-12h-10.67v-37.1c6.17-6.16 13.66-10.82 21.51-10.82 5.14 0 8.64 1.82 10.65 5.64a18.16 18.16 0 011.65 8.51V796h-10.65v12h36.15v-12h-11.15zM1000 796v12.05h-25.28v-9.15c-5.65 6-12.81 10.49-22.81 10.49-19 0-33.71-15-33.71-36.82 0-20.48 14.55-37.64 35-37.64a31.38 31.38 0 0121.3 7.8v-44.29h-12.28v-12.32h26.65V796zm-25.46-41.61a31 31 0 00-19.66-7c-12.32 0-21.81 9.81-22 25 0 15 9.49 24.5 21.62 24.5 8.22 0 14.69-3.83 20-9.17zM620.45 132c0-.87.12-1.74.2-2.61.2-2.79.33-5.59.33-8.43a121.2 121.2 0 00-9.56-47.13c-1.42-3.43-3.11-6.83-4.88-10.1-1.33-2.45-2.75-4.84-4.24-7.19-2.75-.11-5.5-.15-8.27-.08-3.76.11-7.52.38-11.28.85a119 119 0 00-18.41 3.75 120.44 120.44 0 00-53.43 32A135.83 135.83 0 01520.4 107a104 104 0 0172.38-34 104.2 104.2 0 016.8 79.6 133.22 133.22 0 0116.82 1.25 120.4 120.4 0 004.05-21.85zM417.26 57.31q-5.6-.69-11.21-.84c-2.79-.08-5.57 0-8.34.07-1.48 2.33-2.89 4.69-4.2 7.12-1.79 3.31-3.44 6.71-4.92 10.2a120.69 120.69 0 00-5 80.08 136 136 0 0116.82-1.25A103.84 103.84 0 01407.23 73a104.18 104.18 0 0172.33 33.91A136.28 136.28 0 01489.05 93a119.42 119.42 0 00-16.89-14.43c-.73-.48-1.45-1-2.16-1.48-2.32-1.57-4.68-3.08-7.13-4.5a121 121 0 00-27.16-11.52 119.55 119.55 0 00-18.45-3.76zM495.71.14h4.26V0c-1.39 0-2.8.07-4.26.14zm183 83.21a46.75 46.75 0 00-5.52-.41h-1.37a49.33 49.33 0 00-13.92 2 216.23 216.23 0 00-25.75-23.44c-4.29-3.33-8.72-6.48-13.33-9.44A204.46 204.46 0 00597.93 40c-4.93-2.51-9.95-4.89-15.06-7a216.94 216.94 0 00-33-10.63q-9.3-2.2-18.87-3.57a16.79 16.79 0 011.37 2.87 34.74 34.74 0 012.69 13.41v1.05a23.76 23.76 0 01-.37 4 35 35 0 01-34.63 30v.13a34.74 34.74 0 01-18.62-5.42c-.68-.51-1.41-1-2.14-1.46a35 35 0 01-14-23.19 35.7 35.7 0 01-.36-4c0-.32-.05-.68-.05-1a34.38 34.38 0 012.74-13.55 30.74 30.74 0 011.37-2.75A35.16 35.16 0 01500 .14V0c2.06 0 4.15.14 6.21.18a232.89 232.89 0 0185.68 18.71A234.84 234.84 0 01640 46.76a232 232 0 0138.73 36.59zM518.59 35v-1.09A18.64 18.64 0 00500 16.52v.09A18.61 18.61 0 00481.45 34v1.18A18.62 18.62 0 00500 53.79v-.14a18.62 18.62 0 0018.57-18.57zM350.14 199.6A104 104 0 01380 188a133.41 133.41 0 01-7.33-15.19 119.68 119.68 0 00-21 7.41c-.78.4-1.57.77-2.36 1.13-2.51 1.23-5 2.51-7.46 3.93a120.72 120.72 0 00-23.55 17.76 119.45 119.45 0 00-12.49 14.09q-3.39 4.52-6.33 9.29c-1.46 2.37-2.82 4.81-4.11 7.26 1.28 2.44 2.62 4.85 4.07 7.2q3 4.82 6.37 9.36a120.69 120.69 0 0066.87 44.34 137.21 137.21 0 017.33-15.2 103.85 103.85 0 01-65.6-45.7 103.75 103.75 0 0135.69-34.12zm109-195.81A45.84 45.84 0 00456 8.35c-.23.36-.46.77-.69 1.14a51.48 51.48 0 00-5.29 13 221.44 221.44 0 00-33.08 10.68c-5.06 2-10 4.33-14.82 6.8a211.41 211.41 0 00-21 12q-6.92 4.52-13.55 9.58a215.53 215.53 0 00-25.67 23.31c-4.34 4.61-8.58 9.44-12.55 14.51 1.09 0 2.14.13 3.24.27A34.72 34.72 0 01345.5 104c.32.18.59.41.91.59 1.14.73 2.24 1.46 3.29 2.28a35.15 35.15 0 018.66 45l.1.09a35.07 35.07 0 01-14 13.46c-.78.32-1.55.69-2.33 1.1a35.06 35.06 0 01-27 .45 36.2 36.2 0 01-3.69-1.68c-.27-.19-.59-.32-.87-.51a33.75 33.75 0 01-10.35-9.12 18.72 18.72 0 01-1.74-2.51 35 35 0 01-.73-36.22c-.73 1.23-1.46 2.41-2.14 3.65.64-1.24 1.32-2.51 2-3.75 1.09-1.82 2.14-3.55 3.23-5.33a236.21 236.21 0 0159.09-64.83A229.38 229.38 0 01408.09 19a234.75 234.75 0 0151.05-15.21zM311.88 125.1l.13.09a18.58 18.58 0 005.75 24.73c.32.18.55.41.91.59a.24.24 0 00.14 0 18.57 18.57 0 0025.37-6.75l-.1-.09a18.59 18.59 0 00-6.84-25.37 6.51 6.51 0 00-1-.55 18.63 18.63 0 00-24.36 7.35zm76.71 268.49c1.47 3.46 3.11 6.84 4.88 10.13 1.33 2.45 2.75 4.84 4.24 7.19 2.75.11 5.5.15 8.27.08q5.64-.17 11.28-.85a119 119 0 0018.41-3.75 120.44 120.44 0 0053.43-32 135.45 135.45 0 01-9.49-13.95 103.94 103.94 0 01-72.38 34 104.2 104.2 0 01-6.8-79.6 135.11 135.11 0 01-16.82-1.25 120.29 120.29 0 00-4.05 21.84c-.05.88-.12 1.75-.2 2.62-.2 2.79-.33 5.59-.33 8.42a121.2 121.2 0 009.56 47.14zm-25.48-59.31c-.09.86-.14 1.73-.18 2.6a35.13 35.13 0 01-13.14 23.63 34.3 34.3 0 01-3.29 2.33c-.32.18-.54.36-.86.54a34.84 34.84 0 01-13.1 4.38c-1 .14-2.05.23-3.05.28a35.13 35.13 0 01-31.76-17.48c.73 1.24 1.37 2.42 2.15 3.65-.78-1.18-1.55-2.41-2.28-3.6-1.05-1.83-2-3.7-3-5.48a233 233 0 01-26.6-83.58 234.4 234.4 0 0112.45-107.39c.69 1.69 1.51 3.33 2.37 5 .23.37.41.82.64 1.19a51.94 51.94 0 008.67 11.08 215.53 215.53 0 00-7.34 34c-.73 5.39-1.24 10.77-1.56 16.24a226.76 226.76 0 000 24.18c.32 5.52.82 11.05 1.55 16.52a209.1 209.1 0 007.3 33.85c1.82 6.11 3.92 12.14 6.3 18.16.59-.91 1.18-1.78 1.82-2.65a34.66 34.66 0 0110.31-9c.27-.18.59-.27.91-.46a30.28 30.28 0 013.65-1.73 35.18 35.18 0 0143.34 15h.1a34.89 34.89 0 014.6 18.74zM346.69 333a18.72 18.72 0 00-2.51-9.26l-.1.05a18.67 18.67 0 00-25.41-6.8v.09a4.17 4.17 0 00-.91.59 18.62 18.62 0 00-5.84 24.73l.13-.09v.05a18.55 18.55 0 0024.27 7.34 6.68 6.68 0 001-.5h.14a18.72 18.72 0 009.23-16.2zm236.06 77.19q5.6.69 11.21.84c2.79.08 5.57 0 8.34-.07 1.48-2.33 2.89-4.69 4.2-7.12 1.79-3.31 3.44-6.71 4.92-10.2a120.69 120.69 0 005-80.08 137.93 137.93 0 01-16.82 1.25 103.89 103.89 0 01-6.78 79.66 104.29 104.29 0 01-72.33-33.91 136.28 136.28 0 01-9.49 13.89 119.42 119.42 0 0016.89 14.43c.73.48 1.45 1 2.16 1.48 2.32 1.56 4.68 3.08 7.13 4.5a121 121 0 0045.61 15.28zm-47.64 22.09a34.38 34.38 0 01-2.74 13.55 22.76 22.76 0 01-1.32 2.78 35.11 35.11 0 01-31 18.75c1.42 0 2.83.05 4.29 0-1.46.09-2.87.09-4.29.09-2.1 0-4.19-.09-6.2-.13a232.84 232.84 0 01-85.73-18.71 232.65 232.65 0 01-86.77-64.46c1.78.22 3.65.36 5.47.41h1.37a51.54 51.54 0 0013.92-1.91A220.17 220.17 0 00367.85 406c4.29 3.33 8.76 6.43 13.33 9.44a208.85 208.85 0 0020.89 12.09c4.93 2.51 9.95 4.88 15.06 7a218.75 218.75 0 0033 10.63c6.21 1.46 12.5 2.65 18.89 3.61-.5-1-1-1.92-1.37-2.92a34.75 34.75 0 01-2.69-13.42v-1a30.19 30.19 0 01.37-4 35.09 35.09 0 0134.67-30v-.14a34.75 34.75 0 0118.62 5.43c.73.51 1.41 1 2.14 1.46a35 35 0 0113.92 23.18 38.78 38.78 0 01.36 4c.02.18.07.55.07.87zm-16.52 0a18.49 18.49 0 00-5.43-13.14 18.7 18.7 0 00-13.16-5.48v.14a18.59 18.59 0 00-18.57 18.56v.1a8 8 0 00.05 1.09A18.61 18.61 0 00500 450.93v-.09a18.61 18.61 0 0018.53-17.38 10.11 10.11 0 000-1.1zm131.28-164.44A103.78 103.78 0 01620 279.41a133.41 133.41 0 017.33 15.19 119.68 119.68 0 0020.95-7.41c.78-.4 1.56-.77 2.36-1.14 2.51-1.22 5-2.51 7.46-3.92a120.72 120.72 0 0023.55-17.76 119.45 119.45 0 0012.49-14.09q3.39-4.51 6.33-9.29c1.46-2.38 2.82-4.81 4.11-7.27-1.28-2.43-2.62-4.84-4.07-7.19q-3-4.82-6.37-9.36a120.69 120.69 0 00-66.87-44.34A137.92 137.92 0 01620 188a103.89 103.89 0 0165.6 45.71 103.64 103.64 0 01-35.69 34.11zM610.7 297.6h-.14a125.72 125.72 0 01-18 .59A120.92 120.92 0 01522 271.73a118.77 118.77 0 011.34 21.27 121.54 121.54 0 01-4.11 28.42c-.46 1.78-1 3.51-1.55 5.25A122 122 0 01500 361.56v-.09a119.15 119.15 0 01-9.53-15.33 125.29 125.29 0 01-8.12-19.53 123.37 123.37 0 01-5.64-33.61 127.62 127.62 0 011.37-21.26 121.48 121.48 0 01-44.39 22.45c-1.78.46-3.56.87-5.34 1.28a117.89 117.89 0 01-21 2.73 111.65 111.65 0 01-18-.59h.05a120.75 120.75 0 018.48-15.88 126 126 0 0112.87-16.84A122.6 122.6 0 01437 243.21a119.94 119.94 0 0119.07-9.44 120 120 0 01-41.61-27.24c-1.32-1.32-2.6-2.6-3.83-4a118.38 118.38 0 01-12.82-16.83 111.39 111.39 0 01-8.53-15.88h.09a124.27 124.27 0 0118-.59 123 123 0 0121 2.74 121.57 121.57 0 0131.94 11.9A120.27 120.27 0 01478 195.72a118.57 118.57 0 01-1.37-21.21 121.57 121.57 0 014.14-28.51c.5-1.78 1-3.56 1.55-5.29a122 122 0 018.17-19.53 110.89 110.89 0 019.51-15.24v.06a119.86 119.86 0 019.49 15.33 127.33 127.33 0 018.12 19.53 121.42 121.42 0 015.66 33.58 123.29 123.29 0 01-1.37 21.26 116.06 116.06 0 0117.75-11.78 121.58 121.58 0 0126.64-10.67c1.78-.46 3.56-.87 5.39-1.28a117.69 117.69 0 0120.94-2.74 112.81 112.81 0 0118 .6h.09-.14a120.82 120.82 0 01-21.35 32.71A122.27 122.27 0 01563 224.23a119.15 119.15 0 01-19.07 9.45 120.55 120.55 0 0141.65 27.24c1.28 1.32 2.56 2.64 3.79 4a119 119 0 0112.82 16.84 112.4 112.4 0 018.51 15.84zm-94.12-73.46c2-.32 3.88-.68 5.8-1.09h.09c3.56-.82 7.07-1.78 10.49-2.92A105.21 105.21 0 00580.91 187 104.25 104.25 0 00537 205a105.65 105.65 0 00-8.67 6.89 104.14 104.14 0 00-7.89 7.71v.09c-1.35 1.49-2.62 2.9-3.86 4.45zm-22.9-36.77a100.69 100.69 0 001.6 10.95 95.35 95.35 0 002.78 10.59c0 .09 0 .13.05.13.59 1.87 1.18 3.7 1.91 5.52.69-1.82 1.33-3.65 1.87-5.52a.15.15 0 00.05-.13 87.69 87.69 0 002.74-10.5 102.9 102.9 0 001.68-11.18c.32-3.19.46-6.43.46-9.67a105.76 105.76 0 00-6.8-37.27 104.59 104.59 0 00-6.34 47.08zm-10.26 55.93c-2 .32-3.88.69-5.75 1.1h-.09c-3.61.82-7.12 1.78-10.54 2.92a97.47 97.47 0 00-10.45 4.15 104 104 0 00-20.44 12.37 106.73 106.73 0 00-17.06 16.6 105.42 105.42 0 0043.89-18c3-2.14 5.93-4.47 8.71-6.89s5.34-5 7.85-7.71a.19.19 0 010-.09c1.37-1.48 2.64-2.94 3.88-4.45zm0-19.16c-1.24-1.55-2.51-3-3.84-4.42v-.09c-2.51-2.69-5.11-5.25-7.8-7.62a94.23 94.23 0 00-8.81-7A103.86 103.86 0 00442 193.49a106.72 106.72 0 00-22.9-6.48 104.78 104.78 0 0037.59 29 108.58 108.58 0 0020.9 7h.09q2.86.66 5.74 1.13zm22.9 56a97.91 97.91 0 00-1.6-10.95 96.7 96.7 0 00-2.78-10.67c0-.05 0-.05-.05-.09-.59-1.87-1.18-3.7-1.87-5.52-.73 1.82-1.32 3.65-1.91 5.52-.05 0-.05 0-.05.09a99.07 99.07 0 00-2.74 10.48 94 94 0 00-1.64 11.17 103.89 103.89 0 006.34 46.9 104.71 104.71 0 006.3-46.95zm3.37-47.72a9.79 9.79 0 10-9.76 9.81 9.77 9.77 0 009.76-9.83zm71.22 48a104.56 104.56 0 00-37.55-29 97.45 97.45 0 00-10.36-4.05 98.78 98.78 0 00-10.54-3h-.14c-1.87-.41-3.78-.78-5.75-1.1 1.28 1.51 2.51 3 3.84 4.43v.09c2.51 2.69 5.11 5.25 7.8 7.62a99.75 99.75 0 008.81 7A103.86 103.86 0 00558 274a102.31 102.31 0 0022.91 6.44zm151-18.93a235.36 235.36 0 01-12.36 51.83 42.56 42.56 0 00-2.37-5c-.23-.37-.41-.82-.64-1.19a52.75 52.75 0 00-8.62-11.13 215.06 215.06 0 007.3-34c.73-5.39 1.24-10.82 1.56-16.25a226.76 226.76 0 000-24.18c-.32-5.52-.82-11-1.55-16.51a214.15 214.15 0 00-7.23-33.79c-1.83-6.12-3.93-12.18-6.35-18.16-.59.91-1.18 1.78-1.82 2.65a34.8 34.8 0 01-10.31 9 5.5 5.5 0 01-.91.45 24.4 24.4 0 01-3.61 1.69 35 35 0 01-43.34-15l-.14.09a34.72 34.72 0 01-4.6-18.84c0-.86.09-1.73.18-2.6a35.63 35.63 0 0116.42-26l.82-.55a35.27 35.27 0 0113.1-4.42c1-.14 2-.18 3-.23a35.11 35.11 0 0131.57 17.2c-.63-1.18-1.23-2.28-1.91-3.42.73 1.23 1.5 2.42 2.23 3.69 1.05 1.78 2 3.65 3 5.48a232.06 232.06 0 0126.55 139.15zM688.12 125.1l-.09.09a18.59 18.59 0 00-24.27-7.34 4.42 4.42 0 00-1 .5.19.19 0 00-.14 0 18.71 18.71 0 00-6.8 25.42l.14-.09a18.59 18.59 0 0025.37 6.84h.09a6.46 6.46 0 01.91-.59 18.65 18.65 0 005.79-24.83zm16.29 221.72c-.64 1.28-1.28 2.51-2 3.79l-.09-.09c.05-.09.09-.13.14-.23.67-1.23 1.36-2.29 1.95-3.47zm-2.1 3.65l.09.09c-1 1.78-2.14 3.51-3.23 5.25A232 232 0 01678.86 384a232.29 232.29 0 01-87 64.42 234.8 234.8 0 01-51.06 15.24 51.27 51.27 0 003.2-4.56c.23-.37.5-.78.73-1.14A52.52 52.52 0 00550 445a221.1 221.1 0 0033.08-10.68c5.06-2.1 10-4.33 14.87-6.8a218.61 218.61 0 0020.94-12c4.61-3.06 9.12-6.21 13.55-9.58a213.19 213.19 0 0025.68-23.22c4.38-4.66 8.58-9.49 12.55-14.56-1 0-2.14-.13-3.19-.27a35 35 0 01-13-4.38c-.32-.18-.59-.41-.91-.59a26.93 26.93 0 01-3.24-2.29 35.09 35.09 0 01-8.67-45.07h-.14l.05-.05a34.56 34.56 0 0114-13.41c.78-.36 1.55-.77 2.33-1.14a35.2 35.2 0 0127-.46 40 40 0 013.65 1.69c.27.18.59.28.87.5a34.75 34.75 0 0110.4 9.08 28.73 28.73 0 011.73 2.56 35.09 35.09 0 01.87 36c-.02.01-.06.05-.11.14zM688 342.26a18.56 18.56 0 00-5.71-24.73c-.31-.18-.59-.41-.91-.59a.15.15 0 00-.13-.05 18.54 18.54 0 00-25.37 6.8l.09.05a18.58 18.58 0 006.8 25.41 5.26 5.26 0 001 .5 18.56 18.56 0 0024.31-7.3l-.09-.09zm-96.14-108.07a54.68 54.68 0 0021.14 5.65 53.42 53.42 0 0015.33-1.31 54.57 54.57 0 0012.16-4.34c.82-.4 1.77-.74 1.93-1.84-.35-1.06-1.3-1.37-2.12-1.77a55.89 55.89 0 00-24.19-5.67 49 49 0 00-7.93.64 52.77 52.77 0 00-16.68 5.3 2.51 2.51 0 00-1.55 1.54c.61 1.11.66 1.17 1.91 1.8zm-183.49-.84a54.52 54.52 0 00-22-5.8 53.36 53.36 0 00-13 1 55.26 55.26 0 00-13.94 4.72c-.78.39-1.66.72-1.84 1.74.62 1.11.62 1.11 2 1.81a55.44 55.44 0 0024.41 5.67 51.49 51.49 0 009.9-1 53.64 53.64 0 0014.56-4.94c.68-.35 1.4-.69 1.6-1.56-.15-.99-.97-1.28-1.69-1.64zm46.18-79A61.16 61.16 0 00453 144a54.56 54.56 0 00-22.78-32.21 3.58 3.58 0 00-2.26-.91c-1 .5-.94 1.44-.87 2.31a59.92 59.92 0 001.62 10.32 54.37 54.37 0 0022.26 31.81 4.87 4.87 0 002.71 1.25c.95-.41.95-1.32.87-2.21zm90.9 158.77a58.35 58.35 0 002.55 13.67 54.54 54.54 0 0021.72 28.74 3.48 3.48 0 002.36 1c1-.53.91-1.4.85-2.22a58.67 58.67 0 00-2.62-13.83A54.2 54.2 0 00549 312a4.39 4.39 0 00-2.76-1.19c-.81 1.03-.88 1.19-.79 2.32zm-112.7 43.48a54.35 54.35 0 0018.94-22.2 51.1 51.1 0 005-20 2.64 2.64 0 00-.4-2.07c-.88-.6-1.58 0-2.26.42a48.73 48.73 0 00-6.95 5.36 54.42 54.42 0 00-17 30.67 35.69 35.69 0 00-.78 6.91c0 .72 0 1.46.82 1.94 1.05.24 1.82-.47 2.63-1.02zm113.38-202c1.37-.95 2.75-1.87 4-2.92A54.39 54.39 0 00570 118.46a36.34 36.34 0 00.75-6.75c0-.78 0-1.59-.89-2a3.67 3.67 0 00-2.53 1.05 54.4 54.4 0 00-22.8 33.47 38.51 38.51 0 00-1.14 9.2c0 .71-.07 1.47.83 1.81a2.83 2.83 0 001.91-.68z" fill="#5e3f62" data-name="Layer 2"/>
</svg>
