<svg xmlns="http://www.w3.org/2000/svg" viewBox="0 0 270.4 19.64"><defs><style>.cls-1{fill:#2daed2;}</style></defs><title>ofsted</title><g id="Layer_2" data-name="Layer 2"><g id="Layer_1-2" data-name="Layer 1"><path class="cls-1" d="M9.94,0a9.52,9.52,0,0,1,9.94,9.7,9.64,9.64,0,0,1-9.94,9.94A9.64,9.64,0,0,1,0,9.7,9.52,9.52,0,0,1,9.94,0Zm0,15.39c3,0,5.13-2.45,5.13-5.69a5.14,5.14,0,1,0-10.26,0C4.81,12.94,6.94,15.39,9.94,15.39Z"/><path class="cls-1" d="M22.56,1.78A1.31,1.31,0,0,1,24,.32h8.72a1.31,1.31,0,0,1,1.46,1.46V2.84a1.31,1.31,0,0,1-1.46,1.46H27.22v4h4.33A1.31,1.31,0,0,1,33,9.75v1.06a1.31,1.31,0,0,1-1.46,1.46H27.22v5.58a1.31,1.31,0,0,1-1.46,1.46H24a1.31,1.31,0,0,1-1.46-1.46Z"/><path class="cls-1" d="M35.88,15.74l.82-1.2c.53-.77,1.14-.82,2-.35a6.9,6.9,0,0,0,3.46,1.17c1.38,0,2-.58,2-1.33,0-2.68-8.4-2.26-8.4-8.21C35.8,2.31,38.72,0,42.58,0a9.78,9.78,0,0,1,5.13,1.41,1.4,1.4,0,0,1,.45,2l-.64,1.25c-.53,1-1.25.88-2,.51a6.44,6.44,0,0,0-3-.88c-1.46,0-2.07.58-2.07,1.33,0,2.76,8.4,2.1,8.4,8.11,0,3.19-2.39,5.93-6.67,5.93a10.62,10.62,0,0,1-6-1.89A1.29,1.29,0,0,1,35.88,15.74Z"/><path class="cls-1" d="M55.65,4.31H51.35a1.31,1.31,0,0,1-1.46-1.46V1.78A1.31,1.31,0,0,1,51.35.32H64.61a1.31,1.31,0,0,1,1.46,1.46V2.84a1.31,1.31,0,0,1-1.46,1.46H60.3V17.86a1.31,1.31,0,0,1-1.46,1.46H57.12a1.31,1.31,0,0,1-1.46-1.46Z"/><path class="cls-1" d="M68.06,1.78A1.31,1.31,0,0,1,69.53.32h9A1.31,1.31,0,0,1,80,1.78V2.84a1.31,1.31,0,0,1-1.46,1.46H72.71V7.76H77a1.31,1.31,0,0,1,1.46,1.46v1.06A1.31,1.31,0,0,1,77,11.75H72.71v3.59h6.17a1.31,1.31,0,0,1,1.46,1.46v1.06a1.31,1.31,0,0,1-1.46,1.46H69.53a1.31,1.31,0,0,1-1.46-1.46Z"/><path class="cls-1" d="M82.95,1.78A1.31,1.31,0,0,1,84.41.32H89.7c6,0,9.81,3.48,9.81,9.46s-3.83,9.54-9.81,9.54H84.41a1.31,1.31,0,0,1-1.46-1.46Zm6.57,13.56c3.22,0,5.18-1.91,5.18-5.56s-2-5.48-5.18-5.48H87.6v11Z"/><path class="cls-1" d="M115.53,1.78A1.31,1.31,0,0,1,117,.32h5.16a9.82,9.82,0,0,1,3.69.45,5.52,5.52,0,0,1,3.51,5.53,5.79,5.79,0,0,1-2.84,5.18v.05a10.75,10.75,0,0,1,.72,1.14l2.71,4.89c.58,1,.13,1.75-1,1.75h-2a1.8,1.8,0,0,1-1.73-1l-2.82-5.37h-2.18v4.94a1.31,1.31,0,0,1-1.46,1.46H117a1.31,1.31,0,0,1-1.46-1.46Zm6.67,7.15a2.18,2.18,0,0,0,2.42-2.34,1.87,1.87,0,0,0-1.12-2,4.42,4.42,0,0,0-1.75-.27h-1.57V8.93Z"/><path class="cls-1" d="M132.54,1.78A1.31,1.31,0,0,1,134,.32h9a1.31,1.31,0,0,1,1.46,1.46V2.84A1.31,1.31,0,0,1,143,4.31h-5.79V7.76h4.33A1.31,1.31,0,0,1,143,9.22v1.06a1.31,1.31,0,0,1-1.46,1.46h-4.33v3.59h6.17a1.31,1.31,0,0,1,1.46,1.46v1.06a1.31,1.31,0,0,1-1.46,1.46H134a1.31,1.31,0,0,1-1.46-1.46Z"/><path class="cls-1" d="M156,0a11.58,11.58,0,0,1,6.17,1.67,1.31,1.31,0,0,1,.37,2l-.69,1.09c-.5.8-1.14.85-2,.4a7,7,0,0,0-3.54-.93,5.07,5.07,0,0,0-5.48,5.42,5.4,5.4,0,0,0,5.4,5.71,5,5,0,0,0,3.91-1.54v-1.3h-1.22a1.31,1.31,0,0,1-1.46-1.46V10a1.31,1.31,0,0,1,1.46-1.46h3.88A1.31,1.31,0,0,1,164.25,10v7.81a1.31,1.31,0,0,1-1.46,1.46h-.88c-1,0-1.46-.5-1.46-1.14v-.05a1.22,1.22,0,0,1,0-.27h-.05a7.13,7.13,0,0,1-5.05,1.78A9.32,9.32,0,0,1,146,9.94,9.6,9.6,0,0,1,156,0Z"/><path class="cls-1" d="M167.17,1.78A1.31,1.31,0,0,1,168.63.32h1.73a1.31,1.31,0,0,1,1.46,1.46V17.86a1.31,1.31,0,0,1-1.46,1.46h-1.73a1.31,1.31,0,0,1-1.46-1.46Z"/><path class="cls-1" d="M174.88,15.74l.82-1.2c.53-.77,1.14-.82,2-.35a6.89,6.89,0,0,0,3.46,1.17c1.38,0,2-.58,2-1.33,0-2.68-8.4-2.26-8.4-8.21,0-3.51,2.92-5.82,6.78-5.82a9.78,9.78,0,0,1,5.13,1.41,1.4,1.4,0,0,1,.45,2l-.64,1.25c-.53,1-1.25.88-2,.51a6.44,6.44,0,0,0-3-.88c-1.46,0-2.07.58-2.07,1.33,0,2.76,8.4,2.1,8.4,8.11,0,3.19-2.39,5.93-6.67,5.93a10.62,10.62,0,0,1-6-1.89A1.29,1.29,0,0,1,174.88,15.74Z"/><path class="cls-1" d="M194.65,4.31h-4.31a1.31,1.31,0,0,1-1.46-1.46V1.78A1.31,1.31,0,0,1,190.35.32h13.26a1.31,1.31,0,0,1,1.46,1.46V2.84a1.31,1.31,0,0,1-1.46,1.46H199.3V17.86a1.31,1.31,0,0,1-1.46,1.46h-1.73a1.31,1.31,0,0,1-1.46-1.46Z"/><path class="cls-1" d="M207.06,1.78A1.31,1.31,0,0,1,208.52.32h9A1.31,1.31,0,0,1,219,1.78V2.84a1.31,1.31,0,0,1-1.46,1.46h-5.79V7.76H216a1.31,1.31,0,0,1,1.46,1.46v1.06A1.31,1.31,0,0,1,216,11.75h-4.33v3.59h6.17a1.31,1.31,0,0,1,1.46,1.46v1.06a1.31,1.31,0,0,1-1.46,1.46h-9.36a1.31,1.31,0,0,1-1.46-1.46Z"/><path class="cls-1" d="M221.95,1.78A1.31,1.31,0,0,1,223.41.32h5.16a9.82,9.82,0,0,1,3.69.45,5.52,5.52,0,0,1,3.51,5.53,5.79,5.79,0,0,1-2.84,5.18v.05a10.75,10.75,0,0,1,.72,1.14l2.71,4.89c.58,1,.13,1.75-1,1.75h-2a1.8,1.8,0,0,1-1.73-1l-2.82-5.37H226.6v4.94a1.31,1.31,0,0,1-1.46,1.46h-1.73a1.31,1.31,0,0,1-1.46-1.46Zm6.67,7.15A2.18,2.18,0,0,0,231,6.59a1.87,1.87,0,0,0-1.12-2,4.42,4.42,0,0,0-1.75-.27H226.6V8.93Z"/><path class="cls-1" d="M239,1.78A1.31,1.31,0,0,1,240.42.32h9a1.31,1.31,0,0,1,1.46,1.46V2.84a1.31,1.31,0,0,1-1.46,1.46h-5.79V7.76h4.33a1.31,1.31,0,0,1,1.46,1.46v1.06a1.31,1.31,0,0,1-1.46,1.46h-4.33v3.59h6.17a1.31,1.31,0,0,1,1.46,1.46v1.06a1.31,1.31,0,0,1-1.46,1.46h-9.36A1.31,1.31,0,0,1,239,17.86Z"/><path class="cls-1" d="M253.84,1.78A1.31,1.31,0,0,1,255.3.32h5.29c6,0,9.81,3.48,9.81,9.46s-3.83,9.54-9.81,9.54H255.3a1.31,1.31,0,0,1-1.46-1.46Zm6.57,13.56c3.22,0,5.18-1.91,5.18-5.56s-2-5.48-5.18-5.48h-1.91v11Z"/></g></g></svg>