<?xml version="1.0" standalone="no"?>
<!DOCTYPE svg PUBLIC "-//W3C//DTD SVG 1.1//EN" "http://www.w3.org/Graphics/SVG/1.1/DTD/svg11.dtd" >
<svg xmlns="http://www.w3.org/2000/svg">
<metadata>
Created by FontPrep 20130207 at Thu Jul 13 14:12:45 2017
 By Louise Stroud
Copyright (c) 2016 by Henrique Beier. All rights reserved.
</metadata>
<defs>
<font id="2a8a4c9b58b6f33fdf97ad2bc3547f9e" horiz-adv-x='1024' >
  <font-face 
    font-family="GraviolaSoft-Heavy"
    font-weight="800"
    font-stretch="normal"
    units-per-em="2048"
    panose-1="0 0 9 0 0 0 0 0 0 0"
    ascent="1638"
    descent="-410"
    x-height="1044"
    cap-height="1481"
    bbox="-1438 -574.17 2515 2048"
    underline-thickness="102"
    underline-position="-102"
    unicode-range="U+0020-FB02"
  />
<missing-glyph horiz-adv-x="1024" 
d="M682 -139h-340v-68h143l-143 -96v-68h340v68h-209l143 96h66v68zM614 72v-97h-204v97h204zM682 139h-340v-231h340v231zM682 494h-205v-115h70v47h67v-96h-204v164h-68v-232h340v232zM682 743h-68v-135h-272v-69h340v204zM682 866h-340v-67h135v-76h-135v-68h205v144h135
v67zM477 1065v-74h-67v74h67zM547 1135h-205v-213h340v69h-135v144zM682 1399h-338v-68h133v-76h-135v-67h340v67h-135v76h135v68zM840 1536v-2048h-650v2048h650z" />
    <glyph glyph-name="fi" unicode="fi" horiz-adv-x="1249" 
d="M1057 1044q86 0 86 -88v-870q0 -60 -35 -76t-138 -16t-140 16q-36 16 -35 76v700h-283v-700q0 -60 -36 -76t-138 -16t-138 16t-36 76v700h-60q-43 0 -59 25t-16 84t10 82t41 31l84 24v113q0 199 154 309t434 109q166 0 297 -47q96 -35 96 -142q0 -61 -27 -111t-59 -51
q-9 0 -103 35t-210 35q-234 0 -234 -154v-84h545z" />
    <glyph glyph-name="fl" unicode="fl" horiz-adv-x="1271" 
d="M1167 86q0 -59 -35 -76q-36 -16 -138 -16t-139 16q-36 16 -36 76v1182q-51 18 -121 18q-186 0 -186 -153v-89h123q43 0 57 -28t14 -101t-14 -101t-57 -28h-123v-700q0 -60 -36 -76t-138 -16t-138 16t-36 76v700h-60q-43 0 -59 25t-16 84t10 82t41 31l84 24v113
q0 199 146 309t407 109q197 0 385 -80q66 -27 65 -103v-1294z" />
    <glyph glyph-name="f_b.liga" unicode="fb" horiz-adv-x="1894" 
d="M1161 487q0 -237 161 -237q77 0 115 53t38 218t-38 218t-114 53q-162 1 -162 -235v-70zM1430 1067q186 0 296 -133t111 -412q0 -280 -112 -412t-299 -132t-318 124l-16 -36q-18 -44 -46 -58t-99 -14t-99 18t-29 72v1184q-51 18 -121 18q-186 0 -186 -153v-89h123
q43 0 57 -28t14 -101t-14 -101t-57 -28h-123v-700q0 -60 -36 -76t-138 -16t-138 16t-36 76v700h-60q-43 0 -59 25t-16 84t10 82t41 31l84 24v113q0 199 146 309t407 109q197 0 385 -80q66 -27 65 -103v-395q113 82 263 82z" />
    <glyph glyph-name="f_f.liga" unicode="ff" horiz-adv-x="1421" 
d="M512 1044h293v37q0 84 16 162q-61 23 -133 23q-176 0 -176 -160v-62zM1499 1235q-6 -1 -66 23t-135 24q-145 0 -145 -145v-93h193q45 0 58 -26t13 -103t-13 -103t-58 -26h-193v-700q0 -60 -36 -76t-138 -16t-138 16t-36 76v700h-293v-700q0 -60 -36 -76t-138 -16t-138 16
t-36 76v700h-60q-43 0 -59 25t-16 84t10 82t41 31l84 24v74q0 192 137 304t367 112q162 0 293 -52q121 92 331 93q92 0 196 -26t103 -136q0 -63 -28 -115q-29 -51 -64 -51z" />
    <glyph glyph-name="f_f_b.liga" unicode="ffb" horiz-adv-x="2535" 
d="M1802 487q0 -237 161 -237q77 0 115 53t38 218t-38 218t-114 53q-162 1 -162 -235v-70zM512 1044h293v37q0 92 20 160q-61 25 -137 25q-176 0 -176 -160v-62zM2071 1067q187 0 297 -133t110 -412q0 -280 -112 -412t-299 -132t-318 124l-16 -36q-18 -44 -46 -58t-99 -14
q-72 0 -100 18t-28 72v1184q-53 18 -121 18q-186 0 -186 -153v-89h123q45 0 59 -28q15 -28 15 -101t-14 -101t-60 -28h-123v-700q0 -60 -36 -76t-138 -16t-138 16t-36 76v700h-293v-700q0 -60 -36 -76t-138 -16t-138 16t-36 76v700h-60q-43 0 -59 25t-16 84t10 82t41 31
l84 24v74q0 192 137 304t367 112q174 0 307 -58q141 98 361 98t407 -79q66 -27 65 -103v-395q113 82 263 82z" />
    <glyph glyph-name="f_f_h.liga" unicode="ffh" horiz-adv-x="2539" 
d="M512 1044h293v37q0 92 20 160q-61 25 -137 25q-176 0 -176 -160v-62zM2085 1067q350 0 350 -365v-616q0 -60 -36 -76t-138 -16t-138 16t-36 76v555q0 125 -111 125q-70 0 -119 -44t-49 -99v-537q0 -59 -35 -76q-37 -16 -139 -16t-138 16t-36 76v1182q-53 18 -121 18
q-186 0 -186 -153v-89h123q45 0 59 -28q15 -28 15 -101t-14 -101t-60 -28h-123v-700q0 -60 -36 -76t-138 -16t-138 16t-36 76v700h-293v-700q0 -60 -36 -76t-138 -16t-138 16t-36 76v700h-60q-43 0 -59 25t-16 84t10 82t41 31l84 24v74q0 192 137 304t367 112q174 0 307 -58
q141 98 361 98t407 -79q66 -27 65 -103v-424q127 111 277 111z" />
    <glyph glyph-name="f_f_i.liga" unicode="ffi" horiz-adv-x="1890" 
d="M512 1044h293v37q0 92 20 160q-61 25 -137 25q-176 0 -176 -160v-62zM1698 1044q88 0 88 -88v-870q0 -60 -36 -76t-139 -16t-138 16t-35 76v700h-285v-700q0 -60 -36 -76t-138 -16t-138 16t-36 76v700h-293v-700q0 -60 -36 -76t-138 -16t-138 16t-36 76v700h-60
q-43 0 -59 25t-16 84t10 82t41 31l84 24v74q0 192 137 304t367 112q180 0 313 -62q145 102 412 103q166 0 297 -47q96 -35 96 -142q0 -61 -27 -111t-59 -51q-8 0 -102 35t-210 35q-234 0 -235 -154v-84h545z" />
    <glyph glyph-name="f_f_j.liga" unicode="ffj" horiz-adv-x="1890" 
d="M512 1044h293v101q0 55 12 100q-55 20 -129 21q-176 0 -176 -160v-62zM1698 1044q88 0 88 -88v-714q0 -428 -201 -658q-71 -80 -143 -80t-142 54t-69 106q0 31 39 78q92 106 130 204t38 259v581h-285v-700q0 -60 -36 -76t-138 -16t-138 16t-36 76v700h-293v-700
q0 -60 -36 -76t-138 -16t-138 16t-36 76v700h-60q-43 0 -59 25t-16 84t10 82t41 31l84 24v74q0 192 137 304t367 112q170 0 307 -58q152 98 418 99q166 0 297 -47q96 -35 96 -142q0 -61 -27 -111t-59 -51q-8 0 -102 35t-210 35q-234 0 -235 -154v-84h545z" />
    <glyph glyph-name="f_f_k.liga" unicode="ffk" horiz-adv-x="2496" 
d="M512 1044h293v37q0 92 20 160q-61 25 -137 25q-176 0 -176 -160v-62zM1808 86q0 -59 -35 -76q-37 -16 -139 -16t-138 16t-36 76v1182q-53 18 -121 18q-186 0 -186 -153v-89h123q45 0 59 -28q15 -28 15 -101t-14 -101t-60 -28h-123v-700q0 -60 -36 -76t-138 -16t-138 16
t-36 76v700h-293v-700q0 -60 -36 -76t-138 -16t-138 16t-36 76v700h-60q-43 0 -59 25t-16 84t10 82t41 31l84 24v74q0 192 137 304t367 112q174 0 307 -58q141 98 361 98t407 -79q66 -27 65 -103v-762q188 119 242 340q14 60 52 76t148 16t146 -24q36 -25 8 -104
q-70 -193 -250 -347q228 -187 283 -466q13 -70 -23 -93q-36 -22 -142 -22t-144 16q-37 16 -49 78q-39 209 -154 332q-70 -35 -117 -51v-283z" />
    <glyph glyph-name="f_f_l.liga" unicode="ffl" horiz-adv-x="1912" 
d="M512 1044h293v37q0 92 20 160q-61 25 -137 25q-176 0 -176 -160v-62zM1808 86q0 -59 -35 -76q-37 -16 -139 -16t-138 16t-36 76v1182q-53 18 -121 18q-186 0 -186 -153v-89h123q45 0 59 -28q15 -28 15 -101t-14 -101t-60 -28h-123v-700q0 -60 -36 -76t-138 -16t-138 16
t-36 76v700h-293v-700q0 -60 -36 -76t-138 -16t-138 16t-36 76v700h-60q-43 0 -59 25t-16 84t10 82t41 31l84 24v74q0 192 137 304t367 112q174 0 307 -58q141 98 361 98t407 -79q66 -27 65 -103v-1294z" />
    <glyph glyph-name="f_h.liga" unicode="fh" horiz-adv-x="1898" 
d="M1444 1067q350 0 350 -365v-616q0 -60 -36 -76t-138 -16t-138 16t-36 76v555q0 125 -111 125q-70 0 -119 -44t-49 -99v-537q0 -59 -35 -76q-36 -16 -138 -16t-139 16q-36 16 -36 76v1182q-51 18 -121 18q-186 0 -186 -153v-89h123q43 0 57 -28t14 -101t-14 -101t-57 -28
h-123v-700q0 -60 -36 -76t-138 -16t-138 16t-36 76v700h-60q-43 0 -59 25t-16 84t10 82t41 31l84 24v113q0 199 146 309t407 109q197 0 385 -80q66 -27 65 -103v-424q127 111 277 111z" />
    <glyph glyph-name="f_j.liga" unicode="fj" horiz-adv-x="1249" 
d="M1057 1044q86 0 86 -88v-714q0 -428 -201 -658q-72 -80 -142 -80t-142 54q-71 54 -70 106q0 29 41 78q90 104 128 204t38 259v581h-283v-700q0 -60 -36 -76t-138 -16t-138 16t-36 76v700h-60q-43 0 -59 25t-16 84t10 82t41 31l84 24v113q0 199 154 309t434 109
q166 0 297 -47q96 -35 96 -142q0 -61 -27 -111t-59 -51q-9 0 -103 35t-210 35q-234 0 -234 -154v-84h545z" />
    <glyph glyph-name="f_k.liga" unicode="fk" horiz-adv-x="1855" 
d="M1167 86q0 -59 -35 -76q-36 -16 -138 -16t-139 16q-36 16 -36 76v1182q-51 18 -121 18q-186 0 -186 -153v-89h123q43 0 57 -28t14 -101t-14 -101t-57 -28h-123v-700q0 -60 -36 -76t-138 -16t-138 16t-36 76v700h-60q-43 0 -59 25t-16 84t10 82t41 31l84 24v113
q0 199 146 309t407 109q197 0 385 -80q66 -27 65 -103v-762q188 119 242 340q14 60 52 76t148 16q111 0 147 -24q36 -25 7 -104q-70 -193 -250 -347q228 -187 283 -466q14 -70 -22 -93q-36 -22 -144 -22q-106 0 -143 16t-49 78q-39 209 -154 332q-70 -35 -117 -51v-283z" />
    <glyph glyph-name=".notdef" horiz-adv-x="1024" 
d="M682 -139h-340v-68h143l-143 -96v-68h340v68h-209l143 96h66v68zM614 72v-97h-204v97h204zM682 139h-340v-231h340v231zM682 494h-205v-115h70v47h67v-96h-204v164h-68v-232h340v232zM682 743h-68v-135h-272v-69h340v204zM682 866h-340v-67h135v-76h-135v-68h205v144h135
v67zM477 1065v-74h-67v74h67zM547 1135h-205v-213h340v69h-135v144zM682 1399h-338v-68h133v-76h-135v-67h340v67h-135v76h135v68zM840 1536v-2048h-650v2048h650z" />
    <glyph glyph-name=".null" horiz-adv-x="0" 
 />
    <glyph glyph-name="nonmarkingreturn" horiz-adv-x="681" 
 />
    <glyph glyph-name="space" unicode=" " horiz-adv-x="417" 
 />
    <glyph glyph-name="exclam" unicode="!" horiz-adv-x="610" 
d="M500 184q0 -110 -46 -156t-154 -46t-148 46t-41 154q0 108 42 158q43 50 151 49q108 0 152 -48t44 -157zM304 537q-76 0 -102 11t-28 52q-51 586 -51 789q0 59 37 75q38 16 146 16t145 -16t36 -75q0 -250 -51 -789q-4 -41 -30 -52t-102 -11z" />
    <glyph glyph-name="quotedbl" unicode="&#x22;" horiz-adv-x="888" 
d="M641 911q-73 1 -97 13t-26 61l-29 436q-4 68 26 84q30 17 126 17t126 -16t26 -85l-29 -436q-2 -49 -26 -61t-97 -13zM250 911q-74 1 -98 13t-25 61l-29 436q-4 68 26 84q30 17 126 17t126 -16t25 -85l-28 -436q-1 -49 -25 -61t-98 -13z" />
    <glyph glyph-name="numbersign" unicode="#" horiz-adv-x="1361" 
d="M778 561l41 352h-235l-41 -352h235zM1262 913h-142l-41 -352h113q45 1 59 -27q15 -28 15 -104t-14 -104t-60 -27h-141l-25 -219q-6 -58 -33 -72t-117 -14t-124 15q-33 15 -27 71l25 219h-236l-25 -219q-6 -57 -32 -72q-27 -14 -118 -14t-124 15t-27 71l25 219h-115
q-43 0 -57 28q-14 27 -14 103t14 104t57 27h144l41 352h-115q-43 0 -57 28q-15 27 -15 103t14 104t58 28h143l25 219q6 57 33 71t117 14t124 -14q33 -16 27 -71l-25 -219h236l24 219q6 57 33 71t118 14t124 -14q33 -16 27 -71l-25 -219h113q45 0 59 -28t14 -104t-14 -104
t-59 -27z" />
    <glyph glyph-name="dollar" unicode="$" horiz-adv-x="1161" 
d="M1106 440q0 -154 -94 -274t-262 -168v-178q0 -58 -36 -74t-138 -16t-139 16q-36 16 -36 74v162q-115 12 -201 45t-116 73t-29 105q0 66 26 129t66 63q11 0 143 -52t253 -52q164 0 164 121q1 61 -51 100t-171 72q-203 55 -317 169q-114 115 -113 279q0 164 89 282t255 163
v176q0 57 36 73t138 17q103 0 139 -16t36 -74v-162q211 -27 263 -89q31 -38 31 -102t-26 -128q-26 -63 -66 -64q-10 0 -124 36t-224 36q-164 0 -164 -117q0 -55 48 -88t161 -64q459 -125 459 -473z" />
    <glyph glyph-name="percent" unicode="%" horiz-adv-x="1710" 
d="M1311 186q55 0 87 50t32 126t-32 124t-87 48t-88 -48t-33 -126t33 -126t88 -48zM1311 -29q-164 -1 -275 101t-110 288q0 186 110 289q111 103 275 103q165 0 275 -102t110 -290q0 -186 -110 -288t-275 -101zM401 940q55 0 87 48t32 125t-32 126t-87 49t-88 -48t-33 -126
t34 -126q32 -48 87 -48zM390 -6q-83 0 -102 18t13 78l840 1301q39 59 69 74q31 15 113 15t102 -18t-12 -78l-840 -1300q-39 -59 -69 -75q-31 -15 -114 -15zM401 723q-165 0 -275 102q-110 103 -110 289t111 288t275 101q164 0 274 -101q110 -102 110 -288t-110 -289
q-111 -102 -275 -102z" />
    <glyph glyph-name="ampersand" unicode="&#x26;" horiz-adv-x="1462" 
d="M422 448q0 -96 68 -141t161 -45q94 0 168 31q-164 145 -309 313q-88 -62 -88 -158zM45 420q0 126 79 232t216 165q-113 159 -113 305t131 262t412 117q139 0 259 -38t120 -154q0 -66 -26 -126t-66 -61q-13 0 -103 30t-176 30q-178 0 -178 -121q0 -55 66 -146
q143 -195 350 -380q20 77 20 161t-32 183q-18 57 11 75q30 18 122 18t124 -14q31 -16 59 -96t28 -196q0 -172 -84 -328q43 -31 96 -65q53 -33 56 -73t-46 -119t-88 -92t-93 21t-136 92q-184 -129 -425 -129t-405 100q-178 109 -178 347z" />
    <glyph glyph-name="quotesingle" unicode="'" horiz-adv-x="516" 
d="M258 911q-76 1 -102 13t-29 61l-29 436q-4 68 28 84q32 17 132 17t132 -16t28 -85l-29 -436q-3 -49 -29 -61t-102 -13z" />
    <glyph glyph-name="parenleft" unicode="(" horiz-adv-x="681" 
d="M481 -332q-92 0 -170 105q-248 338 -248 851t250 851q76 102 168 102q63 0 111 -31q48 -30 49 -64q0 -34 -43 -116q-168 -313 -168 -743t168 -744q43 -81 43 -115q-1 -34 -49 -65t-111 -31z" />
    <glyph glyph-name="parenright" unicode=")" horiz-adv-x="681" 
d="M201 1577q92 0 170 -104q247 -338 247 -851t-249 -851q-76 -102 -168 -103q-63 0 -112 31q-48 31 -48 65t43 115q168 313 168 743t-168 744q-43 82 -43 116q1 34 49 64t111 31z" />
    <glyph glyph-name="asterisk" unicode="*" horiz-adv-x="956" 
d="M318 764q-40 0 -87 37q-100 76 -34 135l186 170l-250 24q-43 4 -56 42t5 92t51 78q33 22 70 1l217 -126l-51 245q-8 43 22 67q31 23 90 23t89 -24t22 -66l-53 -245l217 126q37 20 70 -2t51 -76q18 -55 5 -93t-57 -42l-250 -26l187 -168q70 -59 -33 -135q-111 -78 -147 4
l-105 229l-100 -229q-19 -41 -59 -41z" />
    <glyph glyph-name="plus" unicode="+" horiz-adv-x="1085" 
d="M942 795q45 0 59 -26q15 -27 15 -101t-14 -100t-60 -25h-262v-277q0 -43 -28 -57t-110 -14t-109 14q-28 14 -27 57v277h-265q-43 -1 -57 25t-14 101t14 101t57 25h265v276q0 43 27 57q28 14 110 14q81 0 109 -14t28 -57v-276h262z" />
    <glyph glyph-name="comma" unicode="," horiz-adv-x="573" 
d="M129 66q0 70 -14 133t-15 73q0 57 65 88t158 31t137 -41q44 -42 44 -144t-58 -241t-161 -266q-33 -41 -66 -44t-85 26t-64 51t6 67q53 131 53 267z" />
    <glyph glyph-name="hyphen" unicode="-" horiz-adv-x="753" 
d="M154 424q-43 0 -58 31q-14 31 -14 111t14 109q14 30 58 30h446q43 0 57 -30q15 -30 15 -110q0 -81 -14 -111t-58 -30h-446z" />
    <glyph glyph-name="period" unicode="." horiz-adv-x="573" 
d="M285 -18q-123 0 -167 49t-44 174t44 177t167 52t170 -50t47 -176t-47 -176t-170 -50z" />
    <glyph glyph-name="slash" unicode="/" horiz-adv-x="778" 
d="M185 -68q-95 0 -129 18t-19 75l385 1425q16 60 47 76t126 16t128 -17t18 -75l-383 -1425q-16 -61 -47 -77t-126 -16z" />
    <glyph glyph-name="zero" unicode="0" horiz-adv-x="1359" 
d="M676 276q47 0 82 18q87 43 114 207q16 95 17 236q0 284 -65 379q-32 46 -66 64t-82 18q-47 0 -81 -17t-65 -65q-61 -93 -61 -378t61 -380q31 -46 65 -64t81 -18zM678 -27q-582 0 -582 764t582 764q278 0 432 -177t154 -587t-154 -587t-432 -177z" />
    <glyph glyph-name="one" unicode="1" horiz-adv-x="1015" 
d="M823 86q0 -60 -38 -76q-37 -16 -145 -16t-144 16t-37 76v1094q-97 -16 -199 -60t-121 -45q-41 1 -67 61t-25 128q0 104 113 149q193 76 424 76q121 0 180 -28t59 -101v-1274z" />
    <glyph glyph-name="two" unicode="2" horiz-adv-x="1196" 
d="M1036 313q43 0 58 -33q14 -34 14 -123t-14 -123t-58 -34h-858q-37 0 -54 23q-16 23 -26 85t-1 92t57 76q573 586 573 779q0 127 -182 127q-102 0 -214 -41t-128 -41q-39 0 -69 62t-30 124t30 98q30 37 108 64q156 53 342 53q266 0 390 -103t124 -290t-174 -406
q-90 -114 -163 -190t-200 -199h475z" />
    <glyph glyph-name="three" unicode="3" horiz-adv-x="1189" 
d="M1106 422q0 -146 -86 -252t-210 -152t-304 -45q-180 0 -328 50q-119 39 -119 153q0 62 30 118t71 56q6 0 116 -37t222 -37q114 0 182 43t68 113t-50 112q-83 70 -274 70h-29q-49 0 -65 41t-16 107t16 86q16 18 55 18h8q158 2 247 56t89 139q0 137 -197 137
q-94 0 -202 -38t-123 -38q-35 0 -63 58t-27 118q0 117 137 160q141 43 307 43q256 0 382 -101t126 -265q0 -262 -266 -355v-8q303 -80 303 -350z" />
    <glyph glyph-name="four" unicode="4" horiz-adv-x="1288" 
d="M725 569v533q-127 -98 -223 -240t-137 -293h360zM1174 569q43 -1 57 -33t14 -118t-14 -118t-57 -32h-101v-182q0 -60 -35 -76t-138 -16t-139 16t-36 76v182h-524q-41 0 -65 18t-50 74q-45 92 -29 164q55 266 241 519t425 387q93 51 191 51q98 1 128 -19t31 -69v-824h101z
" />
    <glyph glyph-name="five" unicode="5" horiz-adv-x="1206" 
d="M608 950q231 0 372 -116q140 -117 140 -356t-154 -372t-419 -133q-193 0 -340 50q-119 39 -119 153q0 62 30 118t70 56q6 0 116 -37t218 -37q240 0 240 207q0 107 -77 155t-187 48t-188 -20t-116 3t-44 39t-5 60l37 618q6 88 92 89h705q43 0 57 -34t14 -123t-14 -123
t-57 -34h-490l-14 -221q76 10 133 10z" />
    <glyph glyph-name="six" unicode="6" horiz-adv-x="1288" 
d="M858 491q0 197 -201 197q-93 0 -163 -80q-33 -36 -33 -112q1 -76 57 -151t145 -75t142 60t53 161zM791 1501q362 0 362 -190q0 -59 -30 -113t-72 -53q-12 1 -89 27t-155 26q-162 0 -247 -88t-101 -270q125 104 311 104t316 -120t130 -350t-158 -365q-158 -136 -409 -136
q-251 1 -410 181t-159 526q0 397 203 609t508 212z" />
    <glyph glyph-name="seven" unicode="7" horiz-adv-x="1146" 
d="M427 -6q-111 0 -149 24t-32 88q25 285 138 564q114 279 282 491h-551q-43 0 -58 34q-14 34 -14 123t14 123t58 34h878q61 0 83 -21t33 -77t3 -94t-47 -85q-389 -473 -438 -1106q-4 -62 -46 -80t-154 -18z" />
    <glyph glyph-name="eight" unicode="8" horiz-adv-x="1298" 
d="M650 236q91 0 143 46q51 46 51 136t-52 147t-144 57t-143 -56q-52 -56 -52 -147t53 -137t144 -46zM648 907q85 0 133 50t48 125t-47 116t-133 41t-133 -41t-47 -117t47 -125t132 -49zM649 -27q-266 0 -420 112t-153 310q0 133 71 232q72 98 203 143q-225 129 -225 342
q0 174 147 282q146 108 376 108t381 -108t151 -280q0 -209 -232 -344q131 -45 203 -143t72 -232q0 -199 -154 -311t-420 -111z" />
    <glyph glyph-name="nine" unicode="9" horiz-adv-x="1288" 
d="M430 985q0 -199 200 -199q94 0 163 78q35 37 34 94q0 96 -57 171t-145 75q-87 0 -141 -59t-54 -160zM498 -27q-363 0 -363 191q0 59 30 112t73 54q12 0 89 -27t154 -27q162 0 247 88t101 271q-125 -105 -311 -105t-316 120t-130 350t158 365q159 136 410 136t410 -180
t158 -526q0 -397 -202 -610q-203 -212 -508 -212z" />
    <glyph glyph-name="colon" unicode=":" horiz-adv-x="573" 
d="M483 184q-1 -114 -43 -158t-152 -44t-154 45t-44 157t44 158q44 47 153 47t153 -46t43 -159zM287 1061q109 0 153 -47t43 -159t-43 -158t-152 -46t-154 46t-44 158t44 159t153 47z" />
    <glyph glyph-name="semicolon" unicode=";" horiz-adv-x="573" 
d="M86 272q0 57 65 88t157 31t137 -41q44 -42 44 -144t-58 -241t-161 -266q-34 -41 -66 -44t-84 26t-65 51q-12 23 6 67q85 209 39 400q-14 63 -14 73zM287 1061q109 0 151 -47t43 -159q-1 -112 -43 -158t-152 -46t-153 46t-43 158t44 159t153 47z" />
    <glyph glyph-name="less" unicode="&#x3c;" horiz-adv-x="1085" 
d="M92 669q0 71 14 105t56 53l715 347q47 22 71 -10t25 -112t-15 -111q-16 -30 -63 -52l-481 -221l481 -222q47 -24 62 -52t15 -108t-24 -113q-25 -32 -71 -9l-715 346q-41 18 -56 53q-14 35 -14 106z" />
    <glyph glyph-name="equal" unicode="=" horiz-adv-x="1085" 
d="M162 330q-43 0 -58 25q-14 26 -14 101q0 74 14 100t58 26h760q45 0 59 -26t14 -100t-14 -101q-14 -26 -59 -25h-760zM162 758q-43 0 -58 25q-14 26 -14 101q0 74 14 100t58 26h760q45 0 59 -26t14 -100t-14 -101q-14 -26 -59 -25h-760z" />
    <glyph glyph-name="greater" unicode="&#x3e;" horiz-adv-x="1085" 
d="M993 668q0 -70 -14 -105t-55 -53l-715 -346q-47 -23 -72 9t-25 113q0 80 16 110q15 30 62 53l482 221l-482 221q-47 23 -62 51t-15 110q1 80 25 112t71 10l715 -347q41 -18 55 -53q14 -36 14 -106z" />
    <glyph glyph-name="question" unicode="?" horiz-adv-x="993" 
d="M629 184q1 -110 -45 -156t-154 -46t-150 46q-40 46 -40 154t42 158t150 49q108 0 153 -48q44 -48 44 -157zM973 1128q0 -118 -54 -206t-168 -158t-151 -114t-43 -87q-5 -43 -33 -53t-104 -10t-101 12q-44 21 -46 175q-1 153 188 274q90 57 119 85t28 60q0 76 -121 76
t-241 -35t-127 -35q-39 0 -67 58t-27 128q0 129 148 166t304 37q240 0 368 -103t128 -270z" />
    <glyph glyph-name="at" unicode="@" horiz-adv-x="1816" 
d="M922 831q-66 -1 -113 -83t-47 -219t98 -138q62 -1 100 47t52 108t21 128q7 66 -19 112t-92 45zM1016 1425q332 0 534 -181t203 -486q0 -254 -119 -428t-296 -174t-236 172q-152 -172 -344 -172q-145 0 -231 94q-85 94 -85 272q0 227 128 386t317 159q154 0 237 -117
l33 54q18 30 44 38q25 8 87 8t88 -16q26 -18 17 -67l-72 -453q-29 -182 63 -182q70 0 126 118t57 291q0 262 -151 386t-410 124q-320 0 -528 -207t-208 -522q0 -164 64 -282t170 -173q106 -53 241 -67t281 31q29 8 43 -7q15 -16 27 -64t7 -70t-36 -29q-337 -76 -561 6
q-129 47 -227 127t-157 213q-58 133 -59 303q0 401 276 658t677 257z" />
    <glyph glyph-name="A" unicode="A" horiz-adv-x="1431" 
d="M506 575h422q-61 317 -211 588q-148 -262 -211 -588zM1354 86q0 -59 -38 -75.5t-148 -16.5t-146.5 16.5t-38.5 75.5q-8 125 -14 193h-504q-6 -68 -14 -193q-2 -59 -40 -75.5t-146.5 -16.5t-147.5 16.5t-39 75.5q0 305 118.5 696.5t295.5 624.5q37 49 79.5 61.5t145 12.5
t144.5 -12.5t79 -61.5q176 -233 295 -624.5t119 -696.5z" />
    <glyph glyph-name="B" unicode="B" horiz-adv-x="1337" 
d="M502 297h178q219 0 219 156q0 162 -223 161h-174v-317zM502 874h135q94 0 145 40t52 114q0 150 -193 150h-139v-304zM223 0q-88 0 -88 88v1298q0 88 88 89h463q246 -1 380 -103t134 -274q0 -233 -227 -318v-10q141 -33 220 -125t79 -229q0 -192 -151 -304t-435 -112h-463
z" />
    <glyph glyph-name="C" unicode="C" horiz-adv-x="1228" 
d="M70 743q0 381 177 569.5t492 188.5q150 0 288 -36t138 -156q0 -66 -25.5 -121t-62.5 -55q-6 0 -112.5 33.5t-210.5 33.5q-312 0 -312 -463t312 -463q104 0 218.5 36t119.5 36q37 0 62.5 -56.5t25.5 -119.5q0 -123 -140 -158q-150 -39 -297 -39q-317 0 -495 194.5
t-178 575.5z" />
    <glyph glyph-name="D" unicode="D" horiz-adv-x="1429" 
d="M502 297h149q180 0 258 96t78 344t-78 344.5t-258 96.5h-149v-881zM223 0q-88 0 -88 88v1298q0 88 88 89h428q358 0 533.5 -172.5t175.5 -565.5t-175 -565t-534 -172h-428z" />
    <glyph glyph-name="E" unicode="E" horiz-adv-x="1183" 
d="M1047 297q51 0 65 -30.5t14 -118.5t-14 -118t-65 -30h-824q-88 0 -88 88v1298q0 88 88 89h811q51 0 65.5 -31t14.5 -118t-14.5 -117.5t-65.5 -30.5h-532v-279h409q51 0 65.5 -29.5t14.5 -117.5t-14 -119t-66 -31h-409v-305h545z" />
    <glyph glyph-name="F" unicode="F" horiz-adv-x="1130" 
d="M1016 1475q49 0 64 -31q16 -31 16 -118t-16 -118t-64 -30h-514v-316h389q51 0 66 -31t15 -117t-14 -118q-16 -31 -67 -31h-389v-479q0 -60 -38 -76t-146 -16t-145 16q-38 16 -38 76v1300q0 88 88 89h793z" />
    <glyph glyph-name="G" unicode="G" horiz-adv-x="1378" 
d="M705 -27q-301 0 -468 192.5t-167 571.5t178 571.5t487 192.5q252 0 412 -61q51 -20 70.5 -50t19.5 -93.5t-24.5 -126t-65.5 -62.5q-17 0 -69 22q-155 68 -312 68q-322 0 -322 -455q0 -242 68 -355.5t207 -113.5q111 0 169 70t58 188.5t-18 217.5q-10 59 27.5 77.5
t141 18.5t140.5 -18.5t47 -69.5q23 -102 23 -230q0 -262 -150.5 -408.5t-451.5 -146.5z" />
    <glyph glyph-name="H" unicode="H" horiz-adv-x="1470" 
d="M1152.5 1481q107.5 0 145 -16.5t37.5 -75.5v-1303q0 -59 -37.5 -75.5t-145 -16.5t-145.5 16.5t-38 75.5v510h-467v-510q0 -59 -38 -75.5t-145.5 -16.5t-145.5 16.5t-38 75.5v1303q0 59 38 75.5t145.5 16.5t145.5 -16.5t38 -75.5v-471h467v471q0 59 38 75.5t145.5 16.5z
" />
    <glyph glyph-name="I" unicode="I" horiz-adv-x="636" 
d="M318.5 -6q-107.5 0 -145.5 16.5t-38 75.5v1303q0 59 38 75.5t145.5 16.5t145.5 -16.5t38 -75.5v-1303q0 -59 -38 -75.5t-145.5 -16.5z" />
    <glyph glyph-name="J" unicode="J" horiz-adv-x="1118" 
d="M438 -27q-152 0 -280 38t-127 163q0 68 25.5 124t68.5 56q16 0 112.5 -30.5t172.5 -30.5q117 0 167 68.5t50 238.5v789q0 59 37.5 75.5t145.5 16.5t145.5 -16.5t37.5 -75.5v-787q0 -629 -555 -629z" />
    <glyph glyph-name="K" unicode="K" horiz-adv-x="1376" 
d="M502 86q0 -59 -38 -75.5t-145.5 -16.5t-145.5 16.5t-38 75.5v1303q0 59 38 75.5t145.5 16.5t145.5 -16.5t38 -75.5v-517q293 174 377 517q14 63 49 77.5t146.5 14.5t154.5 -17.5t37 -74.5q-12 -121 -118 -292t-286 -313q186 -125 306 -331.5t128 -366.5q2 -57 -40 -74.5
t-152.5 -17.5t-146 14.5t-48.5 77.5q-72 352 -336 532l-71 -28v-504z" />
    <glyph glyph-name="L" unicode="L" horiz-adv-x="1118" 
d="M223 0q-88 0 -88 88v1301q0 59 38 75q37 16 145 16.5t146 -16t38 -75.5v-1076h493q51 0 65.5 -31.5t14.5 -124.5t-14 -125t-66 -32h-772z" />
    <glyph glyph-name="M" unicode="M" horiz-adv-x="1990" 
d="M1866 86q0 -60 -38 -76t-146 -16t-145 16q-38 16 -38 76q0 432 -63 940q-190 -338 -283 -788q-8 -34 -41 -46t-117 -12q-85 0 -117 11t-40 47q-86 428 -285 784q-61 -496 -61 -936q0 -60 -38 -76t-146 -16t-145 16q-38 16 -38 76q0 606 147 1307q12 55 50 71t125 16
t119 -8q32 -10 55 -40q104 -133 205 -337t161 -399h12q59 188 159 389q99 201 206 345q22 30 58 40t121 10t123 -16t50 -71q150 -709 150 -1307z" />
    <glyph glyph-name="N" unicode="N" horiz-adv-x="1474" 
d="M1157.5 1481q106.5 0 144 -16.5t37.5 -75.5v-1303q0 -59 -31.5 -75.5t-117.5 -16.5t-113.5 11t-38.5 46q-70 248 -216 498t-324 428v-891q0 -59 -37 -75.5t-143.5 -16.5t-144.5 16.5t-38 75.5v1303q0 59 32 75.5t126 16.5t139 -35q145 -109 290.5 -275.5t252.5 -343.5
v562q0 59 38 75.5t144.5 16.5z" />
    <glyph glyph-name="O" unicode="O" horiz-adv-x="1443" 
d="M721 274q141 0 210.5 114t69.5 354.5t-69.5 349t-211.5 108.5t-210 -108.5t-68 -349.5t69 -354.5t210 -113.5zM720 -27q-316 0 -483 192.5t-167 577.5q0 758 651 758t651 -758q0 -385 -168 -577.5t-484 -192.5z" />
    <glyph glyph-name="P" unicode="P" horiz-adv-x="1314" 
d="M662 698q229 0 229 240t-229 240h-160v-480h160zM662 1475q282 1 442 -135t160 -402t-160 -400t-442 -135h-160v-317q0 -60 -38 -76t-146 -16t-145 16q-38 16 -38 76v1300q0 88 88 89h439z" />
    <glyph glyph-name="Q" unicode="Q" horiz-adv-x="1443" 
d="M442 742q0 -241 69 -354.5t210 -113.5t210.5 114t69.5 354.5t-69.5 349t-211.5 108.5t-210 -108.5t-68 -349.5zM1296 -234q0 -50 -66.5 -125t-147.5 -75t-198.5 125.5t-215.5 283.5q-291 14 -444.5 207t-153.5 561q0 758 651 758t651 -758q0 -562 -356 -714
q57 -63 132 -111.5t111.5 -75t36.5 -76.5z" />
    <glyph glyph-name="R" unicode="R" horiz-adv-x="1359" 
d="M502 801h162q233 0 233 192q0 184 -217 185h-178v-377zM318.5 -6q-107.5 0 -145.5 16.5t-38 75.5v1300q0 88 88 89h449q598 0 598 -433q0 -176 -96.5 -279.5t-260.5 -141.5v-11q96 -25 184.5 -115t144.5 -201.5t63 -207.5q2 -57 -42 -74.5t-155 -17.5t-148.5 15.5
t-56.5 76.5q-63 229 -194 356q-70 68 -154 68h-53v-424q0 -59 -38 -75.5t-145.5 -16.5z" />
    <glyph glyph-name="S" unicode="S" horiz-adv-x="1251" 
d="M1004 1110q-12 0 -125 36t-228 36q-170 0 -170 -117q0 -55 52.5 -89t185.5 -65q229 -55 344 -163.5t115 -305t-158 -333t-440 -136.5q-193 0 -361 58q-76 27 -104.5 68.5t-28.5 110.5t28.5 125t75.5 56q22 -1 78 -25q166 -74 328 -73q193 0 192 121q0 55 -54 95t-197 73
q-440 102 -441 444q0 209 144.5 342t416.5 133q162 0 304.5 -36t142.5 -165q0 -70 -27.5 -130t-72.5 -60z" />
    <glyph glyph-name="T" unicode="T" horiz-adv-x="1277" 
d="M1186 1475q51 0 65.5 -32t14.5 -125t-14.5 -125t-65.5 -32h-365v-1075q0 -59 -38 -75.5t-145 -16.5t-145 16.5t-38 75.5v1075h-363q-51 0 -65.5 32t-14.5 125t14.5 125t65.5 32h1094z" />
    <glyph glyph-name="U" unicode="U" horiz-adv-x="1429" 
d="M715 -27q-289 0 -440.5 158t-151.5 504v754q0 59 38 75q37 16 145 16.5t145.5 -16t37.5 -75.5v-738q0 -193 55.5 -275.5t170 -82.5t170 83t55.5 275v738q0 59 38 75.5t146 16.5t145.5 -16.5t37.5 -75.5v-754q0 -662 -592 -662z" />
    <glyph glyph-name="V" unicode="V" horiz-adv-x="1359" 
d="M1118 1481q109 -1 148 -17t39 -75q0 -297 -117 -684t-291 -642q-31 -45 -74 -57t-143 -12t-142 12t-73 57q-174 253 -291 641t-117 685q0 59 39 75t148 16q108 0 146 -16t40 -75q35 -651 250 -1045q217 393 252 1045q2 59 40 75t146 17z" />
    <glyph glyph-name="W" unicode="W" horiz-adv-x="1964" 
d="M1705 1481q110 0 147.5 -16.5t37.5 -75.5q0 -336 -87 -703t-244 -620q-29 -45 -68 -58.5t-135 -13.5t-134 12t-61 55q-125 248 -174 512h-10q-49 -266 -174 -514q-23 -43 -59.5 -54t-134 -11t-136.5 13t-67 59q-158 254 -245 620.5t-87 702.5q0 59 39 75.5t147.5 16.5
t145 -16.5t38.5 -75.5q20 -381 58.5 -616.5t122.5 -426.5q162 352 180 897q2 57 38 73.5t140 16.5t139 -16.5t37 -73.5q20 -549 182 -897q84 190 121 424t58 619q2 59 38.5 75.5t146.5 16.5z" />
    <glyph glyph-name="X" unicode="X" horiz-adv-x="1372" 
d="M1102 -6q-112 0 -150 16q-39 16 -47 76q-39 283 -219 469q-180 -186 -217 -469q-8 -60 -48 -76t-151 -16q-110 0 -152 17t-40 75q4 160 101 345t263 329q-143 131 -233 305t-94 324q-2 59 38 75q41 16 151 16t149 -16t45 -75q14 -135 56 -235t132 -193q164 166 188 428
q6 59 46 75t150 16t150 -16t37 -75q-4 -150 -94 -324t-233 -305q168 -142 264 -328t100 -346q2 -56 -39 -74t-153 -18z" />
    <glyph glyph-name="Y" unicode="Y" horiz-adv-x="1312" 
d="M1074 1481q110 0 149 -16.5t37 -75.5q-4 -203 -123 -467.5t-297 -442.5v-393q0 -59 -38 -75.5t-145.5 -16.5t-145.5 16.5t-38 75.5v393q-178 176 -297 440.5t-123 469.5q-2 59 37 75.5t147.5 16.5t145.5 -16.5t43 -75.5q37 -389 236 -629q193 242 225 629q4 59 40.5 75.5
t146.5 16.5z" />
    <glyph glyph-name="Z" unicode="Z" horiz-adv-x="1212" 
d="M1067 313q43 0 57.5 -33.5t14.5 -122.5t-14.5 -123t-57.5 -34h-893q-63 0 -83.5 43t-20.5 127t22 145q90 250 238.5 471.5t322.5 374.5h-477q-43 0 -57.5 34t-14.5 123t14.5 123t57.5 34h891q51 0 67.5 -41t16.5 -143.5t-57 -151.5q-444 -389 -611 -826h584z" />
    <glyph glyph-name="bracketleft" unicode="[" horiz-adv-x="696" 
d="M180 -315q-88 0 -88 86v1704q0 86 88 86h402q45 0 59 -26q14 -25 14 -95t-14 -97t-59 -26h-158v-1389h158q45 0 59 -26t14 -95q0 -71 -14 -97t-59 -25h-402z" />
    <glyph glyph-name="backslash" unicode="\" horiz-adv-x="778" 
d="M595 -68q-95 0 -126 16t-47 77l-385 1425q-14 57 19 75q34 17 129 17t126 -15t47 -77l383 -1425q13 -57 -19 -75t-127 -18z" />
    <glyph glyph-name="bracketright" unicode="]" horiz-adv-x="696" 
d="M516 1561q88 0 88 -86v-1704q0 -86 -88 -86h-401q-45 0 -60 25q-14 26 -14 96t14 96q14 27 60 26h157v1389h-157q-45 0 -60 25q-14 26 -14 96t14 96t60 27h401z" />
    <glyph glyph-name="asciicircum" unicode="^" horiz-adv-x="1122" 
d="M1024 707q20 -55 11 -75t-60 -40t-78 -16t-53 42q-156 223 -283 326q-127 -106 -280 -326q-27 -39 -55 -43q-28 -3 -78 17t-58 40q-10 20 10 75q147 365 318 550q57 63 143 63t146 -63q165 -179 317 -550z" />
    <glyph glyph-name="underscore" unicode="_" horiz-adv-x="880" 
d="M78 -401q-43 0 -58 24q-14 25 -14 87t14 86t58 24h725q43 0 57 -24t14 -86t-14 -87t-57 -24h-725z" />
    <glyph glyph-name="grave" unicode="`" horiz-adv-x="788" 
d="M121 1439q0 52 62.5 116.5t127.5 64.5t129 -90l176 -254q18 -27 12.5 -46.5t-40.5 -52t-57.5 -36.5t-47.5 14l-309 197q-53 35 -53 87z" />
    <glyph glyph-name="a" unicode="a" horiz-adv-x="1116" 
d="M664 385v80q-272 0 -273 -137q0 -43 26.5 -66.5t71.5 -23.5q81 0 140 63q35 39 35 84zM520 1071q268 0 380 -110.5t112 -376.5v-498q0 -57 -24.5 -74.5t-99.5 -17.5t-103.5 14.5t-45.5 59.5l-22 55q-139 -150 -346 -150q-152 0 -242 83t-90 225q0 186 161.5 287.5
t463.5 82.5v21q0 119 -155 119q-155 -1 -273 -55q-38 -18 -50 -17q-37 0 -64.5 51t-27.5 115q0 100 119 141q135 45 307 45z" />
    <glyph glyph-name="b" unicode="b" horiz-adv-x="1181" 
d="M449 487q0 -237 160 -237q77 0 115 53t38 218t-38 218t-114 53t-119 -56t-42 -179v-70zM713 1067q186 0 298 -133q111 -133 111 -412q0 -280 -112 -412t-298 -132q-187 0 -319 124l-16 -36q-20 -44 -48 -58t-98 -14q-71 0 -99 18t-28 72v1368q0 58 36 74t138 16t139 -16
q36 -16 36 -74v-467q113 82 260 82z" />
    <glyph glyph-name="c" unicode="c" horiz-adv-x="1003" 
d="M575 -27q-246 0 -382 136.5t-136 413t136.5 412.5t379.5 136q147 0 273 -43q59 -23 87 -53.5t28 -89.5t-29 -110.5t-64 -51.5q-8 0 -86 34t-172 34t-142 -58.5t-48 -210t48 -210t144 -58.5t179 35t90 35q35 0 63.5 -51.5t28.5 -110.5t-26.5 -90t-80.5 -52
q-123 -47 -291 -47z" />
    <glyph glyph-name="d" unicode="d" horiz-adv-x="1181" 
d="M733 487v70q0 119 -43 178t-118.5 59.5t-113.5 -54t-38 -219.5t38 -217t114 -52q162 0 161 235zM901.5 1542q102.5 0 138 -16.5t35.5 -73.5v-1366q0 -57 -24.5 -74.5t-99.5 -17.5t-102.5 13t-43.5 56l-17 41q-133 -127 -321.5 -127t-299 133.5t-110.5 412t111 411.5
t307 133q139 0 252 -74v459q0 57 36 73.5t138.5 16.5z" />
    <glyph glyph-name="e" unicode="e" horiz-adv-x="1101" 
d="M584 819q-76 0 -117 -44t-51 -161q66 -8 121 -8q176 0 176 111q0 102 -129 102zM936 324q37 0 64.5 -51.5t27.5 -110.5t-25.5 -88t-80.5 -51q-121 -49 -295 -50q-569 0 -570 551q0 272 137.5 409.5t381.5 137.5t359.5 -97t115.5 -254t-120 -239t-327 -82q-102 0 -182 19
q16 -92 66.5 -129t139.5 -37t156.5 17.5t103.5 36t48 18.5z" />
    <glyph glyph-name="f" unicode="f" horiz-adv-x="780" 
d="M858 1235q-6 -1 -66 23t-135 24q-145 0 -145 -145v-93h195q43 0 57 -28t14 -101t-14 -101t-57 -28h-195v-700q0 -60 -36 -76t-138 -16t-138 16t-36 76v700h-60q-43 0 -59 25t-16 84t10 82t41 31l84 24v113q0 197 126 307t361 111q91 0 195 -26t104 -136q0 -63 -28 -115
q-29 -51 -64 -51z" />
    <glyph glyph-name="g" unicode="g" horiz-adv-x="1181" 
d="M733 557q0 236 -172 238q-68 0 -104.5 -56.5t-36.5 -216.5t36.5 -215t114.5 -55q162 0 162 235v70zM948.5 1051q69.5 0 98 -18.5t28.5 -74.5v-915q0 -549 -530 -549q-197 0 -338 60q-98 41 -98 133q0 59 30.5 117.5t67.5 58.5q12 1 50 -19q118 -60 251 -61q219 0 219 221
v55q-111 -82 -260 -82q-188 0 -299 133.5t-111 411.5t112 411.5t299 133.5t318 -123l15 35q18 43 48 57.5t99.5 14.5z" />
    <glyph glyph-name="h" unicode="h" horiz-adv-x="1183" 
d="M727 1067q350 0 350 -365v-616q0 -59 -35.5 -75.5t-138 -16.5t-138.5 16.5t-36 75.5v555q0 125 -108 125q-70 0 -119 -43t-49 -100v-537q0 -59 -36 -75.5t-138.5 -16.5t-138.5 16.5t-36 75.5v1364q0 59 36 75.5t138.5 16.5t138.5 -16.5t36 -75.5v-492q124 109 274 109z
" />
    <glyph glyph-name="i" unicode="i" horiz-adv-x="557" 
d="M278.5 -6q-102.5 0 -138.5 16.5t-36 75.5v872q0 57 36 75t138.5 18t138.5 -17.5t36 -75.5v-872q0 -59 -36 -75.5t-138.5 -16.5zM278 1196q-126 0 -163 33t-37 131t38 134t162.5 36t162.5 -34t38 -134t-37.5 -133t-163.5 -33z" />
    <glyph glyph-name="j" unicode="j" horiz-adv-x="557" 
d="M112 -496q-73 0 -143.5 53.5t-70.5 106.5q0 29 41 78q90 104 127.5 203.5t37.5 259.5v753q0 57 36 75t138.5 18t138.5 -17.5t36 -75.5v-716q0 -426 -199 -658q-69 -80 -142 -80zM275 1196q-126 0 -162.5 33t-36.5 131t38 134t162.5 36t162.5 -34t38 -134t-38 -133
t-164 -33z" />
    <glyph glyph-name="k" unicode="k" horiz-adv-x="1140" 
d="M915.5 -6q-106.5 0 -143.5 16.5t-49 77.5q-39 209 -154 332q-70 -35 -116 -51v-283q0 -59 -36 -75.5t-138.5 -16.5t-138.5 16.5t-36 75.5v1364q0 59 36 75.5t138.5 16.5t138.5 -16.5t36 -75.5v-832q188 119 241 340q14 59 52 76t148 17t146.5 -25t8.5 -104
q-70 -193 -250 -347q227 -187 282 -466q14 -70 -22.5 -92.5t-143 -22.5z" />
    <glyph glyph-name="l" unicode="l" horiz-adv-x="557" 
d="M278.5 -6q-102.5 0 -138.5 16.5t-36 75.5v1364q0 59 36 75.5t138.5 16.5t138.5 -16.5t36 -75.5v-1364q0 -59 -36 -75.5t-138.5 -16.5z" />
    <glyph glyph-name="m" unicode="m" horiz-adv-x="1785" 
d="M1333 1067q346 0 346 -365v-616q0 -59 -35 -76q-36 -16 -138 -16t-139 16q-36 16 -36 76v555q0 125 -104 125q-68 0 -114 -43t-46 -100v-537q0 -60 -36 -76t-138 -16t-138 16t-36 76v555q0 125 -105 125q-70 0 -116 -43t-45 -100v-537q0 -60 -36 -76t-138 -16t-139 16
q-36 16 -36 76v872q0 56 29 74t99 18t97 -12q28 -14 46 -57l24 -57q72 72 159 108t163 35q213 0 295 -141q139 141 317 141z" />
    <glyph glyph-name="n" unicode="n" horiz-adv-x="1183" 
d="M727 1067q350 0 350 -365v-616q0 -59 -35.5 -75.5t-138 -16.5t-138.5 16.5t-36 75.5v555q0 125 -108 125q-70 0 -119 -43t-49 -100v-537q0 -59 -36 -75.5t-138.5 -16.5t-138.5 16.5t-36 75.5v872q0 55 29 74t98.5 19t97 -13.5t46.5 -56.5l26 -57q142 143 326 143z" />
    <glyph glyph-name="o" unicode="o" horiz-adv-x="1161" 
d="M580 242q82 0 120.5 60t38.5 226t-37.5 220.5t-121.5 54.5t-122 -54.5t-38 -220.5t39 -226t121 -60zM578 -27q-248 0 -384.5 137.5t-136.5 410.5t137.5 411.5t387.5 138.5t385 -134t135 -408.5t-138 -415t-386 -140.5z" />
    <glyph glyph-name="p" unicode="p" horiz-adv-x="1181" 
d="M449 487q0 -237 160 -237q77 0 115 54t38 219t-38 217t-114 52t-119 -56t-42 -179v-70zM714 1067q188 0 298 -133t110 -412q0 -280 -110 -412t-307 -133q-139 0 -252 74v-454q0 -57 -36 -73t-138 -18q-103 0 -139 16t-36 75v1361q0 56 25 74t99 18t103 -12q28 -14 44 -57
l16 -41q135 127 323 127z" />
    <glyph glyph-name="q" unicode="q" horiz-adv-x="1181" 
d="M571 252q162 0 162 235v70q0 119 -43 178t-119 59q-75 0 -113 -52q-38 -54 -38 -219t38 -218t113 -53zM948 1051q70 -1 99 -19t28 -71v-1364q0 -57 -36 -73t-138 -18q-102 0 -138 16t-36 75v462q-113 -82 -260 -82q-186 -1 -298 133t-112 412t112 412q112 133 301 133
t316 -125l17 35q19 45 47 59t98 15z" />
    <glyph glyph-name="r" unicode="r" horiz-adv-x="878" 
d="M727 1067q74 0 102.5 -36t28.5 -108.5t-20.5 -126t-57.5 -53.5q-12 0 -54 10.5t-83 10.5q-96 0 -143 -42t-47 -99v-537q0 -59 -36 -75.5t-138.5 -16.5t-138.5 16.5t-36 75.5v872q0 55 29 74t98.5 19t98 -14.5t47.5 -55.5l24 -55q72 70 162 105.5t164 35.5z" />
    <glyph glyph-name="s" unicode="s" horiz-adv-x="983" 
d="M473 -27q-188 0 -276 33t-116 63.5t-28 90t29 112t63 52.5q13 0 59 -22q146 -71 302 -71q104 0 104 62.5t-157 95.5q-207 43 -300.5 116t-93.5 220.5t112 246.5t347 99q143 0 261 -39t118 -145q0 -61 -27.5 -112.5t-64.5 -51.5q-12 -1 -54 23q-126 70 -268 71
q-100 0 -100 -60t145 -95q209 -47 308.5 -124t99.5 -227.5t-109.5 -244t-353.5 -93.5z" />
    <glyph glyph-name="t" unicode="t" horiz-adv-x="829" 
d="M743 287q29 0 45.5 -45t16.5 -97q0 -111 -94 -139t-203 -26q-174 0 -263 77.5t-89 253.5v475h-58q-43 0 -59 25t-16 84t10 81.5t41 31.5l96 28l55 172q12 39 40 53.5t104 14.5t105.5 -18.5t29.5 -73.5v-140h213q43 0 57 -27.5t14 -101t-14 -101.5t-57 -28h-213v-380
q0 -78 28 -107t78 -29t87.5 8.5t45.5 8.5z" />
    <glyph glyph-name="u" unicode="u" horiz-adv-x="1181" 
d="M903.5 1051q102.5 0 138 -17.5t35.5 -75.5v-872q0 -57 -24.5 -74.5t-99.5 -17.5t-102.5 13t-43.5 56l-25 60q-143 -145 -324 -145q-354 -1 -354 362v618q0 57 36 75t138.5 18t138.5 -17.5t36 -75.5v-557q0 -123 108 -122q70 0 119 44t49 99v536q0 57 36 75t138.5 18z" />
    <glyph glyph-name="v" unicode="v" horiz-adv-x="1093" 
d="M865 1051q105 1 141 -17t36 -76q0 -206 -84 -466t-229 -439q-31 -37 -65 -48t-117 -11q-84 0 -118 11t-64 48q-145 177 -229 439t-85 466q0 56 36 74t141 18q106 0 144 -16q38 -18 40 -78q20 -430 135 -690q115 260 135 690q2 59 40 77t143 18z" />
    <glyph glyph-name="w" unicode="w" horiz-adv-x="1634" 
d="M1394 1051q105 0 141 -17.5t36 -75.5q0 -242 -66.5 -483.5t-179.5 -415.5q-27 -39 -64.5 -52t-121.5 -13t-124 17.5t-67 64.5q-88 164 -131 362q-41 -186 -131 -362q-25 -49 -64.5 -65.5t-125.5 -16.5t-124 13t-63 52q-109 178 -177.5 421t-68.5 478q0 57 36 75t141.5 18
t143.5 -17.5t40 -77.5q16 -426 100 -677q109 233 129 577q2 57 36 74.5t126 17.5t125 -17.5t37 -74.5q29 -365 131 -580q86 248 102 680q2 59 40.5 77t143.5 18z" />
    <glyph glyph-name="x" unicode="x" horiz-adv-x="1132" 
d="M1071 86q0 -60 -35 -76t-141 -16t-141 16t-43 78q-25 170 -144 297q-121 -127 -145 -297q-8 -62 -43 -78t-141 -16t-142 16q-35 16 -35 76q0 104 78 246t193 221q-115 77 -184 189t-68 216q0 56 36 74t141 18t141 -16q36 -18 42 -78q16 -164 127 -266q109 100 129 266
q8 58 43 76t141 18t141 -16q36 -18 36 -76q1 -102 -69 -214t-185 -189q115 -80 191 -221t77 -248z" />
    <glyph glyph-name="y" unicode="y" horiz-adv-x="1095" 
d="M867 1051q105 0 141 -17.5t36 -75.5q0 -299 -166.5 -691t-414.5 -654q-102 -109 -179.5 -109t-142.5 70t-65 137q0 37 51 72q160 102 270 233q-170 205 -257 470.5t-87 471.5q0 57 36 75t141 18t143.5 -17.5t40.5 -77.5q20 -434 135 -692q109 246 135 692q2 59 40 77
t143 18z" />
    <glyph glyph-name="z" unicode="z" horiz-adv-x="964" 
d="M844 281q43 0 57 -30t14 -111t-14 -110.5t-57 -29.5h-719q-45 0 -59 30t-15 92q-1 154 171 380q110 144 253 262h-334q-43 0 -56 29.5t-13 110.5t13 110.5t56 29.5h682q47 0 61.5 -33.5t14.5 -110t-16.5 -103.5t-57.5 -56q-266 -180 -424 -460h443z" />
    <glyph glyph-name="braceleft" unicode="{" horiz-adv-x="733" 
d="M621 -29q86 0 86 -149q0 -84 -35 -118t-125 -34q-184 0 -286 86q-101 86 -101 209q0 76 34 207q34 130 34 194q-1 136 -105 136h-10q-61 0 -62 123q0 123 62 123h10q51 0 78 36t27 99q0 65 -34 195t-34 206q0 123 101 209t286 86q90 0 125 -34t35 -118q0 -150 -86 -149
q-66 0 -105 -30t-39 -83q1 -53 17 -146t16 -168t-43 -139t-123 -87q80 -23 123 -87t43 -140q0 -74 -16 -168t-16 -146q0 -53 38 -83q39 -30 105 -30z" />
    <glyph glyph-name="bar" unicode="|" horiz-adv-x="612" 
d="M305 -416q-102 0 -138 16t-36 76v1893q0 59 36 75t138 17q102 0 138 -16t36 -76v-1893q0 -60 -36 -76t-138 -16z" />
    <glyph glyph-name="braceright" unicode="}" horiz-adv-x="733" 
d="M621 748q61 0 61 -123t-61 -123h-11q-51 0 -78 -36q-26 -36 -26 -100t34 -194q34 -131 33 -207q0 -123 -101 -209t-286 -86q-90 0 -125 34t-34 118q0 150 86 149q67 0 105 30t38 83t-16 146t-16 168t42 140q43 65 123 87q-80 23 -123 87t-43 139q1 73 17 167t16 147
t-39 83t-104 30q-86 0 -86 149q0 84 34 118q35 34 125 34q184 0 286 -86t101 -209q1 -76 -33 -207t-34 -194q0 -137 104 -135h11z" />
    <glyph glyph-name="asciitilde" unicode="~" horiz-adv-x="1075" 
d="M748 358q-86 0 -164 42t-145 84t-111 42q-82 0 -109 -88q-11 -33 -29 -40t-66 -3q-48 5 -62 21t-9 61q19 147 105 226t173 79t165 -42t144 -84t112 -42q82 0 106 88q8 33 28 40t67 3t63 -20t10 -61q-20 -147 -105 -227q-86 -79 -173 -79z" />
    <glyph glyph-name="uni00A0" unicode="&#xa0;" horiz-adv-x="417" 
 />
    <glyph glyph-name="exclamdown" unicode="&#xa1;" horiz-adv-x="610" 
d="M306 508q75 0 102 -11t28 -53q51 -586 51 -788q0 -59 -36 -76q-37 -16 -146 -16t-145 16t-37 76q0 250 51 788q4 40 30 52t102 12zM310 1063q108 0 149 -46q41 -47 41 -155t-42 -157t-151 -49t-153 47q-44 48 -43 157q0 109 45 156q46 47 154 47z" />
    <glyph glyph-name="cent" unicode="&#xa2;" horiz-adv-x="1040" 
d="M885 539q35 1 63 -51t29 -111q0 -59 -27 -90q-46 -53 -188 -82v-170q0 -57 -36 -73t-138 -17q-102 0 -138 16t-36 74v170q-356 86 -357 532q0 446 357 533v170q0 57 36 73q36 17 138 17t138 -16t36 -74v-172q57 -14 102 -30q99 -34 99 -136q0 -60 -28 -112t-65 -52
q-6 0 -86 34t-174 34t-142 -58t-48 -211q0 -152 48 -210t144 -58t182 35t91 35z" />
    <glyph glyph-name="sterling" unicode="&#xa3;" horiz-adv-x="1081" 
d="M983 313q51 0 66 -31q14 -32 14 -125t-14 -125t-66 -32h-870q-43 0 -58 18q-14 18 -14 85t43 120q98 117 98 369v4h-61q-51 0 -66 27q-14 27 -14 105t14 104t66 26h61v109q0 250 132 392t386 142q125 0 246 -37t121 -153q0 -74 -35 -135t-76 -62q-6 0 -84 34t-158 34
t-123 -42q-42 -42 -42 -122v-160h268q51 0 65 -27t15 -105q0 -78 -14 -104t-66 -26h-272q-18 -174 -105 -283h543z" />
    <glyph glyph-name="currency" unicode="&#xa4;" horiz-adv-x="1323" 
d="M662 557q158 0 157 182q0 90 -42 134t-115 45q-158 0 -158 -180t158 -181zM660 1202q99 0 206 -55l125 125q39 36 69 26t96 -76t78 -96q11 -31 -26 -67l-125 -121q109 -198 0 -401l125 -121q37 -37 26 -68q-12 -31 -78 -96q-66 -64 -96 -74t-69 25l-125 125
q-207 -108 -411 0l-127 -125q-37 -35 -67 -26q-31 9 -97 76t-75 97t26 66l123 119q-108 203 0 405l-123 119q-35 37 -26 67t76 96q67 68 97 76t66 -26l127 -125q106 55 205 55z" />
    <glyph glyph-name="yen" unicode="&#xa5;" horiz-adv-x="1320" 
d="M1074 1481q110 -1 149 -17t37 -75q-2 -137 -72 -309t-182 -324h110q44 0 58 -23t14 -86t-13 -87t-59 -23h-272v-97h272q45 0 59 -22q13 -23 13 -86t-13 -86t-59 -23h-272v-137q0 -60 -38 -76t-146 -16t-145 16q-38 16 -38 76v137h-274q-43 0 -58 23q-14 23 -14 86t14 86
t58 22h274v97h-274q-43 0 -58 23q-14 24 -14 87t14 86t58 23h114q-115 152 -185 324t-71 309q-2 59 37 75t149 16q109 0 145 -16t42 -78q23 -209 75 -350t153 -258q188 227 225 606q5 61 41 79t146 18z" />
    <glyph glyph-name="brokenbar" unicode="&#xa6;" horiz-adv-x="612" 
d="M305 -416q-102 0 -138 16t-36 76v686q0 58 36 74t138 16t138 -16t36 -74v-686q0 -60 -36 -76t-138 -16zM305 793q-102 0 -138 16t-36 74v686q0 59 36 75t138 17q102 0 138 -16t36 -76v-686q0 -57 -36 -73t-138 -17z" />
    <glyph glyph-name="section" unicode="&#xa7;" horiz-adv-x="1069" 
d="M338 700q0 -98 162 -150q68 -22 109 -22q42 0 79 34t37 85q0 97 -190 158q-39 12 -81 12t-79 -34t-37 -83zM508 -154q-172 0 -301 41q-115 35 -115 142q0 55 32 111t71 57q1 0 119 -47q118 -48 224 -48t105 64q1 64 -207 127t-307 151q-98 88 -98 226q0 98 59 171
t164 109q-158 78 -158 230q0 129 113 225t342 96q155 0 269 -40t114 -138q0 -59 -31 -111t-72 -51q-4 0 -107 44q-104 44 -204 44t-100 -65q0 -39 57 -70q57 -30 207 -76t250 -134t100 -228q0 -98 -59 -171t-164 -110q160 -82 160 -221q1 -140 -111 -234t-352 -94z" />
    <glyph glyph-name="dieresis" unicode="&#xa8;" horiz-adv-x="980" 
d="M733.5 1196q-110.5 0 -141.5 33t-31 131t32 134q31 36 141 36t143.5 -34t33.5 -134t-33.5 -133t-144 -33zM241.5 1196q-110.5 0 -141 33t-30.5 131t31.5 134t141.5 36t143.5 -34t33.5 -134t-34 -133t-144.5 -33z" />
    <glyph glyph-name="copyright" unicode="&#xa9;" horiz-adv-x="1794" 
d="M915 240q-225 0 -350 125t-125 373t124 372q124 125 351 125q127 0 248 -43q92 -31 92 -131q0 -57 -27 -106q-28 -48 -65 -48q-8 0 -69 25t-123 24q-168 0 -168 -219t168 -219q63 0 127 25t69 24q35 0 64 -47t29 -104q0 -94 -95 -131q-115 -45 -250 -45zM303 737
q0 -295 169 -459t426 -165q257 0 426 165q169 166 169 460t-169 459t-426 165t-426 -165t-169 -460zM53 738q0 198 71 360q133 303 458 424q150 55 314 55q340 0 585 -214q119 -103 189 -265t71 -361q0 -199 -71 -361t-189 -264q-247 -214 -585 -214t-583 214
q-119 103 -189 265q-71 163 -71 361z" />
    <glyph glyph-name="ordfeminine" unicode="&#xaa;" horiz-adv-x="843" 
d="M502 1004v67q-205 0 -205 -106q0 -70 76 -70q57 0 104 43q25 25 25 66zM393 1518q203 0 288 -82t85 -283v-367q0 -43 -18 -56t-76 -13t-77 10t-34 43l-16 43q-104 -111 -262 -111q-119 0 -186 62t-66 168q0 143 128 215t343 55v17q0 47 -29 67t-107 20t-151 -27
q-72 -28 -74 -28q-27 0 -49 39t-20 86q0 80 96 111t225 31z" />
    <glyph glyph-name="guillemotleft" unicode="&#xab;" horiz-adv-x="1210" 
d="M569 522q0 57 39 113q141 207 373 391q39 31 63 29t65 -37q42 -35 47 -55t-26 -66q-164 -213 -212 -375q49 -162 212 -375q31 -45 26 -67t-47 -54q-41 -34 -65 -36t-63 28q-225 178 -373 392q-39 55 -39 112zM49 522q0 57 39 113q141 207 373 391q39 31 63 29t65 -37
q42 -35 47 -55t-26 -66q-164 -213 -213 -375q49 -162 213 -375q31 -45 26 -67t-47 -54q-41 -34 -65 -36t-63 28q-225 178 -373 392q-39 55 -39 112z" />
    <glyph glyph-name="logicalnot" unicode="&#xac;" horiz-adv-x="1085" 
d="M897 795q88 0 88 -88v-447q0 -45 -29 -59q-30 -15 -110 -15t-108 14t-27 60v283h-572q-43 -1 -57 25t-14 101t14 101t57 25h758z" />
    <glyph glyph-name="uni00AD" unicode="&#xad;" horiz-adv-x="753" 
d="M154 424q-43 0 -58 31q-14 31 -14 111t14 109q14 30 58 30h446q43 0 57 -30q15 -30 15 -110q0 -81 -14 -111t-58 -30h-446z" />
    <glyph glyph-name="registered" unicode="&#xae;" horiz-adv-x="1284" 
d="M582 1198h65q84 0 84 70t-86 69h-63v-139zM582 926q0 -40 -22 -50t-84 -10t-82 10t-21 50v463q0 88 88 88h225q260 0 260 -199q0 -113 -125 -160q49 -23 83 -79t34 -104t-25 -58q-25 -11 -95 -11t-92 10q-24 10 -24 58q0 47 -29 98q-30 51 -73 51h-18v-157zM229 1161
q1 -195 107 -305t306 -111q200 0 306 111q106 112 106 316t-106 315t-303 111t-307 -122q-110 -120 -109 -315zM643 567q-268 0 -438 172t-170 432q0 259 170 431t438 172t437 -171t169 -431t-169 -433q-169 -172 -437 -172z" />
    <glyph glyph-name="macron" unicode="&#xaf;" horiz-adv-x="823" 
d="M121 1253q-43 0 -57 26q-14 27 -14.5 97t14 96.5t57.5 26.5h581q43 0 57.5 -26.5t14.5 -97.5t-14.5 -96.5t-57.5 -25.5h-581z" />
    <glyph glyph-name="degree" unicode="&#xb0;" horiz-adv-x="811" 
d="M406 1110q55 0 87 32q31 32 31 86t-31 87q-32 33 -87 33q-56 0 -88 -33t-32 -87t33 -86q32 -32 87 -32zM407 887q-163 0 -268 96q-104 96 -104 246t104 246q105 96 267 96t266 -96t104 -246t-103 -246t-266 -96z" />
    <glyph glyph-name="plusminus" unicode="&#xb1;" horiz-adv-x="1085" 
d="M942 365q45 0 59 -27q15 -26 15 -100t-14 -100t-60 -25h-801q-43 -1 -57 25t-14 100t14 100t57 27h801zM141 698q-43 0 -57 27t-14 101t14 100q14 27 57 26h265v181q0 43 27 57q28 14 110 14q81 0 109 -14t28 -57v-181h262q45 0 59 -26q15 -26 15 -101t-14 -101t-60 -26
h-262v-180q0 -43 -28 -57q-28 -15 -110 -15t-109 14q-28 14 -27 58v180h-265z" />
    <glyph glyph-name="uni00B2" unicode="&#xb2;" 
d="M135 887q-33 0 -48 18q-15 19 -20 65t6 70t56 56q168 116 239 180t70 117q0 70 -92 69q-59 0 -126 -28q-66 -28 -88 -27q-22 0 -42 40t-20 83q0 84 80 119q119 49 265 49t230 -65t84 -166t-74 -184t-231 -175h242q41 0 53 -24t12 -88t-12 -88q-12 -22 -53 -21h-531z" />
    <glyph glyph-name="uni00B3" unicode="&#xb3;" 
d="M382 874q-161 0 -261 48q-68 33 -68 98q0 41 22 80t50 39q8 0 84 -29t133 -29q127 1 127 65t-139 64h-45q-31 0 -43 16t-16 67t6 67q9 16 38 16h13q180 0 180 70q0 55 -101 55q-54 1 -124 -27t-90 -28t-40 35q-19 35 -20 73q0 70 80 101q106 43 246 43t228 -53
q89 -53 89 -154q0 -70 -43 -118t-115 -68q182 -47 183 -193q0 -110 -106 -174t-268 -64z" />
    <glyph glyph-name="acute" unicode="&#xb4;" horiz-adv-x="788" 
d="M451 1620q66 0 128 -64.5t62 -116.5t-53 -87l-309 -197q-25 -18 -47.5 -14t-57.5 37t-41 52t10 46l176 252q66 92 132 92z" />
    <glyph glyph-name="uni00B5" unicode="&#xb5;" horiz-adv-x="1204" 
d="M279 -494q-103 0 -139 16t-36 77v1359q0 56 36 74t138 18t139 -16q36 -18 36 -76v-557q0 -133 108 -133q70 0 119 44t49 110v536q0 56 36 74t138 18t138 -16q36 -18 36 -76v-690q-1 -45 13 -64t47 -20h12q29 0 37 -19t8 -71t-8 -69q-8 -18 -37 -25q-78 -16 -135 -16
q-154 0 -215 114l-11 21q-86 -141 -221 -142q-72 0 -114 43v-421q0 -59 -36 -76t-138 -17z" />
    <glyph glyph-name="paragraph" unicode="&#xb6;" horiz-adv-x="1239" 
d="M683 -211q-60 0 -82 13t-21 59v659h-68q-196 0 -327 102q-130 102 -130 366t134 376t397 111h442q88 0 88 -89v-1525q0 -45 -21 -59q-22 -13 -83 -13t-82 13q-20 13 -21 59v1396h-121v-1396q0 -45 -22 -59q-23 -13 -83 -13z" />
    <glyph glyph-name="periodcentered" unicode="&#xb7;" horiz-adv-x="573" 
d="M285 399q-123 -1 -167 49t-44 175t44 177t167 52t170 -50t47 -176t-47 -176t-170 -51z" />
    <glyph glyph-name="cedilla" unicode="&#xb8;" horiz-adv-x="593" 
d="M217 -483q-188 0 -188 88q0 33 14 64.5t35 31.5q6 0 36.5 -10t59.5 -10q88 0 88 54t-112 66q-20 2 -29.5 17.5t-1.5 31.5l80 179h184l-45 -95q197 -55 197 -198q0 -100 -89.5 -159.5t-228.5 -59.5z" />
    <glyph glyph-name="uni00B9" unicode="&#xb9;" 
d="M659 956q-1 -47 -29 -60t-111 -13t-111 13t-27 60v535q-63 -10 -140 -47t-91 -37q-31 0 -52 42q-20 42 -20 89q0 72 69 100q131 58 271 58t191 -25q50 -25 50 -92v-623z" />
    <glyph glyph-name="ordmasculine" unicode="&#xba;" horiz-adv-x="878" 
d="M438 903q61 0 91 45t30 166t-29 161t-92 40t-92 -40t-29 -161t30 -166t91 -45zM438 702q-395 0 -395 412q0 199 103 301t292 103q395 0 396 -404q0 -204 -105 -308t-291 -104z" />
    <glyph glyph-name="guillemotright" unicode="&#xbb;" horiz-adv-x="1210" 
d="M1161 502q0 -57 -39 -113q-141 -207 -372 -391q-39 -31 -63 -29q-23 2 -65 37t-48 55q-5 20 26 66q164 213 213 375q-49 162 -213 375q-31 45 -26 67q6 22 48 54q42 34 66 36t62 -28q225 -178 372 -392q39 -55 39 -112zM641 502q0 -57 -39 -113q-141 -207 -373 -391
q-39 -31 -63 -29t-65 37q-42 35 -47 55t26 66q164 213 213 375q-49 162 -213 375q-31 45 -26 67t47 54q41 34 65 36t63 -28q225 -178 373 -392q39 -55 39 -112z" />
    <glyph glyph-name="onequarter" unicode="&#xbc;" horiz-adv-x="1904" 
d="M1497 322v243q-129 -89 -176 -243h176zM1821 322q39 0 49 -18t10 -76q0 -56 -10 -74t-49 -19h-54v-65q0 -47 -27 -61q-28 -13 -109 -13t-107 13t-27 61v65h-285q-57 -1 -74 61t-8 109q35 133 128 255q92 122 194 184t184 61q82 0 106 -14q26 -14 25 -60v-409h54z
M1418 1481q82 -1 102 -19t-13 -78l-839 -1300q-39 -58 -70 -74t-113 -16t-102 18t12 78l840 1301q39 59 69 75t114 15zM381 745v535q-63 -10 -140 -47t-91 -37q-31 0 -52 42q-20 42 -20 89q0 72 69 100q131 57 271 57t191 -24q50 -25 50 -92v-623q-1 -47 -29 -60t-111 -13
t-111 13t-27 60z" />
    <glyph glyph-name="onehalf" unicode="&#xbd;" horiz-adv-x="1904" 
d="M1221 0q-33 0 -49 18q-15 18 -20 64t6 72q11 25 56 55q168 115 239 179t71 118q0 70 -92 69q-59 1 -126 -27q-66 -28 -88 -28t-42 40t-21 83q0 86 80 119q121 49 267 49t229 -65q84 -65 84 -166t-74 -184t-232 -175h242q41 1 53 -23t12 -88t-12 -88q-12 -22 -53 -22h-530
zM485 -6q-82 0 -102 18t12 78l840 1301q39 59 70 74t113 15t102 -18t-13 -78l-839 -1300q-39 -58 -70 -74t-113 -16zM659 745q-1 -47 -29 -60t-111 -13t-111 13t-27 60v535q-63 -10 -140 -47t-91 -37q-31 0 -52 42q-20 42 -20 89q0 72 69 100q131 57 271 57t191 -24
q50 -25 50 -92v-623z" />
    <glyph glyph-name="threequarters" unicode="&#xbe;" horiz-adv-x="1904" 
d="M1497 322v243q-129 -89 -176 -243h176zM1821 322q39 0 49 -18t10 -76q0 -56 -10 -74t-49 -19h-54v-65q0 -47 -27 -61q-28 -13 -109 -13t-107 13t-27 61v65h-285q-57 -1 -74 61t-8 109q35 133 128 255q92 122 194 184t184 61q82 0 106 -14q26 -14 25 -60v-409h54z
M1418 1481q82 -1 102 -19t-13 -78l-839 -1300q-39 -58 -70 -74t-113 -16t-102 18t12 78l840 1301q39 59 69 75t114 15zM756 901q0 -111 -106 -174t-268 -63q-161 0 -261 47q-68 33 -68 98q0 41 22 80t50 39q8 0 84 -29t133 -29q127 0 127 64t-139 65h-45q-31 1 -43 17
t-16 66t6 66q9 16 38 17h13q180 0 180 70q0 55 -101 55q-54 0 -124 -28t-90 -27q-20 0 -40 35q-19 35 -20 73q0 70 80 101q106 43 246 43t228 -53q89 -53 89 -154q0 -70 -43 -118t-115 -68q183 -48 183 -193z" />
    <glyph glyph-name="questiondown" unicode="&#xbf;" horiz-adv-x="993" 
d="M514 -471q-240 0 -367 103t-127 270q0 119 54 207q54 87 168 157q112 70 149 118t43 93t34 54t106 9t101 -12q46 -24 46 -181t-193 -279q-86 -53 -114 -82t-29 -62q0 -76 121 -76t242 35t126 35q39 0 67 -58t28 -128q1 -129 -149 -166t-306 -37zM555 657q-109 0 -149 46
q-40 47 -41 155q0 108 42 158q41 50 149 51q108 0 152 -48t44 -158t-44 -157t-153 -47z" />
    <glyph glyph-name="Agrave" unicode="&#xc0;" horiz-adv-x="1431" 
d="M506 575h422q-61 317 -211 588q-148 -262 -211 -588zM1354 86q0 -59 -38 -75.5t-148 -16.5t-146.5 16.5t-38.5 75.5q-8 125 -14 193h-504q-6 -68 -14 -193q-2 -59 -40 -75.5t-146.5 -16.5t-147.5 16.5t-39 75.5q0 305 118.5 696.5t295.5 624.5q37 49 79.5 61.5t145 12.5
t144.5 -12.5t79 -61.5q176 -233 295 -624.5t119 -696.5zM338 1778q0 61 46 126.5t101.5 65.5t126.5 -55l275 -209q29 -23 28.5 -46.5t-23 -65.5t-40.5 -51t-53 3l-398 148q-63 23 -63 84z" />
    <glyph glyph-name="Aacute" unicode="&#xc1;" horiz-adv-x="1431" 
d="M506 575h422q-61 317 -211 588q-148 -262 -211 -588zM1354 86q0 -59 -38 -75.5t-148 -16.5t-146.5 16.5t-38.5 75.5q-8 125 -14 193h-504q-6 -68 -14 -193q-2 -59 -40 -75.5t-146.5 -16.5t-147.5 16.5t-39 75.5q0 305 118.5 696.5t295.5 624.5q37 49 79.5 61.5t145 12.5
t144.5 -12.5t79 -61.5q176 -233 295 -624.5t119 -696.5zM522 1676.5q0 21.5 29 47.5l274 213q143 111 229 -13q46 -66 46 -128.5t-62 -85.5l-399 -149q-37 -10 -52.5 -1t-40 52t-24.5 64.5z" />
    <glyph glyph-name="Acircumflex" unicode="&#xc2;" horiz-adv-x="1431" 
d="M506 575h422q-61 317 -211 588q-148 -262 -211 -588zM1354 86q0 -59 -38 -75.5t-148 -16.5t-146.5 16.5t-38.5 75.5q-8 125 -14 193h-504q-6 -68 -14 -193q-2 -59 -40 -75.5t-146.5 -16.5t-147.5 16.5t-39 75.5q0 305 118.5 696.5t295.5 624.5q37 49 79.5 61.5t145 12.5
t144.5 -12.5t79 -61.5q176 -233 295 -624.5t119 -696.5zM717 1698q-100 -41 -177 -89.5t-101.5 -47t-53.5 30t-32 50t20 52.5q96 129 198 211q70 55 147 56q142 2 343 -267q23 -33 19.5 -53.5t-32 -49t-53 -29.5t-101.5 48t-177 88z" />
    <glyph glyph-name="Atilde" unicode="&#xc3;" horiz-adv-x="1431" 
d="M506 575h422q-61 317 -211 588q-148 -262 -211 -588zM1354 86q0 -59 -38 -75.5t-148 -16.5t-146.5 16.5t-38.5 75.5q-8 125 -14 193h-504q-6 -68 -14 -193q-2 -59 -40 -75.5t-146.5 -16.5t-147.5 16.5t-39 75.5q0 305 118.5 696.5t295.5 624.5q37 49 79.5 61.5t145 12.5
t144.5 -12.5t79 -61.5q176 -233 295 -624.5t119 -696.5zM564 1952q93 0 199.5 -63.5t139.5 -63.5q68 0 107 69q16 31 39.5 35t69.5 -10t58.5 -32.5t0.5 -59.5q-39 -127 -120 -192.5t-174 -65.5t-199.5 67.5t-139.5 67.5q-70 0 -107 -68q-16 -31 -39.5 -36t-68.5 9.5
t-58.5 34t-1.5 60.5q37 123 119 185.5t175 62.5z" />
    <glyph glyph-name="Adieresis" unicode="&#xc4;" horiz-adv-x="1431" 
d="M506 575h422q-61 317 -211 588q-148 -262 -211 -588zM1354 86q0 -59 -38 -75.5t-148 -16.5t-146.5 16.5t-38.5 75.5q-8 125 -14 193h-504q-6 -68 -14 -193q-2 -59 -40 -75.5t-146.5 -16.5t-147.5 16.5t-39 75.5q0 305 118.5 696.5t295.5 624.5q37 49 79.5 61.5t145 12.5
t144.5 -12.5t79 -61.5q176 -233 295 -624.5t119 -696.5zM960.5 1587q-110.5 0 -141.5 33t-31 130t32 133t142 36t143.5 -34t33.5 -133t-34 -132t-144.5 -33zM469 1587q-111 0 -141.5 33t-30.5 130t31.5 133t141.5 36t143.5 -34t33.5 -133t-33.5 -132t-144.5 -33z" />
    <glyph glyph-name="Aring" unicode="&#xc5;" horiz-adv-x="1431" 
d="M506 575h422q-61 317 -211 588q-148 -262 -211 -588zM1354 86q0 -59 -38 -75.5t-148 -16.5t-146.5 16.5t-38.5 75.5q-8 125 -14 193h-504q-6 -68 -14 -193q-2 -59 -40 -75.5t-146.5 -16.5t-147.5 16.5t-39 75.5q0 305 118.5 696.5t295.5 624.5q37 49 79.5 61.5t145 12.5
t144.5 -12.5t79 -61.5q176 -233 295 -624.5t119 -696.5zM719 1843q-37 0 -61.5 -25.5t-24.5 -73.5t24.5 -73.5t61.5 -25.5t61.5 25.5t24.5 73.5t-24.5 73.5t-61.5 25.5zM719 1516q-96 0 -167 63t-71 165.5t71 165t167 62.5t165.5 -62.5t69.5 -165t-69.5 -165.5t-165.5 -63z
" />
    <glyph glyph-name="AE" unicode="&#xc6;" horiz-adv-x="1921" 
d="M903 567v545q-227 -213 -358 -545h358zM1784 297q51 0 66 -31q16 -31 16 -118q0 -88 -16 -118t-66 -30h-793q-88 0 -88 88v164h-454q-19 -80 -29 -152t-50 -90q-40 -16 -154 -16t-153 16t-30 76q61 408 283 780t507 561q72 47 162 48h787q51 0 66 -31t15 -118t-15 -118
t-66 -30h-502v-279h381q51 0 65 -30q14 -29 14 -117t-14 -119t-65 -31h-381v-305h514z" />
    <glyph glyph-name="Ccedilla" unicode="&#xc7;" horiz-adv-x="1228" 
d="M647 -483q-188 0 -188 88q0 33 14 64.5t35 31.5q6 0 36.5 -10t59.5 -10q88 0 88 54t-112 66q-20 2 -29.5 17.5t-1.5 31.5l59 134q-256 37 -397 229.5t-141 551.5t177 547.5t492 188.5q150 0 288 -36t138 -156q0 -66 -25.5 -121t-62.5 -55q-6 0 -112.5 33.5t-210.5 33.5
q-311 0 -311.5 -463t311.5 -463q104 0 219 36t119 36q37 0 62.5 -56.5t25.5 -119.5q0 -123 -140 -158q-121 -33 -254 -39l-18 -39q197 -55 197 -198q0 -100 -89.5 -159.5t-228.5 -59.5z" />
    <glyph glyph-name="Egrave" unicode="&#xc8;" horiz-adv-x="1183" 
d="M1047 297q51 0 65 -30.5t14 -118t-14 -118t-65 -30.5h-824q-88 0 -88 88v1298q0 88 88 89h811q51 0 65.5 -31t14.5 -118t-14.5 -117.5t-65.5 -30.5h-532v-279h409q51 0 65.5 -29.5t14.5 -117.5t-14 -119t-66 -31h-409v-305h545zM246 1778q0 61 46 126.5t101 65.5t127 -55
l275 -209q29 -23 28.5 -46.5t-23 -65.5t-41 -51t-52.5 3l-398 148q-63 23 -63 84z" />
    <glyph glyph-name="Eacute" unicode="&#xc9;" horiz-adv-x="1183" 
d="M1047 297q51 0 65 -30.5t14 -118t-14 -118t-65 -30.5h-824q-88 0 -88 88v1298q0 88 88 89h811q51 0 65.5 -31t14.5 -118t-14.5 -117.5t-65.5 -30.5h-532v-279h409q51 0 65.5 -29.5t14.5 -117.5t-14 -119t-66 -31h-409v-305h545zM430 1676.5q0 21.5 29 47.5l274 213
q143 111 229 -13q46 -66 46 -128.5t-62 -85.5l-399 -149q-37 -10 -52.5 -1t-40 52t-24.5 64.5z" />
    <glyph glyph-name="Ecircumflex" unicode="&#xca;" horiz-adv-x="1183" 
d="M1047 297q51 0 65 -30.5t14 -118t-14 -118t-65 -30.5h-824q-88 0 -88 88v1298q0 88 88 89h811q51 0 65.5 -31t14.5 -118t-14.5 -117.5t-65.5 -30.5h-532v-279h409q51 0 65.5 -29.5t14.5 -117.5t-14 -119t-66 -31h-409v-305h545zM625 1698q-100 -41 -177 -89.5t-101.5 -47
t-53.5 30t-32 50t20 52.5q96 129 198 211q70 55 146.5 56t146.5 -56q102 -84 197 -211q23 -33 19.5 -53.5t-32 -49t-53 -29.5t-101.5 48t-177 88z" />
    <glyph glyph-name="Edieresis" unicode="&#xcb;" horiz-adv-x="1183" 
d="M1047 297q51 0 65 -30.5t14 -118.5t-14 -118t-65 -30h-824q-88 0 -88 88v1298q0 88 88 89h811q51 0 65.5 -31t14.5 -118t-14.5 -117.5t-65.5 -30.5h-532v-279h409q51 0 65.5 -29.5t14.5 -117.5t-14 -119t-66 -31h-409v-305h545zM868.5 1587q-110.5 0 -141.5 33t-31 130
t32 133t142 36t143.5 -34t33.5 -133t-34 -132t-144.5 -33zM376.5 1587q-110.5 0 -141 33t-30.5 130t31.5 133t141.5 36t143.5 -34t33.5 -133t-34 -132t-144.5 -33z" />
    <glyph glyph-name="Igrave" unicode="&#xcc;" horiz-adv-x="636" 
d="M318.5 -6q-107.5 0 -145.5 16.5t-38 75.5v1303q0 59 38 75.5t145.5 16.5t145.5 -16.5t38 -75.5v-1303q0 -59 -38 -75.5t-145.5 -16.5zM-59 1778q0 61 46 126.5t101 65.5t127 -55l274 -209q29 -23 29 -46.5t-22.5 -65.5t-41 -51t-53.5 3l-397 148q-63 23 -63 84z" />
    <glyph glyph-name="Iacute" unicode="&#xcd;" horiz-adv-x="636" 
d="M318.5 -6q-107.5 0 -145.5 16.5t-38 75.5v1303q0 59 38 75.5t145.5 16.5t145.5 -16.5t38 -75.5v-1303q0 -59 -38 -75.5t-145.5 -16.5zM125 1676.5q0 21.5 29 47.5l274 213q143 111 228 -13q46 -66 46 -128.5t-61 -85.5l-399 -149q-37 -10 -52.5 -1t-40 52t-24.5 64.5z
" />
    <glyph glyph-name="Icircumflex" unicode="&#xce;" horiz-adv-x="636" 
d="M318.5 1481q107.5 0 145.5 -16.5t38 -75.5v-1303q0 -59 -38 -75.5t-145.5 -16.5t-145.5 16.5t-38 75.5v1303q0 59 38 75.5t145.5 16.5zM664 1694q23 -33 19.5 -53.5t-32 -49t-53.5 -29.5t-102 48t-177 88q-100 -41 -176.5 -89.5t-101.5 -47t-53.5 30t-31.5 50t19 52.5
q96 129 199 211q70 55 146 56q144 2 344 -267z" />
    <glyph glyph-name="Idieresis" unicode="&#xcf;" horiz-adv-x="636" 
d="M318.5 -6q-107.5 0 -145.5 16.5t-38 75.5v1303q0 59 38 75.5t145.5 16.5t145.5 -16.5t38 -75.5v-1303q0 -59 -38 -75.5t-145.5 -16.5zM563.5 1587q-110.5 0 -141.5 33t-31 130t32 133t141.5 36t143 -34t33.5 -133t-33.5 -132t-144 -33zM71.5 1587q-110.5 0 -141 33
t-30.5 130t31.5 133t141.5 36t143.5 -34t33.5 -133t-34 -132t-144.5 -33z" />
    <glyph glyph-name="Eth" unicode="&#xd0;" horiz-adv-x="1497" 
d="M719 297q180 0 258 96t78 344t-78 344.5t-258 96.5h-150v-316h172q43 0 56.5 -21.5t13.5 -89t-13.5 -89t-56.5 -21.5h-172v-344h150zM719 1475q358 0 533 -172.5t175 -565.5t-175 -565t-533 -172h-428q-88 0 -88 88v553h-111q-43 0 -56 21.5t-13 89t13 89t56 21.5h111
v524q0 88 88 89h428z" />
    <glyph glyph-name="Ntilde" unicode="&#xd1;" horiz-adv-x="1474" 
d="M1157.5 1481q106.5 0 144 -16.5t37.5 -75.5v-1303q0 -59 -31.5 -75.5t-117.5 -16.5t-113.5 11t-38.5 46q-70 248 -216 498t-324 428v-891q0 -59 -37 -75.5t-143.5 -16.5t-144.5 16.5t-38 75.5v1303q0 59 32 75.5t126 16.5t139 -35q145 -109 290.5 -275.5t252.5 -343.5
v562q0 59 38 75.5t144.5 16.5zM582.5 1952q93.5 0 200 -63.5t139.5 -63.5q68 0 106 69q16 31 40 35t70 -10t58 -32.5t0 -59.5q-39 -127 -120 -192.5t-164 -65.5t-148.5 33.5t-116.5 67.5t-84 34q-70 0 -106 -68q-16 -31 -40 -36t-69 9.5t-58.5 34t-0.5 60.5
q37 123 118.5 185.5t175 62.5z" />
    <glyph glyph-name="Ograve" unicode="&#xd2;" horiz-adv-x="1443" 
d="M721 274q141 0 210.5 114t69.5 354.5t-69.5 349t-211.5 108.5t-210 -108.5t-68 -349.5t69 -354.5t210 -113.5zM720 -27q-316 0 -483 192.5t-167 577.5q0 758 651 758t651 -758q0 -385 -168 -577.5t-484 -192.5zM491.5 1970q55.5 0 126.5 -55l275 -209q29 -23 29 -46.5
t-23 -65.5t-41 -51t-53 3l-397 148q-63 23 -63.5 84t45.5 126.5t101.5 65.5z" />
    <glyph glyph-name="Oacute" unicode="&#xd3;" horiz-adv-x="1443" 
d="M721 274q141 0 210.5 114t69.5 354.5t-69.5 349t-211.5 108.5t-210 -108.5t-68 -349.5t69 -354.5t210 -113.5zM720 -27q-316 0 -483 192.5t-167 577.5q0 758 651 758t651 -758q0 -385 -168 -577.5t-484 -192.5zM528 1676.5q0 21.5 29 47.5l274 213q143 111 229 -13
q46 -66 46 -128.5t-62 -85.5l-399 -149q-37 -10 -52 -1t-40 52t-25 64.5z" />
    <glyph glyph-name="Ocircumflex" unicode="&#xd4;" horiz-adv-x="1443" 
d="M721 274q141 0 210.5 114t69.5 354.5t-69.5 349t-211.5 108.5t-210 -108.5t-68 -349.5t69 -354.5t210 -113.5zM70 743q0 758 651 758t651 -758q0 -385 -168 -577.5t-484 -192.5t-483 192.5t-167 577.5zM723 1698q-100 -41 -177 -89.5t-101.5 -47t-53.5 30t-32 50t20 52.5
q96 129 199 211q70 55 146 56q141 2 343 -267q23 -33 19.5 -53.5t-32 -49t-53 -29.5t-101.5 48t-177 88z" />
    <glyph glyph-name="Otilde" unicode="&#xd5;" horiz-adv-x="1443" 
d="M721 274q141 0 210.5 114t69.5 354.5t-69.5 349t-211.5 108.5t-210 -108.5t-68 -349.5t69 -354.5t210 -113.5zM720 -27q-316 0 -483 192.5t-167 577.5q0 758 651 758t651 -758q0 -385 -168 -577.5t-484 -192.5zM900 1569q-83 0 -148.5 33.5t-116.5 67.5t-84 34
q-70 0 -107 -68q-16 -31 -39.5 -36t-68.5 9.5t-58.5 34t-1.5 60.5q37 123 119 185.5t175.5 62.5t200 -63.5t138.5 -63.5q68 0 107 69q16 31 39.5 35t69.5 -10t58.5 -32.5t0.5 -59.5q-39 -127 -120 -192.5t-164 -65.5z" />
    <glyph glyph-name="Odieresis" unicode="&#xd6;" horiz-adv-x="1443" 
d="M721 274q141 0 210.5 114t69.5 354.5t-69.5 349t-211.5 108.5t-210 -108.5t-68 -349.5t69 -354.5t210 -113.5zM720 -27q-316 0 -483 192.5t-167 577.5q0 758 651 758t651 -758q0 -385 -168 -577.5t-484 -192.5zM966.5 1587q-110.5 0 -141 33t-30.5 130t31.5 133t141.5 36
t143.5 -34t33.5 -133t-34 -132t-144.5 -33zM475.5 1587q-110.5 0 -141.5 33t-31 130t32 133t141.5 36t143 -34t33.5 -133t-33.5 -132t-144 -33z" />
    <glyph glyph-name="multiply" unicode="&#xd7;" horiz-adv-x="1085" 
d="M946 461q31 -31 23 -59q-7 -28 -65 -85t-86 -64t-60 23l-215 209l-215 -209q-31 -32 -59 -24t-85 65t-65 85t22 59l213 209l-213 207q-31 31 -23 59t65 84q56 57 85 64t60 -23l215 -209l215 209q30 31 60 23t86 -64q56 -57 64 -85t-22 -58l-215 -207z" />
    <glyph glyph-name="Oslash" unicode="&#xd8;" horiz-adv-x="1443" 
d="M721 274q141 0 210.5 114t69.5 354.5t-69.5 349t-211.5 108.5t-210 -108.5t-68 -349.5t69 -354.5t210 -113.5zM1372 743q0 -385 -168 -577.5t-485 -192.5q-178 0 -311 62l-82 -119q-35 -45 -69 -44t-99.5 44t-78.5 75t19 79l101 145q-129 195 -129 528q0 758 649 758
q184 0 319 -61l82 119q35 45 69 44t99 -45.5t77.5 -75t-17.5 -77.5l-101 -145q125 -186 125 -517z" />
    <glyph glyph-name="Ugrave" unicode="&#xd9;" horiz-adv-x="1429" 
d="M715 -27q-289 0 -440.5 158t-151.5 504v754q0 59 38 75.5t145.5 16.5t145 -16.5t37.5 -75.5v-738q0 -193 55.5 -275.5t170 -82.5t170 83t55.5 275v738q0 59 38 75.5t145.5 16.5t145.5 -16.5t38 -75.5v-754q0 -662 -592 -662zM336 1778q0 61 46 126.5t101.5 65.5
t126.5 -55l275 -209q29 -23 28.5 -46.5t-23 -65.5t-40.5 -51t-53 3l-398 148q-63 23 -63 84z" />
    <glyph glyph-name="Uacute" unicode="&#xda;" horiz-adv-x="1429" 
d="M715 -27q-289 0 -440.5 158t-151.5 504v754q0 59 38 75.5t145.5 16.5t145 -16.5t37.5 -75.5v-738q0 -193 55.5 -275.5t170 -82.5t170 83t55.5 275v738q0 59 38 75.5t145.5 16.5t145.5 -16.5t38 -75.5v-754q0 -662 -592 -662zM520 1676.5q0 21.5 29 47.5l274 213
q143 111 229 -13q46 -66 46 -128.5t-62 -85.5l-399 -149q-37 -10 -52.5 -1t-40 52t-24.5 64.5z" />
    <glyph glyph-name="Ucircumflex" unicode="&#xdb;" horiz-adv-x="1429" 
d="M1123.5 1481q107.5 0 145.5 -16.5t38 -75.5v-754q0 -662 -592 -662q-289 0 -440.5 158t-151.5 504v754q0 59 38 75.5t145.5 16.5t145 -16.5t37.5 -75.5v-738q0 -193 55.5 -275.5t170 -82.5t170 83t55.5 275v738q0 59 38 75.5t145.5 16.5zM715 1698q-100 -41 -177 -89.5
t-101.5 -47t-53.5 30t-32 50t20 52.5q96 129 198 211q70 55 147 56q142 2 343 -267q23 -33 19.5 -53.5t-32 -49t-53 -29.5t-101.5 48t-177 88z" />
    <glyph glyph-name="Udieresis" unicode="&#xdc;" horiz-adv-x="1429" 
d="M715 -27q-289 0 -440.5 158t-151.5 504v754q0 59 38 75q37 16 145 16.5t145.5 -16t37.5 -75.5v-738q0 -193 55.5 -275.5t170 -82.5t170 83t55.5 275v738q0 59 38 75.5t146 16.5t145.5 -16.5t37.5 -75.5v-754q0 -662 -592 -662zM958.5 1587q-110.5 0 -141.5 33t-31 130
t32 133t142 36t143.5 -34t33.5 -133t-34 -132t-144.5 -33zM467 1587q-111 0 -141.5 33t-30.5 130t31.5 133t141.5 36t143.5 -34t33.5 -133t-33.5 -132t-144.5 -33z" />
    <glyph glyph-name="Yacute" unicode="&#xdd;" horiz-adv-x="1312" 
d="M1074 1481q110 0 149 -16.5t37 -75.5q-4 -203 -123 -467.5t-297 -442.5v-393q0 -59 -38 -75.5t-145.5 -16.5t-145.5 16.5t-38 75.5v393q-178 176 -297 440.5t-123 469.5q-2 59 37 75.5t147.5 16.5t145.5 -16.5t43 -75.5q37 -389 236 -629q193 242 225 629q4 59 40.5 75.5
t146.5 16.5zM1040 1795.5q0 -62.5 -61 -85.5l-399 -149q-37 -10 -52.5 -1t-40.5 52t-24.5 64.5t29.5 47.5l274 213q143 111 228 -13q46 -66 46 -128.5z" />
    <glyph glyph-name="Thorn" unicode="&#xde;" horiz-adv-x="1308" 
d="M666 526q219 0 219 222t-219 221h-164v-443h164zM666 1282q282 0 442 -133t160 -401t-160 -402t-442 -133h-164v-127q0 -60 -38 -76t-146 -16t-145 16q-38 16 -38 76v1303q0 59 38 75q37 16 145 16t146 -16t38 -75v-107h164z" />
    <glyph glyph-name="germandbls" unicode="&#xdf;" horiz-adv-x="1372" 
d="M911 -23q-133 0 -254 37q-115 37 -114 150q0 61 27 110q28 49 65 50q4 0 82 -35t155 -35q106 0 107 86q0 37 -29 72q-29 36 -132 104t-154 130q-52 62 -52 133q-1 118 100 213t101 177q0 51 -44 82t-122 31q-195 0 -194 -213v-983q0 -60 -36 -76t-138 -16t-139 16
q-36 16 -36 76v985q0 236 136 364t399 128q262 -1 399 -95t138 -258q0 -63 -34 -120q-34 -58 -74 -94q-109 -99 -107 -160q-1 -37 27 -67q28 -31 134 -103t158 -150q51 -78 51 -178q-1 -166 -111 -264t-309 -97z" />
    <glyph glyph-name="agrave" unicode="&#xe0;" horiz-adv-x="1116" 
d="M664 385v80q-272 0 -273 -137q0 -43 26.5 -66.5t71.5 -23.5q81 0 140 63q35 39 35 84zM520 1071q268 0 380 -110.5t112 -376.5v-498q0 -57 -24.5 -74.5t-99.5 -17.5t-103.5 14.5t-45.5 59.5l-22 55q-139 -150 -346 -150q-152 0 -242 83t-90 225q0 186 161.5 287.5
t463.5 82.5v21q0 119 -156 119q-156 -1 -272 -55q-38 -18 -50 -17q-37 0 -64.5 51t-27.5 115q0 100 119 141q135 45 307 45zM380.5 1620q65.5 0 129.5 -90l176 -254q18 -27 12 -46.5t-40.5 -52t-57 -36.5t-47.5 14l-309 197q-53 35 -53.5 87t62 116.5t128 64.5z" />
    <glyph glyph-name="aacute" unicode="&#xe1;" horiz-adv-x="1116" 
d="M664 385v80q-272 0 -273 -137q0 -43 26.5 -66.5t71.5 -23.5q81 0 140 63q35 39 35 84zM520 1071q268 0 380 -110.5t112 -376.5v-498q0 -57 -24.5 -74.5t-99.5 -17.5t-103.5 14.5t-45.5 59.5l-22 55q-139 -150 -346 -150q-152 0 -242 83t-90 225q0 186 161.5 287.5
t463.5 82.5v21q0 119 -156 119q-156 -1 -272 -55q-38 -18 -50 -17q-37 0 -64.5 51t-27.5 115q0 100 119 141q135 45 307 45zM698.5 1620q65.5 0 128 -64.5t62.5 -116.5t-53 -87l-310 -197q-25 -18 -47 -14t-57 37t-41 52t10 46l176 252q66 92 131.5 92z" />
    <glyph glyph-name="acircumflex" unicode="&#xe2;" horiz-adv-x="1116" 
d="M664 385v80q-272 0 -273 -137q0 -43 26.5 -66.5t71.5 -23.5q81 0 140 63q35 39 35 84zM520 1071q268 0 380 -110.5t112 -376.5v-498q0 -57 -24.5 -74.5t-99.5 -17.5t-103.5 14.5t-45.5 59.5l-22 55q-139 -150 -346 -150q-152 0 -242 83t-90 225q0 186 161.5 287.5
t463.5 82.5v21q0 119 -155 119q-155 -1 -273 -55q-38 -18 -50 -17q-37 0 -64.5 51t-27.5 115q0 100 119 141q135 45 307 45zM256 1155q-41 23 -48 44.5t13 68.5q78 154 172 256q55 61 146.5 60t144.5 -60q98 -111 172 -256q20 -47 12 -68.5t-46 -45.5t-66.5 -22.5t-80 50
t-136.5 100.5q-90 -55 -139.5 -102.5t-78 -48.5t-65.5 24z" />
    <glyph glyph-name="atilde" unicode="&#xe3;" horiz-adv-x="1116" 
d="M664 385v80q-272 0 -273 -137q0 -43 26.5 -66.5t71.5 -23.5q81 0 140 63q35 39 35 84zM520 1071q268 0 380 -110.5t112 -376.5v-498q0 -57 -24.5 -74.5t-99.5 -17.5t-103.5 14.5t-45.5 59.5l-22 55q-139 -150 -346 -150q-152 0 -242 83t-90 225q0 186 161.5 287.5
t463.5 82.5v21q0 119 -156 119q-156 -1 -272 -55q-38 -18 -50 -17q-37 0 -64.5 51t-27.5 115q0 100 119 141q135 45 307 45zM386 1552q93 0 199.5 -63.5t139.5 -63.5q68 0 106 70q16 31 40 35t70 -10t58.5 -33t-0.5 -60q-39 -127 -119.5 -192.5t-173 -65.5t-200 68
t-139.5 68q-70 0 -107 -68q-16 -31 -39.5 -36t-69 9.5t-58.5 34t-1 60.5q37 123 119 185t175 62z" />
    <glyph glyph-name="adieresis" unicode="&#xe4;" horiz-adv-x="1116" 
d="M664 385v80q-272 0 -273 -137q0 -43 26.5 -66.5t71.5 -23.5q81 0 140 63q35 39 35 84zM520 1071q268 0 380 -110.5t112 -376.5v-498q0 -57 -24.5 -74.5t-99.5 -17.5t-103.5 14.5t-45.5 59.5l-22 55q-139 -150 -346 -150q-152 0 -242 83t-90 225q0 186 161.5 287.5
t463.5 82.5v21q0 119 -155 119q-155 -1 -273 -55q-38 -18 -50 -17q-37 0 -64.5 51t-27.5 115q0 100 119 141q135 45 307 45zM780.5 1196q-110.5 0 -141.5 33t-31 131t32 134t141.5 36t143 -34t33.5 -134t-33.5 -133t-144 -33zM288.5 1196q-110.5 0 -141 33t-30.5 131
t31.5 134t141.5 36t143.5 -34t33.5 -134t-34 -133t-144.5 -33z" />
    <glyph glyph-name="aring" unicode="&#xe5;" horiz-adv-x="1116" 
d="M664 385v80q-272 0 -273 -137q0 -43 26.5 -66.5t71.5 -23.5q81 0 140 63q35 39 35 84zM520 1071q268 0 380 -110.5t112 -376.5v-498q0 -57 -24.5 -74.5t-99.5 -17.5t-103.5 14.5t-45.5 59.5l-22 55q-139 -150 -346 -150q-152 0 -242 83t-90 225q0 186 161.5 287.5
t463.5 82.5v21q0 119 -155 119q-155 -1 -273 -55q-38 -18 -50 -17q-37 0 -64.5 51t-27.5 115q0 100 119 141q135 45 307 45zM538.5 1483q-36.5 0 -61 -25.5t-24.5 -75t24.5 -75t61 -25.5t61.5 25.5t25 75t-25 75t-61.5 25.5zM538.5 1155q-96.5 0 -167 62.5t-70.5 165
t70.5 165t167 62.5t166 -62.5t69.5 -165t-69.5 -165t-166 -62.5z" />
    <glyph glyph-name="ae" unicode="&#xe6;" horiz-adv-x="1701" 
d="M664 379v78q-272 8 -273 -129q0 -43 27 -67t71 -23q81 0 140 63q35 37 35 78zM1186 819q-76 0 -117 -43t-51 -160q63 -8 121 -8q176 0 176 109q0 102 -129 102zM664 672q0 119 -172 119q-146 0 -256 -55q-37 -17 -50 -17q-36 0 -64 51t-28 115q0 100 119 141
q135 45 307 45q229 0 330 -119q121 119 346 119t341 -97t116 -254t-120 -238t-327 -81q-102 0 -182 19q16 -94 66 -131t140 -37q88 0 156 17t104 36t48 19q37 0 65 -52q27 -52 27 -110q0 -59 -26 -89t-80 -50q-125 -49 -295 -50q-297 0 -424 174q-168 -174 -418 -174
q-156 0 -252 81t-96 227q0 186 162 287t463 79v25z" />
    <glyph glyph-name="ccedilla" unicode="&#xe7;" horiz-adv-x="1003" 
d="M467 -18q-410 56 -410 556q0 260 136.5 396.5t379.5 136.5q147 0 273 -43q59 -23 87 -53.5t28 -89.5t-29 -110.5t-64 -51.5q-8 0 -85.5 34t-172 34t-142.5 -58.5t-48 -210t48 -210t144 -58.5t179.5 35t89.5 35q35 0 63.5 -51.5t28.5 -110.5t-26.5 -90t-103.5 -60
t-194 -37l-20 -41q197 -55 196 -198q0 -100 -89 -159.5t-228 -59.5q-189 0 -189 88q0 33 14.5 64.5t35.5 31.5q6 0 36.5 -10t59.5 -10q88 0 88 54t-113 66q-20 2 -29.5 17.5t-0.5 31.5z" />
    <glyph glyph-name="egrave" unicode="&#xe8;" horiz-adv-x="1101" 
d="M584 819q-76 0 -117 -44t-51 -161q66 -8 121 -8q176 0 176 111q0 102 -129 102zM936 324q37 0 64.5 -51.5t27.5 -110.5t-25.5 -88t-80.5 -51q-121 -49 -295 -50q-569 0 -570 551q0 272 137.5 409.5t381 137.5t359.5 -97t116 -254t-120 -239t-327 -82q-102 0 -182 19
q16 -92 66.5 -129t139.5 -37t156.5 17.5t103.5 36t48 18.5zM421.5 1620q65.5 0 129.5 -90l176 -254q18 -27 12 -46.5t-40.5 -52t-57.5 -36.5t-47 14l-309 197q-53 35 -53.5 87t62 116.5t128 64.5z" />
    <glyph glyph-name="eacute" unicode="&#xe9;" horiz-adv-x="1101" 
d="M584 819q-76 0 -117 -44t-51 -161q66 -8 121 -8q176 0 176 111q0 102 -129 102zM936 324q37 0 64.5 -51.5t27.5 -110.5t-25.5 -88t-80.5 -51q-121 -49 -295 -50q-569 0 -570 551q0 272 137.5 409.5t381 137.5t359.5 -97t116 -254t-120 -239t-327 -82q-102 0 -182 19
q16 -92 66.5 -129t139.5 -37t156.5 17.5t103.5 36t48 18.5zM739.5 1620q65.5 0 128 -64.5t62.5 -116.5t-53 -87l-310 -197q-25 -18 -47 -14t-57 37t-41 52t10 46l176 252q66 92 131.5 92z" />
    <glyph glyph-name="ecircumflex" unicode="&#xea;" horiz-adv-x="1101" 
d="M584 819q-76 0 -117 -44t-51 -161q66 -8 121 -8q176 0 176 111q0 102 -129 102zM936 324q37 0 64.5 -51.5t27.5 -110.5t-25.5 -88t-80.5 -51q-121 -49 -295 -50q-569 0 -570 551q0 272 137.5 409.5t381.5 137.5t359.5 -97t115.5 -254t-120 -239t-327 -82q-102 0 -182 19
q16 -92 66.5 -129t139.5 -37t156.5 17.5t103.5 36t48 18.5zM297 1155q-41 23 -48 44.5t13 68.5q78 154 172 256q55 61 146.5 60t144.5 -60q98 -111 172 -256q20 -47 12 -68.5t-46 -45.5q-39 -24 -67 -22t-80 50t-136 100q-90 -54 -140 -102t-78 -49t-65 24z" />
    <glyph glyph-name="edieresis" unicode="&#xeb;" horiz-adv-x="1101" 
d="M584 819q-76 0 -117 -44t-51 -161q66 -8 121 -8q176 0 176 111q0 102 -129 102zM936 324q37 0 64.5 -51.5t27.5 -110.5t-25.5 -88t-80.5 -51q-121 -49 -295 -50q-569 0 -570 551q0 272 137.5 409.5t381.5 137.5t359.5 -97t115.5 -254t-120 -239t-327 -82q-102 0 -182 19
q16 -92 66.5 -129t139.5 -37t156.5 17.5t103.5 36t48 18.5zM821.5 1196q-110.5 0 -141.5 33t-31 131t32 134q31 36 141 36t143.5 -34t33.5 -134t-33.5 -133t-144 -33zM329.5 1196q-110.5 0 -141 33t-30.5 131t31.5 134t141.5 36t143.5 -34t33.5 -134t-34 -133t-144.5 -33z
" />
    <glyph glyph-name="igrave" unicode="&#xec;" horiz-adv-x="557" 
d="M278.5 -6q-102.5 0 -138.5 16.5t-36 75.5v872q0 57 36 75t138.5 18t138.5 -17.5t36 -75.5v-872q0 -59 -36 -75.5t-138.5 -16.5zM120.5 1620q65.5 0 129.5 -90l176 -254q18 -27 12 -46.5t-41 -52t-57 -36.5t-47 14l-309 197q-53 35 -53.5 87t62 116.5t128 64.5z" />
    <glyph glyph-name="iacute" unicode="&#xed;" horiz-adv-x="557" 
d="M278.5 -6q-102.5 0 -138.5 16.5t-36 75.5v872q0 57 36 75t138.5 18t138.5 -17.5t36 -75.5v-872q0 -59 -36 -75.5t-138.5 -16.5zM438.5 1620q65.5 0 128 -64.5t62.5 -116.5t-54 -87l-309 -197q-25 -18 -47 -14t-57 37t-41 52t10 46l176 252q66 92 131.5 92z" />
    <glyph glyph-name="icircumflex" unicode="&#xee;" horiz-adv-x="557" 
d="M278.5 1051q102.5 0 138.5 -17.5t36 -75.5v-872q0 -59 -36 -75.5t-138.5 -16.5t-138.5 16.5t-36 75.5v872q0 57 36 75t138.5 18zM596 1268q20 -47 12 -68.5t-46 -45.5t-66 -22t-80 50t-137 100q-89 -54 -139 -102t-78.5 -49t-65.5 24q-41 23 -48 44.5t13 68.5
q78 154 172 256q55 61 146.5 60t144.5 -60q98 -111 172 -256z" />
    <glyph glyph-name="idieresis" unicode="&#xef;" horiz-adv-x="557" 
d="M278.5 -6q-102.5 0 -138.5 16.5t-36 75.5v872q0 57 36 75t138.5 18t138.5 -17.5t36 -75.5v-872q0 -59 -36 -75.5t-138.5 -16.5zM452 1196q-85 0 -116 36t-31 129t32 131t116 38t117.5 -36t33.5 -131t-33.5 -131t-118.5 -36zM97 1196q-85 0 -115.5 36t-30.5 129t31.5 131
t115.5 38t118 -36t34 -131t-34 -131t-119 -36z" />
    <glyph glyph-name="eth" unicode="&#xf0;" horiz-adv-x="1159" 
d="M575 242q166 0 166 258q0 114 -43 186t-125 72q-81 0 -117 -53t-36 -198t38 -205t117 -60zM584 -27q-526 0 -527 523q0 256 115 381t301 124q127 0 242 -88q-25 121 -180 242l-293 -119q-49 -23 -78 51q-16 39 -11 59t33 34l193 77q-86 47 -180 86q-92 39 3 131t171 58
q145 -63 262 -135l246 100q27 10 43 0t32 -49q31 -76 -20 -96l-152 -62q317 -264 318 -698q0 -317 -130 -468t-388 -151z" />
    <glyph glyph-name="ntilde" unicode="&#xf1;" horiz-adv-x="1183" 
d="M727 1067q350 0 350 -365v-616q0 -59 -35.5 -75.5t-138 -16.5t-138.5 16.5t-36 75.5v555q0 125 -108 125q-70 0 -119 -43t-49 -100v-537q0 -59 -36 -75.5t-138.5 -16.5t-138.5 16.5t-36 75.5v872q0 55 29 74t98.5 19t97 -13.5t46.5 -56.5l26 -57q142 143 326 143z
M429 1552q93 0 199.5 -63.5t139.5 -63.5q68 0 106 70q16 31 40 35t70 -10t58.5 -33t-0.5 -60q-39 -127 -119.5 -192.5t-174 -65.5t-200 68t-138.5 68q-70 0 -107 -68q-16 -31 -39.5 -36t-68.5 9.5t-58.5 34t-1.5 60.5q37 123 119 185t175 62z" />
    <glyph glyph-name="ograve" unicode="&#xf2;" horiz-adv-x="1161" 
d="M580 242q82 0 120.5 60t38.5 226t-37.5 220.5t-121.5 54.5t-122 -54.5t-38 -220.5t39 -226t121 -60zM578 -27q-248 0 -384.5 137.5t-136.5 410.5t137.5 411.5t387.5 138.5t385 -134t135 -408.5t-138 -415t-386 -140.5zM421.5 1620q65.5 0 129.5 -90l176 -254
q18 -27 12 -46.5t-40.5 -52t-57 -36.5t-47.5 14l-309 197q-53 35 -53.5 87t62 116.5t128 64.5z" />
    <glyph glyph-name="oacute" unicode="&#xf3;" horiz-adv-x="1161" 
d="M580 242q82 0 120.5 60t38.5 226t-37.5 220.5t-121.5 54.5t-122 -54.5t-38 -220.5t39 -226t121 -60zM578 -27q-248 0 -384.5 137.5t-136.5 410.5t137.5 411.5t387.5 138.5t385 -134t135 -408.5t-138 -415t-386 -140.5zM739.5 1620q65.5 0 128 -64.5t62.5 -116.5t-53 -87
l-310 -197q-25 -18 -47 -14t-57 37t-41 52t10 46l176 252q66 92 131.5 92z" />
    <glyph glyph-name="ocircumflex" unicode="&#xf4;" horiz-adv-x="1161" 
d="M580 242q82 0 120.5 60t38.5 226t-37.5 220.5t-121.5 54.5t-122 -54.5t-38 -220.5t39 -226t121 -60zM582 1071q250 0 385 -134t135 -408.5t-138.5 -415t-386 -140.5t-384 137.5t-136.5 410.5t137.5 411.5t387.5 138.5zM297 1155q-41 23 -48 44.5t13 68.5q78 154 172 256
q55 61 146.5 60t144.5 -60q98 -111 172 -256q20 -47 12 -68.5t-46 -45.5t-66.5 -22.5t-80 50t-136.5 100.5q-90 -55 -139.5 -102.5t-78 -48.5t-65.5 24z" />
    <glyph glyph-name="otilde" unicode="&#xf5;" horiz-adv-x="1161" 
d="M580 242q82 0 120.5 60t38.5 226t-37.5 220.5t-121.5 54.5t-122 -54.5t-38 -220.5t39 -226t121 -60zM578 -27q-248 0 -384.5 137.5t-136.5 410.5t137.5 411.5t387.5 138.5t385 -134t135 -408.5t-138 -415t-386 -140.5zM756 1169q-83 0 -148 34t-116.5 68t-83.5 34
q-70 0 -107 -68q-16 -31 -39.5 -36t-69 9.5t-58.5 34t-1 60.5q37 123 119 185t175 62t199.5 -63.5t139.5 -63.5q68 0 106 70q16 31 40 35t70 -10t58.5 -33t-0.5 -60q-39 -127 -120 -192.5t-164 -65.5z" />
    <glyph glyph-name="odieresis" unicode="&#xf6;" horiz-adv-x="1161" 
d="M580 242q82 0 120.5 60t38.5 226t-37.5 220.5t-121.5 54.5t-122 -54.5t-38 -220.5t39 -226t121 -60zM578 -27q-248 0 -384.5 137.5t-136.5 410.5t137.5 411.5t387.5 138.5t385 -134t135 -408.5t-138 -415t-386 -140.5zM821.5 1196q-110.5 0 -141.5 33t-31 131t32 134
t141.5 36t143 -34t33.5 -134t-33.5 -133t-144 -33zM329.5 1196q-110.5 0 -141 33t-30.5 131t31.5 134t141.5 36t143.5 -34t33.5 -134t-34 -133t-144.5 -33z" />
    <glyph glyph-name="divide" unicode="&#xf7;" horiz-adv-x="1085" 
d="M543 147q-88 0 -119 34t-31 118t31 121t118 37t121 -36q33 -36 33 -120t-32 -119t-121 -35zM141 543q-43 -1 -57 25t-14 101t14 101t57 25h801q45 0 59 -26q15 -27 15 -101t-14 -100t-60 -25h-801zM542 881q-87 1 -118 35t-31 117t31 120t118 37t121 -36q33 -36 33 -119
t-33 -119q-34 -35 -121 -35z" />
    <glyph glyph-name="oslash" unicode="&#xf8;" horiz-adv-x="1161" 
d="M580 242q82 0 120 60t39 226q0 166 -38 220q-37 54 -121 55q-84 0 -122 -54q-38 -55 -38 -221t39 -226t121 -60zM1102 518q0 -264 -138 -404t-384 -141q-123 0 -228 35l-78 -112q-28 -37 -52 -36t-75 35q-51 33 -60 57t15 62l76 111q-121 143 -121 406q-1 263 137 401
t386 139q127 0 227 -35l76 111q31 39 55 38t73 -35q50 -34 60 -58t-14 -62l-76 -110q121 -138 121 -402z" />
    <glyph glyph-name="ugrave" unicode="&#xf9;" horiz-adv-x="1181" 
d="M903.5 1051q102.5 0 138 -17.5t35.5 -75.5v-872q0 -57 -24.5 -74.5t-99.5 -17.5t-102.5 13t-43.5 56l-25 60q-143 -145 -324 -145q-354 -1 -354 362v618q0 57 36 75t138.5 18t138.5 -17.5t36 -75.5v-557q0 -123 108 -122q70 0 119 44t49 99v536q0 57 36 75t138.5 18z
M242 1439q0 52 62.5 116.5t127.5 64.5t129 -90l176 -254q18 -27 12 -46.5t-40.5 -52t-57 -36.5t-47.5 14l-309 197q-53 35 -53 87z" />
    <glyph glyph-name="uacute" unicode="&#xfa;" horiz-adv-x="1181" 
d="M903.5 1051q102.5 0 138 -17.5t35.5 -75.5v-872q0 -57 -24.5 -74.5t-99.5 -17.5t-102.5 13t-43.5 56l-25 60q-143 -145 -324 -145q-354 -1 -354 362v618q0 57 36 75t138.5 18t138.5 -17.5t36 -75.5v-557q0 -123 108 -122q70 0 119 44t49 99v536q0 57 36 75t138.5 18z
M750 1620q66 0 128 -64.5t62 -116.5t-53 -87l-309 -197q-25 -18 -47.5 -14t-57.5 37t-41 52t10 46l176 252q66 92 132 92z" />
    <glyph glyph-name="ucircumflex" unicode="&#xfb;" horiz-adv-x="1181" 
d="M903.5 1051q102.5 0 138 -17.5t35.5 -75.5v-872q0 -57 -24.5 -74.5t-99.5 -17.5t-102.5 13t-43.5 56l-25 60q-143 -145 -324 -145q-354 -1 -354 362v618q0 57 36 75t138.5 18t138.5 -17.5t36 -75.5v-557q0 -123 108 -122q70 0 119 44t49 99v536q0 57 36 75t138.5 18z
M307 1155q-41 23 -48 44.5t13 68.5q78 154 172 256q55 61 146.5 60t144.5 -60q98 -111 172 -256q20 -47 12 -68.5t-46 -45.5t-66.5 -22.5t-80 50t-136.5 100.5q-90 -55 -139.5 -102.5t-78 -48.5t-65.5 24z" />
    <glyph glyph-name="udieresis" unicode="&#xfc;" horiz-adv-x="1181" 
d="M903.5 1051q102.5 0 138 -17.5t35.5 -75.5v-872q0 -57 -24.5 -74.5t-99.5 -17.5t-102.5 13t-43.5 56l-25 60q-143 -145 -324 -145q-354 -1 -354 362v618q0 57 36 75t138.5 18t138.5 -17.5t36 -75.5v-557q0 -123 108 -122q70 0 119 44t49 99v536q0 57 36 75t138.5 18z
M831.5 1196q-110.5 0 -141.5 33t-31 131t32 134t141.5 36t143.5 -34t34 -134t-34 -133t-144.5 -33zM340 1196q-111 0 -141.5 33t-30.5 131t31.5 134t141.5 36t143.5 -34t33.5 -134t-33.5 -133t-144.5 -33z" />
    <glyph glyph-name="yacute" unicode="&#xfd;" horiz-adv-x="1095" 
d="M867 1051q105 0 141 -17.5t36 -75.5q0 -299 -166.5 -691t-414.5 -654q-102 -109 -179.5 -109t-142.5 70t-65 137q0 37 51 72q160 102 270 233q-170 205 -257 470.5t-87 471.5q0 57 36 75t141 18t143.5 -17.5t40.5 -77.5q20 -434 135 -692q109 246 135 692q2 59 40 77
t143 18zM709.5 1620q65.5 0 127.5 -64.5t62 -116.5t-53 -87l-309 -197q-25 -18 -47.5 -14t-57.5 37t-41 52t10 46l177 252q66 92 131.5 92z" />
    <glyph glyph-name="thorn" unicode="&#xfe;" horiz-adv-x="1181" 
d="M449 487q0 -237 160 -237q77 0 115 54t38 219t-38 217t-114 52t-119 -56t-42 -179v-70zM713 1067q186 0 298 -133q111 -133 111 -412q0 -280 -110 -412t-307 -133q-139 0 -252 74v-452q0 -59 -36 -75t-138 -18q-103 0 -139 16t-36 77v1851q0 60 36 76t138 16t139 -16
q36 -16 36 -76v-465q113 82 260 82z" />
    <glyph glyph-name="ydieresis" unicode="&#xff;" horiz-adv-x="1095" 
d="M867 1051q105 0 141 -17.5t36 -75.5q0 -299 -166.5 -691t-414.5 -654q-102 -109 -179.5 -109t-142.5 70t-65 137q0 37 51 72q160 102 270 233q-170 205 -257 470.5t-87 471.5q0 57 36 75t141 18t143.5 -17.5t40.5 -77.5q20 -434 135 -692q109 246 135 692q2 59 40 77
t143 18zM790.5 1196q-110.5 0 -141.5 33t-31 131t32 134t142 36t143.5 -34t33.5 -134t-34 -133t-144.5 -33zM299 1196q-111 0 -141.5 33t-30.5 131t31.5 134t141.5 36t143.5 -34t33.5 -134t-33.5 -133t-144.5 -33z" />
    <glyph glyph-name="Amacron" unicode="&#x100;" horiz-adv-x="1431" 
d="M506 575h422q-61 317 -211 588q-148 -262 -211 -588zM1354 86q0 -59 -38 -75.5t-148 -16.5t-146.5 16.5t-38.5 75.5q-8 125 -14 193h-504q-6 -68 -14 -193q-2 -59 -40 -75.5t-146.5 -16.5t-147.5 16.5t-39 75.5q0 305 118.5 696.5t295.5 624.5q37 49 79.5 61.5t145 12.5
t144.5 -12.5t79 -61.5q176 -233 295 -624.5t119 -696.5zM426 1614q-43 0 -57.5 25.5t-14.5 97t14.5 97.5t57.5 26h582q43 0 57 -26t14 -97.5t-14 -97t-57 -25.5h-582z" />
    <glyph glyph-name="amacron" unicode="&#x101;" horiz-adv-x="1116" 
d="M664 385v80q-272 0 -273 -137q0 -43 26.5 -66.5t71.5 -23.5q81 0 140 63q35 39 35 84zM520 1071q268 0 380 -110.5t112 -376.5v-498q0 -57 -24.5 -74.5t-99.5 -17.5t-103.5 14.5t-45.5 59.5l-22 55q-139 -150 -346 -150q-152 0 -242 83t-90 225q0 186 161.5 287.5
t463.5 82.5v21q0 119 -155 119q-155 -1 -273 -55q-38 -18 -50 -17q-37 0 -64.5 51t-27.5 115q0 100 119 141q135 45 307 45zM248 1253q-43 0 -57.5 26t-14.5 96.5t14.5 97t57.5 26.5h581q43 0 57.5 -26.5t14.5 -97.5t-14.5 -96.5t-57.5 -25.5h-581z" />
    <glyph glyph-name="Abreve" unicode="&#x102;" horiz-adv-x="1431" 
d="M506 575h422q-61 317 -211 588q-148 -262 -211 -588zM1354 86q0 -59 -38 -75.5t-148 -16.5t-146.5 16.5t-38.5 75.5q-8 125 -14 193h-504q-6 -68 -14 -193q-2 -59 -40 -75.5t-146.5 -16.5t-147.5 16.5t-39 75.5q0 305 118.5 696.5t295.5 624.5q37 49 79.5 61.5t145 12.5
t144.5 -12.5t79 -61.5q176 -233 295 -624.5t119 -696.5zM714.5 1577q-225.5 0 -392.5 203q-45 53 22 112q35 33 62.5 34t68.5 -25q111 -72 240 -72t239 72q39 27 67 25.5t64 -34.5q66 -59 23 -112q-168 -203 -393.5 -203z" />
    <glyph glyph-name="abreve" unicode="&#x103;" horiz-adv-x="1116" 
d="M664 385v80q-272 0 -273 -137q0 -43 26.5 -66.5t71.5 -23.5q81 0 140 63q35 39 35 84zM520 1071q268 0 380 -110.5t112 -376.5v-498q0 -57 -24.5 -74.5t-99.5 -17.5t-103.5 14.5t-45.5 59.5l-22 55q-139 -150 -346 -150q-152 0 -242 83t-90 225q0 186 161.5 287.5
t463.5 82.5v21q0 119 -156 119q-156 -1 -272 -55q-38 -18 -50 -17q-37 0 -64.5 51t-27.5 115q0 100 119 141q135 45 307 45zM538 1161q-228 0 -397 244q-25 39 -18.5 60.5t44.5 52.5t65.5 28.5t62.5 -37.5q104 -98 240.5 -98t244.5 98q37 33 62.5 36t64.5 -27.5t45 -52
t-18 -60.5q-168 -244 -396 -244z" />
    <glyph glyph-name="Aogonek" unicode="&#x104;" horiz-adv-x="1431" 
d="M506 575h422q-61 317 -211 588q-148 -262 -211 -588zM1374 -375q0 -82 -54 -100t-132 -19q-137 0 -212 61.5t-75 166.5q0 147 176 264q-51 4 -71.5 23.5t-22.5 64.5q-8 125 -14 193h-504q-6 -68 -14 -193q-2 -59 -40 -75.5t-146.5 -16.5t-147.5 16.5t-39 75.5
q0 305 118.5 696.5t295.5 624.5q37 49 79.5 61.5t145 12.5t144.5 -12.5t79 -61.5q176 -233 295 -624.5t119 -696.5q0 -49 -41 -82q-137 -109 -137 -201q0 -61 65 -61l70 10q31 0 47 -38t16 -89z" />
    <glyph glyph-name="aogonek" unicode="&#x105;" horiz-adv-x="1118" 
d="M664 385v80q-272 0 -273 -137q0 -43 26.5 -66.5t71.5 -23.5q81 0 140 63q35 39 35 84zM1032 -381q0 -76 -52 -94t-134 -19q-137 0 -211 61.5t-74 166.5q0 162 203 280l-45 111q-141 -152 -348 -152q-152 0 -242 83t-90 225q0 186 161.5 287.5t463.5 82.5v21
q0 119 -156 119q-156 -1 -272 -55q-38 -18 -50 -17q-37 0 -64.5 51t-27.5 115q0 100 119 141q135 45 307 45q268 0 380 -110.5t112 -376.5v-498q0 -53 -51 -93t-88 -92.5t-37 -95.5q0 -63 65 -63l68 10q33 0 48 -42t15 -91z" />
    <glyph glyph-name="Cacute" unicode="&#x106;" horiz-adv-x="1228" 
d="M70 743q0 381 177 569.5t492 188.5q150 0 288 -36t138 -156q0 -66 -25.5 -121t-62.5 -55q-6 0 -112.5 33.5t-210.5 33.5q-311 0 -311.5 -463t311.5 -463q104 0 218.5 36t119.5 36q37 0 62.5 -56.5t25.5 -119.5q0 -123 -140 -158q-150 -39 -297 -39q-317 0 -495 194.5
t-178 575.5zM1075 1795.5q0 -62.5 -61 -85.5l-400 -149q-37 -10 -52 -1t-40 52t-24.5 64.5t28.5 47.5l275 213q143 111 228 -13q46 -66 46 -128.5z" />
    <glyph glyph-name="cacute" unicode="&#x107;" horiz-adv-x="1003" 
d="M575 -27q-246 0 -382 136.5t-136 413t136.5 412.5t379.5 136q147 0 273 -43q59 -23 87 -53.5t28 -89.5t-29 -110.5t-64 -51.5q-8 0 -85.5 34t-172 34t-142.5 -58.5t-48 -210t48 -210t144 -58.5t179 35t90 35q35 0 63.5 -51.5t28.5 -110.5t-26.5 -90t-80.5 -52
q-123 -47 -291 -47zM700.5 1620q65.5 0 128 -64.5t62.5 -116.5t-53 -87l-310 -197q-25 -18 -47 -14t-57 37t-41 52t10 46l176 252q66 92 131.5 92z" />
    <glyph glyph-name="Ccircumflex" unicode="&#x108;" horiz-adv-x="1228" 
d="M1092 346q37 0 62.5 -56.5t25.5 -119.5q0 -123 -140 -158q-150 -39 -297 -39q-317 0 -495 194.5t-178 575.5t177 569.5t492 188.5q150 0 288 -36t138 -156q0 -66 -25.5 -121t-62.5 -55q-6 0 -112.5 33.5t-210.5 33.5q-311 0 -311.5 -463t311.5 -463q104 0 219 36t119 36z
M692 1698q-100 -41 -177 -89.5t-101.5 -47t-53 30t-31.5 50t19 52.5q96 129 199 211q70 55 146.5 56t146.5 -56q102 -84 196 -211q23 -33 20 -53.5t-32 -49t-53.5 -29.5t-101.5 48t-177 88z" />
    <glyph glyph-name="ccircumflex" unicode="&#x109;" horiz-adv-x="1003" 
d="M881 324q35 0 63.5 -51.5t28.5 -110.5t-26.5 -90t-80.5 -52q-123 -47 -291 -47q-246 0 -382 136.5t-136 413t136.5 412.5t379.5 136q147 0 273 -43q59 -23 87 -53.5t28 -89.5t-29 -110.5t-64 -51.5q-8 0 -86 34t-172 34t-142 -58.5t-48 -210t48 -210t144 -58.5t179.5 35
t89.5 35zM258 1155q-41 23 -48 44.5t13 68.5q78 154 172 256q55 61 146.5 60t144.5 -60q98 -111 172 -256q20 -47 12 -68.5t-46 -45.5t-66 -22t-80 50t-137 100q-89 -54 -139 -102t-78.5 -49t-65.5 24z" />
    <glyph glyph-name="Cdotaccent" unicode="&#x10a;" horiz-adv-x="1228" 
d="M70 743q0 381 177 569.5t492 188.5q150 0 288 -36t138 -156q0 -66 -25.5 -121t-62.5 -55q-6 0 -112.5 33.5t-210.5 33.5q-311 0 -311.5 -463t311.5 -463q104 0 218.5 36t119.5 36q37 0 62.5 -56.5t25.5 -119.5q0 -123 -140 -158q-150 -39 -297 -39q-317 0 -495 194.5
t-178 575.5zM691 1579q-126 0 -162.5 33t-36.5 130t37.5 133t162.5 36t163 -34t38 -133t-38 -132t-164 -33z" />
    <glyph glyph-name="cdotaccent" unicode="&#x10b;" horiz-adv-x="1003" 
d="M575 -27q-246 0 -382 136.5t-136 413t136.5 412.5t379.5 136q147 0 273 -43q59 -23 87 -53.5t28 -89.5t-29 -110.5t-64 -51.5q-8 0 -85.5 34t-172 34t-142.5 -58.5t-48 -210t48 -210t144 -58.5t179 35t90 35q35 0 63.5 -51.5t28.5 -110.5t-26.5 -90t-80.5 -52
q-123 -47 -291 -47zM540 1196q-126 0 -163 33t-37 131t38 134t163 36t162.5 -34t37.5 -134t-37.5 -133t-163.5 -33z" />
    <glyph glyph-name="Ccaron" unicode="&#x10c;" horiz-adv-x="1228" 
d="M1092 346q37 0 62.5 -56.5t25.5 -119.5q0 -123 -140 -158q-150 -39 -297 -39q-317 0 -495 194.5t-178 575.5t177 569.5t492 188.5q150 0 288 -36t138 -156q0 -66 -25.5 -121t-62.5 -55q-6 0 -112.5 33.5t-210.5 33.5q-312 0 -312 -463t312 -463q104 0 219 36t119 36z
M545 1612q-102 84 -197 211q-23 33 -19.5 53t32 49t53 30t101.5 -49t177 -87q100 41 177 89t101.5 47t53.5 -30t32 -50.5t-20 -51.5q-96 -129 -198 -211q-70 -55 -146.5 -56t-146.5 56z" />
    <glyph glyph-name="ccaron" unicode="&#x10d;" horiz-adv-x="1003" 
d="M881 324q35 0 63.5 -51.5t28.5 -110.5t-26.5 -90t-80.5 -52q-123 -47 -291 -47q-246 0 -382 136.5t-136 413t136.5 412.5t379.5 136q147 0 273 -43q59 -23 87 -53.5t28 -89.5t-29 -110.5t-64 -51.5q-8 0 -86 34t-172 34t-142 -58.5t-48 -210t48 -210t144 -58.5t179.5 35
t89.5 35zM397 1217q-98 111 -172 256q-20 47 -12 69q8 20 46 44t66.5 23t80.5 -50t137 -101q90 54 139 102t77.5 49t65.5 -24q41 -23 48.5 -44t-13.5 -68q-78 -154 -172 -256q-55 -61 -146.5 -60t-144.5 60z" />
    <glyph glyph-name="Dcaron" unicode="&#x10e;" horiz-adv-x="1429" 
d="M651 297q180 0 258 96t78 344t-78 344.5t-258 96.5h-149v-881h149zM651 1475q358 0 533.5 -172.5t175.5 -565.5t-175 -565t-534 -172h-428q-88 0 -88 88v1298q0 88 88 89h428zM539 1612q-102 84 -197 211q-23 33 -19.5 53t32 49t53 30t101.5 -49t177 -87q100 41 177 89
t101.5 47t53.5 -30t32 -50.5t-20 -51.5q-96 -129 -199 -211q-70 -55 -146 -56t-146 56z" />
    <glyph glyph-name="dcaron" unicode="&#x10f;" horiz-adv-x="1415" 
d="M733 487v70q0 119 -43 178t-118.5 59.5t-113.5 -54t-38 -219.5t38 -217t114 -52q162 0 161 235zM901.5 1542q102.5 0 138 -16.5t35.5 -73.5v-1366q0 -57 -24.5 -74.5t-99.5 -17.5t-102.5 13t-43.5 56l-17 41q-133 -127 -321.5 -127t-299 133.5t-110.5 412t111 411.5
t307 133q139 0 252 -74v459q0 57 36 73.5t138.5 16.5zM1321 1573q129 0 129 -80q0 -23 -14 -70l-82 -262q-12 -41 -37 -52t-75 -6t-65.5 22.5t-15.5 62.5v285q0 100 160 100z" />
    <glyph glyph-name="Dcroat" unicode="&#x110;" horiz-adv-x="1497" 
d="M719 297q180 0 258 96t78 344t-78 344.5t-258 96.5h-150v-316h172q43 0 56.5 -21.5t13.5 -89t-13.5 -89t-56.5 -21.5h-172v-344h150zM719 1475q358 0 533 -172.5t175 -565.5t-175 -565t-533 -172h-428q-88 0 -88 88v553h-111q-43 0 -56 21.5t-13 89t13 89t56 21.5h111
v524q0 88 88 89h428z" />
    <glyph glyph-name="dcroat" unicode="&#x111;" horiz-adv-x="1181" 
d="M733 487v70q0 119 -43 178t-118.5 59.5t-113.5 -54t-38 -219.5t38 -217t114 -52q162 0 161 235zM1202 1368q25 0 31 -15.5t6 -60.5t-7 -61.5t-30 -16.5h-127v-1128q0 -57 -24.5 -74.5t-99.5 -17.5t-102.5 13t-43.5 56l-17 41q-133 -127 -321.5 -127t-299 133.5
t-110.5 412t111 411.5t307 133q139 0 252 -74v221h-324q-25 0 -31.5 16.5t-6.5 61.5t7 60.5t31 15.5h324v84q0 57 36 73.5t138.5 16.5t138 -16.5t35.5 -73.5v-84h127z" />
    <glyph glyph-name="Emacron" unicode="&#x112;" horiz-adv-x="1183" 
d="M1047 297q51 0 65 -30.5t14 -118.5t-14 -118t-65 -30h-824q-88 0 -88 88v1298q0 88 88 89h811q51 0 65.5 -31t14.5 -118t-14.5 -117.5t-65.5 -30.5h-532v-279h409q51 0 65.5 -29.5t14.5 -117.5t-14 -119t-66 -31h-409v-305h545zM334 1614q-43 0 -57.5 25.5t-14.5 97
t14.5 97.5t57.5 26h581q43 0 57.5 -26t14.5 -97.5t-14.5 -97t-57.5 -25.5h-581z" />
    <glyph glyph-name="emacron" unicode="&#x113;" horiz-adv-x="1101" 
d="M584 819q-76 0 -117 -44t-51 -161q66 -8 121 -8q176 0 176 111q0 102 -129 102zM936 324q37 0 64.5 -51.5t27.5 -110.5t-25.5 -88t-80.5 -51q-121 -49 -295 -50q-569 0 -570 551q0 272 137.5 409.5t381.5 137.5t359.5 -97t115.5 -254t-120 -239t-327 -82q-102 0 -182 19
q16 -92 66.5 -129t139.5 -37t156.5 17.5t103.5 36t48 18.5zM289 1253q-43 0 -57 26q-14 27 -14.5 97t14 96.5t57.5 26.5h581q43 0 57.5 -26.5t14.5 -97.5t-14.5 -96.5t-57.5 -25.5h-581z" />
    <glyph glyph-name="Ebreve" unicode="&#x114;" horiz-adv-x="1183" 
d="M1047 297q51 0 65 -30.5t14 -118.5t-14 -118t-65 -30h-824q-88 0 -88 88v1298q0 88 88 89h811q51 0 65.5 -31t14.5 -118t-14.5 -117.5t-65.5 -30.5h-532v-279h409q51 0 65.5 -29.5t14.5 -117.5t-14 -119t-66 -31h-409v-305h545zM622.5 1577q-225.5 0 -393.5 203
q-45 53 23 112q35 33 62.5 34t68.5 -25q111 -72 240 -72t239 72q39 27 66.5 25.5t64.5 -34.5q66 -59 23 -112q-168 -203 -393.5 -203z" />
    <glyph glyph-name="ebreve" unicode="&#x115;" horiz-adv-x="1101" 
d="M584 819q-76 0 -117 -44t-51 -161q66 -8 121 -8q176 0 176 111q0 102 -129 102zM936 324q37 0 64.5 -51.5t27.5 -110.5t-25.5 -88t-80.5 -51q-121 -49 -295 -50q-569 0 -570 551q0 272 137.5 409.5t381 137.5t359.5 -97t116 -254t-120 -239t-327 -82q-102 0 -182 19
q16 -92 66.5 -129t139.5 -37t156.5 17.5t103.5 36t48 18.5zM579 1161q-228 0 -397 244q-25 39 -18.5 60.5t44.5 52.5t65.5 28.5t62.5 -37.5q104 -98 240.5 -98t244.5 98q37 33 62.5 36t64.5 -27.5t45 -52t-18 -60.5q-168 -244 -396 -244z" />
    <glyph glyph-name="Edotaccent" unicode="&#x116;" horiz-adv-x="1183" 
d="M1047 297q51 0 65 -30.5t14 -118t-14 -118t-65 -30.5h-824q-88 0 -88 88v1298q0 88 88 89h811q51 0 65.5 -31t14.5 -118t-14.5 -117.5t-65.5 -30.5h-532v-279h409q51 0 65.5 -29.5t14.5 -117.5t-14 -119t-66 -31h-409v-305h545zM624 1579q-126 0 -163 33t-37 130t38 133
t163 36t162.5 -34t37.5 -133t-37.5 -132t-163.5 -33z" />
    <glyph glyph-name="edotaccent" unicode="&#x117;" horiz-adv-x="1101" 
d="M584 819q-76 0 -117 -44t-51 -161q66 -8 121 -8q176 0 176 111q0 102 -129 102zM936 324q37 0 64.5 -51.5t27.5 -110.5t-25.5 -88t-80.5 -51q-121 -49 -295 -50q-569 0 -570 551q0 272 137.5 409.5t381 137.5t359.5 -97t116 -254t-120 -239t-327 -82q-102 0 -182 19
q16 -92 66.5 -129t139.5 -37t156.5 17.5t103.5 36t48 18.5zM579 1196q-126 0 -163 33t-37 131t38 134t163 36t162.5 -34t37.5 -134t-37.5 -133t-163.5 -33z" />
    <glyph glyph-name="Eogonek" unicode="&#x118;" horiz-adv-x="1183" 
d="M1143 -375q0 -82 -53.5 -100t-133.5 -19q-137 0 -211.5 61.5t-74.5 166.5q0 152 180 266h-627q-88 0 -88 88v1298q0 88 88 89h811q51 0 65.5 -31t14.5 -118t-14.5 -117.5t-65.5 -30.5h-532v-279h409q51 0 65.5 -29.5t14.5 -117.5t-14 -119t-66 -31h-409v-305h545
q51 0 65 -30.5t14 -108t-8 -103.5t-35 -47q-139 -111 -139 -205q0 -61 66 -61l69 10q31 0 47.5 -38t16.5 -89z" />
    <glyph glyph-name="eogonek" unicode="&#x119;" horiz-adv-x="1105" 
d="M584 819q-76 0 -117 -44t-51 -161q66 -8 121 -8q176 0 176 111q0 102 -129 102zM958 -381q0 -76 -54 -94t-132 -19q-137 0 -212 62t-75 166q0 154 230 262v4q-55 -14 -133 -14q-248 0 -386 131t-138 405t136 412q138 138 382 137q244 0 359 -98q116 -98 116 -254
t-120 -238t-327 -82q-102 0 -182 19q18 -94 67 -130t139 -36t156 17t102 36t48 19q38 0 66 -52t28 -107q0 -56 -16 -86q-16 -29 -85 -65t-118 -94t-49 -115q0 -63 65 -63l70 10q31 0 47 -43t16 -90z" />
    <glyph glyph-name="Ecaron" unicode="&#x11a;" horiz-adv-x="1183" 
d="M1047 297q51 0 65 -30.5t14 -118.5t-14 -118t-65 -30h-824q-88 0 -88 88v1298q0 88 88 89h811q51 0 65.5 -31t14.5 -118t-14.5 -117.5t-65.5 -30.5h-532v-279h409q51 0 65.5 -29.5t14.5 -117.5t-14 -119t-66 -31h-409v-305h545zM477 1612q-102 84 -196 211q-23 33 -20 53
t32 49t53.5 30t101.5 -49t177 -87q100 41 177 89t101.5 47t53 -30t31.5 -50.5t-19 -51.5q-96 -129 -199 -211q-70 -55 -146.5 -56t-146.5 56z" />
    <glyph glyph-name="ecaron" unicode="&#x11b;" horiz-adv-x="1101" 
d="M584 819q-76 0 -117 -44t-51 -161q66 -8 121 -8q176 0 176 111q0 102 -129 102zM936 324q37 0 64.5 -51.5t27.5 -110.5t-25.5 -88t-80.5 -51q-121 -49 -295 -50q-569 0 -570 551q0 272 137.5 409.5t381.5 137.5t359.5 -97t115.5 -254t-120 -239t-327 -82q-102 0 -182 19
q16 -92 66.5 -129t139.5 -37t156.5 17.5t103.5 36t48 18.5zM436 1217q-98 111 -172 256q-20 47 -12 69q8 20 46 44t66 23t80 -50t138 -101q90 54 139 102t77.5 49t65.5 -24q41 -23 48.5 -44t-13.5 -68q-78 -154 -172 -256q-55 -61 -146.5 -60t-144.5 60z" />
    <glyph glyph-name="Gcircumflex" unicode="&#x11c;" horiz-adv-x="1378" 
d="M1307 528q0 -262 -150.5 -408.5t-451.5 -146.5t-468 192.5t-167 571.5t178 571.5t487 192.5q252 0 412 -61q51 -20 70.5 -50t19.5 -93.5t-24.5 -126t-65.5 -62.5q-17 0 -69 22q-155 68 -312 68q-322 0 -322 -455q0 -242 68 -355.5t207 -113.5q111 0 169 70t58 188.5
t-18 217.5q-10 59 27.5 77.5t141 18.5t140.5 -18.5t47 -69.5q23 -102 23 -230zM719 1698q-100 -41 -177 -89.5t-101.5 -47t-53.5 30t-32 50t20 52.5q96 129 198 211q70 55 147 56q142 2 343 -267q23 -33 19.5 -53.5t-32 -49t-53 -29.5t-101.5 48t-177 88z" />
    <glyph glyph-name="gcircumflex" unicode="&#x11d;" horiz-adv-x="1181" 
d="M733 557q0 236 -172 238q-68 0 -104.5 -56.5t-36.5 -216.5t36.5 -215t114.5 -55q162 0 162 235v70zM948.5 1051q69.5 0 98 -18.5t28.5 -74.5v-915q0 -549 -530 -549q-197 0 -338 60q-98 41 -98 133q0 59 30.5 117.5t67.5 58.5q12 1 50 -19q118 -60 251 -61q219 0 219 221
v55q-111 -82 -260 -82q-188 0 -299 133.5t-111 411.5t112 411.5t299 133.5t318 -123l15 35q18 43 48 57.5t99.5 14.5zM319 1155q-41 23 -48 44.5t14 68.5q78 154 172 256q55 61 146 60t145 -60q98 -111 172 -256q20 -47 12 -68.5t-46 -45.5t-66.5 -22.5t-80 50t-137.5 100.5
q-90 -55 -139 -102.5t-78 -48.5t-66 24z" />
    <glyph glyph-name="Gbreve" unicode="&#x11e;" horiz-adv-x="1378" 
d="M705 -27q-301 0 -468 192.5t-167 571.5t178 571.5t487 192.5q252 0 412 -61q51 -20 70.5 -50t19.5 -93.5t-24.5 -126t-65.5 -62.5q-17 0 -69 22q-155 68 -312 68q-322 0 -322 -455q0 -242 68 -355.5t207 -113.5q111 0 169 70t58 188.5t-18 217.5q-10 59 27.5 77.5
t141 18.5t140.5 -18.5t47 -69.5q23 -102 23 -230q0 -262 -150.5 -408.5t-451.5 -146.5zM717 1577q-225 0 -393 203q-45 53 22 112q35 33 62.5 34t68.5 -25q111 -72 240 -72t239 72q39 27 67 25.5t64 -34.5q66 -59 23 -112q-168 -203 -393 -203z" />
    <glyph glyph-name="gbreve" unicode="&#x11f;" horiz-adv-x="1181" 
d="M733 557q0 236 -172 238q-68 0 -104.5 -56.5t-36.5 -216.5t36.5 -215t114.5 -55q162 0 162 235v70zM948.5 1051q69.5 0 98 -18.5t28.5 -74.5v-915q0 -549 -530 -549q-197 0 -338 60q-98 41 -98 133q0 59 30.5 117.5t67.5 58.5q12 1 50 -19q118 -60 251 -61q219 0 219 221
v55q-111 -82 -260 -82q-188 0 -299 133.5t-111 411.5t112 411.5t299 133.5t318 -123l15 35q18 43 48 57.5t99.5 14.5zM601 1161q-228 0 -396 244q-25 39 -18.5 60.5t44 52.5t65.5 28.5t62 -37.5q104 -98 240.5 -98t245.5 98q37 33 62.5 36t64.5 -27.5t45 -52t-19 -60.5
q-168 -244 -396 -244z" />
    <glyph glyph-name="Gdotaccent" unicode="&#x120;" horiz-adv-x="1378" 
d="M705 -27q-301 0 -468 192.5t-167 571.5t178 571.5t487 192.5q252 0 412 -61q51 -20 70.5 -50t19.5 -93.5t-24.5 -126t-65.5 -62.5q-17 0 -69 22q-155 68 -312 68q-322 0 -322 -455q0 -242 68 -355.5t207 -113.5q111 0 169 70t58 188.5t-18 217.5q-10 59 27.5 77.5
t141 18.5t140.5 -18.5t47 -69.5q23 -102 23 -230q0 -262 -150.5 -408.5t-451.5 -146.5zM718 1579q-126 0 -163 33t-37 130t38 133t163 36t163 -34t38 -133t-38 -132t-164 -33z" />
    <glyph glyph-name="gdotaccent" unicode="&#x121;" horiz-adv-x="1181" 
d="M733 557q0 236 -172 238q-68 0 -104.5 -56.5t-36.5 -216.5t36.5 -215t114.5 -55q162 0 162 235v70zM948.5 1051q69.5 0 98 -18.5t28.5 -74.5v-915q0 -549 -530 -549q-197 0 -338 60q-98 41 -98 133q0 59 30.5 117.5t67.5 58.5q12 1 50 -19q118 -60 251 -61q219 0 219 221
v55q-111 -82 -260 -82q-188 0 -299 133.5t-111 411.5t112 411.5t299 133.5t318 -123l15 35q18 43 48 57.5t99.5 14.5zM601 1196q-126 0 -163 33t-37 131t38 134t163 36t163 -34t38 -134t-38 -133t-164 -33z" />
    <glyph glyph-name="Gcommaaccent" unicode="&#x122;" horiz-adv-x="1378" 
d="M752 -92q137 0 137 -107q0 -162 -154 -340q-29 -33 -55.5 -35t-69.5 19.5t-51 43.5t16.5 83t24.5 152l-8 102q0 82 160 82zM705 -27q-301 0 -468 192.5t-167 571.5t178 571.5t487 192.5q252 0 412 -61q51 -20 70.5 -50t19.5 -93.5t-24.5 -126t-65.5 -62.5q-17 0 -69 22
q-155 68 -312 68q-322 0 -322 -455q0 -242 68 -355.5t207 -113.5q111 0 169 70t58 188.5t-18 217.5q-10 59 27.5 77.5t141 18.5t140.5 -18.5t47 -69.5q23 -102 23 -230q0 -262 -150.5 -408.5t-451.5 -146.5z" />
    <glyph glyph-name="gcommaaccent" unicode="&#x123;" horiz-adv-x="1181" 
d="M733 557q0 236 -172 238q-68 0 -104.5 -56.5t-36.5 -216.5t36.5 -215t114.5 -55q162 0 162 235v70zM948.5 1051q69.5 0 98 -18.5t28.5 -74.5v-915q0 -549 -530 -549q-197 0 -338 60q-98 41 -98 133q0 59 30.5 117.5t67.5 58.5q12 1 50 -19q118 -60 251 -61q219 0 219 221
v55q-111 -82 -260 -82q-188 0 -299 133.5t-111 411.5t112 411.5t299 133.5t318 -123l15 35q18 43 48 57.5t99.5 14.5zM580 1169q-137 0 -138 107q0 162 154 340q29 33 55.5 35t69.5 -19.5t51 -43t-16.5 -83t-24.5 -151.5l8 -103q1 -82 -159 -82z" />
    <glyph glyph-name="Hcircumflex" unicode="&#x124;" horiz-adv-x="1470" 
d="M1152.5 1481q107.5 0 145 -16.5t37.5 -75.5v-1303q0 -59 -37.5 -75.5t-145 -16.5t-145.5 16.5t-38 75.5v510h-467v-510q0 -59 -38 -75.5t-145.5 -16.5t-145.5 16.5t-38 75.5v1303q0 59 38 75.5t145.5 16.5t145.5 -16.5t38 -75.5v-471h467v471q0 59 38 75.5t145.5 16.5z
M735 1698q-100 -41 -177 -89.5t-101.5 -47t-53 30t-31.5 50t19 52.5q96 129 199 211q70 55 146.5 56t146.5 -56q102 -84 196 -211q23 -33 20 -53.5t-32 -49t-53.5 -29.5t-101.5 48t-177 88z" />
    <glyph glyph-name="hcircumflex" unicode="&#x125;" horiz-adv-x="1183" 
d="M727 1067q350 0 350 -365v-616q0 -59 -35.5 -75.5t-138 -16.5t-138.5 16.5t-36 75.5v555q0 125 -108 125q-70 0 -119 -43t-49 -100v-537q0 -59 -36 -75.5t-138.5 -16.5t-138.5 16.5t-36 75.5v1364q0 59 36 75.5t138.5 16.5t138.5 -16.5t36 -75.5v-492q124 109 274 109z
M557.5 1561.5q-24.5 -1.5 -101.5 48t-177 88.5q-100 -41 -177 -89.5t-102 -47t-53.5 30t-31.5 50t19 52.5q96 129 199 211q70 55 146.5 56t146.5 -56q102 -84 197 -211q23 -33 19.5 -53.5t-32 -49t-53 -30z" />
    <glyph glyph-name="Hbar" unicode="&#x126;" horiz-adv-x="1470" 
d="M969 918v188h-467v-188h467zM1376 1327q43 0 57.5 -23.5t14.5 -85.5t-14.5 -87t-57.5 -25h-41v-1020q0 -59 -37.5 -75.5t-145.5 -16.5t-145.5 16.5t-37.5 75.5v510h-467v-510q0 -59 -38 -75.5t-146 -16.5t-145.5 16.5t-37.5 75.5v1020h-41q-43 0 -57 24q-14 26 -14 88
t14 85.5t57 23.5h41v62q0 59 38 75q37 16 145 16.5t146 -16t38 -75.5v-62h467v62q0 59 37.5 75.5t145.5 16.5t145.5 -16.5t37.5 -75.5v-62h41z" />
    <glyph glyph-name="hbar" unicode="&#x127;" horiz-adv-x="1183" 
d="M727 1067q350 0 350 -365v-616q0 -59 -35.5 -75.5t-138 -16.5t-138.5 16.5t-36 75.5v555q0 125 -108 125q-70 0 -119 -43t-49 -100v-537q0 -59 -36 -75.5t-138.5 -16.5t-138.5 16.5t-36 75.5v1128h-118q-25 0 -32 16.5t-7 61.5t7 60.5t32 15.5h118v82q0 59 36 75.5
t138.5 16.5t138.5 -16.5t36 -75.5v-82h331q25 0 31 -15.5t6 -60.5t-7 -61.5t-30 -16.5h-331v-256q124 109 274 109z" />
    <glyph glyph-name="Itilde" unicode="&#x128;" horiz-adv-x="636" 
d="M318.5 -6q-107.5 0 -145.5 16.5t-38 75.5v1303q0 59 38 75.5t145.5 16.5t145.5 -16.5t38 -75.5v-1303q0 -59 -38 -75.5t-145.5 -16.5zM486 1569q-93 0 -199.5 67.5t-139.5 67.5q-70 0 -106 -68q-16 -31 -40 -36t-69 9.5t-58 34t-1 60.5q37 123 119 185.5t175 62.5
t199.5 -63.5t139.5 -63.5q68 0 106 69q16 31 40 35t70 -10t58.5 -32.5t-0.5 -59.5q-39 -127 -120 -192.5t-174 -65.5z" />
    <glyph glyph-name="itilde" unicode="&#x129;" horiz-adv-x="557" 
d="M278.5 -6q-102.5 0 -138.5 16.5t-36 75.5v872q0 57 36 75t138.5 18t138.5 -17.5t36 -75.5v-872q0 -59 -36 -75.5t-138.5 -16.5zM442.5 1169q-75.5 0 -137 34t-107.5 68t-75 34q-55 0 -86 -68q-25 -51 -107 -27q-45 14 -57 33t-2 60q31 123 106.5 186t150 63t135.5 -31.5
t107 -63.5t74 -32q49 0 86 70q14 29 38 34t69 -9.5t57.5 -33t1.5 -59.5q-31 -125 -104.5 -191.5t-149 -66.5z" />
    <glyph glyph-name="Imacron" unicode="&#x12a;" horiz-adv-x="636" 
d="M318.5 -6q-107.5 0 -145.5 16.5t-38 75.5v1303q0 59 38 75.5t145.5 16.5t145.5 -16.5t38 -75.5v-1303q0 -59 -38 -75.5t-145.5 -16.5zM106 1614q-43 0 -57 25.5t-14 96.5t14 97.5t57 26.5h424q43 0 57.5 -27t14.5 -97.5t-14.5 -96t-57.5 -25.5h-424z" />
    <glyph glyph-name="imacron" unicode="&#x12b;" horiz-adv-x="557" 
d="M278.5 -6q-102.5 0 -138.5 16.5t-36 75.5v872q0 57 36 75t138.5 18t138.5 -17.5t36 -75.5v-872q0 -59 -36 -75.5t-138.5 -16.5zM66 1253q-44 0 -58 26q-14 27 -14 97t14.5 96.5t57.5 26.5h423q43 0 57.5 -26.5t14.5 -97.5t-14.5 -96.5t-57.5 -25.5h-423z" />
    <glyph glyph-name="Ibreve" unicode="&#x12c;" horiz-adv-x="636" 
d="M318.5 -6q-107.5 0 -145.5 16.5t-38 75.5v1303q0 59 38 75.5t145.5 16.5t145.5 -16.5t38 -75.5v-1303q0 -59 -38 -75.5t-145.5 -16.5zM317.5 1577q-225.5 0 -393.5 203q-45 53 23 112q35 33 62.5 34t68.5 -25q111 -72 239.5 -72t239.5 72q39 27 66.5 25.5t64.5 -34.5
q66 -59 23 -112q-168 -203 -393.5 -203z" />
    <glyph glyph-name="ibreve" unicode="&#x12d;" horiz-adv-x="557" 
d="M278.5 -6q-102.5 0 -138.5 16.5t-36 75.5v872q0 57 36 75t138.5 18t138.5 -17.5t36 -75.5v-872q0 -59 -36 -75.5t-138.5 -16.5zM279 1184q-203 0 -338 231q-25 39 -21 62.5t41 51.5t63.5 25.5t61.5 -36.5q84 -84 190 -84t195 84q35 35 60.5 36.5t62.5 -26.5
q68 -49 20 -113q-165 -231 -335 -231z" />
    <glyph glyph-name="Iogonek" unicode="&#x12e;" horiz-adv-x="636" 
d="M524 -375q0 -82 -54 -100t-134 -19q-135 0 -210 61.5t-75 166.5q0 150 174 264q-47 4 -67.5 23.5t-20.5 64.5v1303q0 59 37 75.5t145.5 16.5t145.5 -16.5t37 -75.5v-1297q0 -47 -10.5 -70.5t-40.5 -48.5q-125 -94 -125 -162.5t65 -68.5l70 10q31 0 47 -38t16 -89z" />
    <glyph glyph-name="iogonek" unicode="&#x12f;" horiz-adv-x="557" 
d="M481 -381q0 -76 -54 -94t-134 -19q-135 0 -210 62t-75 166q0 160 193 262q-53 4 -75 23t-22 67v872q0 56 36 74t138 18t139 -16q36 -18 36 -76v-866q-1 -46 -11 -70t-41 -49q-119 -95 -119 -163t66 -68l68 10q33 0 49 -42t16 -91zM479 1362q1 -100 -37 -133t-164 -33
t-163 33t-37 131t38 134t163 36t163 -34t37 -134z" />
    <glyph glyph-name="Idotaccent" unicode="&#x130;" horiz-adv-x="636" 
d="M318.5 -6q-107.5 0 -145.5 16.5t-38 75.5v1303q0 59 38 75.5t145.5 16.5t145.5 -16.5t38 -75.5v-1303q0 -59 -38 -75.5t-145.5 -16.5zM318 1579q-126 0 -162.5 33t-36.5 130t38 133t162.5 36t162.5 -34t38 -133t-38 -132t-164 -33z" />
    <glyph glyph-name="dotlessi" unicode="&#x131;" horiz-adv-x="557" 
d="M278.5 -6q-102.5 0 -138.5 16.5t-36 75.5v872q0 57 36 75t138.5 18t138.5 -17.5t36 -75.5v-872q0 -59 -36 -75.5t-138.5 -16.5z" />
    <glyph glyph-name="IJ" unicode="&#x132;" horiz-adv-x="1251" 
d="M489 610q1 -58 -37 -74t-146 -16t-145 16q-38 16 -38 74v779q0 59 38 75q37 16 145 16t146 -16t37 -75v-779zM506 -27q-168 0 -296 38t-128 163q0 68 26 124t68 56q14 0 114 -30t197 -31q152 -1 214 67t63 240v789q0 59 38 75t146 16t144 -16q37 -16 36 -75v-787
q0 -328 -168 -478t-454 -151z" />
    <glyph glyph-name="ij" unicode="&#x133;" horiz-adv-x="1114" 
d="M669 -496q-73 0 -143.5 53.5t-70.5 106.5q0 29 41 78q90 104 128 203.5t38 259.5v753q0 57 35.5 75t138 18t138.5 -17.5t36 -75.5v-716q0 -426 -199 -658q-69 -80 -142 -80zM278.5 -6q-102.5 0 -138.5 16.5t-36 75.5v872q0 57 36 75t138.5 18t138.5 -17.5t36 -75.5v-872
q0 -59 -36 -75.5t-138.5 -16.5zM833 1196q-126 0 -163 33t-37 131t38 134t162.5 36t162.5 -34t38 -134t-37.5 -133t-163.5 -33zM278 1196q-126 0 -163 33t-37 131t38 134t162.5 36t162.5 -34t38 -134t-37.5 -133t-163.5 -33z" />
    <glyph glyph-name="Jcircumflex" unicode="&#x134;" horiz-adv-x="1118" 
d="M809.5 1481q107.5 0 145.5 -16.5t38 -75.5v-787q0 -629 -555 -629q-152 0 -279.5 38t-127.5 163q0 68 25.5 124t68.5 56q16 0 112.5 -30.5t172.5 -30.5q117 0 167 68.5t50 238.5v789q0 59 37.5 75.5t145 16.5zM1155 1694q23 -33 19.5 -53.5t-32 -49t-53 -29.5t-101.5 48
t-177 88q-100 -41 -177 -89.5t-101.5 -47t-53 30t-32 50t19.5 52.5q96 129 199 211q70 55 146 56q144 2 343 -267z" />
    <glyph glyph-name="jcircumflex" unicode="&#x135;" horiz-adv-x="557" 
d="M278.5 1051q102.5 0 138.5 -17.5t36 -75.5v-716q0 -426 -199 -658q-70 -80 -142 -80t-143 53.5t-71 106.5q0 29 41 78q90 104 127.5 203.5t37.5 259.5v753q0 57 36 75t138.5 18zM594 1268q20 -47 12 -68.5t-46 -45.5t-66 -22t-80 50t-138 100q-90 -54 -139 -102
t-77.5 -49t-65.5 24q-41 23 -48 44.5t13 68.5q78 154 172 256q55 61 146.5 60t144.5 -60q98 -111 172 -256z" />
    <glyph glyph-name="Kcommaaccent" unicode="&#x136;" horiz-adv-x="1376" 
d="M721 -92q137 0 137 -107q0 -162 -153 -340q-29 -33 -55.5 -34.5t-69.5 19.5t-51.5 43t16.5 83t24 152l-8 102q0 82 160 82zM502 86q0 -59 -38 -75.5t-145.5 -16.5t-145.5 16.5t-38 75.5v1303q0 59 38 75.5t145.5 16.5t145.5 -16.5t38 -75.5v-517q293 174 377 517
q14 63 49 77.5t146.5 14.5t154.5 -17.5t37 -74.5q-12 -121 -118 -292t-286 -313q186 -125 306 -331.5t128 -366.5q2 -57 -40 -74.5t-152.5 -17.5t-146 14.5t-48.5 77.5q-72 352 -336 532l-71 -28v-504z" />
    <glyph glyph-name="kcommaaccent" unicode="&#x137;" horiz-adv-x="1140" 
d="M602 -92q137 0 137 -107q0 -162 -153 -340q-29 -33 -55.5 -34.5t-69.5 19.5t-51.5 43t16.5 83t25 152l-9 102q0 82 160 82zM915.5 -6q-106.5 0 -143.5 16.5t-49 77.5q-39 209 -154 332q-70 -35 -116 -51v-283q0 -59 -36 -75.5t-138.5 -16.5t-138.5 16.5t-36 75.5v1364
q0 59 36 75.5t138.5 16.5t138.5 -16.5t36 -75.5v-832q188 119 241 340q14 59 52 76t148 17t146.5 -25t8.5 -104q-70 -193 -250 -347q227 -187 282 -466q14 -70 -22.5 -92.5t-143 -22.5z" />
    <glyph glyph-name="Lacute" unicode="&#x139;" horiz-adv-x="1118" 
d="M223 0q-88 0 -88 88v1301q0 59 38 75.5t145.5 16.5t145.5 -16.5t38 -75.5v-1076h493q51 0 65.5 -31.5t14.5 -124.5t-14 -125t-66 -32h-772zM125 1676.5q0 21.5 29 47.5l274 213q143 111 228 -13q46 -66 46 -128.5t-61 -85.5l-399 -149q-37 -10 -52.5 -1t-40 52
t-24.5 64.5z" />
    <glyph glyph-name="lacute" unicode="&#x13a;" horiz-adv-x="557" 
d="M278.5 -6q-102.5 0 -138.5 16.5t-36 75.5v1364q0 59 36 75.5t138.5 16.5t138.5 -16.5t36 -75.5v-1364q0 -59 -36 -75.5t-138.5 -16.5zM84 1733.5q0 21.5 29 48.5l274 213q68 53 125 53t103.5 -66.5t46.5 -129t-62 -85.5l-399 -149q-37 -10 -52.5 -1t-40 52t-24.5 64.5z
" />
    <glyph glyph-name="Lcommaaccent" unicode="&#x13b;" horiz-adv-x="1118" 
d="M633 -92q137 0 137 -107q0 -162 -154 -340q-29 -33 -55 -35t-69 19.5t-51.5 43.5t16.5 83t24 152l-8 102q0 82 160 82zM223 0q-88 0 -88 88v1301q0 59 38 75.5t145.5 16.5t145.5 -16.5t38 -75.5v-1076h493q51 0 65.5 -31.5t14.5 -124.5t-14 -125t-66 -32h-772z" />
    <glyph glyph-name="lcommaaccent" unicode="&#x13c;" horiz-adv-x="557" 
d="M289 -92q137 0 137 -107q0 -162 -154 -340q-29 -33 -55.5 -35t-69.5 19.5t-51 43.5t16.5 83t24.5 152l-8 102q0 82 160 82zM278.5 -6q-102.5 0 -138.5 16.5t-36 75.5v1364q0 59 36 75.5t138.5 16.5t138.5 -16.5t36 -75.5v-1364q0 -59 -36 -75.5t-138.5 -16.5z" />
    <glyph glyph-name="Lcaron" unicode="&#x13d;" horiz-adv-x="1118" 
d="M223 0q-88 0 -88 88v1301q0 59 38 75.5t145.5 16.5t145.5 -16.5t38 -75.5v-1076h493q51 0 65.5 -31.5t14.5 -124.5t-14 -125t-66 -32h-772zM668 1188v285q0 100 159 100q129 0 129 -80q0 -23 -14 -70l-82 -262q-12 -41 -36.5 -52t-74.5 -6t-65.5 22.5t-15.5 62.5z" />
    <glyph glyph-name="lcaron" unicode="&#x13e;" horiz-adv-x="792" 
d="M278.5 -6q-102.5 0 -138.5 16.5t-36 75.5v1364q0 59 36 75.5t138.5 16.5t138.5 -16.5t36 -75.5v-1364q0 -59 -36 -75.5t-138.5 -16.5zM539 1188v285q0 100 159 100q129 0 129 -80q0 -23 -14 -70l-82 -262q-12 -41 -37 -52t-75 -6t-65 22.5t-15 62.5z" />
    <glyph glyph-name="Ldot" unicode="&#x13f;" horiz-adv-x="1093" 
d="M861 674q-110 0 -149.5 44t-39.5 154.5t41 157.5t149.5 47t152.5 -46t44 -157t-44 -155.5t-154 -44.5zM223 0q-88 0 -88 88v1301q0 59 38 75.5t145.5 16.5t145.5 -16.5t38 -75.5v-1076h493q51 0 65.5 -31.5t14.5 -124.5t-14 -125t-66 -32h-772z" />
    <glyph glyph-name="ldot" unicode="&#x140;" horiz-adv-x="894" 
d="M721 604q-84 0 -120 36t-36 122t36 123t120 37t123 -35t39 -123t-39 -124t-123 -36zM278.5 -6q-102.5 0 -138.5 16.5t-36 75.5v1364q0 59 36 75.5t138.5 16.5t138.5 -16.5t36 -75.5v-1364q0 -59 -36 -75.5t-138.5 -16.5z" />
    <glyph glyph-name="Lslash" unicode="&#x141;" horiz-adv-x="1144" 
d="M1022 313q51 0 65.5 -31.5t14.5 -124.5t-14.5 -125t-65.5 -32h-772q-88 0 -88 88v424l-99 -47q-35 -16 -54 -4t-41.5 61t-17.5 72.5t38 38.5l174 84v672q0 59 38 75.5t146 16.5t145 -16.5t37 -75.5v-517l310 150q35 14 54 2t42 -60t17.5 -72t-38.5 -40l-385 -184v-355
h494z" />
    <glyph glyph-name="lslash" unicode="&#x142;" horiz-adv-x="673" 
d="M510 86q0 -59 -36 -75.5t-138.5 -16.5t-138 16.5t-35.5 75.5v381l-94 -84q-53 -45 -64 31l-2 59q0 59 9 85t36 50l115 101v741q0 59 35.5 75.5t138 16.5t138.5 -16.5t36 -75.5v-520l96 86q53 45 64 -31l2 -59q0 -59 -9.5 -85t-35.5 -50l-117 -103v-602z" />
    <glyph glyph-name="Nacute" unicode="&#x143;" horiz-adv-x="1474" 
d="M1157.5 1481q106.5 0 144 -16.5t37.5 -75.5v-1303q0 -59 -31.5 -75.5t-117.5 -16.5t-113.5 11t-38.5 46q-70 248 -216 498t-324 428v-891q0 -59 -37 -75.5t-143.5 -16.5t-144.5 16.5t-38 75.5v1303q0 59 32 75.5t126 16.5t139 -35q145 -109 290.5 -275.5t252.5 -343.5
v562q0 59 38 75.5t144.5 16.5zM1118 1795.5q0 -62.5 -61 -85.5l-400 -149q-37 -10 -52 -1t-40 52t-24.5 64.5t28.5 47.5l275 213q143 111 228 -13q46 -66 46 -128.5z" />
    <glyph glyph-name="nacute" unicode="&#x144;" horiz-adv-x="1183" 
d="M727 1067q350 0 350 -365v-616q0 -59 -35.5 -75.5t-138 -16.5t-138.5 16.5t-36 75.5v555q0 125 -108 125q-70 0 -119 -43t-49 -100v-537q0 -59 -36 -75.5t-138.5 -16.5t-138.5 16.5t-36 75.5v872q0 55 29 74t98.5 19t97 -13.5t46.5 -56.5l26 -57q142 143 326 143z
M741.5 1620q65.5 0 128 -64.5t62.5 -116.5t-53 -87l-310 -197q-25 -18 -47 -14t-57 37t-41 52t10 46l176 252q66 92 131.5 92z" />
    <glyph glyph-name="Ncommaaccent" unicode="&#x145;" horiz-adv-x="1474" 
d="M782 -92q137 0 138 -107q0 -162 -154 -340q-29 -33 -55.5 -34.5t-69.5 19.5t-51 43t16.5 83t24.5 152l-8 102q-1 82 159 82zM1157.5 1481q106.5 0 144 -16.5t37.5 -75.5v-1303q0 -59 -31.5 -75.5t-117.5 -16.5t-113.5 11t-38.5 46q-70 248 -216 498t-324 428v-891
q0 -59 -37 -75.5t-143.5 -16.5t-144.5 16.5t-38 75.5v1303q0 59 32 75.5t126 16.5t139 -35q145 -109 290.5 -275.5t252.5 -343.5v562q0 59 38 75.5t144.5 16.5z" />
    <glyph glyph-name="ncommaaccent" unicode="&#x146;" horiz-adv-x="1183" 
d="M594 -92q137 0 137 -107q0 -162 -153 -340q-29 -33 -55.5 -34.5t-69.5 19.5t-51.5 43t16.5 83t24 152l-8 102q0 82 160 82zM727 1067q350 0 350 -365v-616q0 -59 -35.5 -75.5t-138 -16.5t-138.5 16.5t-36 75.5v555q0 125 -108 125q-70 0 -119 -43t-49 -100v-537
q0 -59 -36 -75.5t-138.5 -16.5t-138.5 16.5t-36 75.5v872q0 55 29 74t98.5 19t97 -13.5t46.5 -56.5l26 -57q142 143 326 143z" />
    <glyph glyph-name="Ncaron" unicode="&#x147;" horiz-adv-x="1474" 
d="M1157.5 1481q106.5 0 144 -16.5t37.5 -75.5v-1303q0 -59 -31.5 -75.5t-117.5 -16.5t-113.5 11t-38.5 46q-70 248 -216 498t-324 428v-891q0 -59 -37 -75.5t-143.5 -16.5t-144.5 16.5t-38 75.5v1303q0 59 32 75.5t126 16.5t139 -35q145 -109 290.5 -275.5t252.5 -343.5
v562q0 59 38 75.5t144.5 16.5zM588 1612q-102 84 -197 211q-23 33 -19.5 53t32 49t53 30t101.5 -49t177 -87q100 41 177 89t101.5 47t53.5 -30t32 -50.5t-20 -51.5q-96 -129 -198 -211q-70 -55 -146.5 -56t-146.5 56z" />
    <glyph glyph-name="ncaron" unicode="&#x148;" horiz-adv-x="1183" 
d="M727 1067q350 0 350 -365v-616q0 -59 -35.5 -75.5t-138 -16.5t-138.5 16.5t-36 75.5v555q0 125 -108 125q-70 0 -119 -43t-49 -100v-537q0 -59 -36 -75.5t-138.5 -16.5t-138.5 16.5t-36 75.5v872q0 55 29 74t98.5 19t97 -13.5t46.5 -56.5l26 -57q142 143 326 143z
M438 1217q-98 111 -172 256q-20 47 -12 69q8 20 46 44t66 23t80 -50t138 -101q90 54 139 102t77.5 49t65.5 -24q41 -23 48.5 -44t-13.5 -68q-78 -154 -172 -256q-55 -61 -146.5 -60t-144.5 60z" />
    <glyph glyph-name="Eng" unicode="&#x14a;" horiz-adv-x="1474" 
d="M995 -496q-71 0 -141 54t-70 98q0 45 39 86q162 178 162 378t-248 560q-117 170 -239 285v-879q0 -60 -37 -76t-145 -16t-144 16t-37 76v1303q0 59 32 75t126 16t139 -34q144 -109 290 -275t253 -344v562q0 59 37 75q38 16 146 16t145 -16t36 -75v-1151q0 -428 -202 -656
q-70 -78 -142 -78z" />
    <glyph glyph-name="eng" unicode="&#x14b;" horiz-adv-x="1183" 
d="M727 1067q350 0 350 -365v-460q0 -428 -200 -658q-72 -80 -143 -80q-72 0 -142 54t-70 106q0 29 41 78q90 104 128 204t38 259v436q0 125 -108 125q-70 0 -119 -43t-49 -100v-537q0 -60 -36 -76t-138 -16t-139 16q-36 16 -36 76v872q0 56 29 74t99 18t97 -12
q28 -14 46 -57l26 -57q142 143 326 143z" />
    <glyph glyph-name="Omacron" unicode="&#x14c;" horiz-adv-x="1443" 
d="M721 274q141 0 210.5 114t69.5 354.5t-69.5 349t-211.5 108.5t-210 -108.5t-68 -349.5t69 -354.5t210 -113.5zM720 -27q-316 0 -483 192.5t-167 577.5q0 758 651 758t651 -758q0 -385 -168 -577.5t-484 -192.5zM432 1614q-43 0 -57.5 25.5t-14.5 97t14.5 97.5t57.5 26
h582q43 0 57 -26t14 -97.5t-14 -97t-57 -25.5h-582z" />
    <glyph glyph-name="omacron" unicode="&#x14d;" horiz-adv-x="1161" 
d="M580 242q82 0 120.5 60t38.5 226t-37.5 220.5t-121.5 54.5t-122 -54.5t-38 -220.5t39 -226t121 -60zM578 -27q-248 0 -384.5 137.5t-136.5 410.5t137.5 411.5t387.5 138.5t385 -134t135 -408.5t-138 -415t-386 -140.5zM289 1253q-43 0 -57.5 26t-14.5 96.5t14.5 97
t57.5 26.5h581q43 0 57.5 -26.5t14.5 -97.5t-14.5 -96.5t-57.5 -25.5h-581z" />
    <glyph glyph-name="Obreve" unicode="&#x14e;" horiz-adv-x="1443" 
d="M721 274q141 0 210.5 114t69.5 354.5t-69.5 349t-211.5 108.5t-210 -108.5t-68 -349.5t69 -354.5t210 -113.5zM720 -27q-316 0 -483 192.5t-167 577.5q0 758 651 758t651 -758q0 -385 -168 -577.5t-484 -192.5zM721 1577q-225 0 -393 203q-45 53 22 112q35 33 62.5 34
t68.5 -25q111 -72 240 -72t240 72q39 27 66.5 25.5t64.5 -34.5q66 -59 22 -112q-168 -203 -393 -203z" />
    <glyph glyph-name="obreve" unicode="&#x14f;" horiz-adv-x="1161" 
d="M580 242q82 0 120.5 60t38.5 226t-37.5 220.5t-121.5 54.5t-122 -54.5t-38 -220.5t39 -226t121 -60zM578 -27q-248 0 -384.5 137.5t-136.5 410.5t137.5 411.5t387.5 138.5t385 -134t135 -408.5t-138 -415t-386 -140.5zM579 1161q-228 0 -397 244q-25 39 -18.5 60.5
t44.5 52.5t65.5 28.5t62.5 -37.5q104 -98 240.5 -98t244.5 98q37 33 62.5 36t64.5 -27.5t45 -52t-18 -60.5q-168 -244 -396 -244z" />
    <glyph glyph-name="Ohungarumlaut" unicode="&#x150;" horiz-adv-x="1443" 
d="M721 274q141 0 210.5 114t69.5 354.5t-69.5 349t-211.5 108.5t-210 -108.5t-68 -349.5t69 -354.5t210 -113.5zM720 -27q-316 0 -483 192.5t-167 577.5q0 758 651 758t651 -758q0 -385 -168 -577.5t-484 -192.5zM948 1970q63 0 121.5 -43t58.5 -82t-24 -71l-133 -168
q-27 -33 -52.5 -38t-76.5 15.5t-64.5 38.5t0.5 55l76 207q31 86 94 86zM739 1872q0 -23 -12 -47l-94 -203q-18 -39 -41 -45t-76 9t-69.5 30.5t-12.5 58.5l23 197q12 109 114 108q59 0 113.5 -30.5t54.5 -77.5z" />
    <glyph glyph-name="ohungarumlaut" unicode="&#x151;" horiz-adv-x="1161" 
d="M580 242q82 0 120.5 60t38.5 226t-37.5 220.5t-121.5 54.5t-122 -54.5t-38 -220.5t39 -226t121 -60zM578 -27q-248 0 -384.5 137.5t-136.5 410.5t137.5 411.5t387.5 138.5t385 -134t135 -408.5t-138 -415t-386 -140.5zM854 1612q47 0 107.5 -43t60.5 -79t-31 -77
l-178 -235q-23 -31 -47.5 -32t-69.5 25.5t-56 46t1 58.5l100 250q20 51 43 68.5t70 17.5zM465 1628q53 0 110.5 -36t57.5 -75t-21 -73l-151 -252q-18 -31 -43 -36t-73 13t-62.5 37t-3.5 56l67 258q14 61 40 84.5t79 23.5z" />
    <glyph glyph-name="OE" unicode="&#x152;" horiz-adv-x="1933" 
d="M762 1200q-168 0 -244 -108t-76 -350q0 -244 77 -356t243 -112q90 1 160 19v889q-70 18 -160 18zM1794 297q50 0 66 -31t16 -118q0 -88 -15 -118t-67 -30h-846q-109 -20 -217 -20q-319 0 -490 191t-171 572q0 752 661 752q125 0 225 -20h826q51 0 66 -31q16 -31 16 -118
t-16 -118t-66 -30h-494v-279h371q51 0 66 -30q15 -29 15 -117t-14 -119q-16 -31 -67 -31h-371v-305h506z" />
    <glyph glyph-name="oe" unicode="&#x153;" horiz-adv-x="1777" 
d="M580 242q82 0 120 60t39 226q0 166 -38 220q-37 54 -121 55q-84 0 -122 -54q-38 -55 -38 -221t39 -226t121 -60zM1255 819q-77 0 -117 -44t-51 -161q66 -8 121 -8q176 0 176 111q0 102 -129 102zM1608 324q36 0 64 -52t28 -110q0 -59 -27 -89t-80 -50q-125 -49 -295 -50
q-256 0 -387 131q-131 -131 -357 -131q-226 1 -362 139q-134 138 -134 409t138 411t360 139q222 0 355 -127q127 127 355 127t342 -97t114 -254t-120 -239t-326 -82q-102 0 -182 19q16 -92 66 -129t140 -37t156 17q68 17 104 36t48 19z" />
    <glyph glyph-name="Racute" unicode="&#x154;" horiz-adv-x="1359" 
d="M502 801h162q233 0 233 192q0 184 -217 185h-178v-377zM318.5 -6q-107.5 0 -145.5 16.5t-38 75.5v1300q0 88 88 89h449q598 0 598 -433q0 -176 -96.5 -279.5t-260.5 -141.5v-11q96 -25 184.5 -115t144.5 -201.5t63 -207.5q2 -57 -42 -74.5t-155 -17.5t-148.5 15.5
t-56.5 76.5q-63 229 -194 356q-70 68 -154 68h-53v-424q0 -59 -38 -75.5t-145.5 -16.5zM475 1676.5q0 21.5 29 47.5l274 213q142 111 228 -13q46 -66 46.5 -128.5t-61.5 -85.5l-399 -149q-37 -10 -52.5 -1t-40 52t-24.5 64.5z" />
    <glyph glyph-name="racute" unicode="&#x155;" horiz-adv-x="878" 
d="M727 1067q74 0 102.5 -36t28.5 -108.5t-20.5 -126t-57.5 -53.5q-12 0 -54 10.5t-83 10.5q-96 0 -143 -42t-47 -99v-537q0 -59 -36 -75.5t-138.5 -16.5t-138.5 16.5t-36 75.5v872q0 55 29 74t98.5 19t98 -14.5t47.5 -55.5l24 -55q72 70 162 105.5t164 35.5zM623.5 1620
q65.5 0 127.5 -64.5t62 -116.5t-53 -87l-309 -197q-25 -18 -47.5 -14t-57.5 37t-41 52t10 46l177 252q66 92 131.5 92z" />
    <glyph glyph-name="Rcommaaccent" unicode="&#x156;" horiz-adv-x="1359" 
d="M721 -92q137 0 137 -107q0 -162 -153 -340q-29 -33 -55.5 -35t-69.5 19.5t-51.5 43.5t16.5 83t24 152l-8 102q0 82 160 82zM502 801h162q233 0 233 192q0 184 -217 185h-178v-377zM318.5 -6q-107.5 0 -145.5 16.5t-38 75.5v1300q0 88 88 89h449q598 0 598 -433
q0 -176 -96.5 -279.5t-260.5 -141.5v-11q96 -25 184.5 -115t144.5 -201.5t63 -207.5q2 -57 -42 -74.5t-155 -17.5t-148.5 15.5t-56.5 76.5q-63 229 -194 356q-70 68 -154 68h-53v-424q0 -59 -38 -75.5t-145.5 -16.5z" />
    <glyph glyph-name="rcommaaccent" unicode="&#x157;" horiz-adv-x="878" 
d="M289 -92q137 0 137 -107q0 -162 -154 -340q-29 -33 -55.5 -34.5t-69.5 19.5t-51 43t16.5 83t24.5 152l-8 102q0 82 160 82zM727 1067q74 0 102.5 -36t28.5 -108.5t-20.5 -126t-57.5 -53.5q-12 0 -54 10.5t-83 10.5q-96 0 -143 -42t-47 -99v-537q0 -59 -36 -75.5
t-138.5 -16.5t-138.5 16.5t-36 75.5v872q0 55 29 74t98.5 19t98 -14.5t47.5 -55.5l24 -55q72 70 162 105.5t164 35.5z" />
    <glyph glyph-name="Rcaron" unicode="&#x158;" horiz-adv-x="1359" 
d="M664 801q233 0 233 192q0 184 -217 185h-178v-377h162zM1108 -6q-111 0 -148.5 15.5t-56.5 76.5q-63 229 -194 356q-70 68 -154 68h-53v-424q0 -59 -38 -75.5t-145.5 -16.5t-145.5 16.5t-38 75.5v1300q0 88 88 89h449q598 0 598 -433q0 -176 -96.5 -279.5t-260.5 -141.5
v-11q96 -25 184.5 -115t145 -201.5t62.5 -207.5q2 -57 -42 -74.5t-155 -17.5zM522 1612q-102 84 -196 211q-23 33 -20 53t32 49t53.5 30t101.5 -48.5t177 -87.5q100 41 177 89t101.5 47t53 -30t31.5 -50.5t-19 -51.5q-96 -129 -199 -211q-70 -55 -146.5 -56t-146.5 56z" />
    <glyph glyph-name="rcaron" unicode="&#x159;" horiz-adv-x="878" 
d="M727 1067q74 0 102.5 -36t28.5 -108.5t-20.5 -126t-57.5 -53.5q-12 0 -54 10.5t-83 10.5q-96 0 -143 -42t-47 -99v-537q0 -59 -36 -75.5t-138.5 -16.5t-138.5 16.5t-36 75.5v872q0 55 29 74t98.5 19t98 -14.5t47.5 -55.5l24 -55q72 70 162 105.5t164 35.5zM319 1217
q-98 111 -172 256q-20 47 -12 68.5t46 45t66.5 22.5t80 -50t137.5 -101q90 55 139 102.5t78 48.5t66 -24q41 -23 48 -44t-14 -68q-78 -154 -172 -256q-55 -61 -146.5 -60t-144.5 60z" />
    <glyph glyph-name="Sacute" unicode="&#x15a;" horiz-adv-x="1251" 
d="M1004 1110q-12 0 -125 36t-228 36q-170 0 -170 -117q0 -55 52.5 -89t185.5 -65q229 -55 344 -163.5t115 -305t-158 -333t-440 -136.5q-193 0 -361 58q-76 27 -104.5 68.5t-28.5 110.5t28.5 125t75.5 56q22 -1 78 -25q166 -74 328 -73q193 0 192 121q0 55 -54 95t-197 73
q-440 102 -441 444q0 209 144.5 342t416.5 133q162 0 304.5 -36t142.5 -165q0 -70 -27.5 -130t-72.5 -60zM428 1676.5q0 21.5 29 47.5l274 213q143 111 229 -13q46 -66 46 -128.5t-62 -85.5l-399 -149q-37 -10 -52.5 -1t-40 52t-24.5 64.5z" />
    <glyph glyph-name="sacute" unicode="&#x15b;" horiz-adv-x="983" 
d="M473 -27q-188 0 -276 33t-116 63.5t-28 90t29 112t63 52.5q13 0 59 -22q146 -71 302 -71q104 0 104 62.5t-157 95.5q-207 43 -300.5 116t-93.5 220.5t112 246.5t347 99q143 0 261 -39t118 -145q0 -61 -27.5 -112.5t-64.5 -51.5q-12 -1 -54 23q-126 70 -268 71
q-100 0 -100 -60t145 -95q209 -47 308.5 -124t99.5 -227.5t-109.5 -244t-353.5 -93.5zM657.5 1620q65.5 0 128 -64.5t62.5 -116.5t-53 -87l-310 -197q-25 -18 -47 -14t-57 37t-41 52t10 46l176 252q66 92 131.5 92z" />
    <glyph glyph-name="Scircumflex" unicode="&#x15c;" horiz-adv-x="1251" 
d="M1178 442.5q0 -196.5 -158 -333t-440 -136.5q-193 0 -361 58q-76 27 -104.5 68.5t-28.5 110.5t28.5 125t75.5 56q22 -1 78 -25q166 -74 328 -73q193 0 192 121q0 55 -54 95t-197 73q-440 102 -441 444q0 209 144.5 342t416.5 133q162 0 304.5 -36t142.5 -165
q0 -70 -27.5 -130t-72.5 -60q-12 0 -125 36t-228 36q-170 0 -170 -117q0 -55 52.5 -89t185.5 -65q229 -55 344 -163.5t115 -305zM623 1698q-100 -41 -177 -89.5t-102 -47t-53.5 30t-31.5 50t20 52.5q96 129 198 211q70 55 146.5 56t146.5 -56q102 -84 197 -211
q23 -33 19.5 -53.5t-32 -49t-53 -29.5t-101.5 48t-177 88z" />
    <glyph glyph-name="scircumflex" unicode="&#x15d;" horiz-adv-x="983" 
d="M936 310.5q0 -150.5 -109.5 -244t-353.5 -93.5q-188 0 -276 33t-116 63.5t-28 90t29 112t63 52.5q13 0 59 -22q146 -71 302 -71q104 0 104 62.5t-157 95.5q-207 43 -300.5 116t-93.5 220.5t112 246.5t347 99q143 0 261 -39t118 -145q0 -61 -27.5 -112.5t-64.5 -51.5
q-12 -1 -54 23q-126 70 -268 71q-100 0 -100 -60t145 -95q209 -47 308.5 -124t99.5 -227.5zM215 1155q-41 23 -48 44.5t13 68.5q78 154 172 256q55 61 146.5 60t144.5 -60q98 -111 172 -256q20 -47 12 -68.5t-46 -45.5t-66.5 -22.5t-80 50t-136.5 100.5
q-90 -55 -139.5 -102.5t-78 -48.5t-65.5 24z" />
    <glyph glyph-name="Scedilla" unicode="&#x15e;" horiz-adv-x="1251" 
d="M567 -483q-188 0 -188 88q0 33 14.5 64.5t34.5 31.5q6 0 37 -10t59 -10q88 0 88 54t-112 66q-20 2 -29.5 17.5t-1.5 31.5l55 125q-162 6 -305 56q-76 27 -104.5 68.5t-28.5 110.5t28.5 125t75.5 56q22 -1 78 -25q166 -74 328 -73q193 0 192 121q0 55 -54 95t-197 73
q-440 102 -441 444q0 209 144.5 342t416.5 133q162 0 304.5 -36t142.5 -165q0 -70 -27.5 -130t-72.5 -60q-12 0 -125 36t-228 36q-170 0 -170 -117q0 -55 52.5 -89t185.5 -65q229 -55 344 -163.5t115 -291.5t-122 -313.5t-345 -160.5l-23 -48q197 -55 197 -198
q0 -100 -89 -159.5t-229 -59.5z" />
    <glyph glyph-name="scedilla" unicode="&#x15f;" horiz-adv-x="983" 
d="M440 -483q-188 0 -188 88q0 33 14.5 64.5t34.5 31.5q6 0 37 -10t59 -10q88 0 88 54t-112 66q-20 2 -29.5 17.5t-1.5 31.5l55 125q-135 6 -211.5 35t-104.5 59.5t-28 90t29 112t63 52.5q13 0 59 -22q146 -71 302 -71q104 0 104 62.5t-157 95.5q-207 43 -300.5 116
t-93.5 220.5t112 246.5t347 99q143 0 261 -39t118 -145q0 -61 -27.5 -112.5t-64.5 -51.5q-12 -1 -54 23q-126 70 -268 71q-100 0 -100 -60t145 -95q208 -47 308 -124q100 -76 100 -218q0 -298 -354 -340l-21 -46q197 -55 197 -198q0 -100 -89 -159.5t-229 -59.5z" />
    <glyph glyph-name="Scaron" unicode="&#x160;" horiz-adv-x="1251" 
d="M1178 442.5q0 -196.5 -158 -333t-440 -136.5q-193 0 -361 58q-76 27 -104.5 68.5t-28.5 110.5t28.5 125t75.5 56q22 -1 78 -25q166 -74 328 -73q193 0 192 121q0 55 -54 95t-197 73q-440 102 -441 444q0 209 144.5 342t416.5 133q162 0 304.5 -36t142.5 -165
q0 -70 -27.5 -130t-72.5 -60q-12 0 -125 36t-228 36q-170 0 -170 -117q0 -55 52.5 -89t185.5 -65q229 -55 344 -163.5t115 -305zM475 1612q-102 84 -196 211q-23 33 -20 53t31.5 49t53.5 30t102 -48.5t177 -87.5q100 41 177 89t101.5 47t53 -30t31.5 -50.5t-19 -51.5
q-96 -129 -199 -211q-70 -55 -146.5 -56t-146.5 56z" />
    <glyph glyph-name="scaron" unicode="&#x161;" horiz-adv-x="983" 
d="M936 310.5q0 -150.5 -109.5 -244t-353.5 -93.5q-188 0 -276 33t-116 63.5t-28 90t29 112t63 52.5q13 0 59 -22q146 -71 302 -71q104 0 104 62.5t-157 95.5q-207 43 -300.5 116t-93.5 220.5t112 246.5t347 99q143 0 261 -39t118 -145q0 -61 -27.5 -112.5t-64.5 -51.5
q-12 -1 -54 23q-126 70 -268 71q-100 0 -100 -60t145 -95q209 -47 308.5 -124t99.5 -227.5zM354 1217q-98 111 -172 256q-20 47 -12 68.5t46 45t66.5 22.5t80 -50t137.5 -101q90 55 139 102.5t77.5 48.5t65.5 -24q41 -23 48.5 -44t-13.5 -68q-78 -154 -172 -256
q-55 -61 -146.5 -60t-144.5 60z" />
    <glyph glyph-name="uni0162" unicode="&#x162;" horiz-adv-x="1277" 
d="M571 -483q-188 0 -188 88q0 33 14.5 64.5t34.5 31.5q6 0 37 -10t59 -10q88 0 88 54t-112 66q-20 2 -29.5 17.5t-1.5 31.5l66 148q-47 6 -65.5 25.5t-18.5 62.5v1075h-363q-51 0 -65.5 32t-14.5 125t14.5 125t65.5 32h1094q51 0 65.5 -32t14.5 -125t-14.5 -125t-65.5 -32
h-365v-1075q0 -45 -22.5 -64.5t-77.5 -25.5l-29 -62q197 -55 197 -198q0 -100 -89 -159.5t-229 -59.5z" />
    <glyph glyph-name="uni0163" unicode="&#x163;" horiz-adv-x="829" 
d="M412 -483q-189 0 -189 88q0 33 14.5 64.5t34.5 31.5q6 0 37 -10t60 -10q88 0 88 54t-113 66q-20 2 -29.5 17.5t-1.5 31.5l64 142q-221 51 -221 319v475h-58q-43 0 -59 25t-16 84t10 81.5t41 31.5l96 28l55 172q12 39 40 53.5t104 14.5t105.5 -18.5t29.5 -73.5v-140h213
q43 0 57 -27.5t14 -101t-14 -101.5t-57 -28h-213v-380q0 -78 28.5 -107t78 -29t87 8.5t45.5 8.5q29 0 45.5 -45t16.5 -97q0 -110 -88 -136t-162 -27l-23 -48q197 -55 197 -198q0 -100 -89 -159.5t-228 -59.5z" />
    <glyph glyph-name="Tcaron" unicode="&#x164;" horiz-adv-x="1277" 
d="M1186 1475q51 0 65.5 -32t14.5 -125t-14.5 -125t-65.5 -32h-365v-1075q0 -59 -38 -75.5t-145 -16.5t-145 16.5t-38 75.5v1075h-363q-51 0 -65.5 32t-14.5 125t14.5 125t65.5 32h1094zM492 1612q-102 84 -197 211q-23 33 -19.5 53t32 49t53 30t101.5 -49t177 -87
q100 41 177 89t101.5 47t53 -30t32 -50.5t-19.5 -51.5q-96 -129 -199 -211q-70 -55 -146 -56t-146 56z" />
    <glyph glyph-name="tcaron" unicode="&#x165;" horiz-adv-x="829" 
d="M743 287q29 0 45.5 -45t16.5 -97q0 -111 -94 -139t-203 -26q-174 0 -263 77.5t-89 253.5v475h-58q-43 0 -59 25t-16 84t10 81.5t41 31.5l96 28l55 172q12 39 40 53.5t104 14.5t105.5 -18.5t29.5 -73.5v-140h213q43 0 57 -27.5t14 -101t-14 -101.5t-57 -28h-213v-380
q0 -78 28 -107t78 -29t87.5 8.5t45.5 8.5zM776 1630q129 0 129 -80q0 -23 -14 -69l-82 -262q-12 -41 -36.5 -52.5t-74.5 -6.5t-66 22.5t-16 62.5v285q0 100 160 100z" />
    <glyph glyph-name="Tbar" unicode="&#x166;" horiz-adv-x="1277" 
d="M1186 1475q51 0 65.5 -32t14.5 -125t-14.5 -125t-65.5 -32h-365v-379h283q43 0 57.5 -25.5t14.5 -93t-14.5 -93t-57.5 -25.5h-283v-459q0 -59 -38 -75.5t-145 -16.5t-145 16.5t-38 75.5v459h-285q-43 0 -57.5 25.5t-14.5 93t14.5 93t57.5 25.5h285v379h-363
q-51 0 -65.5 32t-14.5 125t14.5 125t65.5 32h1094z" />
    <glyph glyph-name="tbar" unicode="&#x167;" horiz-adv-x="829" 
d="M743 287q29 0 45.5 -45t16.5 -97q0 -111 -94 -139t-203 -26q-174 0 -263 77.5t-89 253.5v172h-95q-25 0 -31.5 15.5t-6.5 60.5t7 61.5t31 16.5h95v149h-58q-43 0 -59 25t-16 84t10 81.5t41 31.5l96 28l55 172q12 39 40 53.5t104 14.5t105.5 -18.5t29.5 -73.5v-140h213
q43 0 57 -27.5t14 -101t-14 -101.5t-57 -28h-213v-149h244q25 0 31.5 -16.5t6.5 -61.5t-7 -60.5t-31 -15.5h-244v-77q0 -78 28 -107t78 -29t87.5 8.5t45.5 8.5z" />
    <glyph glyph-name="Utilde" unicode="&#x168;" horiz-adv-x="1429" 
d="M715 -27q-289 0 -440.5 158t-151.5 504v754q0 59 38 75.5t145.5 16.5t145 -16.5t37.5 -75.5v-738q0 -193 55.5 -275.5t170 -82.5t170 83t55.5 275v738q0 59 38 75.5t145.5 16.5t145.5 -16.5t38 -75.5v-754q0 -662 -592 -662zM892 1569q-83 0 -148.5 33.5t-117 67.5
t-83.5 34q-70 0 -107 -68q-16 -31 -39.5 -36t-68.5 9.5t-58.5 34t-1.5 60.5q37 123 119 185.5t175 62.5t199.5 -63.5t139.5 -63.5q68 0 107 69q16 31 39.5 35t69.5 -10t58.5 -32.5t0.5 -59.5q-39 -127 -120 -192.5t-164 -65.5z" />
    <glyph glyph-name="utilde" unicode="&#x169;" horiz-adv-x="1181" 
d="M903.5 1051q102.5 0 138 -17.5t35.5 -75.5v-872q0 -57 -24.5 -74.5t-99.5 -17.5t-102.5 13t-43.5 56l-25 60q-143 -145 -324 -145q-354 -1 -354 362v618q0 57 36 75t138.5 18t138.5 -17.5t36 -75.5v-557q0 -123 108 -122q70 0 119 44t49 99v536q0 57 36 75t138.5 18z
M437 1552q93 0 199.5 -63.5t139.5 -63.5q68 0 107 70q16 31 39.5 35t69.5 -10t58.5 -33t0.5 -60q-39 -127 -120 -192.5t-174 -65.5t-199.5 68t-139.5 68q-70 0 -107 -68q-16 -31 -39.5 -36t-68.5 9.5t-58.5 34t-1.5 60.5q37 123 119 185t175 62z" />
    <glyph glyph-name="Umacron" unicode="&#x16a;" horiz-adv-x="1429" 
d="M715 -27q-289 0 -440.5 158t-151.5 504v754q0 59 38 75q37 16 145 16.5t145.5 -16t37.5 -75.5v-738q0 -193 55.5 -275.5t170 -82.5t170 83t55.5 275v738q0 59 38 75.5t146 16.5t145.5 -16.5t37.5 -75.5v-754q0 -662 -592 -662zM424 1614q-43 0 -57.5 25.5t-14.5 97
t14.5 97.5t57.5 26h582q43 0 57 -26t14 -97.5t-14 -97t-57 -25.5h-582z" />
    <glyph glyph-name="umacron" unicode="&#x16b;" horiz-adv-x="1181" 
d="M903.5 1051q102.5 0 138 -17.5t35.5 -75.5v-872q0 -57 -24.5 -74.5t-99.5 -17.5t-102.5 13t-43.5 56l-25 60q-143 -145 -324 -145q-354 -1 -354 362v618q0 57 36 75t138.5 18t138.5 -17.5t36 -75.5v-557q0 -123 108 -122q70 0 119 44t49 99v536q0 57 36 75t138.5 18z
M299 1253q-43 0 -57.5 26t-14.5 96.5t14.5 97t57.5 26.5h582q43 0 57 -26.5t14 -97.5t-14 -96.5t-57 -25.5h-582z" />
    <glyph glyph-name="Ubreve" unicode="&#x16c;" horiz-adv-x="1429" 
d="M715 -27q-289 0 -440.5 158t-151.5 504v754q0 59 38 75q37 16 145 16.5t145.5 -16t37.5 -75.5v-738q0 -193 55.5 -275.5t170 -82.5t170 83t55.5 275v738q0 59 38 75.5t146 16.5t145.5 -16.5t37.5 -75.5v-754q0 -662 -592 -662zM712.5 1577q-225.5 0 -393.5 203
q-45 53 23 112q35 33 62.5 34t68.5 -25q111 -72 240 -72t239 72q39 27 67 25.5t64 -34.5q66 -59 23 -112q-168 -203 -393.5 -203z" />
    <glyph glyph-name="ubreve" unicode="&#x16d;" horiz-adv-x="1181" 
d="M903.5 1051q102.5 0 138 -17.5t35.5 -75.5v-872q0 -57 -24.5 -74.5t-99.5 -17.5t-102.5 13t-43.5 56l-25 60q-143 -145 -324 -145q-354 -1 -354 362v618q0 57 36 75t138.5 18t138.5 -17.5t36 -75.5v-557q0 -123 108 -122q70 0 119 44t49 99v536q0 57 36 75t138.5 18z
M589 1161q-228 0 -396 244q-25 39 -19 60.5t44 52.5t65.5 28.5t62.5 -37.5q104 -98 240.5 -98t244.5 98q37 33 63 36t64.5 -27.5t45 -52t-18.5 -60.5q-168 -244 -396 -244z" />
    <glyph glyph-name="Uring" unicode="&#x16e;" horiz-adv-x="1429" 
d="M715 -27q-289 0 -440.5 158t-151.5 504v754q0 59 38 75q37 16 145 16.5t145.5 -16t37.5 -75.5v-738q0 -193 55.5 -275.5t170 -82.5t170 83t55.5 275v738q0 59 38 75.5t146 16.5t145.5 -16.5t37.5 -75.5v-754q0 -662 -592 -662zM717 1645q37 0 61.5 25.5t24.5 73.5
t-24.5 73.5t-61.5 25.5t-61.5 -25.5t-24.5 -73.5t24.5 -73.5t61.5 -25.5zM717 1516q-96 0 -167 63t-71 165.5t71 165t167 62.5t165.5 -62.5t69.5 -165t-69.5 -165.5t-165.5 -63z" />
    <glyph glyph-name="uring" unicode="&#x16f;" horiz-adv-x="1181" 
d="M903.5 1051q102.5 0 138 -17.5t35.5 -75.5v-872q0 -57 -24.5 -74.5t-99.5 -17.5t-102.5 13t-43.5 56l-25 60q-143 -145 -324 -145q-354 -1 -354 362v618q0 57 36 75t138.5 18t138.5 -17.5t36 -75.5v-557q0 -123 108 -122q70 0 119 44t49 99v536q0 57 36 75t138.5 18z
M590 1483q-37 0 -61.5 -25.5t-24.5 -75t24.5 -75t61.5 -25.5t61.5 25.5t24.5 75t-24.5 75t-61.5 25.5zM590 1155q-96 0 -167 62.5t-71 165t71 165t167 62.5t165.5 -62.5t69.5 -165t-69.5 -165t-165.5 -62.5z" />
    <glyph glyph-name="Uhungarumlaut" unicode="&#x170;" horiz-adv-x="1429" 
d="M715 -27q-289 0 -440.5 158t-151.5 504v754q0 59 38 75.5t145.5 16.5t145 -16.5t37.5 -75.5v-738q0 -193 55.5 -275.5t170 -82.5t170 83t55.5 275v738q0 59 38 75.5t145.5 16.5t145.5 -16.5t38 -75.5v-754q0 -662 -592 -662zM940 1970q63 0 121.5 -43t58.5 -82t-24 -71
l-133 -168q-27 -33 -52.5 -38t-77 15.5t-64.5 38.5t1 55l76 207q31 86 94 86zM731 1872q0 -23 -12 -47l-94 -203q-18 -39 -41 -45t-76 9t-69.5 30.5t-12.5 58.5l23 197q12 109 114 108q59 0 113.5 -30.5t54.5 -77.5z" />
    <glyph glyph-name="uhungarumlaut" unicode="&#x171;" horiz-adv-x="1181" 
d="M903.5 1051q102.5 0 138 -17.5t35.5 -75.5v-872q0 -57 -24.5 -74.5t-99.5 -17.5t-102.5 13t-43.5 56l-25 60q-143 -145 -324 -145q-354 -1 -354 362v618q0 57 36 75t138.5 18t138.5 -17.5t36 -75.5v-557q0 -123 108 -122q70 0 119 44t49 99v536q0 57 36 75t138.5 18z
M864 1612q47 0 107.5 -43t60.5 -79t-31 -77l-178 -235q-23 -31 -47 -32t-69 25.5t-56.5 46t0.5 58.5l101 250q20 51 42.5 68.5t69.5 17.5zM475 1628q53 0 110.5 -36t57.5 -75t-20 -73l-152 -252q-18 -31 -43 -36t-73 13t-62 37t-4 56l67 258q14 61 40 84.5t79 23.5z" />
    <glyph glyph-name="Uogonek" unicode="&#x172;" horiz-adv-x="1429" 
d="M948 -375q0 -82 -54 -100t-132 -19q-137 0 -212 62t-75 166q0 66 46 129t126 112q-524 37 -524 660v754q0 59 38 75q37 16 145 16t146 -16t37 -75v-738q-1 -193 55 -275t171 -83q115 0 170 83t55 275v738q0 59 38 75t146 17q108 -1 145 -17q38 -16 38 -75v-754
q0 -248 -77 -377q-78 -129 -226 -216t-201 -140t-53 -99q0 -61 65 -61l70 10q31 0 47 -38t16 -89z" />
    <glyph glyph-name="uogonek" unicode="&#x173;" horiz-adv-x="1181" 
d="M1098 -381q0 -76 -54.5 -94t-132.5 -19q-137 0 -211.5 61.5t-74.5 166.5q0 160 202 280l-45 109q-143 -145 -324 -145q-354 -1 -354 362v618q0 57 36 75t138.5 18t138.5 -17.5t36 -75.5v-557q0 -123 108 -122q70 0 119 44t49 99v536q0 57 36 75t138.5 18t138 -17.5
t35.5 -75.5v-872q0 -53 -45 -88q-133 -98 -133 -193q0 -63 66 -63l69 10q31 0 47.5 -43t16.5 -90z" />
    <glyph glyph-name="Wcircumflex" unicode="&#x174;" horiz-adv-x="1964" 
d="M1705 1481q110 0 147.5 -16.5t37.5 -75.5q0 -336 -87 -703t-244 -620q-29 -45 -68 -58.5t-135 -13.5t-134 12t-61 55q-125 248 -174 512h-10q-49 -266 -174 -514q-23 -43 -59.5 -54t-134 -11t-136.5 13t-67 59q-158 254 -245 620.5t-87 702.5q0 59 39 75.5t147.5 16.5
t145 -16.5t38.5 -75.5q20 -381 58.5 -616.5t122.5 -426.5q162 352 180 897q2 57 38 73.5t140 16.5t139 -16.5t37 -73.5q20 -549 182 -897q84 190 121 424t58 619q2 59 38.5 75.5t146.5 16.5zM981 1698q-100 -41 -177 -89.5t-101.5 -47t-53 30t-32 50t19.5 52.5
q96 129 199 211q70 55 146 56q141 2 343 -267q23 -33 19.5 -53.5t-32 -49t-53 -29.5t-101.5 48t-177 88z" />
    <glyph glyph-name="wcircumflex" unicode="&#x175;" horiz-adv-x="1634" 
d="M1394 1051q105 0 141 -17.5t36 -75.5q0 -242 -66.5 -483.5t-179.5 -415.5q-27 -39 -64.5 -52t-121.5 -13t-124 17.5t-67 64.5q-88 164 -131 362q-41 -186 -131 -362q-25 -49 -64.5 -65.5t-125.5 -16.5t-124 13t-63 52q-109 178 -177.5 421t-68.5 478q0 57 36 75t141.5 18
t143.5 -17.5t40 -77.5q16 -426 100 -677q109 233 129 577q2 57 36 74.5t126 17.5t125 -17.5t37 -74.5q29 -365 131 -580q86 248 102 680q2 59 40.5 77t143.5 18zM532 1155q-41 23 -48 44.5t14 68.5q78 154 172 256q55 61 146 60t145 -60q98 -111 172 -256q20 -47 12 -68.5
t-46 -45.5t-66.5 -22.5t-80 50t-137.5 100.5q-90 -55 -139 -102.5t-78 -48.5t-66 24z" />
    <glyph glyph-name="Ycircumflex" unicode="&#x176;" horiz-adv-x="1312" 
d="M1074 1481q110 0 149 -16.5t37 -75.5q-4 -203 -123 -467.5t-297 -442.5v-393q0 -59 -38 -75.5t-145.5 -16.5t-145.5 16.5t-38 75.5v393q-178 176 -297 440.5t-123 469.5q-2 59 37 75.5t147.5 16.5t145.5 -16.5t43 -75.5q37 -389 236 -629q193 242 225 629q4 59 40.5 75.5
t146.5 16.5zM657 1698q-100 -41 -177 -89.5t-101.5 -47t-53 30t-31.5 50t19 52.5q96 129 199 211q70 55 146.5 56t146.5 -56q102 -84 196 -211q23 -33 20 -53.5t-31.5 -49t-53.5 -29.5t-102 48t-177 88z" />
    <glyph glyph-name="ycircumflex" unicode="&#x177;" horiz-adv-x="1095" 
d="M867 1051q105 0 141 -17.5t36 -75.5q0 -299 -166.5 -691t-414.5 -654q-102 -109 -179.5 -109t-142.5 70t-65 137q0 37 51 72q160 102 270 233q-170 205 -257 470.5t-87 471.5q0 57 36 75t141 18t143.5 -17.5t40.5 -77.5q20 -434 135 -692q109 246 135 692q2 59 40 77
t143 18zM266 1155q-41 23 -48 44.5t13 68.5q78 154 172 256q55 61 146.5 60t144.5 -60q98 -111 172 -256q20 -47 12 -68.5t-46 -45.5t-66.5 -22.5t-80 50t-136.5 100.5q-90 -55 -139.5 -102.5t-78 -48.5t-65.5 24z" />
    <glyph glyph-name="Ydieresis" unicode="&#x178;" horiz-adv-x="1312" 
d="M1074 1481q110 0 149 -16.5t37 -75.5q-4 -203 -123 -467.5t-297 -442.5v-393q0 -59 -38 -75.5t-145.5 -16.5t-145.5 16.5t-38 75.5v393q-178 176 -297 440.5t-123 469.5q-2 59 37 75.5t147.5 16.5t145.5 -16.5t43 -75.5q37 -389 236 -629q193 242 225 629q4 59 40.5 75.5
t146.5 16.5zM901.5 1587q-110.5 0 -141.5 33t-31 130t32 133t141.5 36t143 -34t33.5 -133t-33.5 -132t-144 -33zM409.5 1587q-110.5 0 -141 33t-30.5 130t31.5 133t141.5 36t143.5 -34t33.5 -133t-34 -132t-144.5 -33z" />
    <glyph glyph-name="Zacute" unicode="&#x179;" horiz-adv-x="1212" 
d="M1067 313q43 0 57.5 -33.5t14.5 -122.5t-14.5 -123t-57.5 -34h-893q-63 0 -83.5 43t-20.5 127t22 145q90 250 238.5 471.5t322.5 374.5h-477q-43 0 -57.5 34t-14.5 123t14.5 123t57.5 34h891q51 0 67.5 -41t16.5 -143.5t-57 -151.5q-444 -389 -611 -826h584zM424 1676.5
q0 21.5 29 47.5l274 213q143 111 228 -13q46 -66 46 -128.5t-61 -85.5l-399 -149q-37 -10 -52.5 -1t-40 52t-24.5 64.5z" />
    <glyph glyph-name="zacute" unicode="&#x17a;" horiz-adv-x="964" 
d="M844 281q43 0 57 -30t14 -111t-14 -110.5t-57 -29.5h-719q-45 0 -59 30t-15 92q-1 154 171 380q110 144 253 262h-334q-43 0 -56 29.5t-13 110.5t13 110.5t56 29.5h682q47 0 61.5 -33.5t14.5 -110t-16.5 -103.5t-57.5 -56q-266 -180 -424 -460h443zM647.5 1620
q65.5 0 128 -64.5t62.5 -116.5t-54 -87l-309 -197q-25 -18 -47 -14t-57 37t-41 52t10 46l176 252q66 92 131.5 92z" />
    <glyph glyph-name="Zdotaccent" unicode="&#x17b;" horiz-adv-x="1212" 
d="M1067 313q43 0 57.5 -33.5t14.5 -122.5t-14.5 -123t-57.5 -34h-893q-63 0 -83.5 43t-20.5 127t22 145q90 250 238.5 471.5t322.5 374.5h-477q-43 0 -57.5 34t-14.5 123t14.5 123t57.5 34h891q51 0 67.5 -41t16.5 -143.5t-57 -151.5q-444 -389 -611 -826h584zM617 1579
q-126 0 -162.5 33t-36.5 130t38 133t162.5 36t162.5 -34t38 -133t-38 -132t-164 -33z" />
    <glyph glyph-name="zdotaccent" unicode="&#x17c;" horiz-adv-x="964" 
d="M844 281q43 0 57 -30t14 -111t-14 -110.5t-57 -29.5h-719q-45 0 -59 30t-15 92q-1 154 171 380q110 144 253 262h-334q-43 0 -56 29.5t-13 110.5t13 110.5t56 29.5h682q47 0 61.5 -33.5t14.5 -110t-16.5 -103.5t-57.5 -56q-266 -180 -424 -460h443zM486 1196
q-126 0 -162.5 33t-36.5 131t37.5 134t162.5 36t163 -34t38 -134t-38 -133t-164 -33z" />
    <glyph glyph-name="Zcaron" unicode="&#x17d;" horiz-adv-x="1212" 
d="M1067 313q43 0 57.5 -33.5t14.5 -122.5t-14.5 -123t-57.5 -34h-893q-63 0 -83.5 43t-20.5 127t22 145q90 250 238.5 471.5t322.5 374.5h-477q-43 0 -57.5 34t-14.5 123t14.5 123t57.5 34h891q51 0 67.5 -41t16.5 -143.5t-57 -151.5q-444 -389 -611 -826h584zM471 1612
q-102 84 -197 211q-23 33 -19.5 53t32 49t53.5 30t102 -49t176 -87q100 41 177 89t102 47t53.5 -30t31.5 -50.5t-19 -51.5q-96 -129 -199 -211q-70 -55 -146.5 -56t-146.5 56z" />
    <glyph glyph-name="zcaron" unicode="&#x17e;" horiz-adv-x="964" 
d="M844 281q43 0 57 -30t14 -111t-14 -110.5t-57 -29.5h-719q-45 0 -59 30t-15 92q-1 154 171 380q110 144 253 262h-334q-43 0 -56 29.5t-13 110.5t13 110.5t56 29.5h682q47 0 61.5 -33.5t14.5 -110t-16.5 -103.5t-57.5 -56q-266 -180 -424 -460h443zM344 1217
q-98 111 -172 256q-20 47 -12 68.5t46 45t66.5 22.5t80 -50t136.5 -101q90 55 139.5 102.5t78 48.5t65.5 -24q41 -23 48 -44t-13 -68q-78 -154 -172 -256q-55 -61 -146.5 -60t-144.5 60z" />
    <glyph glyph-name="longs" unicode="&#x17f;" horiz-adv-x="581" 
d="M279 -6q-102 0 -139 16q-36 16 -36 76v1059q0 197 126 307t362 111q90 0 188 -25q111 -27 111 -137q0 -63 -29 -115t-63 -51q-5 -1 -67 23t-136 24q-145 0 -143 -145v-1051q0 -60 -36 -76t-138 -16z" />
    <glyph glyph-name="florin" unicode="&#x192;" horiz-adv-x="1040" 
d="M1061 1376q0 -74 -32 -132q-32 -60 -68 -60q-15 0 -67 18q-138 47 -194 -18q-31 -37 -41 -129l-12 -101h187q43 0 57 -28t14 -101t-14 -101t-57 -28h-216l-69 -590q-27 -220 -143 -332t-314 -112q-96 0 -171 24t-75 105q0 59 26 113t56 53q8 0 50 -14t83 -15
q123 0 144 183l67 585h-112q-43 0 -60 25q-16 25 -16 84t12 79t51 29l156 33l14 129q25 211 145 319t314 107q127 1 206 -25t79 -100z" />
    <glyph glyph-name="Scommaaccent" unicode="&#x218;" horiz-adv-x="1251" 
d="M645 -92q137 0 137 -107q0 -162 -153 -340q-29 -33 -55.5 -35t-69.5 19.5t-51.5 43.5t16.5 83t25 152l-9 102q0 82 160 82zM1004 1110q-12 0 -125 36t-228 36q-170 0 -170 -117q0 -55 52.5 -89t185.5 -65q229 -55 344 -163.5t115 -305t-158 -333t-440 -136.5
q-193 0 -361 58q-76 27 -104.5 68.5t-28.5 110.5t28.5 125t75.5 56q22 -1 78 -25q166 -74 328 -73q193 0 192 121q0 55 -54 95t-197 73q-440 102 -441 444q0 209 144.5 342t416.5 133q162 0 304.5 -36t142.5 -165q0 -70 -27.5 -130t-72.5 -60z" />
    <glyph glyph-name="scommaaccent" unicode="&#x219;" horiz-adv-x="983" 
d="M518 -92q137 0 137 -107q0 -162 -153 -340q-29 -33 -55.5 -35t-69.5 19.5t-51.5 43.5t16.5 83t25 152l-9 102q0 82 160 82zM473 -27q-188 0 -276 33t-116 63.5t-28 90t29 112t63 52.5q13 0 59 -22q146 -71 302 -71q104 0 104 62.5t-157 95.5q-207 43 -300.5 116
t-93.5 220.5t112 246.5t347 99q143 0 261 -39t118 -145q0 -61 -27.5 -112.5t-64.5 -51.5q-12 -1 -54 23q-126 70 -268 71q-100 0 -100 -60t145 -95q209 -47 308.5 -124t99.5 -227.5t-109.5 -244t-353.5 -93.5z" />
    <glyph glyph-name="uni021A" unicode="&#x21a;" horiz-adv-x="1277" 
d="M649 -92q137 0 137 -107q0 -162 -153 -340q-29 -33 -55.5 -34.5t-69.5 19.5t-51 43t16.5 83t24.5 152l-9 102q0 82 160 82zM1186 1475q51 0 65.5 -32t14.5 -125t-14.5 -125t-65.5 -32h-365v-1075q0 -59 -38 -75.5t-145 -16.5t-145 16.5t-38 75.5v1075h-363
q-51 0 -65.5 32t-14.5 125t14.5 125t65.5 32h1094z" />
    <glyph glyph-name="uni021B" unicode="&#x21b;" horiz-adv-x="829" 
d="M489 -92q137 0 138 -107q0 -162 -154 -340q-29 -33 -55.5 -34.5t-69.5 19.5t-51 43t16.5 83t24.5 152l-8 102q-1 82 159 82zM743 287q29 0 45.5 -45t16.5 -97q0 -111 -94 -138.5t-203 -26.5q-174 0 -263 77.5t-89 253.5v475h-58q-43 0 -59 25t-16 84t10 81.5t41 31.5
l96 28l55 172q12 39 40 53.5t104 14.5t105.5 -18.5t29.5 -73.5v-140h213q43 0 57 -27.5t14 -101t-14 -101.5t-57 -28h-213v-380q0 -78 28.5 -107t78 -29t87 8.5t45.5 8.5z" />
    <glyph glyph-name="uni0237" unicode="&#x237;" horiz-adv-x="557" 
d="M112 -496q-73 0 -143.5 53.5t-70.5 106.5q0 29 41 78q90 104 127.5 203.5t37.5 259.5v753q0 57 36 75t138.5 18t138.5 -17.5t36 -75.5v-716q0 -426 -199 -658q-69 -80 -142 -80z" />
    <glyph glyph-name="circumflex" unicode="&#x2c6;" horiz-adv-x="796" 
d="M715 1268q20 -47 12 -68.5t-46 -45.5q-39 -24 -67 -22t-80 50t-137 100q-90 -54 -139 -102t-77.5 -49t-65.5 24q-41 23 -48.5 44.5t13.5 68.5q78 154 172 256q55 61 146 60t145 -60q98 -111 172 -256z" />
    <glyph glyph-name="caron" unicode="&#x2c7;" horiz-adv-x="796" 
d="M682 1585q41 -23 48 -44t-13 -68q-78 -154 -172 -256q-55 -61 -146.5 -60.5t-144.5 60.5q-98 111 -172 256q-20 47 -12 69q8 20 46 44t66 23t80 -50t137 -101q89 54 139 102t78.5 49t65.5 -24z" />
    <glyph glyph-name="breve" unicode="&#x2d8;" horiz-adv-x="917" 
d="M458 1161q-228 0 -397 244q-25 39 -18.5 60.5t44.5 52.5t65.5 28.5t62.5 -37.5q104 -98 240.5 -98t244.5 98q37 33 62.5 36t64.5 -27.5t45.5 -52t-18.5 -60.5q-168 -244 -396 -244z" />
    <glyph glyph-name="dotaccent" unicode="&#x2d9;" horiz-adv-x="563" 
d="M282 1196q-126 0 -163 33t-37 131t38 134t163 36t162.5 -34t37.5 -134t-37.5 -133t-163.5 -33z" />
    <glyph glyph-name="ring" unicode="&#x2da;" horiz-adv-x="616" 
d="M309 1282q37 0 61.5 25.5t24.5 75t-24.5 75t-61.5 25.5t-61.5 -25.5t-24.5 -75t24.5 -75t61.5 -25.5zM309.5 1155q-96.5 0 -167 62.5t-70.5 165t70.5 165t167 62.5t166 -62.5t69.5 -165t-69.5 -165t-166 -62.5z" />
    <glyph glyph-name="ogonek" unicode="&#x2db;" horiz-adv-x="614" 
d="M520 -375q0 -82 -53 -100t-135 -19q-135 0 -210 62t-75 166q0 168 219 291l209 -11q-154 -106 -153 -211q0 -61 65 -61l70 10q31 0 47 -38t16 -89z" />
    <glyph glyph-name="tilde" unicode="&#x2dc;" horiz-adv-x="899" 
d="M610 1169q-92 0 -199.5 68t-140.5 68q-70 0 -106 -68q-16 -31 -40 -36t-69 9.5t-58 34t-1 60.5q37 123 119 185t175 62t199.5 -63.5t139.5 -63.5q68 0 106 70q16 31 40 35t70 -10t58 -33t0 -60q-39 -127 -120 -192.5t-173 -65.5z" />
    <glyph glyph-name="hungarumlaut" unicode="&#x2dd;" horiz-adv-x="921" 
d="M516 1171q-45 27 -56 47t1 58l100 250q20 51 43 68q23 18 70 18t107 -43q61 -43 61 -79t-31 -77l-178 -235q-23 -30 -47 -32t-70 25zM238 1156q-25 -5 -73 13q-49 19 -63 37t-4 56l68 258q14 61 40 85q26 23 79 23t110 -36q92 -58 37 -148l-151 -252q-18 -31 -43 -36z
" />
    <glyph glyph-name="gravecomb" unicode="&#x300;" horiz-adv-x="0" 
d="M-477.5 1620q65.5 0 129.5 -90l176 -254q18 -27 12 -46.5t-41 -52t-57 -36.5t-47 14l-309 197q-53 35 -53.5 87t62 116.5t128 64.5z" />
    <glyph glyph-name="acutecomb" unicode="&#x301;" horiz-adv-x="0" 
d="M-337.5 1620q65.5 0 128 -64.5t62.5 -116.5t-54 -87l-309 -197q-25 -18 -47 -14t-57 37t-41.5 52t10.5 46l176 252q66 92 131.5 92z" />
    <glyph glyph-name="uni0302" unicode="&#x302;" horiz-adv-x="0" 
d="M-82 1268q20 -47 12 -68.5t-46 -45.5t-66 -22t-80 50t-137 100q-89 -54 -139 -102t-78.5 -49t-65.5 24q-41 23 -48 44.5t13 68.5q78 154 172 256q55 61 146.5 60t144.5 -60q98 -111 172 -256z" />
    <glyph glyph-name="tildecomb" unicode="&#x303;" horiz-adv-x="0" 
d="M-280 1169q-83 0 -148.5 34t-116.5 68t-84 34q-70 0 -106 -68q-16 -31 -40 -36t-69 9.5t-58 34t-1 60.5q37 123 119 185t175 62t199.5 -63.5t139.5 -63.5q68 0 106 70q16 31 40 35t70 -10t58 -33t0 -60q-39 -127 -120 -192.5t-164 -65.5z" />
    <glyph glyph-name="uni0304" unicode="&#x304;" horiz-adv-x="0" 
d="M-702 1253q-44 0 -58 26q-14 27 -14 97t14.5 96.5t57.5 26.5h581q43 0 57.5 -26.5t14.5 -97.5t-14.5 -96.5t-57.5 -25.5h-581z" />
    <glyph glyph-name="uni0306" unicode="&#x306;" horiz-adv-x="0" 
d="M-460 1161q-228 0 -396 244q-25 39 -18.5 60.5t44.5 52.5t65.5 28.5t62.5 -37.5q104 -98 240 -98t245 98q37 33 62.5 36t64.5 -27.5t45 -52t-18 -60.5q-169 -244 -397 -244z" />
    <glyph glyph-name="uni0307" unicode="&#x307;" horiz-adv-x="0" 
d="M-282 1196q-126 0 -162.5 33t-36.5 131t37.5 134t162.5 36t163 -34t38 -134t-38 -133t-164 -33z" />
    <glyph glyph-name="uni0308" unicode="&#x308;" horiz-adv-x="0" 
d="M-247.5 1196q-110.5 0 -141.5 33t-31 131t32 134t142 36t143 -34t33 -134t-33.5 -133t-144 -33zM-739.5 1196q-110.5 0 -141 33t-30.5 131t31.5 134t141.5 36t143.5 -34t33.5 -134t-34 -133t-144.5 -33z" />
    <glyph glyph-name="uni030A" unicode="&#x30a;" horiz-adv-x="0" 
d="M-307 1282q37 0 61.5 25.5t24.5 75t-24.5 75t-61.5 25.5t-61.5 -25.5t-24.5 -75t24.5 -75t61.5 -25.5zM-307 1155q-96 0 -167 62.5t-71 165t71 165t167 62.5t165.5 -62.5t69.5 -165t-69.5 -165t-165.5 -62.5z" />
    <glyph glyph-name="uni030B" unicode="&#x30b;" horiz-adv-x="0" 
d="M-248 1612q47 0 107.5 -43t60.5 -79t-31 -77l-178 -235q-23 -31 -47 -32t-69.5 25.5t-56.5 46t1 58.5l101 250q20 51 42.5 68.5t69.5 17.5zM-637 1628q53 0 110.5 -36t57.5 -75t-20 -73l-152 -252q-18 -31 -43 -36t-73 13t-62.5 37t-3.5 56l67 258q14 61 40 84.5t79 23.5
z" />
    <glyph glyph-name="uni030C" unicode="&#x30c;" horiz-adv-x="0" 
d="M-115 1585q41 -23 48.5 -44t-13.5 -68q-78 -154 -172 -256q-55 -61 -146 -60.5t-145 60.5q-98 111 -172 256q-20 47 -12 69q8 20 46 44t66.5 23t80.5 -50t137 -101q90 54 139 102t77.5 49t65.5 -24z" />
    <glyph glyph-name="uni0312" unicode="&#x312;" horiz-adv-x="0" 
d="M-279 1169q-137 0 -137 107q0 162 154 340q29 33 55.5 35t69.5 -19.5t51 -43t-16.5 -83t-24.5 -151.5l8 -103q0 -82 -160 -82z" />
    <glyph glyph-name="uni0326" unicode="&#x326;" horiz-adv-x="0" 
d="M-221 -92q137 0 137 -107q0 -162 -154 -340q-29 -33 -55 -35t-69 19.5t-51.5 43.5t16 83t24.5 152l-8 102q0 82 160 82z" />
    <glyph glyph-name="uni0327" unicode="&#x327;" horiz-adv-x="0" 
d="M-377 -483q-188 0 -188 88q0 33 14 64.5t35 31.5q6 0 36.5 -10t59.5 -10q88 0 88 54t-112 66q-20 2 -29.5 17.5t-1.5 31.5l80 179h184l-45 -95q197 -55 197 -198q0 -100 -89.5 -159.5t-228.5 -59.5z" />
    <glyph glyph-name="uni0328" unicode="&#x328;" horiz-adv-x="0" 
d="M-94 -375q0 -82 -53.5 -100t-135.5 -19q-135 0 -209.5 61.5t-74.5 166.5q0 168 219 291l209 -11q-154 -106 -154 -211q0 -61 66 -61l69 10q31 0 47.5 -38t16.5 -89z" />
    <glyph glyph-name="uni0335" unicode="&#x335;" horiz-adv-x="0" 
d="M-874 1214q-25 0 -32 16t-7 62q0 44 7 60t32 16h798q25 0 31 -15t6 -61t-7 -61q-7 -16 -30 -17h-798z" />
    <glyph glyph-name="uni0336" unicode="&#x336;" horiz-adv-x="0" 
d="M-1366 1106q-43 0 -57 24q-15 24 -15 88q0 62 14 86t58 23h1282q43 1 57 -23q15 -24 15 -86t-14 -88t-58 -24h-1282z" />
    <glyph glyph-name="uni0394" unicode="&#x394;" horiz-adv-x="1402" 
d="M434 313h535l-269 729zM150 0q-80 0 -80 144q0 78 9 120t44 129l401 1024q16 43 54 54t124 11t124 -10q38 -12 55 -55l399 -1024q35 -88 44 -130q9 -41 9 -119q0 -144 -80 -144h-1103z" />
    <glyph glyph-name="uni03A9" unicode="&#x3a9;" horiz-adv-x="1454" 
d="M1288 313q51 0 66 -31q14 -32 14 -125t-14 -125t-66 -32h-389q-80 0 -80 135q0 74 7 107t42 73q139 168 140 455q0 430 -280 430t-279 -430q0 -291 137 -455q35 -41 43 -75t8 -105q0 -135 -80 -135h-389q-51 0 -67 32q-15 32 -15 125t15 125t67 31h104q-197 213 -196 574
q0 274 173 444t479 170t478 -170t172 -444q0 -360 -196 -574h106z" />
    <glyph glyph-name="uni03BC" unicode="&#x3bc;" horiz-adv-x="1204" 
d="M279 -494q-103 0 -139 16t-36 77v1359q0 56 36 74t138 18t139 -16q36 -18 36 -76v-557q0 -133 108 -133q70 0 119 44t49 110v536q0 56 36 74t138 18t138 -16q36 -18 36 -76v-690q-1 -45 13 -64t47 -20h12q29 0 37 -19t8 -71t-8 -69q-8 -18 -37 -25q-78 -16 -135 -16
q-154 0 -215 114l-11 21q-86 -141 -221 -142q-72 0 -114 43v-421q0 -59 -36 -76t-138 -17z" />
    <glyph glyph-name="pi" unicode="&#x3c0;" horiz-adv-x="1243" 
d="M1165 184q27 0 36 -19t9 -71t-8 -69q-8 -18 -37 -25q-78 -16 -143 -16q-129 0 -217 68t-88 202v545h-182v-713q0 -60 -36 -76q-37 -16 -139 -16t-138 16t-36 76v713h-90q-43 -1 -57 25t-14 98t14 98t57 24h1049q43 0 57 -26t14 -96q0 -72 -14 -98t-57 -25h-80v-533
q0 -82 78 -82h22z" />
    <glyph glyph-name="Wgrave" unicode="&#x1e80;" horiz-adv-x="1964" 
d="M1705 1481q110 0 147.5 -16.5t37.5 -75.5q0 -336 -87 -703t-244 -620q-29 -45 -68 -58.5t-135 -13.5t-134 12t-61 55q-125 248 -174 512h-10q-49 -266 -174 -514q-23 -43 -59.5 -54t-134 -11t-136.5 13t-67 59q-158 254 -245 620.5t-87 702.5q0 59 39 75.5t147.5 16.5
t145 -16.5t38.5 -75.5q20 -381 58.5 -616.5t122.5 -426.5q162 352 180 897q2 57 38 73.5t140 16.5t139 -16.5t37 -73.5q20 -549 182 -897q84 190 121 424t58 619q2 59 38.5 75.5t146.5 16.5zM749.5 1970q55.5 0 127.5 -55l274 -209q29 -23 29 -46.5t-23 -65.5t-41 -51t-53 3
l-397 148q-63 23 -63.5 84t45.5 126.5t101.5 65.5z" />
    <glyph glyph-name="wgrave" unicode="&#x1e81;" horiz-adv-x="1634" 
d="M1394 1051q105 0 141 -17.5t36 -75.5q0 -242 -66.5 -483.5t-179.5 -415.5q-27 -39 -64.5 -52t-121.5 -13t-124 17.5t-67 64.5q-88 164 -131 362q-41 -186 -131 -362q-25 -49 -64.5 -65.5t-125.5 -16.5t-124 13t-63 52q-109 178 -177.5 421t-68.5 478q0 57 36 75t141.5 18
t143.5 -17.5t40 -77.5q16 -426 100 -677q109 233 129 577q2 57 36 74.5t126 17.5t125 -17.5t37 -74.5q29 -365 131 -580q86 248 102 680q2 59 40.5 77t143.5 18zM467 1439q0 52 62.5 116.5t127.5 64.5t129 -90l177 -254q18 -27 12 -46.5t-41 -52t-57.5 -36.5t-47.5 14
l-309 197q-53 35 -53 87z" />
    <glyph glyph-name="Wacute" unicode="&#x1e82;" horiz-adv-x="1964" 
d="M1705 1481q110 0 147.5 -16.5t37.5 -75.5q0 -336 -87 -703t-244 -620q-29 -45 -68 -58.5t-135 -13.5t-134 12t-61 55q-125 248 -174 512h-10q-49 -266 -174 -514q-23 -43 -59.5 -54t-134 -11t-136.5 13t-67 59q-158 254 -245 620.5t-87 702.5q0 59 39 75.5t147.5 16.5
t145 -16.5t38.5 -75.5q20 -381 58.5 -616.5t122.5 -426.5q162 352 180 897q2 57 38 73.5t140 16.5t139 -16.5t37 -73.5q20 -549 182 -897q84 190 121 424t58 619q2 59 38.5 75.5t146.5 16.5zM786 1676.5q0 21.5 29 47.5l275 213q142 109 228 -13q46 -66 46 -128.5t-61 -85.5
l-400 -149q-37 -10 -52 -1t-40 52t-25 64.5z" />
    <glyph glyph-name="wacute" unicode="&#x1e83;" horiz-adv-x="1634" 
d="M1394 1051q105 0 141 -17.5t36 -75.5q0 -242 -66.5 -483.5t-179.5 -415.5q-27 -39 -64.5 -52t-121.5 -13t-124 17.5t-67 64.5q-88 164 -131 362q-41 -186 -131 -362q-25 -49 -64.5 -65.5t-125.5 -16.5t-124 13t-63 52q-109 178 -177.5 421t-68.5 478q0 57 36 75t141.5 18
t143.5 -17.5t40 -77.5q16 -426 100 -677q109 233 129 577q2 57 36 74.5t126 17.5t125 -17.5t37 -74.5q29 -365 131 -580q86 248 102 680q2 59 40.5 77t143.5 18zM975.5 1620q65.5 0 127.5 -64.5t62 -116.5t-53 -87l-309 -197q-25 -18 -47.5 -14t-57.5 37t-41 52t11 46
l176 252q66 92 131.5 92z" />
    <glyph glyph-name="Wdieresis" unicode="&#x1e84;" horiz-adv-x="1964" 
d="M1705 1481q110 0 147.5 -16.5t37.5 -75.5q0 -336 -87 -703t-244 -620q-29 -45 -68 -58.5t-135 -13.5t-134 12t-61 55q-125 248 -174 512h-10q-49 -266 -174 -514q-23 -43 -59.5 -54t-134 -11t-136.5 13t-67 59q-158 254 -245 620.5t-87 702.5q0 59 39 75.5t147.5 16.5
t145 -16.5t38.5 -75.5q20 -381 58.5 -616.5t122.5 -426.5q162 352 180 897q2 57 38 73.5t140 16.5t139 -16.5t37 -73.5q20 -549 182 -897q84 190 121 424t58 619q2 59 38.5 75.5t146.5 16.5zM1224.5 1587q-110.5 0 -141 33t-30.5 130t31.5 133t141.5 36t143.5 -34t33.5 -133
t-34 -132t-144.5 -33zM733.5 1587q-110.5 0 -141.5 33t-31 130t32 133t141.5 36t143 -34t33.5 -133t-33.5 -132t-144 -33z" />
    <glyph glyph-name="wdieresis" unicode="&#x1e85;" horiz-adv-x="1634" 
d="M1394 1051q105 0 141 -17.5t36 -75.5q0 -242 -66.5 -483.5t-179.5 -415.5q-27 -39 -64.5 -52t-121.5 -13t-124 17.5t-67 64.5q-88 164 -131 362q-41 -186 -131 -362q-25 -49 -64.5 -65.5t-125.5 -16.5t-124 13t-63 52q-109 178 -177.5 421t-68.5 478q0 57 36 75t141.5 18
t143.5 -17.5t40 -77.5q16 -426 100 -677q109 233 129 577q2 57 36 74.5t126 17.5t125 -17.5t37 -74.5q29 -365 131 -580q86 248 102 680q2 59 40.5 77t143.5 18zM1056.5 1196q-110.5 0 -141 33t-30.5 131t31.5 134t141.5 36t143.5 -34t33.5 -134t-34 -133t-144.5 -33z
M565.5 1196q-110.5 0 -141.5 33t-31 131t32 134t141.5 36t143 -34t33.5 -134t-33.5 -133t-144 -33z" />
    <glyph glyph-name="uni1E9E" unicode="&#x1e9e;" horiz-adv-x="1572" 
d="M964 295q176 -1 177 143q0 72 -75 134t-278 157q-94 43 -32 123l213 266q-72 82 -212 82t-215 -68t-75 -192v-854q0 -60 -38 -76t-145 -16t-146 16q-38 16 -38 76v866q0 258 178 404t490 145q379 0 584 -239q51 -59 -2 -123l-197 -232q193 -109 282 -219t89 -286
t-137 -302t-355 -127q-218 0 -320 36t-130 78t-29 110q0 68 29 124t75 56q7 0 111 -41t196 -41z" />
    <glyph glyph-name="Ygrave" unicode="&#x1ef2;" horiz-adv-x="1312" 
d="M1074 1481q110 0 149 -16.5t37 -75.5q-4 -203 -123 -467.5t-297 -442.5v-393q0 -59 -38 -75.5t-145.5 -16.5t-145.5 16.5t-38 75.5v393q-178 176 -297 440.5t-123 469.5q-2 59 37 75.5t147.5 16.5t145.5 -16.5t43 -75.5q37 -389 236 -629q193 242 225 629q4 59 40.5 75.5
t146.5 16.5zM279 1778q0 61 46 126.5t101 65.5t127 -55l274 -209q29 -23 29 -46.5t-22.5 -65.5t-41 -51t-53.5 3l-397 148q-63 23 -63 84z" />
    <glyph glyph-name="ygrave" unicode="&#x1ef3;" horiz-adv-x="1095" 
d="M867 1051q105 0 141 -17.5t36 -75.5q0 -299 -166.5 -691t-414.5 -654q-102 -109 -179.5 -109t-142.5 70t-65 137q0 37 51 72q160 102 270 233q-170 205 -257 470.5t-87 471.5q0 57 36 75t141 18t143.5 -17.5t40.5 -77.5q20 -434 135 -692q109 246 135 692q2 59 40 77
t143 18zM201 1439q0 52 62.5 116.5t127.5 64.5t129 -90l176 -254q18 -27 12 -46.5t-40.5 -52t-57 -36.5t-47.5 14l-309 197q-53 35 -53 87z" />
    <glyph glyph-name="uni2002" unicode="&#x2002;" horiz-adv-x="1024" 
 />
    <glyph glyph-name="uni2003" unicode="&#x2003;" horiz-adv-x="2048" 
 />
    <glyph glyph-name="uni2009" unicode="&#x2009;" horiz-adv-x="61" 
 />
    <glyph glyph-name="endash" unicode="&#x2013;" horiz-adv-x="1024" 
d="M131 424q-43 0 -57 31t-14 109t14 110q14 31 57 31h760q43 0 57 -31t14 -110q0 -80 -14 -110t-57 -30h-760z" />
    <glyph glyph-name="emdash" unicode="&#x2014;" horiz-adv-x="2048" 
d="M115 424q-43 0 -58 31q-14 31 -14 109t14 110q14 31 58 31h1818q43 0 57 -31t15 -110q0 -80 -14 -110t-58 -30h-1818z" />
    <glyph glyph-name="quoteleft" unicode="&#x2018;" horiz-adv-x="479" 
d="M206 856q-171 0 -171 145q0 107 56 233t147 234q34 42 62 48t75 -22t55 -46t-8 -68q-53 -141 -53 -280l8 -127q0 -117 -171 -117z" />
    <glyph glyph-name="quoteright" unicode="&#x2019;" horiz-adv-x="479" 
d="M280 1536q171 0 171 -145q-1 -107 -57 -233t-146 -234q-34 -42 -62 -48t-75 22t-56 46q-8 18 8 68q53 141 54 280l-8 127q0 117 171 117z" />
    <glyph glyph-name="quotesinglbase" unicode="&#x201a;" horiz-adv-x="479" 
d="M280 387q171 0 171 -145q-1 -106 -57 -232t-146 -235q-34 -41 -62 -47t-75 21q-47 28 -56 46q-8 18 8 68q53 141 54 280l-8 127q0 117 171 117z" />
    <glyph glyph-name="quotedblleft" unicode="&#x201c;" horiz-adv-x="856" 
d="M578 868q-143 0 -144 133q0 221 209 472q33 39 61 45t63 -18q36 -22 42 -40t-10 -67q-53 -141 -54 -281l9 -127q0 -117 -176 -117zM178 868q-143 0 -143 133q0 211 209 472q56 74 121 28q39 -23 45 -41t-11 -67q-53 -141 -53 -281l8 -127q0 -117 -176 -117z" />
    <glyph glyph-name="quotedblright" unicode="&#x201d;" horiz-adv-x="847" 
d="M684 1536q143 0 143 -133q0 -211 -209 -471q-31 -40 -59 -46t-64 17t-42 41t10 68q53 141 53 280l-8 127q0 117 176 117zM285 1536q143 0 143 -133q0 -221 -209 -471q-33 -39 -61 -45q-28 -5 -63 17q-36 22 -42 40t10 68q53 141 54 280l-8 127q0 117 176 117z" />
    <glyph glyph-name="quotedblbase" unicode="&#x201e;" horiz-adv-x="856" 
d="M684 387q143 0 143 -133q0 -211 -209 -471q-31 -41 -59 -47t-64 18q-36 23 -42 41t10 68q53 141 53 280l-8 127q0 117 176 117zM285 387q143 0 143 -133q0 -221 -209 -471q-33 -39 -61 -45t-63 16q-36 22 -42 41q-6 18 10 68q53 141 54 280l-8 127q0 117 176 117z" />
    <glyph glyph-name="dagger" unicode="&#x2020;" horiz-adv-x="860" 
d="M748 1104q45 0 59 -28t14 -104t-14 -103q-14 -28 -59 -27h-156q-10 -532 -31 -975q-1 -66 -27 -81t-104 -15t-104 15t-27 81q-20 446 -31 975h-155q-43 0 -58 27q-14 28 -14 104q0 75 14 103t58 28h153q-2 96 -2 285q0 59 34 75t132 16t132 -16t34 -75q0 -186 -2 -285
h154z" />
    <glyph glyph-name="daggerdbl" unicode="&#x2021;" horiz-adv-x="860" 
d="M748 408q45 0 59 -28t14 -104t-14 -104t-59 -27h-175l-12 -278q-1 -66 -27 -81t-104 -15t-104 15t-27 81l-12 278h-174q-43 0 -58 28q-14 27 -14 103t14 104t58 28h166l-11 434h-155q-43 0 -58 27q-14 28 -14 104q0 75 14 103t58 28h153q-2 96 -2 285q0 59 34 75t132 16
t132 -16t34 -75q0 -186 -2 -285h154q45 0 59 -28t14 -104t-14 -103q-14 -28 -59 -27h-156l-10 -434h166z" />
    <glyph glyph-name="bullet" unicode="&#x2022;" horiz-adv-x="741" 
d="M372 406q-153 0 -215 66q-63 66 -63 218q0 154 62 220t216 65q153 0 215 -67q62 -66 62 -218t-62 -218t-215 -66z" />
    <glyph glyph-name="ellipsis" unicode="&#x2026;" horiz-adv-x="1554" 
d="M1290 389q106 0 148 -47t41 -157q1 -111 -41 -157t-150 -46t-144 46t-36 154t38 158t144 49zM774 389q106 0 148 -47t41 -157q1 -111 -41 -157t-150 -46t-144 46t-36 154t38 158t144 49zM258 389q106 0 148 -47t40 -157q0 -111 -41 -157t-149 -46t-144 46t-36 154t38 158
t144 49z" />
    <glyph glyph-name="perthousand" unicode="&#x2030;" horiz-adv-x="2529" 
d="M2132 186q55 0 87 50t32 126t-32 124t-87 48t-88 -48t-33 -126t33 -126t88 -48zM1311 186q55 0 87 50t32 126t-32 124t-87 48t-88 -48t-33 -126t33 -126t88 -48zM2130 -29q-164 -1 -275 101t-110 288q0 186 110 289q111 103 275 103t274 -102t111 -290q-1 -186 -111 -288
t-274 -101zM1311 -29q-164 -1 -275 101t-110 288q0 186 110 289q111 103 275 103q165 0 275 -102t110 -290q0 -186 -110 -288t-275 -101zM401 940q55 0 87 48t32 125t-32 126t-87 49t-88 -48t-33 -126t34 -126q32 -48 87 -48zM390 -6q-83 0 -102 18t13 78l840 1301
q39 59 69 74q31 15 113 15t102 -18t-12 -78l-840 -1300q-39 -59 -69 -75q-31 -15 -114 -15zM401 723q-165 0 -275 102q-110 103 -110 289t111 288t275 101q164 0 274 -101q110 -102 110 -288t-110 -289q-111 -102 -275 -102z" />
    <glyph glyph-name="guilsinglleft" unicode="&#x2039;" horiz-adv-x="690" 
d="M49 522q0 57 39 113q141 207 373 391q39 31 63 29t65 -37q42 -35 47 -55t-26 -66q-164 -213 -213 -375q49 -162 213 -375q31 -45 26 -67t-47 -54q-41 -34 -65 -36t-63 28q-225 178 -373 392q-39 55 -39 112z" />
    <glyph glyph-name="guilsinglright" unicode="&#x203a;" horiz-adv-x="690" 
d="M641 502q0 -57 -39 -113q-141 -207 -373 -391q-39 -31 -63 -29t-65 37q-42 35 -47 55t26 66q164 213 213 375q-49 162 -213 375q-31 45 -26 67t47 54q41 34 65 36t63 -28q225 -178 373 -392q39 -55 39 -112z" />
    <glyph glyph-name="fraction" unicode="&#x2044;" horiz-adv-x="266" 
d="M-334 -6q-82 0 -102 18t12 78l840 1301q39 59 69 74q31 15 114 15t102 -18t-13 -78l-840 -1300q-39 -59 -69 -75q-31 -15 -113 -15z" />
    <glyph glyph-name="uni2070" unicode="&#x2070;" 
d="M410 1073q50 0 74 43t24 169t-25 171t-73 45t-74 -45q-25 -45 -25 -171t25 -169t74 -43zM410 874q-174 0 -272 100t-99 311q0 210 98 311q99 102 273 102t272 -102t98 -311q0 -211 -98 -311t-272 -100z" />
    <glyph glyph-name="uni2074" unicode="&#x2074;" 
d="M412 1208v244q-129 -90 -176 -244h176zM735 1208q39 0 49 -18t10 -74t-10 -76q-10 -18 -49 -18h-53v-66q0 -47 -28 -60t-108 -13t-108 13q-27 13 -26 60v66h-285q-57 0 -75 61t-7 109q35 133 128 255t195 183q102 62 182 62t106 -14t26 -60v-410h53z" />
    <glyph glyph-name="uni2075" unicode="&#x2075;" 
d="M750 1144q0 -130 -102 -200t-262 -70q-159 0 -265 48q-68 29 -68 98q0 41 23 80t51 39q8 0 86 -29t139 -29q117 0 117 80t-145 80q-24 0 -86 -7q-62 -6 -100 22t-36 67l17 270q6 92 94 93h432q41 0 53 -22t12 -80t-12 -80t-53 -21h-307l-6 -84q45 6 92 6q154 0 240 -65
q86 -66 86 -196z" />
    <glyph glyph-name="uni2076" unicode="&#x2076;" 
d="M428 1249q-55 -1 -88 -27t-33 -68t31 -72t81 -31q50 1 81 27t30 71q0 100 -102 100zM412 874q-166 0 -266 96t-99 283q0 327 278 420q75 25 175 25t173 -33t73 -81t-22 -87t-50 -39q-10 0 -72 23t-131 23q-68 0 -118 -43q-50 -42 -52 -126q76 66 200 66q125 1 201 -63
t76 -190t-100 -200t-266 -74z" />
    <glyph glyph-name="uni2077" unicode="&#x2077;" 
d="M362 883q-84 0 -116 17t-25 75q33 262 262 491h-340q-41 0 -53 23t-12 87t12 87t53 23h578q37 0 51 -10t23 -56q10 -45 -35 -92q-236 -252 -252 -580q-2 -41 -32 -53t-114 -12z" />
    <glyph glyph-name="uni2078" unicode="&#x2078;" 
d="M297 1122q0 -94 114 -94t113 94q0 45 -31 73q-32 28 -83 28t-82 -28t-31 -73zM410 1382q48 0 76 24t28 60q0 82 -104 82q-47 0 -75 -22t-28 -59t27 -61t76 -24zM410 874q-170 0 -272 58t-101 170q0 141 178 205q-152 66 -152 172q1 106 99 162q98 57 246 57t248 -56
t100 -164q0 -106 -152 -171q178 -63 178 -205q0 -112 -101 -170t-271 -58z" />
    <glyph glyph-name="uni2079" unicode="&#x2079;" 
d="M391 1323q53 0 98 37q23 16 23 58t-31 73t-81 31t-81 -26t-30 -73q0 -100 102 -100zM336 874q-113 0 -188 32t-74 91q0 39 22 79q23 40 51 40q9 0 71 -24t131 -23q69 0 119 42t52 128q-74 -68 -198 -68q-124 -1 -202 63q-77 64 -77 190t100 200t265 74q166 0 266 -96
t100 -302t-128 -316t-310 -110z" />
    <glyph glyph-name="uni2080" unicode="&#x2080;" 
d="M410 -25q50 0 74 43t24 169t-25 171t-73 45t-74 -45q-25 -45 -25 -171t25 -169t74 -43zM410 -223q-174 0 -273 100q-98 100 -98 310q0 209 98 311q99 102 273 102t272 -101t98 -311t-98 -311q-98 -100 -272 -100z" />
    <glyph glyph-name="uni2081" unicode="&#x2081;" 
d="M519 -215q-83 0 -111 13t-27 61v534q-63 -10 -140 -47t-91 -37q-31 0 -52 42q-20 42 -20 89q0 72 69 101q131 57 271 57t191 -25q50 -25 50 -92v-622q0 -47 -28 -61q-29 -13 -112 -13z" />
    <glyph glyph-name="uni2082" unicode="&#x2082;" 
d="M135 -211q-33 0 -48 18q-15 19 -20 65t6 71t56 55q168 116 239 180t70 117q0 70 -92 70q-59 0 -126 -28q-66 -28 -88 -28t-42 40t-20 83q0 84 80 119q121 49 266 49t229 -64t84 -166q0 -100 -74 -184t-231 -176h242q41 0 53 -24t12 -88t-12 -86t-53 -23h-531z" />
    <glyph glyph-name="uni2083" unicode="&#x2083;" 
d="M382 -223q-161 0 -261 47q-68 33 -68 98q0 41 22 80t50 39q8 0 84 -29q76 -28 133 -28q127 1 127 64q0 64 -139 65h-45q-31 0 -43 16q-12 17 -16 67t6 66q9 16 38 17h13q180 0 180 69q0 55 -101 55q-54 1 -124 -27t-90 -28t-40 35q-19 35 -20 74q0 70 80 100
q109 43 247 43t227 -53t89 -154q0 -70 -43 -118t-115 -68q182 -47 183 -193q0 -111 -106 -174t-268 -63z" />
    <glyph glyph-name="uni2084" unicode="&#x2084;" 
d="M412 111v243q-129 -89 -176 -243h176zM735 111q39 -1 49 -19t10 -74t-10 -75q-10 -18 -49 -19h-53v-65q0 -47 -28 -61t-108 -13q-80 0 -108 13q-27 13 -26 61v65h-285q-57 0 -75 62t-7 108q35 133 128 255q93 121 195 183t182 62t106 -14t26 -60v-409h53z" />
    <glyph glyph-name="uni2085" unicode="&#x2085;" 
d="M424 307q154 -1 240 -65t86 -195t-102 -201t-262 -69q-159 0 -265 47q-68 29 -68 98q0 41 23 80t51 39q8 0 86 -29t139 -28q117 0 117 77q0 82 -145 82q-24 0 -86 -7t-100 22t-36 67l17 271q6 92 94 92h432q41 0 53 -22t12 -80t-12 -80t-53 -21h-307l-6 -84q45 6 92 6z
" />
    <glyph glyph-name="uni2086" unicode="&#x2086;" 
d="M419 -47q50 0 81 27t30 71q0 100 -102 101q-55 0 -88 -26t-33 -54q0 -57 31 -88t81 -31zM778 50q0 -126 -100 -200t-266 -73q-166 0 -266 96q-99 96 -99 283q0 235 133 340q133 104 305 104q115 0 188 -33t73 -81t-22 -87t-50 -39q-10 0 -72 23t-131 23q-68 0 -118 -42
t-52 -126q76 66 200 66q125 0 201 -64t76 -190z" />
    <glyph glyph-name="uni2087" unicode="&#x2087;" 
d="M362 -215q-84 0 -116 17t-25 75q33 262 262 492h-340q-41 1 -53 23t-12 86t12 87t53 23h578q37 0 51 -10t23 -56q10 -45 -35 -92q-236 -252 -252 -580q-2 -41 -32 -53t-114 -12z" />
    <glyph glyph-name="uni2088" unicode="&#x2088;" 
d="M297 25q0 -95 114 -95t113 95q0 45 -32 73t-82 27q-51 0 -82 -28t-31 -72zM410 285q48 -1 76 23t28 61q0 82 -104 82q-47 0 -75 -22q-28 -21 -28 -59t27 -62t76 -23zM410 -223q-170 0 -272 58q-101 58 -101 169q0 141 178 205q-152 66 -152 172q1 107 99 163t246 56
t248 -56t100 -163t-152 -172q178 -63 178 -205q0 -111 -101 -169t-271 -58z" />
    <glyph glyph-name="uni2089" unicode="&#x2089;" 
d="M391 225q53 0 98 37q23 16 23 58t-31 73t-81 31t-81 -26t-30 -72q0 -101 102 -101zM336 -223q-113 0 -188 32t-74 91q0 38 22 78t51 40q9 0 71 -24t131 -23q69 0 119 42t52 128q-74 -67 -198 -67t-202 63q-77 63 -77 189t100 200t265 74q166 0 266 -96t100 -302
t-128 -316t-310 -109z" />
    <glyph glyph-name="lira" unicode="&#x20a4;" horiz-adv-x="1081" 
d="M983 313q51 0 66 -31q14 -32 14 -125t-14 -125t-66 -32h-870q-43 0 -58 18q-14 18 -14 85t43 120q72 84 90 240h-61q-43 0 -58 23q-14 24 -14 86t14 86t58 24h69v96h-69q-43 0 -58 24q-14 24 -14 86t14 86t58 23h69q8 236 140 370t378 134q125 0 246 -37t121 -153
q0 -74 -35 -135t-76 -62q-6 0 -84 34t-158 34t-123 -42q-42 -42 -42 -122v-21h276q43 0 58 -23q14 -24 14 -86t-14 -86t-58 -24h-276v-96h276q43 0 57 -24t15 -86q0 -62 -14 -86t-58 -23h-307q-25 -82 -78 -150h543z" />
    <glyph glyph-name="Euro" unicode="&#x20ac;" horiz-adv-x="1214" 
d="M1104 346q38 0 64 -56t26 -120q0 -121 -146 -159t-294 -38q-221 0 -371 122t-203 368h-78q-43 -1 -57 23t-14 86t14 86t57 24h54q-2 20 -2 61v35h-52q-43 0 -57 24t-14 86t14 86t57 23h74q49 254 202 379t382 125q143 0 280 -36t138 -156q0 -66 -26 -121t-62 -55
q-4 -1 -100 31t-189 32q-193 0 -248 -199h397q41 1 52 -21t-2 -88t-32 -88t-67 -22h-375v-35q0 -41 2 -61h353q41 0 51 -22t-3 -88t-33 -88t-65 -21h-270q61 -184 240 -184q95 -1 197 33t106 34z" />
    <glyph glyph-name="uni20B9" unicode="&#x20b9;" horiz-adv-x="1140" 
d="M999 1208h-229q88 -57 125 -139h162q59 0 37 -88q-12 -53 -26 -71t-50 -17h-115q-31 -119 -143 -197t-268 -102v-10q170 -33 305 -193t145 -317q2 -48 -38 -64t-148 -16t-146 15q-37 15 -55 77q-47 164 -157 267t-228 104h-20q-45 0 -59 30q-13 31 -13 116t14 115t62 30
h73q236 0 285 145h-395q-31 0 -40 18q-9 17 3 69t26 70t50 19h354q-51 139 -283 139h-88q-47 0 -59 28t5 106t39 106q22 27 75 27h860q47 0 59 -28t-5 -107q-17 -80 -40 -106t-74 -26z" />
    <glyph glyph-name="uni20BA" unicode="&#x20ba;" horiz-adv-x="1249" 
d="M1046 719q110 1 148 -17t33 -75q-29 -289 -219 -458t-488 -169h-241q-88 0 -89 88v545l-98 -37q-43 -14 -59 3q-17 17 -17 73t10 76t37 30l127 47v99l-98 -37q-43 -16 -59 1q-17 16 -17 72t10 76t37 31l127 47v275q0 59 38 75t146 16t146 -16t37 -75v-170l270 104
q39 14 55 -4q16 -17 15 -73q0 -56 -10 -76t-35 -31l-295 -113v-96l270 102q39 14 55 -3t15 -73q0 -56 -10 -75q-10 -20 -35 -31l-295 -113v-440q276 16 297 330q4 57 43 75t149 17z" />
    <glyph glyph-name="uni2117" unicode="&#x2117;" horiz-adv-x="1794" 
d="M836 678h88q135 0 135 160q0 86 -34 123t-101 36h-88v-319zM682 256q-90 0 -122 16t-32 74v776q0 86 88 86h326q203 0 320 -92q116 -92 116 -278t-114 -279q-115 -92 -320 -92h-108v-121q0 -58 -32 -74t-122 -16zM303 737q0 -295 169 -459t426 -165q257 0 426 165
q169 166 169 460t-169 459t-426 165t-426 -165t-169 -460zM53 738q0 198 71 360q133 303 458 424q150 55 314 55q340 0 585 -214q119 -103 189 -265t71 -361q0 -199 -71 -361t-189 -264q-247 -214 -585 -214t-583 214q-119 103 -189 265q-71 163 -71 361z" />
    <glyph glyph-name="trademark" unicode="&#x2122;" horiz-adv-x="1744" 
d="M367 731q-78 0 -105 14t-26 60v483h-132q-39 0 -50 22t-11 80t11 80t50 21h527q39 0 50 -22q11 -21 11 -79t-11 -80t-50 -22h-133v-483q0 -45 -26 -59t-105 -15zM840 731q-78 0 -105 14t-26 60q0 311 69 620q10 47 36 59t100 13q74 0 97 -9q24 -9 50 -44q68 -90 129 -238
q53 135 131 240q23 33 49 42t100 9t100 -13t36 -61q72 -319 71 -618q0 -45 -26 -60q-27 -14 -105 -14t-104 14t-27 60q0 199 -37 424q-78 -139 -108 -311q-4 -29 -18 -36q-14 -8 -58 -8q-45 0 -59 8t-19 36q-29 172 -108 315q-37 -225 -37 -428q-1 -45 -27 -59t-104 -15z
" />
    <glyph glyph-name="uni2153" unicode="&#x2153;" horiz-adv-x="1904" 
d="M1841 225q-1 -111 -107 -174t-267 -63t-261 47q-68 33 -67 98q0 41 21 80q22 39 50 39q8 0 84 -29t134 -29q128 1 126 66q0 63 -139 64h-45q-31 0 -43 16t-15 66t6 67q9 16 38 16h12q180 0 180 70q0 55 -100 55q-55 0 -125 -28q-71 -28 -91 -27q-20 0 -39 35t-19 74
q0 70 79 100q106 43 246 43q141 0 229 -53t89 -154q0 -70 -43 -118t-115 -68q182 -47 182 -193zM485 -6q-82 0 -102 18t12 78l840 1301q39 59 70 74t113 15t102 -18t-13 -78l-839 -1300q-39 -58 -70 -74t-113 -16zM659 745q-1 -47 -29 -60t-111 -13t-111 13t-27 60v535
q-63 -10 -140 -47t-91 -37q-31 0 -52 42q-20 42 -20 89q0 72 69 100q131 57 271 57t191 -24q50 -25 50 -92v-623z" />
    <glyph glyph-name="uni2154" unicode="&#x2154;" horiz-adv-x="1904" 
d="M1841 225q-1 -111 -107 -174t-267 -63t-261 47q-68 33 -67 98q0 41 21 80q22 39 50 39q8 0 84 -29t134 -29q128 1 126 66q0 63 -139 64h-45q-31 0 -43 16t-15 66t6 67q9 16 38 16h12q180 0 180 70q0 55 -100 55q-55 0 -125 -28q-71 -28 -91 -27q-20 0 -39 35t-19 74
q0 70 79 100q106 43 246 43q141 0 229 -53t89 -154q0 -70 -43 -118t-115 -68q182 -47 182 -193zM485 -6q-82 0 -102 18t12 78l840 1301q39 59 70 74t113 15t102 -18t-13 -78l-839 -1300q-39 -58 -70 -74t-113 -16zM135 676q-33 0 -48 18t-20 64t6 72q11 24 56 55
q168 115 239 179t70 118q0 70 -92 69q-59 1 -126 -27q-66 -28 -88 -28t-42 40t-20 83q0 86 80 119q119 49 265 49t230 -65t84 -166t-74 -184t-231 -175h242q41 0 53 -24q12 -25 12 -89t-12 -86t-53 -22h-531z" />
    <glyph glyph-name="oneeighth" unicode="&#x215b;" horiz-adv-x="1904" 
d="M1382 236q0 -95 114 -95t114 95q0 44 -32 72t-83 28t-82 -28t-31 -72zM1495 496q49 0 77 24t27 60q0 82 -104 82q-47 0 -75 -22t-28 -60t27 -61t76 -23zM1495 -12q-170 0 -271 58t-102 169q0 141 178 205q-152 66 -152 172t99 162t247 57q148 0 248 -56t99 -163
q0 -107 -151 -172q178 -63 178 -205q0 -111 -102 -169t-271 -58zM485 -6q-82 0 -102 18t12 78l840 1301q39 59 70 74t113 15t102 -18t-13 -78l-839 -1300q-39 -58 -70 -74t-113 -16zM659 745q-1 -47 -29 -60t-111 -13t-111 13t-27 60v535q-63 -10 -140 -47t-91 -37
q-31 0 -52 42q-20 42 -20 89q0 72 69 100q131 57 271 57t191 -24q50 -25 50 -92v-623z" />
    <glyph glyph-name="threeeighths" unicode="&#x215c;" horiz-adv-x="1904" 
d="M1382 236q0 -95 114 -95t114 95q0 44 -32 72t-83 28t-82 -28t-31 -72zM1495 496q49 0 77 24t27 60q0 82 -104 82q-47 0 -75 -22t-28 -60t27 -61t76 -23zM1495 -12q-170 0 -271 58t-102 169q0 141 178 205q-152 66 -152 172t99 162t247 57q148 0 248 -56t99 -163
q0 -107 -151 -172q178 -63 178 -205q0 -111 -102 -169t-271 -58zM485 -6q-82 0 -102 18t12 78l840 1301q39 59 70 74t113 15t102 -18t-13 -78l-839 -1300q-39 -58 -70 -74t-113 -16zM382 664q-161 0 -261 47q-68 33 -68 98q0 41 22 80t50 39q8 0 84 -29t133 -29
q127 0 127 64t-139 65h-45q-31 1 -43 17t-16 66t6 66q9 16 38 17h13q180 0 180 70q0 55 -101 55q-54 0 -124 -28t-90 -27q-20 0 -40 35q-19 35 -20 73q0 70 80 101q106 43 246 43t228 -53q89 -53 89 -154q0 -70 -43 -118t-115 -68q182 -47 183 -193q0 -111 -106 -174
t-268 -63z" />
    <glyph glyph-name="fiveeighths" unicode="&#x215d;" horiz-adv-x="1904" 
d="M1382 236q0 -95 114 -95t114 95q0 44 -32 72t-83 28t-82 -28t-31 -72zM1495 496q49 0 77 24t27 60q0 82 -104 82q-47 0 -75 -22t-28 -60t27 -61t76 -23zM1495 -12q-170 0 -271 58t-102 169q0 141 178 205q-152 66 -152 172t99 162t247 57q148 0 248 -56t99 -163
q0 -107 -151 -172q178 -63 178 -205q0 -111 -102 -169t-271 -58zM750 934q0 -130 -102 -200t-262 -70q-159 0 -265 47q-68 29 -68 98q0 41 23 80t51 39q8 0 86 -29t139 -29q117 0 117 80t-145 80q-24 0 -86 -7t-100 21t-36 68l17 270q6 92 94 93h432q41 0 53 -22t12 -80
t-12 -80t-53 -21h-307l-6 -84q45 6 92 6q154 0 240 -65t86 -195zM485 -6q-82 0 -102 18t12 78l840 1301q39 59 70 74t113 15t102 -18t-13 -78l-839 -1300q-39 -58 -70 -74t-113 -16z" />
    <glyph glyph-name="seveneighths" unicode="&#x215e;" horiz-adv-x="1904" 
d="M1382 236q0 -95 114 -95t114 95q0 44 -32 72t-83 28t-82 -28t-31 -72zM1495 662q-47 0 -75 -22t-28 -60t28 -61q26 -23 75 -23t77 24t27 60q0 82 -104 82zM1868 215q0 -111 -102 -169t-271 -58q-170 0 -271 58t-102 169q0 141 178 205q-152 66 -152 172t99 162t247 57
q148 0 248 -56q100 -57 100 -163t-152 -172q178 -63 178 -205zM362 672q-84 0 -116 17t-25 75q33 262 262 491h-340q-41 0 -53 23t-12 87t12 87t53 23h578q37 -1 50 -11t23 -55t-34 -92q-236 -252 -252 -580q-2 -41 -32 -53t-114 -12zM1418 1481q82 -1 102 -19t-13 -78
l-839 -1300q-39 -58 -70 -74t-113 -16t-102 18t12 78l840 1301q39 59 69 75t114 15z" />
    <glyph glyph-name="arrowleft" unicode="&#x2190;" horiz-adv-x="1720" 
d="M1622 740q0 -112 -16 -150t-74 -35l-997 51q147 -182 493 -299q62 -23 64 -67t-54 -127q-51 -83 -84 -99t-94 9q-242 100 -446 286t-291 375q-25 57 0 113q86 188 292 374t447 287q59 24 93 8t86 -97q51 -81 51 -126t-64 -67q-350 -123 -496 -302l1000 52q58 2 74 -36
t16 -150z" />
    <glyph glyph-name="arrowup" unicode="&#x2191;" horiz-adv-x="1720" 
d="M859 -6q-116 0 -157 16t-38 76l49 1001q-172 -145 -301 -487q-25 -63 -69 -64t-125 52t-98 85t9 93q113 244 301 450t375 291q55 27 110 0q187 -85 375 -291t301 -450q27 -61 10 -93t-99 -85t-125 -52q-44 1 -68 64q-129 342 -303 490l49 -1004q2 -60 -39 -76t-157 -16z
" />
    <glyph glyph-name="arrowright" unicode="&#x2192;" horiz-adv-x="1720" 
d="M1597 797q25 -57 0 -113q-86 -186 -291 -374q-206 -187 -448 -287q-59 -25 -93 -8t-86 99t-51 126q1 45 64 67q344 117 494 297l-996 -49q-57 -2 -73 36q-17 37 -17 149t16 150t74 36l998 -52q-145 178 -496 302q-63 22 -65 66t50 125t87 98t94 -7q244 -100 448 -286
t291 -375z" />
    <glyph glyph-name="arrowdown" unicode="&#x2193;" horiz-adv-x="1720" 
d="M1309 874q25 62 69 64t124 -51t98 -85t-9 -93q-111 -240 -300 -444t-376 -298q-55 -29 -110 0q-186 92 -376 297q-189 205 -300 445q-27 61 -9 93t98 85q81 53 125 52t69 -65q131 -344 301 -487l-49 1002q-2 59 38 75q41 16 157 16t157 -16t39 -75l-49 -1004
q174 152 303 489z" />
    <glyph glyph-name="uni2196" unicode="&#x2196;" horiz-adv-x="1720" 
d="M1481 366q0 -30 -23 -61t-74 -82q-52 -51 -82 -73q-68 -48 -120 14l-660 727q-20 -225 131 -565q29 -62 0 -94t-124 -53t-133 -10t-60 73q-90 248 -100 528t61 471q20 49 70 70q193 71 473 61t526 -100q60 -23 72 -60t-10 -133t-52 -125q-31 -29 -94 0q-340 152 -567 131
l735 -663q31 -26 31 -56z" />
    <glyph glyph-name="uni2197" unicode="&#x2197;" horiz-adv-x="1720" 
d="M479 127q-29 0 -59 23q-30 24 -82 74q-51 50 -74 81q-50 67 12 121l730 659q-225 20 -568 -131q-61 -27 -92 1t-52 123t-10 133t70 61q250 90 529 100t473 -61q49 -21 69 -70q72 -193 62 -473t-101 -526q-23 -61 -61 -73q-39 -11 -134 10t-123 52t1 95q152 340 131 567
l-665 -735q-27 -31 -56 -31z" />
    <glyph glyph-name="uni2198" unicode="&#x2198;" horiz-adv-x="1720" 
d="M480 1350q28 0 55 -29l665 -735q20 227 -131 567q-29 63 -1 94t123 53t134 10q38 -12 61 -73q90 -247 100 -527t-61 -472q-20 -49 -69 -70q-196 -72 -474 -62t-528 101q-59 23 -70 61t10 133q21 94 52 122t92 1q342 -152 568 -131l-730 660q-60 53 -12 121q23 32 74 82
t82 72q32 22 60 22z" />
    <glyph glyph-name="uni2199" unicode="&#x2199;" horiz-adv-x="1720" 
d="M1479 1114q0 -31 -33 -59l-729 -660q225 -20 565 131q63 29 94 0q30 -29 52 -125t11 -133t-73 -59q-248 -90 -528 -100t-471 61q-51 20 -70 68q-71 196 -61 474t100 527q23 61 60 73q38 12 132 -10t123 -54t2 -93q-152 -342 -131 -567l664 735q26 29 56 29t60 -22t81 -73
q52 -51 74 -81t22 -62z" />
    <glyph glyph-name="partialdiff" unicode="&#x2202;" horiz-adv-x="1255" 
d="M598 270q78 0 136 77t59 188q0 47 -21 86q-37 73 -125 73t-145 -68q-58 -68 -58 -166q0 -96 38 -143t116 -47zM557 -27q-219 0 -340 127t-121 348q0 220 138 356t324 136t273 -145q10 61 11 112q0 133 -73 212t-191 79q-76 0 -152 -27t-86 -26q-39 0 -69 51t-29 107
q0 98 106 148t264 50q578 0 578 -635q0 -428 -173 -660t-460 -233z" />
    <glyph glyph-name="product" unicode="&#x220f;" horiz-adv-x="1474" 
d="M1352 1475q57 0 73 -36q17 -37 17 -139t-16 -138t-74 -36h-86v-1245q0 -59 -36 -75t-138 -17q-102 0 -139 16q-36 16 -35 76v1245h-353v-1245q0 -59 -36 -75t-138 -17q-102 0 -138 16t-36 76v1245h-92q-57 0 -74 36q-16 36 -16 138t16 138t74 37h1227z" />
    <glyph glyph-name="summation" unicode="&#x2211;" horiz-adv-x="1282" 
d="M1110 143q51 0 66 -35q14 -36 14 -138t-14 -139q-14 -36 -66 -36h-940q-80 0 -80 127q0 59 8 89t45 87l340 537l-338 536q-37 59 -45 89t-8 88q0 127 80 127h938q52 0 66 -36q14 -37 14 -139t-14 -138t-66 -36h-553l281 -430q39 -61 0 -123l-281 -430h553z" />
    <glyph glyph-name="minus" unicode="&#x2212;" horiz-adv-x="1085" 
d="M141 543q-43 -1 -57 25t-14 101t14 101t57 25h801q45 0 59 -26q15 -27 15 -101t-14 -100t-60 -25h-801z" />
    <glyph glyph-name="radical" unicode="&#x221a;" horiz-adv-x="1265" 
d="M1058 1542q97 0 131 -17t19 -73l-368 -1368q-14 -58 -42 -74t-96 -16t-95 13q-28 13 -60 59l-318 423h-102q-51 0 -66 32q-14 32 -14 124t14 125t66 33h205q68 0 108 -60l183 -254l260 965q16 60 47 74t128 14z" />
    <glyph glyph-name="infinity" unicode="&#x221e;" horiz-adv-x="1687" 
d="M1182 848q-58 0 -100 -41t-93 -135q51 -96 92 -138t101 -42t93 50q34 50 34 130t-34 128t-93 48zM504 483q57 0 98 44t94 145q-51 98 -92 141t-99 43t-93 -52t-35 -133t35 -135t92 -53zM80 672q0 204 102 324t283 120q119 0 221 -72t158 -190q55 118 157 190t222 72
q182 0 283 -121q102 -121 102 -323t-102 -327q-102 -124 -283 -124q-119 0 -221 74q-101 74 -158 194q-56 -121 -158 -195t-221 -73q-180 0 -283 124q-102 124 -102 327z" />
    <glyph glyph-name="integral" unicode="&#x222b;" horiz-adv-x="698" 
d="M522 1157v-1147q0 -180 -100 -278t-281 -99q-132 0 -151 46q-12 30 -13 100q0 137 48 137l51 -4q57 0 78 31q20 31 20 96v1147q0 180 101 278t282 99q130 0 152 -47q12 -29 12 -99q0 -139 -47 -139l-51 4q-57 0 -79 -31t-22 -94z" />
    <glyph glyph-name="approxequal" unicode="&#x2248;" horiz-adv-x="1085" 
d="M733 291q-92 0 -212 49t-175 49q-56 0 -104 -31q-48 -32 -74 -22t-54 56t-27 72t32 60q96 111 231 111q92 0 212 -48t178 -48q58 1 104 31t72 20t55 -56t27 -74q-2 -26 -31 -59q-103 -110 -234 -110zM733 707q-92 0 -212 48q-121 48 -179 48t-103 -31q-45 -32 -71 -22
t-54 56t-27 72t32 60q98 113 231 113q92 1 212 -49t175 -50t103 31t76 22q26 -9 54 -55t26 -72t-29 -61q-101 -110 -234 -110z" />
    <glyph glyph-name="notequal" unicode="&#x2260;" horiz-adv-x="1085" 
d="M922 582q45 0 59 -26t14 -100t-14 -101q-14 -26 -59 -25h-451l-84 -172q-13 -29 -33 -32t-63 15q-43 17 -54 37t3 47l51 105h-129q-43 0 -58 25q-14 26 -14 101q0 74 14 100t58 26h250l86 176h-336q-43 0 -58 25q-14 26 -14 101q0 74 14 100t58 26h456l84 172
q14 30 34 32t62 -16q44 -18 55 -38t-3 -46l-51 -104h123q45 0 59 -26t14 -100t-14 -101q-14 -26 -59 -25h-244l-86 -176h330z" />
    <glyph glyph-name="lessequal" unicode="&#x2264;" horiz-adv-x="1085" 
d="M901 324q43 0 57 -26t14 -100t-14 -100q-14 -27 -57 -26h-737q-43 0 -58 26q-14 27 -14 101q0 73 14 99t58 26h737zM92 832q0 70 14 103q14 34 56 48l715 272q49 17 73 -13t23 -112t-15 -112t-61 -45l-467 -142l467 -143q47 -14 61 -44t14 -112q1 -162 -95 -124l-715 272
q-41 14 -56 48q-14 34 -14 104z" />
    <glyph glyph-name="greaterequal" unicode="&#x2265;" horiz-adv-x="1085" 
d="M922 324q43 0 57 -26t14 -100t-14 -100q-14 -27 -57 -26h-738q-43 0 -57 26t-14 101q0 73 14 99t57 26h738zM113 532q0 82 14 112t61 44l465 143l-465 142q-47 14 -61 45q-14 30 -14 112t23 113q24 31 73 12l715 -272q41 -14 55 -48t14 -104q0 -69 -14 -103t-55 -48
l-715 -272q-49 -18 -73 12q-23 30 -23 112z" />
    <glyph glyph-name="lozenge" unicode="&#x25ca;" horiz-adv-x="1335" 
d="M668 315l245 422l-245 422l-244 -422zM670 -8q-90 0 -128 11t-65 54l-377 617q-39 63 0 127l377 616q27 43 64 54t127 11t128 -10q38 -12 64 -55l375 -616q39 -63 0 -127l-375 -617q-28 -43 -64 -54t-126 -11z" />
    <glyph glyph-name="uni2713" unicode="&#x2713;" horiz-adv-x="1585" 
d="M1456 1289q18 -9 52 -59t36 -70t-28 -52q-240 -211 -461 -481t-379 -559q-31 -56 -65 -74q-35 -18 -99 -18t-100 16t-56 63l-278 631q-25 55 5 93t123 76t139 33t69 -59l147 -350q166 229 389 439t451 360q37 20 55 11z" />
    <glyph glyph-name="uni2717" unicode="&#x2717;" horiz-adv-x="1339" 
d="M844 47q-47 0 -80 51l-207 344q-172 -203 -311 -450q-35 -61 -135 -2q-49 29 -61 54q-11 26 11 67q160 276 381 522l-196 328q-29 53 -4 93q24 40 110 89t131 50t78 -48l150 -248q238 229 442 363q35 24 61 14t58 -56q31 -46 33 -73t-29 -51q-246 -182 -451 -383
l258 -428q31 -53 7 -96q-25 -42 -112 -91t-134 -49z" />
    <glyph glyph-name="uni2BC5" unicode="&#x2bc5;" horiz-adv-x="1112" 
d="M287 422v506q0 61 38 88t99 4q254 -96 424 -266q80 -78 0 -158q-172 -172 -430 -268q-57 -20 -94 6t-37 88z" />
    <glyph glyph-name="uni2BC6" unicode="&#x2bc6;" horiz-adv-x="1112" 
d="M303 987h506q61 0 88 -38t4 -99q-96 -254 -266 -424q-78 -80 -158 0q-172 172 -268 430q-20 57 5 94q26 37 89 37z" />
    <glyph glyph-name="uni2BC7" unicode="&#x2bc7;" horiz-adv-x="1112" 
d="M825 930v-506q0 -61 -38 -88t-99 -4q-254 96 -424 266q-80 78 0 158q172 172 430 268q57 20 94 -6t37 -88z" />
    <glyph glyph-name="uni2BC8" unicode="&#x2bc8;" horiz-adv-x="1112" 
d="M303 367q-61 -1 -88 37t-4 100q96 254 266 424q78 80 158 0q172 -172 268 -430q20 -57 -5 -95q-26 -37 -89 -36h-506z" />
    <glyph glyph-name="Iacute_J.loclNLD" horiz-adv-x="1251" 
d="M306.5 520q-107.5 0 -145.5 16.5t-38 73.5v779q0 59 38 75.5t145.5 16.5t145 -16.5t37.5 -75.5v-779q0 -57 -37.5 -73.5t-145 -16.5zM506 -27q-168 0 -296 38t-128 163q0 68 25.5 124t68.5 56q14 0 114.5 -30.5t196.5 -30.5q152 0 214.5 67.5t62.5 239.5v789
q0 59 38 75.5t145.5 16.5t144 -16.5t36.5 -75.5v-787q0 -328 -167.5 -478.5t-454.5 -150.5zM1329 1795.5q0 -62.5 -61 -85.5l-400 -149q-37 -10 -52 -1t-40 52t-24.5 64.5t28.5 47.5l275 213q143 111 228 -13q46 -66 46 -128.5zM690 1795.5q0 -62.5 -61 -85.5l-400 -149
q-37 -10 -52 -1t-40 52t-24.5 64.5t28.5 47.5l275 213q143 111 228 -13q46 -66 46 -128.5z" />
    <glyph glyph-name="G.ss02" horiz-adv-x="1378" 
d="M704 -27q-300 0 -467 192.5t-167 571.5t178 571.5t487 192.5q252 0 412 -61q51 -20 70.5 -50t19.5 -93.5t-24.5 -126t-65.5 -62.5q-17 0 -69 22q-155 68 -312 68q-324 0 -324 -455q0 -246 68 -357.5t225 -111.5q121 0 178.5 62.5t57.5 191.5q0 43 -4 66h-172
q-43 0 -57.5 29.5t-14.5 109.5t14.5 108.5t57.5 28.5h389q78 0 96 -73q27 -115 27 -254q0 -258 -151.5 -414t-451.5 -156z" />
    <glyph glyph-name="Gbreve.ss02" horiz-adv-x="1378" 
d="M704 -27q-300 0 -467 192.5t-167 571.5t178 571.5t487 192.5q252 0 412 -61q51 -20 70.5 -50t19.5 -93.5t-24.5 -126t-65.5 -62.5q-17 0 -69 22q-155 68 -312 68q-324 0 -324 -455q0 -246 68 -357.5t225 -111.5q121 0 178.5 62.5t57.5 191.5q0 43 -4 66h-172
q-43 0 -57.5 29.5t-14.5 109.5t14.5 108.5t57.5 28.5h389q78 0 96 -73q27 -115 27 -254q0 -258 -151.5 -414t-451.5 -156zM717 1577q-225 0 -393 203q-45 53 22 112q35 33 62.5 34t68.5 -25q111 -72 240 -72t239 72q39 27 67 25.5t64 -34.5q66 -59 23 -112
q-168 -203 -393 -203z" />
    <glyph glyph-name="Gcircumflex.ss02" horiz-adv-x="1378" 
d="M1307 543q0 -258 -151.5 -414t-451.5 -156t-467 192.5t-167 571.5t178 571.5t487 192.5q252 0 412 -61q51 -20 70.5 -50t19.5 -93.5t-24.5 -126t-65.5 -62.5q-17 0 -69 22q-155 68 -312 68q-324 0 -324 -455q0 -246 68 -357.5t225 -111.5q121 0 178.5 62.5t57.5 191.5
q0 43 -4 66h-172q-43 0 -57.5 29.5t-14.5 109.5t14.5 108.5t57.5 28.5h389q78 1 96 -73q27 -115 27 -254zM719 1698q-100 -41 -177 -89.5t-101.5 -47t-53.5 30t-32 50t20 52.5q96 129 198 211q70 55 147 56q142 2 343 -267q23 -33 19.5 -53.5t-32 -49t-53 -29.5t-101.5 48
t-177 88z" />
    <glyph glyph-name="Gcommaaccent.ss02" horiz-adv-x="1378" 
d="M752 -92q137 0 137 -107q0 -162 -154 -340q-29 -33 -55.5 -35t-69.5 19.5t-51 43.5t16.5 83t24.5 152l-8 102q0 82 160 82zM704 -27q-300 0 -467 192.5t-167 571.5t178 571.5t487 192.5q252 0 412 -61q51 -20 70.5 -50t19.5 -93.5t-24.5 -126t-65.5 -62.5q-17 0 -69 22
q-155 68 -312 68q-324 0 -324 -455q0 -246 68 -357.5t225 -111.5q121 0 178.5 62.5t57.5 191.5q0 43 -4 66h-172q-43 0 -57.5 29.5t-14.5 109.5t14.5 108.5t57.5 28.5h389q78 0 96 -73q27 -115 27 -254q0 -258 -151.5 -414t-451.5 -156z" />
    <glyph glyph-name="Gdotaccent.ss02" horiz-adv-x="1378" 
d="M704 -27q-300 0 -467 192.5t-167 571.5t178 571.5t487 192.5q252 0 412 -61q51 -20 70.5 -50t19.5 -93.5t-24.5 -126t-65.5 -62.5q-17 0 -69 22q-155 68 -312 68q-324 0 -324 -455q0 -246 68 -357.5t225 -111.5q121 0 178.5 62.5t57.5 191.5q0 43 -4 66h-172
q-43 0 -57.5 29.5t-14.5 109.5t14.5 108.5t57.5 28.5h389q78 0 96 -73q27 -115 27 -254q0 -258 -151.5 -414t-451.5 -156zM718 1579q-126 0 -163 33t-37 130t38 133t163 36t163 -34t38 -133t-38 -132t-164 -33z" />
    <glyph glyph-name="i.loclTRK" horiz-adv-x="557" 
d="M278.5 -6q-102.5 0 -138.5 16.5t-36 75.5v872q0 57 36 75t138.5 18t138.5 -17.5t36 -75.5v-872q0 -59 -36 -75.5t-138.5 -16.5zM278 1196q-126 0 -163 33t-37 131t38 134t162.5 36t162.5 -34t38 -134t-37.5 -133t-163.5 -33z" />
    <glyph glyph-name="iacute_j.loclNLD" horiz-adv-x="1114" 
d="M669 -496q-73 0 -143.5 53.5t-70.5 106.5q0 29 41 78q90 104 128 203.5t38 259.5v753q0 57 35.5 75t138 18t138.5 -17.5t36 -75.5v-716q0 -426 -199 -658q-69 -80 -142 -80zM278.5 -6q-102.5 0 -138.5 16.5t-36 75.5v872q0 57 36 75t138.5 18t138.5 -17.5t36 -75.5v-872
q0 -59 -36 -75.5t-138.5 -16.5zM993.5 1620q65.5 0 128 -64.5t62.5 -116.5t-54 -87l-309 -197q-25 -18 -47 -14t-57 37t-41 52t10 46l176 252q66 92 131.5 92zM438.5 1620q65.5 0 128 -64.5t62.5 -116.5t-54 -87l-309 -197q-25 -18 -47 -14t-57 37t-41 52t10 46l176 252
q66 92 131.5 92z" />
    <glyph glyph-name="cacute.loclPLK" horiz-adv-x="1003" 
d="M575 -27q-246 0 -382 136.5t-136 413t136.5 412.5t379.5 136q147 0 273 -43q59 -23 87 -53.5t28 -89.5t-29 -110.5t-64 -51.5q-8 0 -85.5 34t-172 34t-142.5 -58.5t-48 -210t48 -210t144 -58.5t179 35t90 35q35 0 63.5 -51.5t28.5 -110.5t-26.5 -90t-80.5 -52
q-123 -47 -291 -47zM582 1606q72 0 138 -33t66 -84q0 -20 -14 -51l-110 -232q-27 -53 -121 -35q-55 12 -80 29t-23 47l19 240q8 119 125 119z" />
    <glyph glyph-name="nacute.loclPLK" horiz-adv-x="1183" 
d="M727 1067q350 0 350 -365v-616q0 -59 -35.5 -75.5t-138 -16.5t-138.5 16.5t-36 75.5v555q0 125 -108 125q-70 0 -119 -43t-49 -100v-537q0 -59 -36 -75.5t-138.5 -16.5t-138.5 16.5t-36 75.5v872q0 55 29 74t98.5 19t97 -13.5t46.5 -56.5l26 -57q142 143 326 143z
M623 1606q72 0 138 -33t66 -84q0 -20 -14 -51l-111 -232q-26 -53 -120 -35q-55 12 -80 29t-23 47l19 240q8 119 125 119z" />
    <glyph glyph-name="oacute.loclPLK" horiz-adv-x="1161" 
d="M580 242q82 0 120.5 60t38.5 226t-37.5 220.5t-121.5 54.5t-122 -54.5t-38 -220.5t39 -226t121 -60zM578 -27q-248 0 -384.5 137.5t-136.5 410.5t137.5 411.5t387.5 138.5t385 -134t135 -408.5t-138 -415t-386 -140.5zM621 1606q72 0 138 -33t66 -84q0 -20 -14 -51
l-111 -232q-26 -53 -120 -35q-55 12 -80 29t-23 47l19 240q8 119 125 119z" />
    <glyph glyph-name="sacute.loclPLK" horiz-adv-x="983" 
d="M473 -27q-188 0 -276 33t-116 63.5t-28 90t29 112t63 52.5q13 0 59 -22q146 -71 302 -71q104 0 104 62.5t-157 95.5q-207 43 -300.5 116t-93.5 220.5t112 246.5t347 99q143 0 261 -39t118 -145q0 -61 -27.5 -112.5t-64.5 -51.5q-12 -1 -54 23q-126 70 -268 71
q-100 0 -100 -60t145 -95q209 -47 308.5 -124t99.5 -227.5t-109.5 -244t-353.5 -93.5zM539 1606q72 0 138 -33t66 -84q0 -20 -14 -51l-111 -232q-26 -53 -120 -35q-55 12 -80 29t-23 47l19 240q8 119 125 119z" />
    <glyph glyph-name="zacute.loclPLK" horiz-adv-x="964" 
d="M844 281q43 0 57 -30t14 -111t-14 -110.5t-57 -29.5h-719q-45 0 -59 30t-15 92q-1 154 171 380q110 144 253 262h-334q-43 0 -56 29.5t-13 110.5t13 110.5t56 29.5h682q47 0 61.5 -33.5t14.5 -110t-16.5 -103.5t-57.5 -56q-266 -180 -424 -460h443zM528 1606
q72 0 138.5 -33t66.5 -84q0 -20 -14 -51l-111 -232q-27 -53 -121 -35q-55 12 -79.5 29t-22.5 47l18 240q8 119 125 119z" />
    <glyph glyph-name="a.ss01" horiz-adv-x="1179" 
d="M572 252q162 0 161 235v70q0 119 -43 178t-118.5 59.5t-113.5 -53t-38 -218.5t38 -218t114 -53zM951 1051q75 0 99.5 -17.5t24.5 -75.5v-872q0 -57 -24.5 -74.5t-99.5 -17.5t-102.5 14.5t-45.5 57.5l-17 36q-133 -125 -320.5 -125t-298 133.5t-110.5 412t112 411.5
t301 133t316 -125l17 35q18 45 45.5 59.5t102.5 14.5z" />
    <glyph glyph-name="aacute.ss01" horiz-adv-x="1179" 
d="M572 252q162 0 161 235v70q0 119 -43 178t-118.5 59.5t-113.5 -53t-38 -218.5t38 -218t114 -53zM951 1051q75 0 99.5 -17.5t24.5 -75.5v-872q0 -57 -24.5 -74.5t-99.5 -17.5t-102.5 14.5t-45.5 57.5l-17 36q-133 -125 -320.5 -125t-298 133.5t-110.5 412t112 411.5
t301 133t316 -125l17 35q18 45 45.5 59.5t102.5 14.5zM762.5 1620q65.5 0 127.5 -64.5t62 -116.5t-53 -87l-309 -197q-25 -18 -47.5 -14t-57.5 37t-41 52t11 46l176 252q66 92 131.5 92z" />
    <glyph glyph-name="abreve.ss01" horiz-adv-x="1179" 
d="M572 252q162 0 161 235v70q0 119 -43 178t-118.5 59.5t-113.5 -53t-38 -218.5t38 -218t114 -53zM951 1051q75 0 99.5 -17.5t24.5 -75.5v-872q0 -57 -24.5 -74.5t-99.5 -17.5t-102.5 14.5t-45.5 57.5l-17 36q-133 -125 -320.5 -125t-298 133.5t-110.5 412t112 411.5
t301 133t316 -125l17 35q18 45 45.5 59.5t102.5 14.5zM601 1161q-228 0 -396 244q-25 39 -18.5 60.5t44 52.5t65.5 28.5t62 -37.5q104 -98 240.5 -98t245.5 98q37 33 62.5 36t64.5 -27.5t45 -52t-19 -60.5q-168 -244 -396 -244z" />
    <glyph glyph-name="acircumflex.ss01" horiz-adv-x="1179" 
d="M572 252q162 0 161 235v70q0 119 -43 178t-118.5 59.5t-113.5 -53t-38 -218.5t38 -218t114 -53zM951 1051q75 0 99.5 -17.5t24.5 -75.5v-872q0 -57 -24.5 -74.5t-99.5 -17.5t-102.5 14.5t-45.5 57.5l-17 36q-133 -125 -320.5 -125t-298 133.5t-110.5 412t112 411.5
t301 133t316 -125l17 35q18 45 45.5 59.5t102.5 14.5zM319 1155q-41 23 -48 44.5t14 68.5q78 154 172 256q55 61 146 60t145 -60q98 -111 172 -256q20 -47 12 -68.5t-46 -45.5t-66.5 -22.5t-80 50t-137.5 100.5q-90 -55 -139 -102.5t-78 -48.5t-66 24z" />
    <glyph glyph-name="adieresis.ss01" horiz-adv-x="1179" 
d="M572 252q162 0 161 235v70q0 119 -43 178t-118.5 59.5t-113.5 -53t-38 -218.5t38 -218t114 -53zM951 1051q75 0 99.5 -17.5t24.5 -75.5v-872q0 -57 -24.5 -74.5t-99.5 -17.5t-102.5 14.5t-45.5 57.5l-17 36q-133 -125 -320.5 -125t-298 133.5t-110.5 412t112 411.5
t301 133t316 -125l17 35q18 45 45.5 59.5t102.5 14.5zM843.5 1196q-110.5 0 -141 33t-30.5 131t31.5 134t141.5 36t143.5 -34t33.5 -134t-34 -133t-144.5 -33zM352.5 1196q-110.5 0 -141.5 33t-31 131t32 134t141.5 36t143 -34t33.5 -134t-33.5 -133t-144 -33z" />
    <glyph glyph-name="agrave.ss01" horiz-adv-x="1179" 
d="M572 252q162 0 161 235v70q0 119 -43 178t-118.5 59.5t-113.5 -53t-38 -218.5t38 -218t114 -53zM951 1051q75 0 99.5 -17.5t24.5 -75.5v-872q0 -57 -24.5 -74.5t-99.5 -17.5t-102.5 14.5t-45.5 57.5l-17 36q-133 -125 -320.5 -125t-298 133.5t-110.5 412t112 411.5
t301 133t316 -125l17 35q18 45 45.5 59.5t102.5 14.5zM254 1439q0 52 62.5 116.5t127.5 64.5t129 -90l177 -254q18 -27 12 -46.5t-41 -52t-57.5 -36.5t-47.5 14l-309 197q-53 35 -53 87z" />
    <glyph glyph-name="amacron.ss01" horiz-adv-x="1179" 
d="M572 252q162 0 161 235v70q0 119 -43 178t-118.5 59.5t-113.5 -53t-38 -218.5t38 -218t114 -53zM951 1051q75 0 99.5 -17.5t24.5 -75.5v-872q0 -57 -24.5 -74.5t-99.5 -17.5t-102.5 14.5t-45.5 57.5l-17 36q-133 -125 -320.5 -125t-298 133.5t-110.5 412t112 411.5
t301 133t316 -125l17 35q18 45 45.5 59.5t102.5 14.5zM311 1253q-43 0 -57 26t-14 96.5t14 97t57 26.5h582q43 0 57.5 -26.5t14.5 -97.5t-14.5 -96.5t-57.5 -25.5h-582z" />
    <glyph glyph-name="aogonek.ss01" horiz-adv-x="1181" 
d="M733 487v70q0 119 -43 178t-118.5 59.5t-113.5 -53t-38 -218.5t38 -218t114 -53q162 0 161 235zM1098 -381q0 -76 -54.5 -94t-134.5 -19q-135 0 -209.5 61.5t-74.5 166.5q0 162 202 280l-39 92q-131 -129 -320.5 -129t-300 133.5t-110.5 412t112 411.5t301 133t316 -125
l17 35q18 45 46 59.5t102.5 14.5t99 -17.5t24.5 -75.5v-872q0 -53 -51 -93t-88 -92.5t-37 -95.5q0 -63 66 -63l67 10q33 0 49.5 -42t16.5 -91z" />
    <glyph glyph-name="aring.ss01" horiz-adv-x="1179" 
d="M572 252q162 0 161 235v70q0 119 -43 178t-118.5 59.5t-113.5 -53t-38 -218.5t38 -218t114 -53zM951 1051q75 0 99.5 -17.5t24.5 -75.5v-872q0 -57 -24.5 -74.5t-99.5 -17.5t-102.5 14.5t-45.5 57.5l-17 36q-133 -125 -320.5 -125t-298 133.5t-110.5 412t112 411.5
t301 133t316 -125l17 35q18 45 45.5 59.5t102.5 14.5zM602 1483q-37 0 -61.5 -25.5t-24.5 -75t24.5 -75t61.5 -25.5t61.5 25.5t24.5 75t-24.5 75t-61.5 25.5zM602 1155q-96 0 -166.5 62.5t-70.5 165t70.5 165t166.5 62.5t166 -62.5t70 -165t-70 -165t-166 -62.5z" />
    <glyph glyph-name="atilde.ss01" horiz-adv-x="1179" 
d="M572 252q162 0 161 235v70q0 119 -43 178t-118.5 59.5t-113.5 -53t-38 -218.5t38 -218t114 -53zM951 1051q75 0 99.5 -17.5t24.5 -75.5v-872q0 -57 -24.5 -74.5t-99.5 -17.5t-102.5 14.5t-45.5 57.5l-17 36q-133 -125 -320.5 -125t-298 133.5t-110.5 412t112 411.5
t301 133t316 -125l17 35q18 45 45.5 59.5t102.5 14.5zM449.5 1552q93.5 0 200 -63.5t138.5 -63.5q68 0 107 70q16 31 39.5 35t70 -10t58.5 -33t0 -60q-39 -127 -120 -192.5t-174 -65.5t-199.5 68t-139.5 68q-70 0 -106 -68q-16 -31 -40 -36t-69 9.5t-58.5 34t-0.5 60.5
q37 123 118.5 185t175 62z" />
    <glyph glyph-name="v.ss01" horiz-adv-x="1155" 
d="M104 958q0 56 36 74t138 18t139 -16q36 -18 36 -76v-544q0 -172 106 -172q70 0 123 84t53 228q-1 144 -29 278t-28 137q0 96 196 96q74 0 112 -23t58 -86q53 -160 54 -338q0 -313 -156 -479t-412 -166q-202 0 -314 112t-112 335v538z" />
    <glyph glyph-name="w.ss01" horiz-adv-x="1792" 
d="M1164 -27q-251 0 -357 170q-121 -170 -330 -170q-176 0 -274.5 112t-98.5 335v538q0 57 36 75t138.5 18t138.5 -17.5t36 -75.5v-544q0 -172 106 -172q78 0 128 92t50 235v389q0 57 36 75t138.5 18t138 -17.5t35.5 -75.5v-540q0 -176 107 -176q68 0 123 84t55 228
t-27.5 278.5t-27.5 136.5q0 96 196 96q74 0 112 -23t58 -86q51 -154 52 -338q0 -311 -159 -478t-410 -167z" />
    <glyph glyph-name="wacute.ss01" horiz-adv-x="1792" 
d="M1164 -27q-251 0 -357 170q-121 -170 -330 -170q-176 0 -274.5 112t-98.5 335v538q0 57 36 75t138.5 18t138.5 -17.5t36 -75.5v-544q0 -172 106 -172q78 0 128 92t50 235v389q0 57 36 75t138.5 18t138 -17.5t35.5 -75.5v-540q0 -176 107 -176q68 0 123 84t55 228
t-27.5 278.5t-27.5 136.5q0 96 196 96q74 0 112 -23t58 -86q51 -154 52 -338q0 -311 -159 -478t-410 -167zM1071.5 1620q65.5 0 128 -64.5t62.5 -116.5t-54 -87l-309 -197q-25 -18 -47.5 -14t-57 37t-40.5 52t10 46l176 252q66 92 131.5 92z" />
    <glyph glyph-name="wcircumflex.ss01" horiz-adv-x="1792" 
d="M1164 -27q-251 0 -357 170q-121 -170 -330 -170q-176 0 -274.5 112t-98.5 335v538q0 57 36 75t138.5 18t138.5 -17.5t36 -75.5v-544q0 -172 106 -172q78 0 128 92t50 235v389q0 57 36 75t138.5 18t138 -17.5t35.5 -75.5v-540q0 -176 107 -176q68 0 123 84t55 228
t-27.5 278.5t-27.5 136.5q0 96 196 96q74 0 112 -23t58 -86q51 -154 52 -338q0 -311 -159 -478t-410 -167zM629 1155q-41 23 -48.5 44.5t13.5 68.5q78 154 172 256q55 61 146.5 60t144.5 -60q98 -111 172 -256q20 -47 12 -68.5t-46 -45.5t-66.5 -22.5t-80 50t-137.5 100.5
q-90 -55 -139 -102.5t-77.5 -48.5t-65.5 24z" />
    <glyph glyph-name="wdieresis.ss01" horiz-adv-x="1792" 
d="M1164 -27q-251 0 -357 170q-121 -170 -330 -170q-176 0 -274.5 112t-98.5 335v538q0 57 36 75t138.5 18t138.5 -17.5t36 -75.5v-544q0 -172 106 -172q78 0 128 92t50 235v389q0 57 36 75t138.5 18t138 -17.5t35.5 -75.5v-540q0 -176 107 -176q68 0 123 84t55 228
t-27.5 278.5t-27.5 136.5q0 96 196 96q74 0 112 -23t58 -86q51 -154 52 -338q0 -311 -159 -478t-410 -167zM1153 1196q-111 0 -141.5 33t-30.5 131t31.5 134t141.5 36t143.5 -34t33.5 -134t-33.5 -133t-144.5 -33zM661.5 1196q-110.5 0 -141.5 33t-31 131t32 134t142 36
t143.5 -34t33.5 -134t-34 -133t-144.5 -33z" />
    <glyph glyph-name="wgrave.ss01" horiz-adv-x="1792" 
d="M1164 -27q-251 0 -357 170q-121 -170 -330 -170q-176 0 -274.5 112t-98.5 335v538q0 57 36 75t138.5 18t138.5 -17.5t36 -75.5v-544q0 -172 106 -172q78 0 128 92t50 235v389q0 57 36 75t138.5 18t138 -17.5t35.5 -75.5v-540q0 -176 107 -176q68 0 123 84t55 228
t-27.5 278.5t-27.5 136.5q0 96 196 96q74 0 112 -23t58 -86q51 -154 52 -338q0 -311 -159 -478t-410 -167zM563 1439q0 52 62.5 116.5t128 64.5t129.5 -90l176 -254q18 -27 12 -46.5t-41 -52t-57.5 -36.5t-46.5 14l-310 197q-53 35 -53 87z" />
    <glyph glyph-name="y.ss01" horiz-adv-x="1181" 
d="M903.5 1051q102.5 0 138 -17.5t35.5 -75.5v-915q0 -254 -130 -401.5t-402 -147.5q-193 0 -334 60q-53 23 -77 52q-24 28 -23.5 84t32 114.5t68.5 58.5q2 0 98.5 -40t200.5 -40q219 0 219 221v74q-135 -100 -295 -100t-245 95t-85 269v616q0 57 36 75t138.5 18
t138.5 -17.5t36 -75.5v-557q0 -123 108 -122q70 0 119 44t49 99v536q0 57 36 75t138.5 18z" />
    <glyph glyph-name="yacute.ss01" horiz-adv-x="1181" 
d="M903.5 1051q102.5 0 138 -17.5t35.5 -75.5v-915q0 -254 -130 -401.5t-402 -147.5q-193 0 -334 60q-53 23 -76.5 52t-23.5 84.5t31.5 114t68.5 58.5q2 0 98.5 -40t200.5 -40q219 0 219 221v74q-135 -100 -295 -100.5t-245 95t-85 269.5v616q0 57 36 75t138.5 18
t138.5 -17.5t36 -75.5v-557q0 -123 108 -122q70 0 119 44t49 99v536q0 57 36 75t138.5 18zM750 1620q66 0 128 -64.5t62 -116.5t-53 -87l-309 -197q-25 -18 -47.5 -14t-57.5 37t-41 52t10 46l176 252q66 92 132 92z" />
    <glyph glyph-name="ycircumflex.ss01" horiz-adv-x="1181" 
d="M903.5 1051q102.5 0 138 -17.5t35.5 -75.5v-915q0 -254 -130 -401.5t-402 -147.5q-193 0 -334 60q-53 23 -77 52q-24 28 -23.5 84t32 114.5t68.5 58.5q2 0 98.5 -40t200.5 -40q219 0 219 221v74q-135 -100 -295 -100t-245 95t-85 269v616q0 57 36 75t138.5 18
t138.5 -17.5t36 -75.5v-557q0 -123 108 -122q70 0 119 44t49 99v536q0 57 36 75t138.5 18zM307 1155q-41 23 -48 44.5t13 68.5q78 154 172 256q55 61 146.5 60t144.5 -60q98 -111 172 -256q20 -47 12 -68.5t-46 -45.5q-39 -24 -67 -22t-80 50t-136 100q-90 -54 -140 -102
t-78 -49t-65 24z" />
    <glyph glyph-name="ydieresis.ss01" horiz-adv-x="1181" 
d="M903.5 1051q102.5 0 138 -17.5t35.5 -75.5v-915q0 -254 -130 -401.5t-402 -147.5q-193 0 -334 60q-53 23 -77 52q-24 28 -23.5 84t32 114.5t68.5 58.5q2 0 98.5 -40t200.5 -40q219 0 219 221v74q-135 -100 -295 -100t-245 95t-85 269v616q0 57 36 75t138.5 18
t138.5 -17.5t36 -75.5v-557q0 -123 108 -122q70 0 119 44t49 99v536q0 57 36 75t138.5 18zM831.5 1196q-110.5 0 -141.5 33t-31 131t32 134q31 36 141 36t144 -34t34 -134t-34 -133t-144.5 -33zM340 1196q-111 0 -141.5 33t-30.5 131t31.5 134t141.5 36t143.5 -34t33.5 -134
t-33.5 -133t-144.5 -33z" />
    <glyph glyph-name="ygrave.ss01" horiz-adv-x="1181" 
d="M903.5 1051q102.5 0 138 -17.5t35.5 -75.5v-915q0 -254 -130 -401.5t-402 -147.5q-193 0 -334 60q-53 23 -76.5 52t-23.5 84.5t31.5 114t68.5 58.5q2 0 98.5 -40t200.5 -40q219 0 219 221v74q-135 -100 -295 -100.5t-245 95t-85 269.5v616q0 57 36 75t138.5 18
t138.5 -17.5t36 -75.5v-557q0 -123 108 -122q70 0 119 44t49 99v536q0 57 36 75t138.5 18zM242 1439q0 52 62.5 116.5t127.5 64.5t129 -90l176 -254q18 -27 12 -46.5t-40.5 -52t-57 -36.5t-47.5 14l-309 197q-53 35 -53 87z" />
    <glyph glyph-name="g.ss02" horiz-adv-x="1171" 
d="M492 -125q-61 0 -99.5 -29.5t-38.5 -76.5t49.5 -72t178.5 -25t203.5 34t74.5 87q0 82 -129 82h-239zM568 522q73 0 103.5 34t30.5 124t-30.5 124t-103.5 34t-103.5 -34t-30.5 -124t30.5 -124t103.5 -34zM1176 1030q0 -139 -78 -139q-55 0 -99 -14q49 -88 50 -197
q0 -203 -119 -297t-363 -94q-104 0 -161 12q-39 -29 -39 -63q0 -70 122 -70h240q180 0 294 -83t114 -237q0 -387 -584 -387q-500 0 -500 248q0 147 160 217q-131 68 -131 212.5t135 232.5q-137 94 -137 302t121 303t366 95q141 0 244 -45q129 111 258 111q107 -1 107 -107z
" />
    <glyph glyph-name="gbreve.ss02" horiz-adv-x="1171" 
d="M492 -125q-61 0 -99.5 -29.5t-38.5 -76.5t49.5 -72t178.5 -25t203.5 34t74.5 87q0 82 -129 82h-239zM568 522q73 0 103.5 34t30.5 124t-30.5 124t-103.5 34t-103.5 -34t-30.5 -124t30.5 -124t103.5 -34zM1176 1030q0 -139 -78 -139q-55 0 -99 -14q49 -88 50 -197
q0 -203 -119 -297t-363 -94q-104 0 -161 12q-39 -29 -39 -63q0 -70 122 -70h240q180 0 294 -83t114 -237q0 -387 -584 -387q-500 0 -500 248q0 147 160 217q-131 68 -131 212.5t135 232.5q-137 94 -137 302t121 303t366 95q141 0 244 -45q129 111 258 111q107 -1 107 -107z
M581 1161q-228 0 -397 244q-25 39 -18.5 60.5t44.5 52.5t65.5 28.5t62.5 -37.5q104 -98 240.5 -98t244.5 98q37 33 62.5 36t64.5 -27.5t45 -52t-18 -60.5q-168 -244 -396 -244z" />
    <glyph glyph-name="gcircumflex.ss02" horiz-adv-x="1171" 
d="M492 -125q-61 0 -99.5 -29.5t-38.5 -76.5t49.5 -72t178.5 -25t203.5 34t74.5 87q0 82 -129 82h-239zM568 522q73 0 103.5 34t30.5 124t-30.5 124t-103.5 34t-103.5 -34t-30.5 -124t30.5 -124t103.5 -34zM1176 1030q0 -139 -78 -139q-55 0 -99 -14q49 -88 50 -197
q0 -203 -119 -297t-363 -94q-104 0 -161 12q-39 -29 -39 -63q0 -70 122 -70h240q180 0 294 -83t114 -237q0 -387 -584 -387q-500 0 -500 248q0 147 160 217q-131 68 -131 212.5t135 232.5q-137 94 -137 302t121 303t366 95q141 0 244 -45q129 111 258 111q107 -1 107 -107z
M299 1155q-41 23 -48 44.5t13 68.5q78 154 172 256q55 61 146.5 60t144.5 -60q98 -111 172 -256q20 -47 12 -68.5t-46 -45.5t-66.5 -22.5t-80 50t-136.5 100.5q-90 -55 -139.5 -102.5t-78 -48.5t-65.5 24z" />
    <glyph glyph-name="gcommaaccent.ss02" horiz-adv-x="1171" 
d="M492 -125q-61 0 -99.5 -29.5t-38.5 -76.5t49.5 -72t178.5 -25t203.5 34t74.5 87q0 82 -129 82h-239zM568 522q73 0 103.5 34t30.5 124t-30.5 124t-103.5 34t-103.5 -34t-30.5 -124t30.5 -124t103.5 -34zM1176 1030q0 -139 -78 -139q-55 0 -99 -14q49 -88 50 -197
q0 -203 -119 -297t-363 -94q-104 0 -161 12q-39 -29 -39 -63q0 -70 122 -70h240q180 0 294 -83t114 -237q0 -387 -584 -387q-500 0 -500 248q0 147 160 217q-131 68 -131 212.5t135 232.5q-137 94 -137 302t121 303t366 95q141 0 244 -45q129 111 258 111q107 -1 107 -107z
M559 1169q-137 0 -137 107q0 162 153 340q29 33 55.5 35t69.5 -19.5t51.5 -43t-16.5 -83t-24 -151.5l8 -103q0 -82 -160 -82z" />
    </font>
</defs>
</svg>
