<?xml version="1.0" standalone="no"?>
<!DOCTYPE svg PUBLIC "-//W3C//DTD SVG 20010904//EN"
 "http://www.w3.org/TR/2001/REC-SVG-20010904/DTD/svg10.dtd">
<svg version="1.0" xmlns="http://www.w3.org/2000/svg"
 width="300.000000pt" height="300.000000pt" viewBox="0 0 300.000000 300.000000"
 preserveAspectRatio="xMidYMid meet">
<metadata>
Created by potrace 1.11, written by Peter Selinger 2001-2013
</metadata>
<g transform="translate(0.000000,300.000000) scale(0.100000,-0.100000)"
fill="#000000" stroke="none">
<path d="M857 2785 c-1 -2 -27 -5 -57 -8 -394 -38 -731 -360 -787 -752 -9 -60
-8 -204 0 -262 30 -202 128 -413 277 -593 106 -130 298 -296 500 -435 198
-136 348 -255 514 -409 113 -104 123 -111 192 -124 75 -13 129 7 206 79 89 83
243 204 421 332 533 382 736 605 840 921 28 84 30 104 34 266 3 161 1 182 -22
267 -58 216 -170 384 -343 515 -100 76 -260 150 -357 165 -16 3 -49 8 -73 13
-64 11 -228 4 -304 -14 -108 -25 -224 -74 -308 -130 l-78 -53 -58 44 c-114 86
-285 153 -426 168 -70 8 -167 13 -171 10z m1271 -550 c156 -46 254 -144 287
-290 41 -178 -59 -384 -308 -635 -93 -94 -132 -126 -312 -262 -5 -4 -72 -60
-148 -124 l-138 -116 -52 34 c-52 35 -194 148 -297 236 -99 85 -188 180 -303
322 -46 56 -121 177 -157 252 -71 148 -83 275 -35 371 34 66 56 91 128 138 83
54 154 74 262 74 119 0 164 -25 215 -115 67 -119 95 -154 144 -184 122 -76
290 -11 331 128 6 22 11 54 10 69 -5 79 230 143 373 102z"/>
</g>
</svg>
