<?xml version="1.0" standalone="no"?>
<!DOCTYPE svg PUBLIC "-//W3C//DTD SVG 20010904//EN"
 "http://www.w3.org/TR/2001/REC-SVG-20010904/DTD/svg10.dtd">
<svg version="1.0" xmlns="http://www.w3.org/2000/svg"
 width="300.000000pt" height="300.000000pt" viewBox="0 0 300.000000 300.000000"
 preserveAspectRatio="xMidYMid meet">
<metadata>
Created by potrace 1.11, written by Peter Selinger 2001-2013
</metadata>
<g transform="translate(0.000000,300.000000) scale(0.100000,-0.100000)"
fill="#000000" stroke="none">
<path d="M731 2766 c-100 -161 -144 -423 -103 -614 l16 -73 59 6 c33 3 61 6
63 8 1 1 -4 31 -12 67 -16 73 -21 190 -11 265 7 57 42 176 64 219 14 28 16 28
76 22 135 -15 289 -85 404 -183 36 -30 66 -53 68 -51 3 2 18 24 34 48 28 42
28 45 13 66 -29 38 -152 123 -236 164 -98 47 -223 78 -333 85 l-82 4 -20 -33z"/>
<path d="M2074 2784 c-100 -16 -179 -43 -264 -87 -122 -64 -238 -157 -222
-180 4 -7 18 -29 31 -49 12 -21 26 -38 29 -38 4 1 30 21 57 46 106 97 277 175
414 190 58 6 60 5 74 -22 73 -146 91 -378 42 -535 -5 -16 -1 -19 22 -20 15 0
44 -2 64 -4 l37 -4 12 62 c40 191 6 430 -85 593 l-32 59 -55 0 c-31 1 -86 -4
-124 -11z"/>
<path d="M1473 2397 c-23 -35 -62 -111 -86 -167 -41 -96 -68 -286 -57 -396 l5
-50 -75 48 c-137 87 -300 134 -475 137 -97 2 -97 2 -90 -21 16 -53 104 -178
174 -248 77 -77 181 -151 259 -185 l42 -19 -67 -34 c-128 -64 -256 -174 -329
-282 -51 -75 -85 -141 -78 -152 10 -16 227 -2 309 20 94 26 187 66 254 111 87
58 84 56 77 33 -11 -34 -9 -182 3 -252 7 -36 21 -94 32 -130 28 -89 121 -264
132 -249 69 84 136 245 158 379 12 74 14 244 3 261 -8 14 6 6 51 -27 72 -54
244 -124 344 -140 20 -3 84 -8 144 -10 82 -3 107 -1 107 9 0 7 -23 51 -52 97
-86 142 -247 285 -386 345 l-42 19 79 41 c99 52 177 111 248 189 56 63 135
183 148 225 l7 24 -118 -6 c-66 -3 -128 -8 -139 -10 -151 -36 -247 -76 -354
-150 -24 -16 -41 -25 -38 -20 12 18 10 194 -2 266 -12 73 -41 163 -75 237 -24
51 -78 140 -86 140 -3 0 -15 -15 -27 -33z m62 -352 c23 -113 3 -351 -32 -386
-16 -16 -45 127 -48 231 -3 91 12 197 37 258 l11 27 9 -30 c5 -16 15 -61 23
-100z m-510 -240 c118 -39 218 -101 300 -185 l50 -51 -32 6 c-47 8 -165 52
-213 79 -54 31 -171 123 -193 152 -16 21 -16 24 -2 24 9 0 50 -11 90 -25z
m1033 -4 c-33 -41 -139 -121 -200 -153 -56 -29 -193 -78 -218 -78 -34 0 116
130 210 182 52 29 186 77 213 78 17 0 16 -3 -5 -29z m-528 -236 c54 -28 50
-103 -7 -122 -82 -29 -130 85 -53 124 31 16 25 16 60 -2z m-195 -186 c-50 -52
-124 -107 -195 -145 -60 -33 -192 -78 -210 -72 -15 5 49 70 121 123 69 51 169
100 244 120 78 21 82 18 40 -26z m368 26 c75 -19 200 -83 265 -135 51 -40 112
-98 112 -107 0 -3 -15 -2 -32 2 -131 27 -277 107 -373 204 -27 28 -45 51 -39
51 5 0 35 -7 67 -15z m-176 -145 c24 -89 23 -261 -1 -357 -10 -40 -22 -73 -26
-73 -21 0 -49 174 -46 280 4 94 33 237 47 223 4 -4 16 -37 26 -73z"/>
<path d="M1946 2359 c-63 -58 -110 -143 -124 -227 -14 -82 12 -80 91 8 55 61
83 116 98 194 17 83 4 89 -65 25z"/>
<path d="M969 2398 c-11 -43 10 -133 48 -198 29 -49 118 -140 139 -140 32 0
-8 152 -58 222 -40 55 -125 131 -129 116z"/>
<path d="M505 1926 c-108 -35 -231 -107 -318 -185 -49 -44 -145 -163 -171
-213 l-20 -36 45 -69 c59 -92 178 -209 270 -266 65 -40 220 -107 249 -107 8 0
64 111 58 114 -2 1 -25 8 -53 14 -47 12 -174 68 -185 81 -3 4 -18 15 -35 26
-44 28 -143 124 -175 170 l-28 40 24 34 c84 123 237 233 389 280 31 10 56 21
57 25 1 19 -44 106 -55 105 -7 0 -30 -6 -52 -13z"/>
<path d="M2410 1891 c-12 -28 -23 -53 -24 -56 0 -3 35 -18 79 -33 140 -47 292
-159 369 -272 l24 -35 -32 -44 c-93 -130 -250 -234 -434 -287 -15 -4 36 -114
53 -114 7 0 50 15 96 33 165 65 307 178 403 320 31 45 56 87 56 93 0 5 -21 41
-46 80 -56 84 -156 185 -243 243 -67 46 -192 104 -248 116 -31 6 -33 4 -53
-44z"/>
<path d="M2255 1549 c-57 -14 -96 -32 -92 -44 8 -23 85 -48 163 -53 84 -5 168
12 209 42 19 14 18 15 -30 36 -57 25 -186 35 -250 19z"/>
<path d="M658 1545 c-2 -1 -28 -5 -58 -8 -66 -6 -140 -34 -140 -53 0 -8 28
-22 71 -35 57 -17 87 -21 144 -16 71 5 165 37 165 55 0 16 -169 69 -182 57z"/>
<path d="M1834 887 c9 -75 46 -156 98 -217 27 -32 90 -80 97 -76 12 8 2 83
-20 141 -23 62 -73 130 -122 168 -50 38 -59 35 -53 -16z"/>
<path d="M1106 870 c-73 -69 -109 -142 -123 -249 -6 -42 -5 -43 16 -31 77 41
151 145 174 246 23 100 10 107 -67 34z"/>
<path d="M636 877 c-27 -129 -28 -299 -1 -407 20 -82 63 -194 95 -245 l20 -33
82 4 c100 5 182 24 286 64 127 49 313 183 295 213 -3 7 -19 31 -34 53 l-28 42
-46 -44 c-66 -62 -158 -120 -246 -154 -80 -31 -102 -36 -186 -46 l-53 -7 -20
46 c-64 144 -81 355 -40 497 5 18 8 36 5 38 -2 2 -31 6 -63 8 l-60 3 -6 -32z"/>
<path d="M2246 902 c-9 -2 -15 -9 -13 -16 11 -28 27 -126 30 -182 5 -82 -7
-172 -37 -269 -37 -120 -37 -120 -130 -106 -142 21 -295 95 -401 195 l-46 44
-28 -42 c-15 -22 -31 -46 -35 -53 -9 -15 56 -75 147 -136 126 -83 296 -137
442 -140 l80 -2 41 83 c59 116 88 240 88 377 1 102 -2 138 -20 223 -6 31 -8
32 -53 30 -26 -2 -55 -4 -65 -6z"/>
</g>
</svg>
