<svg xmlns="http://www.w3.org/2000/svg" viewBox="0 0 830.01 830.24">
    <path fill="#704d74" d="M737.87 591.5a17.4 17.4 0 11-17.39-17.39 17.4 17.4 0 0117.39 17.39zm-32.62-361.33A17.39 17.39 0 10729 223.8a17.39 17.39 0 00-23.75 6.37zM399.78 71.39a17.39 17.39 0 106.36-23.76 17.4 17.4 0 00-6.36 23.76zM109.53 256.55a17.4 17.4 0 10-17.39-17.4 17.4 17.4 0 0017.39 17.4zm15.23 343.93a17.39 17.39 0 10-23.76 6.37 17.39 17.39 0 0023.76-6.37zm305.47 158.78a17.39 17.39 0 10-6.36 23.74 17.37 17.37 0 006.36-23.74zM629 234.53q.12-2.33.36-4.65c.34-4.95.58-9.92.58-15a215.37 215.37 0 00-17-83.73q-3.92-9.22-8.67-18c-2.35-4.36-4.88-8.6-7.52-12.77-4.89-.2-9.78-.27-14.69-.14q-10 .28-20 1.5a214.34 214.34 0 00-127.61 63.49A241.77 241.77 0 01451.31 190a184.51 184.51 0 01128.49-60.27 185.11 185.11 0 0112.07 141.38 240.5 240.5 0 0129.88 2.22 213.31 213.31 0 007.25-38.8zM268 101.79q-9.94-1.22-19.91-1.49c-5-.14-9.89-.07-14.82.13-2.62 4.13-5.13 8.33-7.46 12.65q-4.77 8.82-8.73 18.11a214.35 214.35 0 00-8.82 142.25 242.22 242.22 0 0129.89-2.21 184.68 184.68 0 0112-141.51A185.14 185.14 0 01378.69 190a237.2 237.2 0 0116.86-24.76 213.21 213.21 0 00-30-25.64c-1.31-.85-2.59-1.73-3.86-2.63-4.11-2.78-8.3-5.47-12.66-8a215.15 215.15 0 00-81-27.15zM407.38.24H415V0c-2.52 0-5 .13-7.62.24zm325.08 147.82a78.81 78.81 0 00-9.8-.73c-.81 0-1.62-.08-2.44-.08a88 88 0 00-24.71 3.48 383.4 383.4 0 00-45.79-41.49 325.275 325.275 0 00-23.66-16.77A362.25 362.25 0 00588.94 71c-8.75-4.46-17.66-8.67-26.74-12.4a385.85 385.85 0 00-58.59-18.88q-16.53-3.89-33.55-6.32a29.81 29.81 0 012.43 5.1 61.63 61.63 0 014.78 23.83c0 .65-.08 1.3-.08 1.86a41.92 41.92 0 01-.65 7.13A62.19 62.19 0 01415 124.64v.24a61.66 61.66 0 01-33.06-9.64c-1.22-.89-2.52-1.7-3.81-2.6a62 62 0 01-24.77-41.24 65.9 65.9 0 01-.65-7.05c0-.57-.08-1.22-.08-1.79a61.13 61.13 0 014.86-24.07c.73-1.7 1.46-3.32 2.35-4.94A62.46 62.46 0 01415 .24V0c3.65 0 7.38.24 11 .32a414.7 414.7 0 01306.46 147.74zM448 62.16c0-.65-.08-1.3-.08-1.95A33.09 33.09 0 00415 29.34v.16a33 33 0 00-32.9 30.87c0 .65-.08 1.3-.08 1.87v.32a33.06 33.06 0 0033 33H415v-.26a33.06 33.06 0 0033-33zm-299.21 292.4a185.05 185.05 0 0153-20.55 240.76 240.76 0 01-13-27 213.07 213.07 0 00-37.2 13.16c-1.38.71-2.79 1.38-4.2 2-4.46 2.18-8.89 4.46-13.25 7a215 215 0 00-64 56.57q-6 8-11.25 16.5c-2.6 4.22-5 8.53-7.3 12.9 2.27 4.33 4.65 8.61 7.22 12.79q5.27 8.54 11.32 16.61a214.43 214.43 0 00118.77 78.79 243.9 243.9 0 0113-27 184.56 184.56 0 01-116.5-81.17 184 184 0 0163.39-60.6zM342.42 6.73a82.18 82.18 0 00-5.59 8.1c-.41.65-.81 1.38-1.22 2a91.27 91.27 0 00-9.4 23.17 392.9 392.9 0 00-58.75 19c-9 3.64-17.75 7.69-26.34 12.07a379.32 379.32 0 00-37.28 21.39q-12.27 8-24.06 17a384.21 384.21 0 00-45.63 41.33c-7.7 8.19-15.23 16.78-22.28 25.77 1.94.08 3.8.25 5.75.49a61.64 61.64 0 0122.93 7.78c.57.32 1.06.73 1.62 1 2 1.3 4 2.6 5.84 4.05a62.45 62.45 0 0115.4 80l.16.16a62.33 62.33 0 01-24.88 23.91 46.58 46.58 0 00-4.13 1.94 62.22 62.22 0 01-48 .81 60 60 0 01-6.56-3c-.49-.33-1.06-.57-1.54-.9a60.09 60.09 0 01-18.4-16.2 34 34 0 01-3.06-4.47 62.18 62.18 0 01-1.3-64.35c-1.29 2.19-2.59 4.3-3.8 6.49 1.13-2.19 2.35-4.46 3.56-6.65 1.95-3.24 3.81-6.32 5.76-9.48A419.69 419.69 0 01166.16 83a408.23 408.23 0 0185.58-49.27 416.73 416.73 0 0190.68-27zM80.83 222.21l.24.16a33 33 0 0010.21 43.92c.57.33 1 .73 1.62 1.06a.36.36 0 00.25.08 33 33 0 0045-12v-.09l-.16-.16a33 33 0 00-12.16-45.06h-.08a13.12 13.12 0 00-1.78-1 33.11 33.11 0 00-43.14 13.09zM217.1 699.13q3.92 9.23 8.67 18c2.35 4.36 4.88 8.61 7.52 12.78 4.88.2 9.78.27 14.69.13q10-.28 20-1.5a214.42 214.42 0 00127.61-63.48 240.3 240.3 0 01-16.86-24.78A184.48 184.48 0 01250.2 700.6a185.22 185.22 0 01-12.08-141.39 238.57 238.57 0 01-29.87-2.21 213.46 213.46 0 00-7.2 38.8c-.08 1.56-.2 3.11-.36 4.66-.34 4.94-.58 9.92-.58 14.95a215.37 215.37 0 0017 83.73zm-45.27-105.36c-.16 1.54-.24 3.08-.32 4.62a62.39 62.39 0 01-23.34 42 57.44 57.44 0 01-5.83 4.13c-.57.33-1 .65-1.54 1a62.47 62.47 0 01-23.26 7.78c-1.78.24-3.65.4-5.43.48a62.39 62.39 0 01-56.41-31c1.3 2.19 2.44 4.3 3.81 6.49-1.37-2.11-2.75-4.3-4-6.4-1.86-3.25-3.48-6.57-5.27-9.73a421.36 421.36 0 01-25.36-56.32A414.75 414.75 0 0125 273.83a97.53 97.53 0 004.22 8.83c.4.65.72 1.46 1.13 2.11a92.58 92.58 0 0015.4 19.69 382.75 382.75 0 00-13.05 60.38c-1.3 9.56-2.19 19.12-2.76 28.85a399.53 399.53 0 00-.08 42.95c.57 9.8 1.46 19.61 2.76 29.33a372.66 372.66 0 0013 60.14c3.25 10.85 7 21.55 11.19 32.25 1.05-1.62 2.11-3.16 3.24-4.7a61.62 61.62 0 0118.32-16c.48-.32 1.05-.48 1.62-.81a52.43 52.43 0 016.48-3.08 62.52 62.52 0 0177 26.67h.16a61.89 61.89 0 018.2 33.33zm-29.17-2.35A33 33 0 00138.2 575l-.16.08A33.16 33.16 0 0092.9 563c0 .08-.08.08-.08.16a7 7 0 00-1.62 1.05 33.1 33.1 0 00-10.37 43.93l.24-.17v.03a33 33 0 0043.11 13 10.12 10.12 0 001.7-.89c.09 0 .25 0 .25-.08a33.29 33.29 0 0016.53-28.61zM562 728.53c6.63.82 13.27 1.3 19.91 1.49 5 .15 9.89.08 14.82-.12 2.62-4.14 5.13-8.34 7.46-12.66q4.77-8.82 8.73-18.11a214.32 214.32 0 008.82-142.24 246.18 246.18 0 01-29.89 2.21 184.66 184.66 0 01-12 141.5 185.2 185.2 0 01-128.49-60.23 238.26 238.26 0 01-16.86 24.76 213.21 213.21 0 0030 25.64c1.31.84 2.59 1.72 3.86 2.63 4.11 2.77 8.3 5.46 12.66 8a214.7 214.7 0 0048.23 20.46 212.5 212.5 0 0032.75 6.67zm-84.63 39.23a61.09 61.09 0 01-4.86 24.07 40.59 40.59 0 01-2.35 4.95 62.35 62.35 0 01-55.16 33.3c2.51 0 5 .08 7.62 0-2.59.16-5.11.16-7.62.16-3.73 0-7.45-.16-11-.24a413.53 413.53 0 01-152.27-33.22A413.31 413.31 0 0197.6 682.27c3.16.4 6.49.65 9.73.73.81 0 1.62.08 2.43.08a91 91 0 0024.72-3.41 389.66 389.66 0 0045.78 41.42c7.62 5.91 15.56 11.42 23.67 16.77A375.93 375.93 0 00241 759.34c8.75 4.45 17.67 8.67 26.74 12.39a389.27 389.27 0 0058.6 18.89c11 2.59 22.2 4.7 33.55 6.4a57.1 57.1 0 01-2.44-5.19 61.76 61.76 0 01-4.74-23.83c0-.65.08-1.22.08-1.87a55.4 55.4 0 01.65-7.13A62.35 62.35 0 01415 705.69v-.24a61.69 61.69 0 0133.07 9.64c1.29.89 2.51 1.7 3.8 2.59a62.07 62.07 0 0124.72 41.17 68.68 68.68 0 01.65 7.13c.03.57.11 1.22.11 1.78zm-29.34 0a32.89 32.89 0 00-9.64-23.34 33.26 33.26 0 00-23.39-9.64v.22a33 33 0 00-33 33v.16a15.66 15.66 0 00.08 1.94A33 33 0 00415 801v-.16A33 33 0 00447.93 770a15.74 15.74 0 00.07-2zm233.2-292a185.05 185.05 0 01-53 20.55 240.76 240.76 0 0113 27 213.89 213.89 0 0037.2-13.16c1.38-.71 2.79-1.38 4.2-2 4.46-2.18 8.89-4.46 13.25-7a214.93 214.93 0 0041.83-31.54 212.14 212.14 0 0022.18-25q6-8 11.25-16.5c2.6-4.21 5-8.53 7.3-12.9-2.27-4.33-4.65-8.6-7.22-12.78q-5.26-8.55-11.32-16.62A214.47 214.47 0 00641.1 307a243.9 243.9 0 01-13 27 184.56 184.56 0 01116.5 81.17 184 184 0 01-63.39 60.6zm-69.58 52.85c.08 0 .08 0 .08.08l-.24-.08a214.21 214.21 0 01-69.21-3.81A214.09 214.09 0 01454 482.67a208.77 208.77 0 012.43 37.76 215.33 215.33 0 01-7.29 50.49c-.81 3.16-1.78 6.24-2.76 9.32a216.49 216.49 0 01-31.36 62v-.16a212.33 212.33 0 01-16.94-27.23 224.06 224.06 0 01-14.42-34.68 219.07 219.07 0 01-10.05-59.65 228.12 228.12 0 012.43-37.76 215.5 215.5 0 01-78.85 39.87c-3.16.81-6.32 1.54-9.48 2.27a208.81 208.81 0 01-37.28 4.86 200.93 200.93 0 01-32-1l.08-.08a212.87 212.87 0 0115.08-28.2 221.79 221.79 0 0122.85-29.91A217.46 217.46 0 01303.12 432 211.77 211.77 0 01337 415.24a213.34 213.34 0 01-73.91-48.38c-2.35-2.35-4.62-4.62-6.8-7.05a211.81 211.81 0 01-22.78-29.9 202.61 202.61 0 01-15.15-28.2v-.08l.16.08a220.32 220.32 0 0131.93-1 218.09 218.09 0 0137.28 4.86A213.91 213.91 0 01376 347.66a210.23 210.23 0 01-2.46-37.66 216.43 216.43 0 017.29-50.56c.9-3.16 1.79-6.32 2.76-9.4a217.77 217.77 0 0114.5-34.69A200.43 200.43 0 01415 188.17l.08-.08v.16a215.89 215.89 0 0116.86 27.23 227.48 227.48 0 0114.42 34.69 215.92 215.92 0 0110.05 59.64 218.38 218.38 0 01-2.43 37.77 207.13 207.13 0 0131.52-20.91 215.48 215.48 0 0147.33-19c3.16-.82 6.32-1.54 9.56-2.27a207.92 207.92 0 0137.2-4.87 200.89 200.89 0 0132 1.06h.16l-.24.08a215.14 215.14 0 01-37.93 58.1 218.11 218.11 0 01-46.67 38.5A213.08 213.08 0 01493 415.08a214.64 214.64 0 0174 48.38c2.27 2.35 4.54 4.7 6.73 7.05a211.25 211.25 0 0122.77 29.91 200.45 200.45 0 0115.13 28.2zm-167.2-130.47c3.48-.56 6.89-1.21 10.29-1.94h.16c6.32-1.46 12.56-3.16 18.64-5.19a181.86 181.86 0 0018.56-7.37 186.13 186.13 0 0066.61-51.46 185.29 185.29 0 00-78 32 189 189 0 00-15.39 12.24 182.65 182.65 0 00-14 13.69c0 .08 0 .16-.08.16-2.33 2.61-4.6 5.12-6.79 7.87zm-40.68-65.31a178.74 178.74 0 002.83 19.45 168.86 168.86 0 004.95 18.8c0 .16 0 .24.08.24 1.05 3.32 2.11 6.56 3.4 9.81 1.22-3.25 2.35-6.49 3.32-9.81a.27.27 0 00.09-.24 155.87 155.87 0 004.86-18.64 183.4 183.4 0 003-19.86c.56-5.67.81-11.42.81-17.18A187.92 187.92 0 00415 249.19a185.53 185.53 0 00-11.23 83.64zm-18.24 99.35q-5.22.85-10.21 1.95h-.16c-6.4 1.45-12.64 3.16-18.72 5.18a173.51 173.51 0 00-18.56 7.38 184.89 184.89 0 00-36.3 22 189.23 189.23 0 00-30.31 29.5 187.32 187.32 0 0078-32c5.35-3.81 10.53-7.95 15.48-12.24s9.48-8.83 13.94-13.7a.28.28 0 01.08-.16c2.31-2.64 4.58-5.23 6.76-7.91zm0-34c-2.18-2.75-4.45-5.26-6.8-7.86-.08-.08-.08-.08-.08-.16-4.46-4.78-9.08-9.32-13.86-13.53a165.43 165.43 0 00-15.64-12.48A184.62 184.62 0 00312 343.69a191 191 0 00-40.68-11.51A186.19 186.19 0 00338 383.72a170 170 0 0018.32 7.21 173.29 173.29 0 0018.8 5.27h.16q5.16 1.1 10.25 1.94zm40.69 99.44a178.67 178.67 0 00-7.78-38.41c0-.08 0-.08-.09-.16-1.05-3.33-2.1-6.57-3.32-9.81-1.29 3.24-2.35 6.48-3.4 9.81-.08.08-.08.08-.08.16a176.66 176.66 0 00-4.87 18.72 165.17 165.17 0 00-2.91 19.85A184.26 184.26 0 00415 581.05a186 186 0 0011.22-83.47zm6-84.77a17.38 17.38 0 10-17.34 17.43 17.36 17.36 0 0017.33-17.47zm126.5 85.34A185.91 185.91 0 00492 446.61a180.51 180.51 0 00-18.4-7.22 175.73 175.73 0 00-18.72-5.26h-.24q-5-1.1-10.21-1.95c2.27 2.68 4.46 5.27 6.81 7.86.08.08.08.08.08.16 4.45 4.79 9.07 9.32 13.86 13.54a176.67 176.67 0 0015.64 12.48A185 185 0 00518 486.64a182.24 182.24 0 0040.71 11.51zM827 464.52a418.73 418.73 0 01-22 92.06 73.94 73.94 0 00-4.21-8.92c-.41-.65-.73-1.46-1.14-2.11a93.32 93.32 0 00-15.31-19.69 383.28 383.28 0 0013-60.37c1.3-9.56 2.19-19.21 2.76-28.85a399.54 399.54 0 00.08-42.95c-.57-9.81-1.46-19.61-2.76-29.34a381 381 0 00-12.88-60.13c-3.24-10.86-7-21.64-11.27-32.25-1.05 1.62-2.1 3.16-3.24 4.7a61.53 61.53 0 01-18.31 16 9.8 9.8 0 01-1.62.81 45.43 45.43 0 01-6.4 3 62.17 62.17 0 01-77-26.66l-.24.16a61.73 61.73 0 01-8.19-33.47c.08-1.54.16-3.08.32-4.62a61.63 61.63 0 0123.34-42 63.47 63.47 0 015.84-4.14l1.46-1a62.33 62.33 0 0123.22-7.75c1.78-.24 3.64-.32 5.42-.41A62.34 62.34 0 01774 207.14c-1.13-2.11-2.18-4.06-3.4-6.08 1.3 2.19 2.67 4.29 4 6.56 1.87 3.16 3.49 6.49 5.27 9.73A412 412 0 01827 464.52zm-77.84-242.31l-.17.16h-.08v-.08a33 33 0 00-43.11-13 9.25 9.25 0 00-1.7.89.27.27 0 00-.24.09 33.17 33.17 0 00-12.08 45.13l.24-.16a33 33 0 0045.06 12.16c0-.08.08-.08.16-.08a11.89 11.89 0 011.62-1.06 33.16 33.16 0 0010.3-44.05zm28.93 393.85c-1.14 2.27-2.27 4.46-3.57 6.73l-.16-.17v-.08c.08-.16.16-.24.24-.4 1.22-2.14 2.4-4.06 3.49-6.08zm-3.73 6.48v.08l.16.17c-1.86 3.16-3.81 6.23-5.75 9.31a413.18 413.18 0 01-36.06 50.09 412.57 412.57 0 01-154.47 114.42 417 417 0 01-90.68 27.07 95.79 95.79 0 005.59-8.18c.41-.65.9-1.38 1.3-2a93.4 93.4 0 009.32-23.1 390.68 390.68 0 0058.75-19c9-3.73 17.75-7.7 26.42-12.07a388.62 388.62 0 0037.2-21.4c8.18-5.43 16.21-11 24.07-17a377.09 377.09 0 0045.62-41.25c7.78-8.26 15.24-16.85 22.29-25.85-1.87-.08-3.81-.24-5.67-.48a62.18 62.18 0 01-23-7.78c-.57-.33-1-.73-1.62-1.06a47.4 47.4 0 01-5.75-4 62.33 62.33 0 01-15.4-80.06h-.24l.08-.09a61.42 61.42 0 0124.79-23.82c1.38-.65 2.76-1.38 4.14-2a62.48 62.48 0 0148.05-.81 67.82 67.82 0 016.49 3 16.42 16.42 0 011.54.89A61.47 61.47 0 01770 553.66a54.09 54.09 0 013.08 4.54 62.34 62.34 0 011.54 63.94c-.1.16-.18.24-.26.4zM748.91 608a32.94 32.94 0 00-10.13-44c-.56-.32-1-.73-1.62-1a.29.29 0 00-.24-.08A32.91 32.91 0 00691.86 575l.16.08a33 33 0 0012.08 45.14h.08a9 9 0 001.78.89 33 33 0 0043.2-13L749 608zM578.16 416a96.82 96.82 0 0037.61 10 94.16 94.16 0 0027.23-2.31 96.68 96.68 0 0021.6-7.69c1.46-.73 3.14-1.32 3.42-3.27-.61-1.89-2.3-2.43-3.76-3.16a99.53 99.53 0 00-43-10.07 88.8 88.8 0 00-14.1 1.14 93.7 93.7 0 00-29.62 9.41 4.5 4.5 0 00-2.76 2.75c1.08 1.96 1.22 2.08 3.38 3.2zm-325.94-1.49a96.59 96.59 0 00-39-10.29 94.88 94.88 0 00-23.22 1.71 97.94 97.94 0 00-24.76 8.4c-1.38.68-2.94 1.28-3.27 3.09 1.11 1.95 1.1 2 3.62 3.22a98.73 98.73 0 0043.24 10.1 92 92 0 0017.58-1.7 94.62 94.62 0 0025.86-8.77c1.22-.62 2.5-1.22 2.86-2.77-.13-1.77-1.62-2.36-2.91-3.01zm82-140.3a108.16 108.16 0 00-2.83-18.33q-9.49-36.2-40.47-57.22c-1.21-.82-2.4-1.74-4-1.61-1.81.89-1.68 2.55-1.55 4.1a107.1 107.1 0 002.88 18.33c6.25 23.68 19.37 42.56 39.54 56.51 1.43 1 2.81 2.19 4.81 2.21 1.81-.82 1.8-2.43 1.66-4.01zm161.47 282a103.42 103.42 0 004.59 24.28 97 97 0 0038.58 51c1.29.88 2.54 1.89 4.19 1.7 1.69-.94 1.62-2.48 1.51-3.94a103.76 103.76 0 00-4.56-24.53 96.35 96.35 0 00-37.9-50.5c-1.44-1-2.81-2.2-4.91-2.12-1.5 1.82-1.62 2.1-1.46 4.1zm-200.2 77.25a96.68 96.68 0 0033.7-39.46 90.62 90.62 0 008.81-35.48c0-1.25.29-2.57-.7-3.67-1.56-1.07-2.8 0-4 .73a86.54 86.54 0 00-12.36 9.53 96.68 96.68 0 00-30.12 54.48 63.21 63.21 0 00-1.39 12.28c0 1.28 0 2.59 1.45 3.44 1.85.38 3.23-.89 4.65-1.86zm201.45-358.92c2.42-1.68 4.87-3.33 7.16-5.17 19-15.32 30.6-35 35.14-59a63.53 63.53 0 001.33-12c0-1.38 0-2.82-1.57-3.5-1.84-.22-3.15.93-4.51 1.86-21.11 14.63-34.67 34.42-40.48 59.46a69.12 69.12 0 00-2 16.34c0 1.27-.11 2.62 1.48 3.22a5 5 0 003.45-1.21z" data-name="Layer 2"/>
</svg>
