<svg xmlns="http://www.w3.org/2000/svg" xmlns:xlink="http://www.w3.org/1999/xlink" viewBox="0 0 30.44 106.27"><defs><style>.cls-1{mask:url(#mask);filter:url(#luminosity-noclip-2);}.cls-2,.cls-5{mix-blend-mode:multiply;}.cls-2{fill:url(#linear-gradient);}.cls-3{isolation:isolate;}.cls-4{mask:url(#mask-2);}.cls-5{opacity:0.2;fill:url(#linear-gradient-2);}.cls-6{fill:#f5d5b5;}.cls-7{fill:#dadeda;}.cls-8{fill:#d5afcb;}.cls-9{fill:#afd9c4;}.cls-10{fill:#ebefeb;}.cls-11{fill:#662e2a;}.cls-12{fill:#f9d8c0;}.cls-13{fill:#999;}.cls-14{fill:#494949;}.cls-15{fill:#d9ac7c;}.cls-16{fill:#d1a16d;}.cls-17{filter:url(#luminosity-noclip);}</style><filter id="luminosity-noclip" x="0" y="-7939.37" width="29.8" height="32766" filterUnits="userSpaceOnUse" color-interpolation-filters="sRGB"><feFlood flood-color="#fff" result="bg"/><feBlend in="SourceGraphic" in2="bg"/></filter><mask id="mask" x="0" y="-7939.37" width="29.8" height="32766" maskUnits="userSpaceOnUse"><g class="cls-17"/></mask><linearGradient id="linear-gradient" y1="104.69" x2="29.8" y2="104.69" gradientUnits="userSpaceOnUse"><stop offset="0" stop-color="#fff"/><stop offset="1"/></linearGradient><filter id="luminosity-noclip-2" x="0" y="103.11" width="29.8" height="3.16" filterUnits="userSpaceOnUse" color-interpolation-filters="sRGB"><feFlood flood-color="#fff" result="bg"/><feBlend in="SourceGraphic" in2="bg"/></filter><mask id="mask-2" x="0" y="103.11" width="29.8" height="3.16" maskUnits="userSpaceOnUse"><g class="cls-1"><path class="cls-2" d="M26.09,106.11c1.33,0,2.88-.24,3.55-1.39a1,1,0,0,0,.13-.73c-.16-.45-.75-.52-1.23-.51l-13.71.24c-2.25,0-4.52.17-6.77.11-1.37,0-2.59-.64-3.93-.72s-4.37.64-4.12,2.32c1.19,1.31,8.83.68,13.13.78S21.77,106.11,26.09,106.11Z"/></g></mask><linearGradient id="linear-gradient-2" y1="104.69" x2="29.8" y2="104.69" gradientUnits="userSpaceOnUse"><stop offset="0"/><stop offset="1"/></linearGradient></defs><title>bespoke_new_parent</title><g class="cls-3"><g id="Layer_2" data-name="Layer 2"><g id="Object"><g class="cls-4"><path class="cls-5" d="M26.09,106.11c1.33,0,2.88-.24,3.55-1.39a1,1,0,0,0,.13-.73c-.16-.45-.75-.52-1.23-.51l-13.71.24c-2.25,0-4.52.17-6.77.11-1.37,0-2.59-.64-3.93-.72s-4.37.64-4.12,2.32c1.19,1.31,8.83.68,13.13.78S21.77,106.11,26.09,106.11Z"/></g><path class="cls-6" d="M17.81,27.34a10.67,10.67,0,0,1-1,1.71c-1.05,1.63-2.13,3.23-3.24,4.82a.58.58,0,0,1-.26.23A.54.54,0,0,1,13,34l-.72-.32a.35.35,0,0,1-.17-.12c-.09-.12,0-.28.06-.4,1.41-2.34,2.83-4.8,3.08-7.51.06-.65.05-1.29.07-1.94a1.53,1.53,0,0,1,.45-1.28,1.5,1.5,0,0,1,.84-.2c.37,0,1.44-.13,1.71.17s.09,1.14.09,1.48A9.09,9.09,0,0,1,17.81,27.34Z"/><path class="cls-6" d="M28,12c.25-.07.55-.13.73.05a1.3,1.3,0,0,1,.15.18c.29.25.74-.13,1.11,0a.56.56,0,0,1,.35.38,1.05,1.05,0,0,1-.63,1.17,3,3,0,0,1-1.41.19c-1.92,0-3.85-.07-5.76-.27-.39,0-.86-.14-1-.51a.78.78,0,0,1,.6-1,16.51,16.51,0,0,1,1.93.26A11.84,11.84,0,0,0,28,12Z"/><path class="cls-7" d="M20.69,11.53a4.49,4.49,0,0,0,1.09.16,1.05,1.05,0,0,1,.53.11c.3.21.24.67.13,1s-.18.49-.28.73a.9.9,0,0,1-.31.43.94.94,0,0,1-.37.11A6.83,6.83,0,0,1,19.27,14a1.34,1.34,0,0,1-.55-.19,1.26,1.26,0,0,1-.42-.71c-.13-.5-.28-1.44.24-1.78S20.08,11.37,20.69,11.53Z"/><path class="cls-6" d="M5.56,7.11a.59.59,0,0,0-.46-.17c-.12,0-.22.13-.34.17s-.36,0-.54,0c-.47,0-.74.61-.57,1.05a2,2,0,0,0,1,.95,18.22,18.22,0,0,0,8.16,2.26.27.27,0,0,0,.33-.25A1.42,1.42,0,0,0,13.08,10c-.18-.22-.65-.17-.93-.21a15.54,15.54,0,0,1-2.32-.52A14.56,14.56,0,0,1,5.56,7.11Z"/><path class="cls-8" d="M4.8,33.36c-.09-.26-.24-.5-.32-.76a.78.78,0,0,1,.1-.78.67.67,0,0,0,.16-.18c.07-.15,0-.32-.19-.41A.85.85,0,0,0,4,31.1L4.1,31a1.7,1.7,0,0,0-.48-1.14.88.88,0,0,0-.77-.13.86.86,0,0,0-.55.55,1.5,1.5,0,0,0,0,.6c0,.46.1.93.18,1.4A3.49,3.49,0,0,0,3,33.77a1.35,1.35,0,0,0,1.41.53.81.81,0,0,0,.27-.16A.78.78,0,0,0,4.8,33.36Z"/><path class="cls-6" d="M11.86,26.14a.91.91,0,0,1-.06.36.92.92,0,0,1-.32.36,38.44,38.44,0,0,1-5.65,3.57,5.74,5.74,0,0,1-1.39.62.33.33,0,0,1-.22,0,.32.32,0,0,1-.14-.18l-.19-.43a.5.5,0,0,1-.05-.36A.43.43,0,0,1,4,29.89,33.9,33.9,0,0,1,7.48,27a2,2,0,0,0,.69-.64,1.88,1.88,0,0,0,.14-.85c0-1.74,0-3.48-.05-5.21a1.67,1.67,0,0,1,.16-.94,1.3,1.3,0,0,1,.41-.4c.62-.43,2.6-1.26,3.12-.27A5.33,5.33,0,0,1,12,20.84c0,.84,0,1.67-.06,2.5S11.91,25.21,11.86,26.14Z"/><path class="cls-9" d="M14,22.61a1.58,1.58,0,0,0,.63,1.16,1.54,1.54,0,0,0,.73.17,9.08,9.08,0,0,0,2.6-.18.59.59,0,0,0,.56-.66,14.49,14.49,0,0,0-.72-3,1.45,1.45,0,0,0-.14-.46,1.16,1.16,0,0,0-.78-.44,3.14,3.14,0,0,0-2,.06,2.2,2.2,0,0,0-1.14,1.45,1.23,1.23,0,0,0,0,.8A5.39,5.39,0,0,1,14,22.61Z"/><path class="cls-9" d="M8,20.8c.14.59-1.11,1.67-1,2.25a1.35,1.35,0,0,0,.25.6,1.38,1.38,0,0,0,.62.48,16,16,0,0,0,5.17.05.81.81,0,0,0,.51-.26,1.21,1.21,0,0,0,0-1c-.34-1.31.92-1.9.93-3.26,0-.42-1.26-1.69-1.5-2a1.42,1.42,0,0,0-.51-.4,3.57,3.57,0,0,0-3.78.46C7.6,18.56,7.64,19.52,8,20.8Z"/><path class="cls-10" d="M17.44,10.75c.63.2,1.36.21,1.82.67a2.26,2.26,0,0,1,.47.86,3.65,3.65,0,0,1,.28,2,9.21,9.21,0,0,1-1.38,2.48,4.07,4.07,0,0,0-.46,2.22,11.3,11.3,0,0,1,.1,1.17,1.28,1.28,0,0,1-.49,1c-.59.4-1.37,0-2.09-.08-1-.06-1.93.67-2.91.51-.79-.13-1.37-.78-2.07-1.16a3.12,3.12,0,0,0-2-.32,1.41,1.41,0,0,1-.76,0c-.5-.18-.49-.89-.39-1.42a10.63,10.63,0,0,1,.76-2.48,3.86,3.86,0,0,1,1.78-1.83c.5-.23,1.06-.31,1.53-.58a4.87,4.87,0,0,0,1.75-2.67c.25-.63,1-2.4,1.91-2.31.45,0,.56.68.83,1A2.94,2.94,0,0,0,17.44,10.75Z"/><path class="cls-11" d="M28.54,29.87a2.67,2.67,0,0,0-.85-1.37,2.61,2.61,0,0,0-1.56-.31,1.21,1.21,0,0,0-.8.19,1.25,1.25,0,0,0-.31.52l-1.63,4.42a.91.91,0,0,0-.07.7,1,1,0,0,0,.73.42l3.77.81a2.64,2.64,0,0,0,1.62,0c.63-.31.46-.74.34-1.36A25,25,0,0,0,28.54,29.87Z"/><path class="cls-12" d="M6.63,26.4a3.34,3.34,0,0,0-.27,1.45,3.82,3.82,0,0,0,1.13,1.78A38,38,0,0,1,10,33.27c.6.86,1.28,1.66,2,2.46l1.41,1.64a2.13,2.13,0,0,0,.73.64,2,2,0,0,0,1.78-.39,8.22,8.22,0,0,0,1.24-1,2.19,2.19,0,0,0,.65-.86,2.38,2.38,0,0,0-.81-2.32,28.38,28.38,0,0,0-2.76-2.38A29.06,29.06,0,0,1,11.92,29a4.56,4.56,0,0,1-1.5-2.62,5.92,5.92,0,0,1,.13-2.26c.25-.78.36-1.8.55-2.6.37-1.53.74-3.05,1-4.6a.56.56,0,0,0-.07-.48.86.86,0,0,0-1.37,0,14.89,14.89,0,0,0-1.54,3.25C8.26,21.92,7.28,24.14,6.63,26.4Z"/><path class="cls-13" d="M7.75,68.17c-1.22,2.22-2.57,4.49-2.76,7a17.27,17.27,0,0,0,.28,3.66c1,7.29,1.73,15.38,2.06,22.74.84.1,1.09.34,1.93.44a1.2,1.2,0,0,0,.8-.09,1.15,1.15,0,0,0,.38-.8,72.74,72.74,0,0,0,1.19-15.51,26.71,26.71,0,0,1,.2-7.53c.54-2.24,3.51-3.74,4.74-5.69a28,28,0,0,1,3.54-4.76c1.85-1.9,2.45-3.83,4-6,.64-.92,1.1-2.21.44-3.12a3,3,0,0,0-1.3-.89,28.11,28.11,0,0,0-5.94-1.88,10.1,10.1,0,0,0-3-.42c-1.08.16-1,.39-1.39,1.5A82.19,82.19,0,0,1,7.75,68.17Z"/><path class="cls-13" d="M27.25,62.83a21.62,21.62,0,0,1,.14,4.25,31.27,31.27,0,0,1-1.67,6.42c-2.8,8.89-3.37,18.31-3.92,27.62l-3.51.15-.17-22a18.11,18.11,0,0,0-.49-4.88c-.6-2-1.92-3.85-2.22-6s.53-4.43,1.45-6.49c1.21-2.72,3.49-7,7.16-6.49C27.12,55.86,27,60.55,27.25,62.83Z"/><path class="cls-12" d="M26.17,26.3A12.1,12.1,0,0,0,26.34,22a5,5,0,0,0-2.29-3.48,4.66,4.66,0,0,0-5.25.87,7.68,7.68,0,0,0-2.2,5.1,7.17,7.17,0,0,0,.12,2.12C17.21,28.7,19.54,32.2,22,32S25.8,28.4,26.17,26.3Z"/><path class="cls-11" d="M30.42,37.56c0-1.85-.41-4.08-2-4.7a3.86,3.86,0,0,0-2-.08l-3.82.5a17.77,17.77,0,0,1-4.05.22,2.85,2.85,0,0,0-.84-1.11,18.08,18.08,0,0,0-2.5-1.87,2.69,2.69,0,0,0-.66-.32,2.2,2.2,0,0,0-.81-.05,6.37,6.37,0,0,0-2.28.67C10.27,31,9,32.72,8.87,34.1a4.14,4.14,0,0,0,1.66,3.19,10.69,10.69,0,0,1,2.56,2.55c1.08,1.91.47,4.37,0,6.56-.72,3.51-2.4,7-2.14,10.6a4.69,4.69,0,0,0,.38,1.75c.47.91,2.9,1.45,3.85,1.56s1.89,0,2.83.09c1.64.19,3.12,1.12,4.71,1.57s4.72.6,5.63-.93A5.85,5.85,0,0,0,29,59,107.78,107.78,0,0,0,30.42,37.56Z"/><path class="cls-14" d="M10,101.67a.62.62,0,0,1,.3.16.55.55,0,0,1,.1.25,7.91,7.91,0,0,1,.13,2.52.51.51,0,0,1-.09.26A.67.67,0,0,1,10,105a7.06,7.06,0,0,1-3.1-.11c-1-.23-2-.56-3-.73a5.59,5.59,0,0,1-1.36-.3c-.41-.17-.77-.52-.73-.9a1.21,1.21,0,0,1,.16-.45,2.11,2.11,0,0,1,.92-1.06,2.36,2.36,0,0,1,1.42-.08c.48.1.93.26,1.41.33.71.11,1.15-.34,1.8-.32A10.17,10.17,0,0,1,10,101.67Z"/><path class="cls-14" d="M15.3,100.94a1.58,1.58,0,0,1,1.26-.08c.3.11.56.3.84.43a.82.82,0,0,0,.46.1.37.37,0,0,0,.31-.3c0-.07,0-.15,0-.21s.1-.07.16-.08a12.41,12.41,0,0,1,2.72-.18,1,1,0,0,1,.74.22.86.86,0,0,1,.2.36,3.51,3.51,0,0,1,.12.79,12,12,0,0,1-.09,2.4.66.66,0,0,1-.09.31.7.7,0,0,1-.43.25,9.33,9.33,0,0,1-2.17.26,2.19,2.19,0,0,1-.57,0,2.37,2.37,0,0,1-.69-.35,19.51,19.51,0,0,0-2.9-1.52c-.45-.2-1.19-.6-1-1.23.06-.21.27-.36.41-.51A2.47,2.47,0,0,1,15.3,100.94Z"/><path class="cls-6" d="M16.45,5.4a7.18,7.18,0,0,1,2.08-3.52,3.34,3.34,0,0,1,3.85-.45A3.35,3.35,0,0,1,23.55,5a7.26,7.26,0,0,1-2.19,3.33c-1,.93-2.61,2-3.93,1.12S16,6.87,16.45,5.4Z"/><path class="cls-10" d="M4.78,30.37c.06.12.13.25.18.37a.17.17,0,0,1,0,.12.19.19,0,0,1-.08.1c-.18.12-.43.13-.63.24L4,31.34a.3.3,0,0,1-.26,0,.52.52,0,0,1-.1-.11,5.72,5.72,0,0,1-.41-.67.62.62,0,0,1-.07-.23c0-.18.17-.3.32-.4s.54-.42.74-.38S4.68,30.18,4.78,30.37Z"/><path class="cls-12" d="M10.63,15.23a6.27,6.27,0,0,1-.26-1.12.48.48,0,0,1,0-.24.46.46,0,0,1,.14-.2,5.21,5.21,0,0,1,.72-.6,1.16,1.16,0,0,1,.4-.2.44.44,0,0,1,.42.13.86.86,0,0,1,.13.39c0,.14.1.3.23.33h.2a.33.33,0,0,1,.21.36,1.65,1.65,0,0,1-.16.42,2.85,2.85,0,0,0-.11.39c-.12.48-.42,1.57-.49,2,0,.13-.05.28-.17.33h-.1a1.91,1.91,0,0,1-1.26-.43c-.11-.12,0-.34,0-.49A7.48,7.48,0,0,0,10.63,15.23Z"/><path class="cls-12" d="M17.73,18a1.5,1.5,0,0,1-.29-.27.31.31,0,0,1,0-.38.4.4,0,0,1,.16-.08,2.39,2.39,0,0,0,1.27-1.09c.1-.17.2-.37.39-.37a.37.37,0,0,1,.33.27c0,.15,0,.31.07.46.1.46.51.78.8,1.17a.85.85,0,0,1,.2.59.83.83,0,0,1-.35.5,1.82,1.82,0,0,1-.78.4.89.89,0,0,1-.95-.28A7.49,7.49,0,0,0,17.73,18Z"/><path class="cls-15" d="M17.47,20.29a16.78,16.78,0,0,1-1,1.73,5.45,5.45,0,0,0-.72,2.64A1.78,1.78,0,0,0,16,25.75a5.74,5.74,0,0,0,1,.8,3.42,3.42,0,0,1,.65.85,19.83,19.83,0,0,1,1.76,3.9,1.36,1.36,0,0,0,.34.61,1.19,1.19,0,0,0,.72.18l2.62.1a2.06,2.06,0,0,0,.86-.09,2.62,2.62,0,0,0,.9-.94c.85-1.11,2.33-1.82,2.63-3.19a15.39,15.39,0,0,0,.07-1.8,11.57,11.57,0,0,1,.39-1.54A10.54,10.54,0,0,0,28.13,23c.08-.69.17-1.38.25-2.07a1.12,1.12,0,0,0-.05-.63A1,1,0,0,0,28,20a11.39,11.39,0,0,0-6-2.36,6.46,6.46,0,0,0-2.9.28C18.13,18.37,17.84,19.38,17.47,20.29Z"/><path class="cls-7" d="M14.06,8.84c-.51.07-1,.25-1.5.37a2.51,2.51,0,0,1-1.51,0,3,3,0,0,0,0,2,.52.52,0,0,0,.19.27.52.52,0,0,0,.28.06c1,.06,2.08.09,3.12.1a.74.74,0,0,0,.69-.23.85.85,0,0,0,.09-.33,4.68,4.68,0,0,0,0-1.86C15.25,8.76,14.47,8.78,14.06,8.84Z"/><path class="cls-16" d="M23.85,2.82a2.15,2.15,0,0,0-.28-.66,3.84,3.84,0,0,0-1.14-.8c-.34-.2-.64-.48-1-.65a2,2,0,0,0-.84-.2A1.74,1.74,0,0,0,18.5.23c-.43.26-.73.7-1.17.94s-.67.22-1,.37c-.54.23-.66.45-.56.65a1.68,1.68,0,0,0-.45.3,1.92,1.92,0,0,0-.55,1.8,3.1,3.1,0,0,1,.19,1c-.07.57-.7.94-.74,1.51a1.63,1.63,0,0,0,.31.91,7,7,0,0,1,.9,2.42,10.37,10.37,0,0,1,0,2.61c-.11,1.14-.21,2.28-.32,3.41a1.38,1.38,0,0,0,0,.64.9.9,0,0,0,.82.49,2.83,2.83,0,0,0,1-.21,1.89,1.89,0,0,1-.15-1.29c.15-.4.54-.64.79-1a1.55,1.55,0,0,0,.19-1.46c-.1-.24-.26-.46-.35-.71-.5-1.36,1.14-2.77.8-4.18a10.66,10.66,0,0,0-.64-1.32,2.56,2.56,0,0,1,.52-2.3.57.57,0,0,1,.41.41,2.61,2.61,0,0,1,.67.08.4.4,0,0,1,.21.07c.1.08.14.23.26.28s.48-.22.63-.06a.41.41,0,0,1,.07.15.85.85,0,0,0,.91.4,1.24,1.24,0,0,1,.47,0c.3.07.46.4.74.54a1.12,1.12,0,0,0,.6.09,1.17,1.17,0,0,0,.42-.09A1.07,1.07,0,0,0,23.91,6,6.26,6.26,0,0,0,23.85,2.82Z"/><path class="cls-16" d="M23.38,8.07c-.21.88-.65,1.69-.94,2.55a3.45,3.45,0,0,0,0,2.64c.35.67,1.05,1.17,1.15,1.91A2.69,2.69,0,0,1,23,16.92a4.71,4.71,0,0,0-1.85-.34,5.05,5.05,0,0,0,.24-2.34,10.06,10.06,0,0,1-.61-2,3.91,3.91,0,0,1,.46-1.61,9.63,9.63,0,0,0,.7-4.08,1.63,1.63,0,0,1,.12-.88c.4-.68,1-.09,1.22.35A3.21,3.21,0,0,1,23.38,8.07Z"/></g></g></g></svg>