<svg xmlns="http://www.w3.org/2000/svg" xmlns:xlink="http://www.w3.org/1999/xlink" viewBox="0 0 37.68 93.86"><defs><style>.cls-1{mask:url(#mask);filter:url(#luminosity-noclip-2);}.cls-2,.cls-5{mix-blend-mode:multiply;}.cls-2{fill:url(#linear-gradient);}.cls-3{isolation:isolate;}.cls-4{mask:url(#mask-2);}.cls-5{opacity:0.2;fill:url(#linear-gradient-2);}.cls-6{fill:#e8decd;}.cls-7{fill:#f2e7d6;}.cls-8{fill:#333;}.cls-9{fill:#b0b3b0;}.cls-10{fill:#ced1ce;}.cls-11{fill:#aa6a64;}.cls-12{fill:#d5afcb;}.cls-13{fill:#666;}.cls-14{fill:#6d9dbf;}.cls-15{filter:url(#luminosity-noclip);}</style><filter id="luminosity-noclip" x="4.98" y="-8430.25" width="32.7" height="32766" filterUnits="userSpaceOnUse" color-interpolation-filters="sRGB"><feFlood flood-color="#fff" result="bg"/><feBlend in="SourceGraphic" in2="bg"/></filter><mask id="mask" x="4.98" y="-8430.25" width="32.7" height="32766" maskUnits="userSpaceOnUse"><g class="cls-15"/></mask><linearGradient id="linear-gradient" x1="4.98" y1="92.23" x2="37.68" y2="92.23" gradientUnits="userSpaceOnUse"><stop offset="0" stop-color="#fff"/><stop offset="1"/></linearGradient><filter id="luminosity-noclip-2" x="4.98" y="90.59" width="32.7" height="3.27" filterUnits="userSpaceOnUse" color-interpolation-filters="sRGB"><feFlood flood-color="#fff" result="bg"/><feBlend in="SourceGraphic" in2="bg"/></filter><mask id="mask-2" x="4.98" y="90.59" width="32.7" height="3.27" maskUnits="userSpaceOnUse"><g class="cls-1"><path class="cls-2" d="M36.36,92.49c.55-.06,1.24-.24,1.31-.78s-.58-.92-1.13-1a10.3,10.3,0,0,0-2.15-.08q-11.26.36-22.54,0A26.46,26.46,0,0,0,8,90.73c-.69.08-2.6.19-2.91,1-.7,1.81,3.26,2.17,4.12,2.16q8.69,0,17.37-.58C29.82,93.07,33.1,92.81,36.36,92.49Z"/></g></mask><linearGradient id="linear-gradient-2" x1="4.98" y1="92.23" x2="37.68" y2="92.23" gradientUnits="userSpaceOnUse"><stop offset="0"/><stop offset="1"/></linearGradient></defs><title>birth_doula</title><g class="cls-3"><g id="Layer_2" data-name="Layer 2"><g id="Object"><g class="cls-4"><path class="cls-5" d="M36.36,92.49c.55-.06,1.24-.24,1.31-.78s-.58-.92-1.13-1a10.3,10.3,0,0,0-2.15-.08q-11.26.36-22.54,0A26.46,26.46,0,0,0,8,90.73c-.69.08-2.6.19-2.91,1-.7,1.81,3.26,2.17,4.12,2.16q8.69,0,17.37-.58C29.82,93.07,33.1,92.81,36.36,92.49Z"/></g><path class="cls-6" d="M23.81,26.16a2.22,2.22,0,0,1-.74-.28,20.5,20.5,0,0,1-6.79-5.8c-.71-.93-1.35-2.2-.78-3.22a1.24,1.24,0,0,1,.4-.45c.69-.42,1.54.14,2.14.68a73.49,73.49,0,0,1,5.88,5.69,2.17,2.17,0,0,1,.65-.41c2.64-1.25,5.08-2.95,7.84-3.88a2.59,2.59,0,0,1,1.42-.18,1,1,0,0,1,.83,1,1.47,1.47,0,0,1-.71.9L29.67,23.4a10.75,10.75,0,0,1-4.37,2.28A2.71,2.71,0,0,1,23.81,26.16Z"/><path class="cls-7" d="M21.88,36.88a9.33,9.33,0,0,0-.09,5.63,1.21,1.21,0,0,1,.09.53,1.06,1.06,0,0,1-.65.75,10.35,10.35,0,0,1-4.93.9,68.5,68.5,0,0,1-8.1-.47c-.31-.38-.1-1,0-1.43a11.51,11.51,0,0,0-.05-4.49.94.94,0,0,1,.05-.5.82.82,0,0,1,.33-.31,11.89,11.89,0,0,1,6.32-1.84,17.35,17.35,0,0,1,2.69.24A31.87,31.87,0,0,1,21.88,36.88Z"/><path class="cls-8" d="M16.6,89.72a14.71,14.71,0,0,1,3.63.15,13.62,13.62,0,0,0,3,1.69,2.21,2.21,0,0,1,.87.49.72.72,0,0,1,.1.91,1,1,0,0,1-.81.25,35.56,35.56,0,0,1-6.67-.57.64.64,0,0,1-.37-.15.67.67,0,0,1-.14-.28A3.16,3.16,0,0,1,16.6,89.72Z"/><path class="cls-9" d="M7.24,68c.3-6.6-.33-13.34-.27-20a15.7,15.7,0,0,1,.93-6.82,1,1,0,0,1,.21-.37c.31-.32.84-.15,1.25,0a13.45,13.45,0,0,0,12.22-1.06,8.78,8.78,0,0,1,1.09,3.7,59.77,59.77,0,0,1,.67,6.24h0c0,.45,0,.9,0,1.35a59,59,0,0,1-.94,7.72,37.24,37.24,0,0,0-.51,5,17.89,17.89,0,0,1-.13,4c-.76,3.34-.76,7-1.09,10.4-.34,3.66-.68,7.32-1,11l0,.44c-.19,0-3,.69-3,0Q16.35,79,16,68.3a39.74,39.74,0,0,0-1-8.88l-.93.09L9,87.74A4.15,4.15,0,0,1,8.08,90a1,1,0,0,1-1.72-.44C6.86,82.36,6.92,75.18,7.24,68Z"/><path class="cls-7" d="M10.69,6.9a8.81,8.81,0,0,1,.36-1.84c.66-2.09,3.1-5,5.6-3.95a5,5,0,0,1,1.51,1.13A10.46,10.46,0,0,1,19.44,3.7a6.3,6.3,0,0,1,1.15,3.5,10,10,0,0,1-.79,3.4,6.14,6.14,0,0,1-2.57,3.57,4.39,4.39,0,0,1-5.3-1.54A8.17,8.17,0,0,1,10.69,6.9Z"/><path class="cls-10" d="M8.45,45c.05-.13.27-.07.22.06a4.43,4.43,0,0,0-.29,1.18c0,.16-.26.16-.24,0A4.11,4.11,0,0,1,8.45,45Z"/><path class="cls-10" d="M7.81,49.43c0-.14.24-.15.22,0L8,50.28c0,.14-.23.15-.22,0Z"/><path class="cls-10" d="M7.87,54.06a.12.12,0,0,1,.23,0V55a.12.12,0,0,1-.24,0C7.87,54.68,7.87,54.37,7.87,54.06Z"/><path class="cls-10" d="M7.73,59.27a.11.11,0,0,1,.22,0v1a.12.12,0,0,1-.23,0C7.72,59.94,7.72,59.61,7.73,59.27Z"/><path class="cls-10" d="M8,63.34c0-.13.21-.16.22,0a5.7,5.7,0,0,1,.05,1.24c0,.16-.26.16-.24,0A6.12,6.12,0,0,0,8,63.34Z"/><path class="cls-10" d="M8,68.26c0-.15.22-.14.23,0a9.4,9.4,0,0,1,0,1.5c0,.15-.24.15-.23,0A9.4,9.4,0,0,0,8,68.26Z"/><path class="cls-10" d="M7.86,73.05c0-.15.25-.16.24,0,0,.45,0,.9-.08,1.35,0,.16-.26.16-.25,0Z"/><path class="cls-10" d="M7.5,77.26a.13.13,0,0,1,.25,0,8.71,8.71,0,0,1-.07,1.53c0,.16-.28.09-.25-.07A8.93,8.93,0,0,0,7.5,77.26Z"/><path class="cls-10" d="M7.38,82.68c0-.15.24-.15.23,0l-.09.78c0,.15-.24.15-.23,0Z"/><path class="cls-10" d="M7,86.84A1.61,1.61,0,0,0,7.14,86c0-.19.25-.27.28-.08a1.81,1.81,0,0,1-.12,1C7.24,87.11,7,87,7,86.84Z"/><path class="cls-10" d="M19.34,88.42c.05-.16.31-.09.26.07a1.4,1.4,0,0,0-.07.61c0,.16-.24.16-.25,0A1.58,1.58,0,0,1,19.34,88.42Z"/><path class="cls-10" d="M19.28,85c0-.14.25-.14.23,0l-.09.79c0,.13-.23.14-.21,0Z"/><path class="cls-10" d="M19.65,80.22a3.49,3.49,0,0,0,.2-1c0-.15.26-.15.24,0a3.7,3.7,0,0,1-.21,1C19.83,80.43,19.6,80.37,19.65,80.22Z"/><path class="cls-10" d="M20.21,74.51c0-.16.28-.09.25.07a5.06,5.06,0,0,0-.09.68.12.12,0,0,1-.24,0A3.74,3.74,0,0,1,20.21,74.51Z"/><path class="cls-10" d="M20.59,70.12v1.14a.11.11,0,1,1-.22,0c0-.38,0-.76,0-1.14C20.34,70,20.59,70,20.59,70.12Z"/><path class="cls-10" d="M20.4,66.28c0-.17.25-.17.26,0a4.62,4.62,0,0,1-.06,1.23c0,.15-.25.08-.23-.06A5.72,5.72,0,0,0,20.4,66.28Z"/><path class="cls-10" d="M21,62.59c0-.16.27-.09.24.07a4.36,4.36,0,0,0,0,1c0,.16-.23.15-.25,0A3.62,3.62,0,0,1,21,62.59Z"/><path class="cls-10" d="M21.11,58.27c0-.16.23-.16.25,0a4.23,4.23,0,0,1-.07,1.23c0,.15-.24.08-.22-.06A5.08,5.08,0,0,0,21.11,58.27Z"/><path class="cls-10" d="M22,53.36v1.26a.12.12,0,0,1-.23,0c0-.42,0-.84,0-1.26A.12.12,0,0,1,22,53.36Z"/><path class="cls-10" d="M22.14,48.72c0,.45,0,.89,0,1.34a.12.12,0,0,1-.24,0V48.72A.13.13,0,0,1,22.14,48.72Z"/><path class="cls-10" d="M21.76,43.54a1.83,1.83,0,0,1,.23,1,.12.12,0,0,1-.24,0,1.69,1.69,0,0,0-.2-.85C21.48,43.52,21.69,43.4,21.76,43.54Z"/><path class="cls-11" d="M21.16,4.17A4.75,4.75,0,0,0,18.4,1.05,7,7,0,0,0,13,.26a6.27,6.27,0,0,0-3.3,3A14.47,14.47,0,0,0,8.28,7.57a2,2,0,0,0,0,.26,6.17,6.17,0,0,0-.52,1.94,14.86,14.86,0,0,1-1.57,3.39,11.4,11.4,0,0,0-.88,2.41,3.14,3.14,0,0,0,0,2,1.89,1.89,0,0,0,1.51,1.1.49.49,0,0,0,.29,0c.15-.07.2-.26.25-.42A4.87,4.87,0,0,1,8.89,15.9a15.59,15.59,0,0,1,1.9-1.2,4.31,4.31,0,0,0,1.62-1.52,2.41,2.41,0,0,0,.21-.5l.19-.14,0-.22a1.25,1.25,0,0,1,.19-.91,4.57,4.57,0,0,0,0-1.69,3.54,3.54,0,0,1-.36-1.05c0-.38.41-.78.7-.55s.21.42.42.46a7.44,7.44,0,0,1,.64-2.3,3.34,3.34,0,0,0,.66.79c.39-.8.8-1.61,1.79-1.43a10.08,10.08,0,0,0,3.1.28,1.62,1.62,0,0,0,.81-.26A1.54,1.54,0,0,0,21.16,4.17Z"/><path class="cls-7" d="M35.65,9.66a3.05,3.05,0,0,0-.75-3.09,1.94,1.94,0,0,0-.62-.42,2.36,2.36,0,0,0-1.21-.09,3,3,0,0,0-1.51.6,2.88,2.88,0,0,0-.74,1.16,4.44,4.44,0,0,0-.32,2.43c.16.86,1.08,2.63,2.37,2.2A4.67,4.67,0,0,0,35.65,9.66Z"/><path class="cls-12" d="M31.29,13.58a.31.31,0,0,1,0-.19.3.3,0,0,1,.16-.08c.84-.21,1.68-.39,2.54-.52a1.7,1.7,0,0,1,.55,0,1.33,1.33,0,0,1,.57.25,5,5,0,0,1,2,2.78,12.8,12.8,0,0,1,.43,3.43,13.52,13.52,0,0,1-.12,2.38A15.1,15.1,0,0,1,36,25.53a34.87,34.87,0,0,1-1.62,3.09,1.41,1.41,0,0,1-.46.51,1.18,1.18,0,0,1-.55.14A4.31,4.31,0,0,1,32,29.18a.66.66,0,0,1-.47-.28c-.15-.28.11-.59.3-.84a3.88,3.88,0,0,0,.57-1.9,18.82,18.82,0,0,0-.55-6.6c-.15-.55-.32-1.09-.45-1.64a9.76,9.76,0,0,1-.31-2.46C31.11,14.82,31.29,14.24,31.29,13.58Z"/><path class="cls-12" d="M29.17,16.2a5,5,0,0,0-1,.56.89.89,0,0,0-.3,1c.23.44.85.44,1.34.36a16.65,16.65,0,0,0,2.95-.78,4.22,4.22,0,0,0,2-1.23A1.72,1.72,0,0,0,34.21,14C32.51,12.15,30.56,15.46,29.17,16.2Z"/><path class="cls-13" d="M4.48,20.16a4.34,4.34,0,0,0,2.07.51.66.66,0,0,0,.31-.09.7.7,0,0,0,.22-.26,2.69,2.69,0,0,0,.35-1.47.42.42,0,0,0,0-.22A3.64,3.64,0,0,0,5.28,18C4.58,18.13,4.59,19.59,4.48,20.16Z"/><path class="cls-11" d="M3.76,21.56A4.43,4.43,0,0,0,2.2,23a2.27,2.27,0,0,0-.21,2,2.56,2.56,0,0,1,.34.89c0,.45-.36.8-.58,1.19a1.92,1.92,0,0,0,.35,2.25,2.09,2.09,0,0,0,2.26.38,2,2,0,0,1,.71-.27,2.68,2.68,0,0,1,.68.11,1.48,1.48,0,0,0,1.33-.47,1.44,1.44,0,0,0,.27-1.38c-.1-.26-.26-.48-.35-.73-.28-.75.1-1.57.15-2.37.06-1.2-.64-2.32-.72-3.51a2.44,2.44,0,0,0-.06-.55.85.85,0,0,0-1.27-.41c-.21.17-.28.51-.45.72A3.19,3.19,0,0,1,3.76,21.56Z"/><path class="cls-14" d="M23.41,43c.06-1.18.2-2.35.3-3.53a1.58,1.58,0,0,0,.12-.64,105,105,0,0,0-1-17,16.91,16.91,0,0,0-1.7-6,2.32,2.32,0,0,0-.88-1c-.42-.24-.53-.62-.94-.37a8.27,8.27,0,0,1-1.53.72,7.46,7.46,0,0,1-6.51-.86,4.73,4.73,0,0,0-3,2.69,11.36,11.36,0,0,0-.71,3.78q-.37,5.5-.77,11L2,50.08C1.25,52.83.53,55.57.08,58.37a3.14,3.14,0,0,0,0,1.33A2.92,2.92,0,0,0,2,61.33a19.58,19.58,0,0,0,5.5.94c3.19.19,6.38.2,9.57.21l5.07,0a6.09,6.09,0,0,0,2.09-.24,1.11,1.11,0,0,0,.49-.29,1.24,1.24,0,0,0,.23-.82C25.21,55.07,23.13,49.06,23.41,43Z"/><path class="cls-7" d="M12.5,18.42a1.24,1.24,0,0,1,.4-.45c.68-.44,1.54.12,2.15.65a75.17,75.17,0,0,1,6,5.59,2.37,2.37,0,0,1,.64-.42c2.62-1.29,4.82-2.3,7.76-3.61a1.94,1.94,0,0,0,.31-.17,7.1,7.1,0,0,0,1.53-1.6,1.68,1.68,0,0,1,.3-.4.46.46,0,0,1,.46-.12.3.3,0,0,1,.18.4,3,3,0,0,1,1-.53,1.06,1.06,0,0,1,1.05.31,1.29,1.29,0,0,1-.18,1.45,7,7,0,0,1-3.19,2.23c-.49.42-1.08.79-1.42,1L24.77,26a8.41,8.41,0,0,1-2.35,1.28,3.68,3.68,0,0,1-1.44.13c-3-.3-6.1-3.79-7.65-5.78C12.61,20.71,12,19.46,12.5,18.42Z"/><path class="cls-8" d="M6.27,89a13.85,13.85,0,0,1,3.17.77,12.3,12.3,0,0,0,2.36,2,1.88,1.88,0,0,1,.67.58.65.65,0,0,1-.06.82.91.91,0,0,1-.76.08,32.2,32.2,0,0,1-5.79-1.66.69.69,0,0,1-.3-.2.64.64,0,0,1-.07-.27A2.86,2.86,0,0,1,6.27,89Z"/></g></g></g></svg>