<svg xmlns="http://www.w3.org/2000/svg" xmlns:xlink="http://www.w3.org/1999/xlink" viewBox="0 0 28.95 99.2"><defs><style>.cls-1{mask:url(#mask);filter:url(#luminosity-noclip-2);}.cls-2,.cls-5{mix-blend-mode:multiply;}.cls-2{fill:url(#linear-gradient);}.cls-3{isolation:isolate;}.cls-4{mask:url(#mask-2);}.cls-5{opacity:0.2;fill:url(#linear-gradient-2);}.cls-6{fill:#a89577;}.cls-7{fill:#65627d;}.cls-8{fill:#4d6778;}.cls-9{fill:#4d4d4d;}.cls-10{fill:#537082;}.cls-11{fill:#a88c77;}.cls-12{fill:#e4e8e4;}.cls-13{fill:#ebefeb;}.cls-14{fill:#333;}.cls-15{fill:#edddb2;}.cls-16{fill:#b4c7ba;}.cls-17{filter:url(#luminosity-noclip);}</style><filter id="luminosity-noclip" x="1.27" y="-8435.03" width="25.76" height="32766" filterUnits="userSpaceOnUse" color-interpolation-filters="sRGB"><feFlood flood-color="#fff" result="bg"/><feBlend in="SourceGraphic" in2="bg"/></filter><mask id="mask" x="1.27" y="-8435.03" width="25.76" height="32766" maskUnits="userSpaceOnUse"><g class="cls-17"/></mask><linearGradient id="linear-gradient" x1="1.27" y1="97.74" x2="27.03" y2="97.74" gradientUnits="userSpaceOnUse"><stop offset="0" stop-color="#fff"/><stop offset="1"/></linearGradient><filter id="luminosity-noclip-2" x="1.27" y="96.28" width="25.76" height="2.91" filterUnits="userSpaceOnUse" color-interpolation-filters="sRGB"><feFlood flood-color="#fff" result="bg"/><feBlend in="SourceGraphic" in2="bg"/></filter><mask id="mask-2" x="1.27" y="96.28" width="25.76" height="2.91" maskUnits="userSpaceOnUse"><g class="cls-1"><path class="cls-2" d="M26.94,97.47a1.09,1.09,0,0,0-.92-.32c-5.07-.15-7.91-.72-13-.87l-1.32.17C8.41,96.23,5,96,1.9,97.19c-.29.11-.64.31-.63.63a.57.57,0,0,0,.18.36,1.84,1.84,0,0,0,1.22.36c3.81.19,7.62.37,11.43.52,2.52.09,5,.17,7.55.12a19.87,19.87,0,0,0,4.22-.41,1.94,1.94,0,0,0,.9-.4A.74.74,0,0,0,26.94,97.47Z"/></g></mask><linearGradient id="linear-gradient-2" x1="1.27" y1="97.74" x2="27.03" y2="97.74" gradientUnits="userSpaceOnUse"><stop offset="0"/><stop offset="1"/></linearGradient></defs><title>infant_feeding_support</title><g class="cls-3"><g id="Layer_2" data-name="Layer 2"><g id="Object"><g class="cls-4"><path class="cls-5" d="M26.94,97.47a1.09,1.09,0,0,0-.92-.32c-5.07-.15-7.91-.72-13-.87l-1.32.17C8.41,96.23,5,96,1.9,97.19c-.29.11-.64.31-.63.63a.57.57,0,0,0,.18.36,1.84,1.84,0,0,0,1.22.36c3.81.19,7.62.37,11.43.52,2.52.09,5,.17,7.55.12a19.87,19.87,0,0,0,4.22-.41,1.94,1.94,0,0,0,.9-.4A.74.74,0,0,0,26.94,97.47Z"/></g><path class="cls-6" d="M15.65,93.26c0,.22-.08.44-.1.66a.1.1,0,0,0,0,.09.07.07,0,0,0,.06,0l1,.22a1.64,1.64,0,0,0,.32,0,.77.77,0,0,0,.38-.14c-.06-1-.12-1.94-.09-2.91,0,.16-1.33,0-1.42.23a2.8,2.8,0,0,0,0,.82A6,6,0,0,1,15.65,93.26Z"/><path class="cls-6" d="M7.77,89.16a12.44,12.44,0,0,1,1.93,0,.28.28,0,0,1,.2.06c.09.06.09.19.08.3-.07,1.69-.3,3.36-.52,5l-1,.05c-.15,0-.76.11-.88,0s0-.61,0-.77c0-.32,0-.64,0-.95S7.68,89.17,7.77,89.16Z"/><path class="cls-7" d="M23.15,42.32a3,3,0,0,0-2.48-1c-1.89-.08-6.67-.18-7.2,2.42a27.15,27.15,0,0,0-.16,4.6c-.05,2-.06,3.92,0,5.88.06,7.78.56,15.55,1.22,23.29.37,4.28.14,8.55.56,12.82a.79.79,0,0,0-.65.1c-.19.2-.1,1-.1,1.22a.18.18,0,0,0,.26.19,30.4,30.4,0,0,1,4,0V90.67a.18.18,0,0,0,0-.1.13.13,0,0,0-.09,0l-.35-.1.07-.18a22.42,22.42,0,0,0,.41-5.13,50.26,50.26,0,0,1,1.15-6.65c1.3-6.76,1-13.78,2.24-20.55a69,69,0,0,0,1.23-7.25c.12-1.78,0-3.57.18-5.34A4.54,4.54,0,0,0,23.15,42.32Z"/><path class="cls-7" d="M14.09,45.49a5.14,5.14,0,0,0-3.11-.4c-2.1.14-3.77-1.69-5.88-1.81l-.38-.37c-1.19,7.33-.18,14.83.62,22.23.86,8,1.47,16,1.7,24.09a5.24,5.24,0,0,0,.09,1.28c-.25,0-.52-.07-.69.16a2.76,2.76,0,0,0,0,1.17c1.25.07,3.13.14,4.38.2a2.76,2.76,0,0,0,0-1.56,2,2,0,0,0-.24,0A9.76,9.76,0,0,0,10.62,89c.26-6.93.3-13.84,1.39-20.68a58.11,58.11,0,0,1,1.21-6c.46-1.69,1-3.34,1.49-5a30.69,30.69,0,0,0,1-7.26C15.74,48.34,15.48,46.36,14.09,45.49Z"/><path class="cls-8" d="M9.68,16.14a5,5,0,0,0-1.75,1.55,43.4,43.4,0,0,1-5.57,6.08A9.45,9.45,0,0,0,.5,25.59,2.4,2.4,0,0,0,.23,28a2.42,2.42,0,0,0,2.75.9,6.66,6.66,0,0,0,2.58-1.69Q7.26,25.67,8.83,24a11.17,11.17,0,0,0,2.78-4.14A10.89,10.89,0,0,0,12,17.37C12.13,16.13,10.71,15.69,9.68,16.14Z"/><path class="cls-6" d="M15.34,15.32a3.36,3.36,0,0,0,2.34-1.17c2.33-2.4,2.26-6.17,2-9.51a2,2,0,0,0-.26-1A1.92,1.92,0,0,0,18,3c-2.32,0-4.61.11-6.94.22a.89.89,0,0,0-.56.15.83.83,0,0,0-.27.55,19.42,19.42,0,0,0,.14,2.94,16.8,16.8,0,0,0,.2,3,7,7,0,0,0,2.9,4.82A3.37,3.37,0,0,0,15.34,15.32Z"/><path class="cls-9" d="M20.51,2.46A3.38,3.38,0,0,0,20,1.11,2.54,2.54,0,0,0,18.65.22,6.49,6.49,0,0,0,17,0a12.25,12.25,0,0,0-6.91,1.41,1.27,1.27,0,0,0-.34.27,1.56,1.56,0,0,0-.2.41A7.71,7.71,0,0,0,9,4.19a7.19,7.19,0,0,0,.12,1.6A21.25,21.25,0,0,0,9.52,7.9,12.63,12.63,0,0,0,11,11.32a6.13,6.13,0,0,1-.27-3.07l.15-1.6a2.31,2.31,0,0,1,.53-1.5,2,2,0,0,1,1.4-.42,4.07,4.07,0,0,0,1.48-.17L14.47,4a1.09,1.09,0,0,0,.42.86,2.51,2.51,0,0,0,.89.42,3.51,3.51,0,0,0,1.06.14c.35,0,.69-.15,1-.19a1.12,1.12,0,0,1,1,.28,1.49,1.49,0,0,1,.23.93,23,23,0,0,0,.26,2.76,2.75,2.75,0,0,1,.17-.29c.25.25.08.67,0,1a2.5,2.5,0,0,0-.11,1.18,27.66,27.66,0,0,0,1-2.95A13,13,0,0,0,20.51,2.46Z"/><path class="cls-10" d="M16.48,16.13a4.48,4.48,0,0,1,2.79.31c1.09.71,1.4,2.3,1.6,3.71.87,6.16,2.86,13.56,3.73,19.71a17,17,0,0,1,.25,3.41,5.28,5.28,0,0,1-1.1,3.1,5,5,0,0,1-2.17,1.36c-2.28.82-5.83-.38-8.21-.34-1.75,0-3.5.06-5.24,0-1.14,0-3.41,0-4.26-.82-1-1-1.14-2.8-1.06-4.36.44-8,5.42-15.42,6.85-23.28.23-1.3.42-3.24,1.88-3.19C13.2,15.79,14.8,16.24,16.48,16.13Z"/><path class="cls-11" d="M3.76,14.39a2.31,2.31,0,0,0-1,1.77,4.93,4.93,0,0,0,.37,2,6,6,0,0,0,1.06,2,3,3,0,0,0,2,1,2.68,2.68,0,0,0,2.55-1.74,3.43,3.43,0,0,0-.49-3C7.55,15.24,5.42,13.31,3.76,14.39Z"/><path class="cls-12" d="M9.67,18.92a.66.66,0,0,1,.38-.28.48.48,0,0,1,.44.25,1.33,1.33,0,0,1,.13.52,8.35,8.35,0,0,1-.3,3,1,1,0,0,1-.19.41,1,1,0,0,1-.75.27c-.79,0-2.76-.38-1.8-1.45C8.34,20.76,8.93,19.79,9.67,18.92Z"/><path class="cls-13" d="M4.07,25.3a8,8,0,0,0,.12,4,5,5,0,0,0,2.54,3,7.41,7.41,0,0,0,2.33.55,9.9,9.9,0,0,0,4.27-.22,2.31,2.31,0,0,0,.86-.46c.45-.45.52-.45.57-1.09a1,1,0,0,0-.06-.6c-.22-.44-.85-.4-1.34-.4s-1-.8-1.45-1a.76.76,0,0,1-.36-.3.9.9,0,0,1-.09-.4,12.54,12.54,0,0,1,.07-2.21,3.71,3.71,0,0,0,0-1.66c-.33-1-1.49-1.49-1.69-2.49a1.46,1.46,0,0,0-.2-.69,1,1,0,0,0-.93-.18l-2.81.41a2.19,2.19,0,0,0-1.05.27c-.25.23-.18.5-.21.83C4.51,23.59,4.24,24.44,4.07,25.3Z"/><path class="cls-6" d="M11.06,33.69a.25.25,0,0,0,0,.15.23.23,0,0,0,.16.08,21,21,0,0,0,3.34.66,1.57,1.57,0,0,0,1.07-.14,1.32,1.32,0,0,0,.45-.68c.1-.34.12-.77-.17-1s-.41-.14-.54-.31-.09-.32-.19-.44a.6.6,0,0,0-.4-.18c-.67-.12-2.41-.66-3-.29C11.38,31.82,11.07,33.26,11.06,33.69Z"/><path class="cls-8" d="M0,27.45a3.13,3.13,0,0,0,1.19,2,13.64,13.64,0,0,0,3.29,2A26.15,26.15,0,0,0,9.7,33.51a.39.39,0,0,0,.24,0,.48.48,0,0,0,.18-.17,5.86,5.86,0,0,0,.83-2c-1.59-1.19-3.61-1.64-5.24-2.77-.83-.58-1.54-1.34-2.38-1.92C2.08,25.79-.14,25.13,0,27.45Z"/><path class="cls-13" d="M8.26,21.92a10.91,10.91,0,0,0,3.33-1.86,1,1,0,0,1,.63-.31.7.7,0,0,1,.6.58,1.63,1.63,0,0,1-.29,1.29,4.8,4.8,0,0,1-.95,1l-1.36,1.14a2,2,0,0,1-1.11.59c-.62,0-1.11-.49-1.51-1-.17-.2-.69-.77-.55-1.07S8,22,8.26,21.92Z"/><path class="cls-14" d="M7.32,94.33a.83.83,0,0,0-.22,0c-.28.12-.29.52-.46.77a1.26,1.26,0,0,1-.71.4c-.68.21-1.36.43-2,.67a1.06,1.06,0,0,0-.35.18,1.15,1.15,0,0,0-.31.87.49.49,0,0,0,0,.21.37.37,0,0,0,.17.13,2.5,2.5,0,0,0,1,.07c1.12-.1,2.25-.15,3.38-.16.42,0,.85,0,1.28,0a1.19,1.19,0,0,0,.75-.13,1.18,1.18,0,0,0,.37-.8c.1-.58.48-2-.22-2.33a2.16,2.16,0,0,0-1.13,0Z"/><path class="cls-14" d="M15.85,93.48a.63.63,0,0,0-.43.26.84.84,0,0,0-.08.27l-.48,3a1.2,1.2,0,0,0,0,.38,1,1,0,0,0,.13.32,3.1,3.1,0,0,0,.51.68.54.54,0,0,0,.27.18.57.57,0,0,0,.26,0l.77-.13a1.26,1.26,0,0,0,.69-.27,1.68,1.68,0,0,0,.25-1.32c-.1-1-.17-2-.28-3,0-.31-.1-.57-.41-.6A3.48,3.48,0,0,0,15.85,93.48Z"/><path class="cls-13" d="M16.56,25.48a26.77,26.77,0,0,1-.12-3.69c.08-1.14.38-2.25.39-3.39a8.9,8.9,0,0,1,0-1.55,1.78,1.78,0,0,1,.8-1.3,1.1,1.1,0,0,1,1.44.3,1,1,0,0,0,.21.36,1,1,0,0,0,.35.16,1.3,1.3,0,0,1,.66,1.42,15.38,15.38,0,0,1-.5,1.59,6.74,6.74,0,0,0-.15,1.55,40.11,40.11,0,0,0,.47,8.83,27.29,27.29,0,0,1,.91,4.87,1.87,1.87,0,0,1-.16.93c-.41.77-1.48.79-2.26.69-.58-.07-1.67-.06-2.09-.51-.58-.59-.22-2.11-.19-2.84,0-1.17.13-2.35.19-3.52S16.62,26.78,16.56,25.48Z"/><path class="cls-8" d="M23.16,18.08a3.56,3.56,0,0,1,.74,1.05,81.8,81.8,0,0,1,4.76,10.44,2.38,2.38,0,0,1,.16,1.82,1.61,1.61,0,0,1-1.31.84,4.36,4.36,0,0,1-1.6-.21,37,37,0,0,1-6.55-2.42c-.55-.27-1.17-.65-1.21-1.26a1.89,1.89,0,0,1,.4-1c.12-.17.25-.36.45-.4a.78.78,0,0,1,.34,0l4.09,1a.61.61,0,0,0,.42,0c.19-.1.22-.35.21-.56,0-1.49-1.15-2.91-1.71-4.29s-1.11-2.76-1.7-4.2c-.25-.6,0-1.05.81-1.25A1.93,1.93,0,0,1,23.16,18.08Z"/><path class="cls-15" d="M16.56,22.12c-.13-.21-.26-.17-.44-.25s0-.42,0-.65-.16-.85-.53-.71a.51.51,0,0,0-.27.32c-.08.27,0,.41.1.65.15.57-.2.43-.42.65a.52.52,0,0,0-.13.48.07.07,0,0,0,.13,0,.33.33,0,0,1,.22-.31.14.14,0,0,0,.17.09,1.44,1.44,0,0,1,1,0C16.55,22.39,16.62,22.22,16.56,22.12Z"/><path class="cls-13" d="M17.13,23.3c-.13-.55-.61-.81-1.35-.77s-1.27.24-1.34.86a15.83,15.83,0,0,0,.13,2.92c0,.23,0,.46.32.59a2.48,2.48,0,0,0,1.19.13,2.44,2.44,0,0,0,1.08-.37.63.63,0,0,0,.17-.37,1.67,1.67,0,0,0,.08-.32A10,10,0,0,0,17.13,23.3Z"/><path class="cls-16" d="M17,22.3c-.28-.28-1-.06-1.32,0s-.86,0-1.08.27a1.67,1.67,0,0,0-.16,1.1c.13.24.72.16.93.15a7.6,7.6,0,0,0,.9-.11c.26,0,.82,0,.94-.33A1.83,1.83,0,0,0,17,22.3Z"/><path class="cls-6" d="M17.56,27.85a.78.78,0,0,1-.1.15.49.49,0,0,1-.25.12,1.52,1.52,0,0,1-.93-.18c-.29-.14-.55-.33-.84-.46a7.91,7.91,0,0,1-.84-.37,1.61,1.61,0,0,1-.77-1,1.31,1.31,0,0,1,.27-1.19.92.92,0,0,1,.22-.18.86.86,0,0,1,.55-.06,1.89,1.89,0,0,1,.9.43c.11.09.26.21.37.13s.07-.1.11-.14a.39.39,0,0,1,.36-.11,1.25,1.25,0,0,1,.36.15,4.43,4.43,0,0,1,.82.6c.23.25.5.63.35,1S17.74,27.48,17.56,27.85Z"/></g></g></g></svg>