<svg xmlns="http://www.w3.org/2000/svg" xmlns:xlink="http://www.w3.org/1999/xlink" viewBox="0 0 363.79 228.9"><defs><style>.cls-1{mask:url(#mask);filter:url(#luminosity-noclip-2);}.cls-2,.cls-5{mix-blend-mode:multiply;}.cls-2{fill:url(#linear-gradient);}.cls-3,.cls-42{isolation:isolate;}.cls-4{mask:url(#mask-2);}.cls-5{opacity:0.2;fill:url(#linear-gradient-2);}.cls-6{fill:#a1b299;}.cls-7{fill:#85997a;}.cls-8{fill:#cfcfcf;}.cls-9{fill:#736357;}.cls-10{fill:#eaeaea;}.cls-11{fill:#b4c7ba;}.cls-12{fill:#98b99d;}.cls-13{fill:#aa6a64;}.cls-14{fill:#998675;}.cls-15{fill:#60514f;}.cls-16{fill:#4f4544;}.cls-17{fill:#93a598;}.cls-18{fill:#e3c0ac;}.cls-19{fill:#5e5147;}.cls-20{fill:#6e5e53;}.cls-21{fill:#8ead93;}.cls-22{fill:#7a937d;}.cls-23{fill:#91b095;}.cls-24{fill:#d3e4ea;}.cls-25{fill:#67302d;}.cls-26{fill:#5e2c29;}.cls-27{fill:#272826;}.cls-28{fill:#e6e6e6;}.cls-29{fill:#c89a81;}.cls-30{fill:#e0af4e;}.cls-31{fill:#d9924e;}.cls-32{fill:#c98848;}.cls-33{fill:#d9d9d9;}.cls-34{fill:#d1e1e8;}.cls-35{fill:#ccdce3;}.cls-36{fill:#929496;}.cls-37{fill:#dff1f7;}.cls-38{fill:#4d4d4d;}.cls-39{fill:#6b6883;}.cls-40{fill:#d5afcb;}.cls-41{fill:#f2d8a5;}.cls-42{fill:#94cbcf;opacity:0.09;}.cls-43{filter:url(#luminosity-noclip);}</style><filter id="luminosity-noclip" x="122.06" y="-8288.84" width="140.28" height="32766" filterUnits="userSpaceOnUse" color-interpolation-filters="sRGB"><feFlood flood-color="#fff" result="bg"/><feBlend in="SourceGraphic" in2="bg"/></filter><mask id="mask" x="122.06" y="-8288.84" width="140.28" height="32766" maskUnits="userSpaceOnUse"><g class="cls-43"/></mask><linearGradient id="linear-gradient" x1="122.06" y1="174.44" x2="262.34" y2="174.44" gradientUnits="userSpaceOnUse"><stop offset="0" stop-color="#fff"/><stop offset="1"/></linearGradient><filter id="luminosity-noclip-2" x="122.06" y="170.68" width="140.28" height="7.51" filterUnits="userSpaceOnUse" color-interpolation-filters="sRGB"><feFlood flood-color="#fff" result="bg"/><feBlend in="SourceGraphic" in2="bg"/></filter><mask id="mask-2" x="122.06" y="170.68" width="140.28" height="7.51" maskUnits="userSpaceOnUse"><g class="cls-1"><path class="cls-2" d="M256.75,171.92c-37.18-3.38-54.71,1.42-92.05-.24l-18.52.07c-8.12-.21-24-.05-24,2.92-1.11,1.5,5.81,2.69,8.82,2.73,43.87.54,124.93,2.76,131.34-3.76C261,172.38,258.76,172.1,256.75,171.92Z"/></g></mask><linearGradient id="linear-gradient-2" x1="122.06" y1="174.44" x2="262.34" y2="174.44" gradientUnits="userSpaceOnUse"><stop offset="0"/><stop offset="1"/></linearGradient></defs><title>my_story</title><g class="cls-3"><g id="Layer_2" data-name="Layer 2"><g id="Object"><g class="cls-4"><path class="cls-5" d="M256.75,171.92c-37.18-3.38-54.71,1.42-92.05-.24l-18.52.07c-8.12-.21-24-.05-24,2.92-1.11,1.5,5.81,2.69,8.82,2.73,43.87.54,124.93,2.76,131.34-3.76C261,172.38,258.76,172.1,256.75,171.92Z"/></g><path class="cls-6" d="M192.8,106.41a1.2,1.2,0,0,0-1.46-.26,2.85,2.85,0,0,0-1,1,9.81,9.81,0,0,0-.08-1.53,3.5,3.5,0,0,0-.38-1.34,1.68,1.68,0,0,0-1.08-.84,1.76,1.76,0,0,0-1.82,1.23,5.21,5.21,0,0,0-.11,2.36c.15,1.29.29,2.58.44,3.87a14.67,14.67,0,0,0,0,2c.15.19.84.28,1.08.32a3.62,3.62,0,0,0,1.61-.13.43.43,0,0,0,.17-.12.66.66,0,0,0,.12-.34c0-.22-.34-1.67-.31-1.9a.1.1,0,0,0,.05,0,13.57,13.57,0,0,0,2.6-2.59,2.1,2.1,0,0,0,.37-.82A1.11,1.11,0,0,0,192.8,106.41Z"/><path class="cls-7" d="M189.26,106.21a.16.16,0,0,0-.31,0v.42a.16.16,0,0,0,.32,0Z"/><path class="cls-7" d="M188.29,107.74a.16.16,0,1,0-.3-.08,1.18,1.18,0,0,0,0,.42c0,.21.35.21.33,0A.78.78,0,0,1,188.29,107.74Z"/><path class="cls-7" d="M188.33,110.66a1.56,1.56,0,0,1,0-.48.18.18,0,0,0-.36,0,2.83,2.83,0,0,0,0,.58C188,111,188.38,110.89,188.33,110.66Z"/><path class="cls-7" d="M189.84,109l-.18.2a.17.17,0,0,0,.24.25l.21-.18C190.29,109.08,190,108.79,189.84,109Z"/><path class="cls-7" d="M191.6,107.22l-.19.23c-.14.18.1.43.25.26l.2-.22C192,107.3,191.74,107,191.6,107.22Z"/><path class="cls-6" d="M185.75,106.12a.67.67,0,0,0-.44-.44.48.48,0,0,0-.33,0,.92.92,0,0,0-.46.58,2.22,2.22,0,0,0-.08.77,3.25,3.25,0,0,0,.24,1.38,1.44,1.44,0,0,0,1.07.85,2.39,2.39,0,0,0,.7-.08,1.28,1.28,0,0,0,.8-.4,1.18,1.18,0,0,0,.17-.52,1.49,1.49,0,0,0,0-.63.56.56,0,0,0-.41-.43c-.32,0-.84.53-1.1.19-.11-.15,0-.46-.05-.63A2,2,0,0,0,185.75,106.12Z"/><path class="cls-7" d="M188.28,105.12a.16.16,0,0,0-.31,0v.42a.16.16,0,0,0,.32,0Z"/><path class="cls-7" d="M185.09,106.78a.16.16,0,0,0-.31,0v.42a.16.16,0,0,0,.32,0Z"/><path class="cls-7" d="M185.54,108.35a.15.15,0,0,0-.1.29l.4.14a.16.16,0,0,0,.1-.31Z"/><path class="cls-7" d="M189.66,112.27a1.54,1.54,0,0,1,0-.48c0-.23-.34-.23-.35,0a2.24,2.24,0,0,0,0,.58C189.35,112.6,189.71,112.51,189.66,112.27Z"/><path class="cls-8" d="M185.24,119.94a2.66,2.66,0,0,0,.14.93,2.15,2.15,0,0,0,1.6,1.07,11.74,11.74,0,0,0,3.08.16,2.26,2.26,0,0,0,1.38-.37,1.07,1.07,0,0,0,.32-.41,2.54,2.54,0,0,0,.14-.47l.18-.8a8.64,8.64,0,0,0,.09-1.44c0-.57.08-1.09.06-1.66a13.58,13.58,0,0,1,0-1.43c.07-1.23,0-2.56,0-3.79a16.27,16.27,0,0,0-6.22-.1c-.37.05-1,.16-1.07.59a4.33,4.33,0,0,0,0,.72l0,.93.12,3.86Z"/><path class="cls-9" d="M185.15,121.6a1.26,1.26,0,0,1,.64-.11,56.9,56.9,0,0,0,5.84,0c.34,0,.75,0,.94.24a.62.62,0,0,1-.2.8,1.64,1.64,0,0,1-.87.26,27.26,27.26,0,0,1-3.5,0c-.6,0-1.21,0-1.81,0-.33,0-.78.14-1.07-.06A.69.69,0,0,1,185.15,121.6Z"/><path class="cls-10" d="M186.26,113.75a.23.23,0,0,0-.28,0,.33.33,0,0,0-.16.3.06.06,0,0,0,.11,0c0-.08.09-.26.21-.18a.08.08,0,0,1-.06.15c-.11,0-.17.16-.05.18A.25.25,0,0,0,186.26,113.75Z"/><path class="cls-10" d="M190.09,115s0,0,0,0a.25.25,0,0,0-.41.23c.05.24.42.31.5.06A.23.23,0,0,0,190.09,115Z"/><path class="cls-10" d="M186.19,113.89a.14.14,0,0,0-.14-.09.2.2,0,0,0-.18.07.15.15,0,0,0,0,.2.15.15,0,0,0,.2,0C186.15,114.09,186.24,114,186.19,113.89Z"/><path class="cls-10" d="M188.61,112.41a.27.27,0,0,0-.07.43.29.29,0,0,0,.48-.18A.27.27,0,0,0,188.61,112.41Z"/><path class="cls-10" d="M187.92,116.61a.46.46,0,0,0-.26-.1,0,0,0,0,0,0-.05.47.47,0,0,0-.45.25.29.29,0,0,0,.15.4.57.57,0,0,0,.58,0A.3.3,0,0,0,187.92,116.61Z"/><path class="cls-10" d="M186.5,118.78a.21.21,0,0,0-.32,0,.18.18,0,0,0,0,.3C186.32,119.19,186.62,119,186.5,118.78Z"/><path class="cls-10" d="M185.65,115.68c-.23-.15-.43.19-.34.39l0,0a.14.14,0,0,0,0,.06.22.22,0,0,0,.27.08A.34.34,0,0,0,185.65,115.68Z"/><path class="cls-10" d="M187.82,112.34a.28.28,0,0,0-.2,0,.06.06,0,0,0-.07,0c-.1.06-.22.1-.28.21a.23.23,0,0,0,0,.28c.18.17.44,0,.55-.15A.21.21,0,0,0,187.82,112.34Z"/><path class="cls-10" d="M190,117.44a.09.09,0,0,0-.1-.07h-.07c-.06,0-.13,0-.12.1l0,0h0a.12.12,0,0,0,.07.11A.15.15,0,0,0,190,117.44Z"/><path class="cls-10" d="M187.78,114.69a.09.09,0,0,0,0,.15.13.13,0,0,0,.2.06C188.18,114.77,187.93,114.52,187.78,114.69Z"/><path class="cls-10" d="M188.29,120.07a.19.19,0,0,0-.18-.09s0-.11-.09-.07a.42.42,0,0,0-.21.26.23.23,0,0,0,.15.26C188.17,120.5,188.43,120.28,188.29,120.07Z"/><path class="cls-10" d="M190.92,113.77a.1.1,0,0,0-.11,0,.08.08,0,0,0-.08,0l0,0c-.08.07,0,.2.1.17a.11.11,0,0,0,.13-.18Z"/><path class="cls-11" d="M179.15,116.69c-.07,0-.06-.1,0-.1a1.51,1.51,0,0,1,.3,0l.06-.16-.15-.24s0-.07.06,0a1.15,1.15,0,0,0,.14.17,1.75,1.75,0,0,1,.18-.29h0l-.22-.17c-.05,0,0-.12.05-.09l.25.16h0a1.36,1.36,0,0,1,.24-.24,1,1,0,0,1,.16-.12c-.06-.12-.12-.25-.19-.37s0-.08.07,0l.22.35.17-.07h0a2.59,2.59,0,0,1,.14-.29s.06,0,0,0,0,.16-.08.23a2,2,0,0,1,.35-.06v0c0-.08,0-.15,0-.23s.06,0,.07,0a1.29,1.29,0,0,0,.05.21s0,0,0,0a1.33,1.33,0,0,1,.2,0l.16,0,.15-.18s.1,0,.07.06a1.4,1.4,0,0,0-.1.16,1.5,1.5,0,0,1,.34.16l0,0a.75.75,0,0,1,.09-.25s0,0,0,0a.5.5,0,0,1,0,.27,1,1,0,0,0,.3-.1,1,1,0,0,0-.1-.17s0-.1.07-.06a2.43,2.43,0,0,1,.14.2,1.75,1.75,0,0,1,.32,0,1.29,1.29,0,0,1,.07-.21c0-.05.08,0,.09,0a1.41,1.41,0,0,1,0,.2,1.62,1.62,0,0,1,.67.2v0l.09-.2a0,0,0,0,1,.07,0,.49.49,0,0,0,0,.21s0,0,0,0l0,0a0,0,0,0,1,0,0,2.31,2.31,0,0,1,.37,0c.05,0,.05.08,0,.07h-.25a1.56,1.56,0,0,1,.38.39h0a1,1,0,0,1,.28-.23s.06,0,0,0a1.79,1.79,0,0,1-.23.25h0l.12.21.14-.15s.07,0,0,0l-.15.21h0a1.44,1.44,0,0,1,.08.25h.24a.05.05,0,0,1,0,.1h-.22a1.25,1.25,0,0,1-.1.67.57.57,0,0,0,.13.08s0,.11-.05.08l-.13-.07a1.31,1.31,0,0,1-.2.28c.07.07.13.16.19.23s0,.08-.05,0-.14-.14-.2-.22a2.68,2.68,0,0,1-1.06.62.11.11,0,0,1-.09.05c-1.07,0-2.42.32-3.23-.6l0,0h-.28a0,0,0,0,1,0-.08l.2,0a1.65,1.65,0,0,1-.18-.41l-.07.08a0,0,0,0,1-.07,0,1.74,1.74,0,0,0,.11-.18,1.11,1.11,0,0,1,0-.19l0,0a1,1,0,0,0-.2-.21s0-.09.06-.07l.17.12a1.65,1.65,0,0,1,0-.38A2.06,2.06,0,0,0,179.15,116.69Z"/><path class="cls-12" d="M182.29,115.88a1.41,1.41,0,0,1,1.08,1.26,1.26,1.26,0,0,1-.72,1.3s-.06,0,0,0a1.27,1.27,0,0,0,.63-1.24c-.06-.51-.41-1.13-1-1.15C182.18,116,182.19,115.87,182.29,115.88Z"/><path class="cls-12" d="M181.31,117.2c0-.44.25-1.19.71-1.38a0,0,0,0,1,0,.06c-.37.19-.53.8-.59,1.18a1.1,1.1,0,0,0,.45,1.19c.08,0,0,.18-.08.13A1.26,1.26,0,0,1,181.31,117.2Z"/><path class="cls-12" d="M180.33,116.94a1.4,1.4,0,0,1,1.57-1.2s0,.05,0,.05a1.35,1.35,0,0,0-1.4,1.06,1.32,1.32,0,0,0,.88,1.49.06.06,0,1,1,0,.11A1.43,1.43,0,0,1,180.33,116.94Z"/><path class="cls-13" d="M184.14,122.3a.72.72,0,0,1-.18.32.81.81,0,0,1-.39.17,12.81,12.81,0,0,1-2.32.17,2.28,2.28,0,0,1-1.53-.36c-.26-.21-.36-2.49-.42-2.82a4.09,4.09,0,0,1-.06-1,.52.52,0,0,1,.06-.28.55.55,0,0,1,.46-.19c1.24-.08,2.48,0,3.71,0,.33,0,1.07,0,1.14.45a1.61,1.61,0,0,1-.16.67C184.38,119.77,184.25,122,184.14,122.3Z"/><path class="cls-14" d="M138.51,138.68a1,1,0,0,0-1.1.41,2.7,2.7,0,0,0-.35,1.19,33.4,33.4,0,0,0,.13,8.65,2.78,2.78,0,0,0,.47,1.38,1,1,0,0,0,1.3.27c.2-3.51.25-7,.13-10.54C139.08,139.51,139,138.88,138.51,138.68Z"/><path class="cls-11" d="M147.09,137.55c-.16-.74-1.05-1-1.8-1.15a45.11,45.11,0,0,0-8.54-.29c-1.19,0-2.38.09-3.56.23a20,20,0,0,0-3,.62,3.33,3.33,0,0,0-1.58.79,1.3,1.3,0,0,0-.23,1.63,2,2,0,0,0,1.55.56,95.76,95.76,0,0,0,13.86-.37,8.62,8.62,0,0,0,1.88-.33,2.4,2.4,0,0,0,1-.59A1.27,1.27,0,0,0,147.09,137.55Z"/><path class="cls-15" d="M141.45,170.27a.43.43,0,0,1-.43-.41l-.42-6.45a6.18,6.18,0,0,0-.2-1.44,4.76,4.76,0,0,0-.19-.53c-.08-.2-.16-.41-.23-.62a7.39,7.39,0,0,1-.22-1.69c0-1.39,0-2.79,0-4.17l0-.71c0-.72.06-1.46,0-2.19a16.51,16.51,0,0,0-.84-4.93.43.43,0,0,1,.28-.54.42.42,0,0,1,.54.27,17.6,17.6,0,0,1,.88,5.19c0,.75,0,1.5-.05,2.24l0,.7c0,1.36,0,2.74,0,4.1a6.47,6.47,0,0,0,.18,1.49c.06.18.13.36.2.54a5.31,5.31,0,0,1,.22.6,7.22,7.22,0,0,1,.24,1.63l.41,6.46a.44.44,0,0,1-.4.46Z"/><path class="cls-15" d="M139.05,145.82a2,2,0,0,1,.87.06l1.17.27c.16,0,.36.13.34.29s-.12.19-.23.23a5.79,5.79,0,0,1-1.94.4,33.12,33.12,0,0,1-5,0c-.13,0-.29-.05-.32-.17a.28.28,0,0,1,.1-.24,2,2,0,0,1,1-.51,6.56,6.56,0,0,1,1.46-.25,7.44,7.44,0,0,1,1.25,0,2.69,2.69,0,0,0,1,0A3.37,3.37,0,0,1,139.05,145.82Z"/><path class="cls-16" d="M129.48,161.12a.46.46,0,0,1-.34-.16.55.55,0,0,1,0-.59.49.49,0,0,1,.16-.19h0l.05,0h0a.48.48,0,0,1,.2,0h16.93a.44.44,0,0,1,0,.87H129.81a.39.39,0,0,1-.24.14Z"/><path class="cls-15" d="M136.3,162.66a.43.43,0,0,1-.28-.76l1-.81q1.26-1.08,2.52-2.13a.61.61,0,0,1,.44-.16.59.59,0,0,1,.44.32.48.48,0,0,1-.1.51.41.41,0,0,1-.39.13l-2.34,2-1,.82A.42.42,0,0,1,136.3,162.66Z"/><path class="cls-15" d="M135.62,176.28a.43.43,0,0,1-.43-.41c-.13-2.05-.09-4.13-.06-6.15a25.46,25.46,0,0,1,.23-3.57c.06-.37.13-.73.2-1.09a15.73,15.73,0,0,0,.27-1.6,16.36,16.36,0,0,0-.2-3.69l-.09-.72a52.36,52.36,0,0,1-.31-5.42c0-2.08.1-5.1,1.87-7.33a.44.44,0,0,1,.6-.07.43.43,0,0,1,.07.61c-1.59,2-1.72,4.83-1.68,6.77s.11,3.66.31,5.34l.09.71a17.39,17.39,0,0,1,.2,3.89c-.06.57-.17,1.13-.28,1.68-.07.35-.14.7-.2,1.05a23.64,23.64,0,0,0-.21,3.46c0,2-.07,4.06.05,6.08a.44.44,0,0,1-.41.46Z"/><path class="cls-15" d="M126.76,173.16a.44.44,0,0,1-.41-.29,10.58,10.58,0,0,1,.86-8.85c.19-.32.39-.63.6-1a6,6,0,0,0,1.3-2.94,6,6,0,0,0-.12-1.23l0-.29a15.17,15.17,0,0,1,.87-7.89,8.88,8.88,0,0,1,1.59-2.72,8,8,0,0,1,3.73-1.95.43.43,0,1,1,.12.85,7.3,7.3,0,0,0-3.21,1.68,8,8,0,0,0-1.43,2.45,14.46,14.46,0,0,0-.82,7.45l0,.28a7.18,7.18,0,0,1,.13,1.41,6.91,6.91,0,0,1-1.44,3.38c-.21.3-.41.6-.59.91a9.69,9.69,0,0,0-.78,8.12.43.43,0,0,1-.27.55A.32.32,0,0,1,126.76,173.16Z"/><path class="cls-15" d="M149,173.66h0a.43.43,0,0,1-.39-.46c.26-3.07.58-6.89-.93-10-.18-.38-.4-.76-.61-1.13a10.68,10.68,0,0,1-1.12-2.42,8.94,8.94,0,0,1-.24-1.58c-.05-.77-.06-1.55-.07-2.31s0-1.55-.08-2.31a9.22,9.22,0,0,0-1.17-4.22,6.19,6.19,0,0,0-4.17-2.34.43.43,0,0,1-.41-.45.45.45,0,0,1,.46-.41,6.93,6.93,0,0,1,4.85,2.75,9.93,9.93,0,0,1,1.3,4.6c.06.8.07,1.6.08,2.37s0,1.51.08,2.25a7.6,7.6,0,0,0,.21,1.43,9,9,0,0,0,1,2.21c.22.39.45.78.64,1.19,1.61,3.3,1.28,7.25,1,10.43A.43.43,0,0,1,149,173.66Z"/><path class="cls-17" d="M131.54,141l5.42-.07,1.65,0,2.29,0,3.65-.05a4,4,0,0,0,1.29-.15,2.33,2.33,0,0,0,1.41-1.54,3.34,3.34,0,0,0,0-1.3c-.13-.69-.4-.76-.91-.27a4.64,4.64,0,0,1-2.4,1.09,23.84,23.84,0,0,1-2.67.23c-1.4.1-2.78.34-4.17.44a31.39,31.39,0,0,1-4-.11c-.76-.05-1.52-.11-2.27-.18-.5-.05-1.34,0-1.73-.36-.23-.23-.45-.68-.74-.52a1.63,1.63,0,0,0,.55,2.35A4.8,4.8,0,0,0,131.54,141Z"/><path class="cls-18" d="M131.43,129.74c-.1-.25.07-.66-.2-.61a8,8,0,0,1-1.15.34l.06.18c.08.34.28.86.36,1.2.35,0,.65-.18,1-.18A2.22,2.22,0,0,0,131.43,129.74Z"/><path class="cls-18" d="M143.49,136.21c-.47-.08-1.65-.09-2.12-.17l.12.23-.24,1.18a10.28,10.28,0,0,0,2.48.06A4.81,4.81,0,0,0,143.49,136.21Z"/><path class="cls-19" d="M224.54,124c-1.31,0-6.41-.06-7.9-.06H162c-2.57,0-6,0-8.58,0-1.58,0-1.15,0-1.47.6a3.75,3.75,0,0,0-.33,1.65,7.6,7.6,0,0,0,.05,1.65,5.49,5.49,0,0,0,.15.79c0,.18-.35.41,0,.58-.08.09,0,.18,1,.23s2.46.06,4.11.06h.32l6.14,0h53.16c1.47,0,6.52,0,7.85-.09a5.24,5.24,0,0,0,.8-.08c.78-.16.3-.42.37-.6h-.14c0-.25-.12-.53-.07-.74a5.77,5.77,0,0,0,.1-1.1,5.38,5.38,0,0,0-.19-1.3c-.11-.39.34-1,.51-1.38C225.91,124,225.91,124,224.54,124Z"/><path class="cls-20" d="M226.77,122.52c-15.46-.5-37.15.11-52.58-.1-8.31-.12-16.62.21-24.93.32-1.32.08-.64,1.52-.46,2.28,23.87,0,54.27,0,78.11-.28A2.61,2.61,0,0,0,226.77,122.52Z"/><path class="cls-19" d="M153.86,176.07a6.55,6.55,0,0,0,2.54,0,2.88,2.88,0,0,0,.24-1.25c-.32-9.57,1-37.13.05-46.66-.55-.74-1.82-.45-2.35.31a4.43,4.43,0,0,0-.51,2.67c.11,6,.13,11.92.1,17.88C153.92,151.85,153.55,173.21,153.86,176.07Z"/><path class="cls-19" d="M219.73,127.56a.82.82,0,0,1,.19-.65.84.84,0,0,1,.59-.14l2.26,0a76.51,76.51,0,0,0-.54,11.52c.11,4,.54,8,.19,12-.24,2.84-.58,23.38-.14,26.19,0,.09-1.95,0-2.25-.81-.41-1-.3-20.79-.3-21.9V127.56Z"/><path class="cls-21" d="M198.91,107.36a.87.87,0,0,1,.71-.57c.7-.06,1.19.66,1.43,1.23a4.35,4.35,0,0,1,.12,2.32c-.11.87-.09,1.75-.13,2.63a27.55,27.55,0,0,1-1.1,5.82c-.05.18-.34.13-.29-.06.14-.48.28-1,.4-1.47a12.32,12.32,0,0,0,.09-4.15,13.75,13.75,0,0,0-.82-2.25,9.84,9.84,0,0,1-.38-1.2,8.32,8.32,0,0,1-.27-1.2A1.86,1.86,0,0,1,198.91,107.36Z"/><path class="cls-21" d="M199.87,117.5a11.73,11.73,0,0,1,.42-1.65,8.18,8.18,0,0,1,.39-1c.13-.46.27-.91.41-1.37a11.74,11.74,0,0,1,1.54-3.6,4.34,4.34,0,0,1,.63-.73,1,1,0,0,1,.76-.33c.59.06.59.77.51,1.23a3.51,3.51,0,0,1-.94,1.73c-.53.57-1.07,1.12-1.61,1.68a6.53,6.53,0,0,0-.79,1,5.85,5.85,0,0,0-.51,1.11c-.08.22-.15.43-.22.66l-.05.17a12.23,12.23,0,0,0-.36,1.7c0,.13-.17.13-.23,0a.07.07,0,0,1-.07-.08Z"/><path class="cls-21" d="M197.13,111a1.56,1.56,0,0,1,1.58.2,4,4,0,0,1,1.46,3.41,22.19,22.19,0,0,1-.15,2.58c-.08.66-.17,1.31-.3,2,0,.25-.09.49-.13.74a.12.12,0,0,1-.23,0c.14-.77.28-1.54.37-2.32.05-.4.08-.81.09-1.22a5.42,5.42,0,0,0-.06-1.14,1.89,1.89,0,0,0-.68-.85,6.86,6.86,0,0,0-.86-.67,3.34,3.34,0,0,1-1.4-1.23A1.09,1.09,0,0,1,197.13,111Z"/><path class="cls-22" d="M197.27,111.29a7.28,7.28,0,0,1,1,.85,7.1,7.1,0,0,1,.73.91,5.46,5.46,0,0,1,.58,1,12.19,12.19,0,0,1,.34,1.22s0,0-.06,0a9.76,9.76,0,0,0-.31-1.18,4.78,4.78,0,0,0-.59-1.06,7.72,7.72,0,0,0-.76-1,9.2,9.2,0,0,0-.94-.82S197.26,111.28,197.27,111.29Z"/><path class="cls-22" d="M198.46,111.27a3.69,3.69,0,0,1,0,1.1,0,0,0,0,1-.05,0,5,5,0,0,0,0-1.09S198.46,111.25,198.46,111.27Z"/><path class="cls-22" d="M199.16,111.89a8.35,8.35,0,0,1-.07,1.32s-.05,0,0,0c0-.44.08-.87.09-1.31C199.14,111.88,199.16,111.88,199.16,111.89Z"/><path class="cls-22" d="M199.68,112.84s0,0,0,0c-.07.34-.14.67-.23,1a0,0,0,0,1,0,0C199.52,113.5,199.6,113.17,199.68,112.84Z"/><path class="cls-22" d="M197.92,113a5.3,5.3,0,0,0,1.4.62s0,0,0,0a5,5,0,0,1-1.41-.64S197.91,113,197.92,113Z"/><path class="cls-22" d="M197.47,112.25a10.42,10.42,0,0,0,1.25.48s0,0,0,0a6.28,6.28,0,0,1-1.26-.51S197.46,112.24,197.47,112.25Z"/><path class="cls-22" d="M197.12,111.57a6.38,6.38,0,0,0,.72.19s0,.06,0,0a4.6,4.6,0,0,1-.72-.22S197.1,111.56,197.12,111.57Z"/><path class="cls-22" d="M199.82,107.56c.12,2,.45,3.93.75,5.89a4.42,4.42,0,0,1,.06,1.58s-.06,0,0,0a4.15,4.15,0,0,0-.05-1.45c-.07-.49-.15-1-.22-1.46-.15-1-.29-1.92-.39-2.89-.06-.55-.1-1.1-.11-1.66C199.8,107.55,199.82,107.55,199.82,107.56Z"/><path class="cls-22" d="M199.15,107.85c.23.35.65.62.78,1,0,0,0,0,0,0-.19-.4-.55-.66-.77-1A0,0,0,1,1,199.15,107.85Z"/><path class="cls-22" d="M199.06,109.09q.49.59,1,1.14s0,0,0,0a10,10,0,0,1-1-1.15S199.05,109.08,199.06,109.09Z"/><path class="cls-22" d="M199.47,110.64c.25.26.5.5.77.74,0,0,0,.06,0,0-.27-.23-.52-.49-.77-.75C199.43,110.65,199.46,110.63,199.47,110.64Z"/><path class="cls-22" d="M200.15,111a2.17,2.17,0,0,0,.62-1s0,0,0,0a2.09,2.09,0,0,1-.6,1S200.13,111,200.15,111Z"/><path class="cls-22" d="M200,109.73a1.77,1.77,0,0,0,.4-.42,2.82,2.82,0,0,1,.24-.36s0,0,0,0a4.87,4.87,0,0,0-.27.45,1.75,1.75,0,0,1-.36.36A0,0,0,0,1,200,109.73Z"/><path class="cls-22" d="M199.86,108.5a3.5,3.5,0,0,0,.29-.49,1.4,1.4,0,0,1,.19-.41s0,0,0,0a2.28,2.28,0,0,0-.21.51,3.34,3.34,0,0,1-.25.4S199.85,108.51,199.86,108.5Z"/><path class="cls-22" d="M200.34,112.17a1,1,0,0,0,.24-.42,2.76,2.76,0,0,0,.19-.55s0,0,0,0a2.14,2.14,0,0,1-.17.56,1,1,0,0,1-.25.43S200.32,112.18,200.34,112.17Z"/><path class="cls-22" d="M201.09,113.9a7.44,7.44,0,0,1,.68-1c.27-.37.52-.76.78-1.15.48-.74,1-1.47,1.44-2.21,0,0,0,0,0,0-.46.75-.95,1.49-1.43,2.23-.23.36-.46.72-.71,1.07a7.74,7.74,0,0,0-.74,1.06S201.08,113.92,201.09,113.9Z"/><path class="cls-22" d="M203.43,109.24c-.08.5-.13,1-.17,1.5,0,0,0,0,0,0a9.59,9.59,0,0,1,.19-1.51S203.43,109.22,203.43,109.24Z"/><path class="cls-22" d="M203.5,110.32a2.55,2.55,0,0,0,.53-.18,1.3,1.3,0,0,1,.38-.17s0,0,0,0a2.22,2.22,0,0,0-.41.2,2.81,2.81,0,0,1-.49.16S203.48,110.32,203.5,110.32Z"/><path class="cls-22" d="M202.59,110.42c0,.39.08.78.11,1.18,0,0,0,0-.06,0,0-.39,0-.79-.07-1.18C202.56,110.4,202.59,110.4,202.59,110.42Z"/><path class="cls-22" d="M202.91,111.25l.8-.06a0,0,0,1,1,0,0,4.25,4.25,0,0,1-.8,0S202.89,111.25,202.91,111.25Z"/><path class="cls-22" d="M202.13,111.25a5.81,5.81,0,0,0,0,1.25s-.05,0-.05,0a4.41,4.41,0,0,1,.07-1.26S202.14,111.24,202.13,111.25Z"/><path class="cls-22" d="M202.28,112.19c.13-.07.27-.12.4-.18a1.3,1.3,0,0,1,.35-.11s0,0,0,0a1.11,1.11,0,0,0-.36.13,3.08,3.08,0,0,1-.38.16S202.26,112.19,202.28,112.19Z"/><path class="cls-13" d="M196.56,118.91a7.61,7.61,0,0,0,.51,2.48,2.8,2.8,0,0,0,.61.91c.28.26.68,0,1,.13a6.09,6.09,0,0,0,3.77-.28c.87-.5.57-1,.86-2.12a9.79,9.79,0,0,0,.39-2.35,7.37,7.37,0,0,0-.19-2.15,1.12,1.12,0,0,0-.2-.41.8.8,0,0,0-.44-.19,8.67,8.67,0,0,0-1.25-.12l-1.77-.08c-.66,0-1.15-.06-1.81,0-.39,0-1.17,0-1.42.41a3.26,3.26,0,0,0,0,1.46C196.62,117.36,196.49,118.14,196.56,118.91Z"/><path class="cls-12" d="M167.31,116.16a22,22,0,0,0-3.41-4.06.06.06,0,0,0-.07,0h0c-.06-.06-.16,0-.1.1a19.38,19.38,0,0,1,2.86,4.26c.07.13.27,0,.2-.12s0,0,0,0a.1.1,0,0,0,.09,0h0a1.63,1.63,0,0,1,.25.1A.15.15,0,0,0,167.31,116.16Z"/><path class="cls-12" d="M168.31,113.56a6.87,6.87,0,0,1,2.09-3.07,9.5,9.5,0,0,0-.75,1.22,12.5,12.5,0,0,0-.84,4.43c0,.27-.58.16-.74,0s-.19-.32-.18-.53A8.42,8.42,0,0,1,168.31,113.56Z"/><path class="cls-12" d="M165.74,115.58a4.31,4.31,0,0,0-1-.75,5.35,5.35,0,0,0-2.75-.39,1.64,1.64,0,0,1,1.13-.27,9.83,9.83,0,0,1,3.87,1.4.51.51,0,0,1,.2.16c.18.27-.08.92-.45.81S166,115.83,165.74,115.58Z"/><path class="cls-23" d="M167.38,113.22a7.3,7.3,0,0,1,1-3.18,16,16,0,0,0-.05,5.68c.09.39,0,.63-.46.65s-.44-.12-.48-.43A13,13,0,0,1,167.38,113.22Z"/><path class="cls-12" d="M171,113.85a4.74,4.74,0,0,1,2.2-1,4.43,4.43,0,0,0-1.69,1.06,3.53,3.53,0,0,0-1.37,2.44c0-.09-.9-.12-1-.26s.38-.66.48-.8A7.54,7.54,0,0,1,171,113.85Z"/><path class="cls-12" d="M169.94,112.31a2.28,2.28,0,0,1,1.57-1,5.73,5.73,0,0,0-1.8,3,3.51,3.51,0,0,0-.21,1.28,5.55,5.55,0,0,1,.06.82c-.3,0-1.13.17-1.23-.19s.18-1,.28-1.33A8.63,8.63,0,0,1,169.94,112.31Z"/><path class="cls-23" d="M167.62,115.09a10,10,0,0,0-2.66-3.46,8.82,8.82,0,0,1,2,4.73c0,.16.87,0,1-.17S167.76,115.35,167.62,115.09Z"/><path class="cls-23" d="M165.51,115a7.23,7.23,0,0,0-2.57-2.2,3,3,0,0,1,.5.19,15,15,0,0,1,1.9,1c.47.31.9.68,1.38,1a3.69,3.69,0,0,1,1.05.78.23.23,0,0,1,.06.12c0,.07-.08.11-.15.14-.31.14-1.07.63-1.35.3a6.14,6.14,0,0,1-.31-.63A5.86,5.86,0,0,0,165.51,115Z"/><path class="cls-12" d="M166.23,112a4.12,4.12,0,0,1-.34-1.22,5.72,5.72,0,0,1,1.35,2c.45,1,.86,1.91,1.22,2.89a2,2,0,0,1,.2.72c-1,.28-1.13-.51-1.37-1.29C167,114.05,166.63,113,166.23,112Z"/><path class="cls-23" d="M171.43,112.56a5.44,5.44,0,0,0-2.15,2,7.45,7.45,0,0,0-1,1.75c.22.09.92.41,1.14.27s.27-.79.33-1a10,10,0,0,1,.92-2.09C170.82,113.27,171.14,112.68,171.43,112.56Z"/><path class="cls-24" d="M165.8,120.85a1.61,1.61,0,0,0,.1.58,1.51,1.51,0,0,0,1.11.67,9.55,9.55,0,0,0,2.14.1,1.74,1.74,0,0,0,1-.24.67.67,0,0,0,.22-.25,1,1,0,0,0,.09-.29c.05-.17.09-.33.13-.5a4.54,4.54,0,0,0,.06-.9,8.94,8.94,0,0,0,0-1,6.65,6.65,0,0,1,0-.89c0-.76,0-1.59,0-2.36a12.84,12.84,0,0,0-4.33-.06c-.25,0-.68.1-.74.37a1.63,1.63,0,0,0,0,.44c0,.2,0,.39,0,.59,0,.8,0,1.6.08,2.4C165.77,119.93,165.79,120.39,165.8,120.85Z"/><path class="cls-9" d="M165.68,121.84a.93.93,0,0,1,.44-.07,39.3,39.3,0,0,0,4.06,0c.24,0,.52,0,.65.17a.42.42,0,0,1-.14.55,1.14,1.14,0,0,1-.6.18,17.91,17.91,0,0,1-2.43,0c-.42,0-.84,0-1.26,0-.23,0-.54.11-.74,0A.48.48,0,0,1,165.68,121.84Z"/><path class="cls-18" d="M224.56,106a23.11,23.11,0,0,1,3.86-2,.76.76,0,0,1,.36-.06c.22,0,.37.23.5.41a3.77,3.77,0,0,1,.56,1,1.26,1.26,0,0,1-.16,1.12,2,2,0,0,1-.67.46c-2.44,1.17-4.88,2.34-7.38,3.37-.88.36-1.76.7-2.6,1.14a13.74,13.74,0,0,1-2.41,1.17,2.59,2.59,0,0,1-2.51-.46.83.83,0,0,1-.29-.72,1.22,1.22,0,0,1,.22-.38l1-1.22a2.4,2.4,0,0,1,.67-.64c.35-.19.53,0,.86,0a4,4,0,0,0,1.07-.29c.81-.24,1.61-.51,2.4-.8A33.22,33.22,0,0,0,224.56,106Z"/><path class="cls-25" d="M238.38,88.05a2.73,2.73,0,0,0-1.45-.55,3,3,0,0,0-2.08,1.22,15.37,15.37,0,0,0-3.71,6.4c-.24.9-.38,1.81-.63,2.7a20.18,20.18,0,0,1-1.14,2.91,11.8,11.8,0,0,1-1.64,2.87,4,4,0,0,1-2.83,1.52,7.37,7.37,0,0,0,.92,3.5c.05.09.1.18.19.21a.37.37,0,0,0,.31,0,9.37,9.37,0,0,0,2.74-1.61A38.89,38.89,0,0,0,240.4,91.75C241.06,90.13,239.65,88.91,238.38,88.05Z"/><path class="cls-26" d="M225.89,105.36a1.36,1.36,0,0,0-.77-.92,1,1,0,0,0-1.08.77,2.84,2.84,0,0,0,.17,1.46c.17.56.33,1.13.5,1.69a1.85,1.85,0,0,0,.84,1.28,1.5,1.5,0,0,0,.73.08,1.18,1.18,0,0,0,.45-.1c.55-.28,0-1.56-.11-2A21.69,21.69,0,0,0,225.89,105.36Z"/><path class="cls-26" d="M235.44,92.22c-.28-.16-.56-.34-.83-.53L235,90.3c.09-.28-.34-.39-.43-.12s-.25.82-.38,1.23l-.45-.36c-.19-.17-.47.11-.28.28l.6.5c-.24.79-.48,1.57-.73,2.35l-.9-.81a.18.18,0,0,0-.25.25c.33.34.66.69,1,1-.29.86-.6,1.72-.95,2.56-.27-.27-.53-.55-.79-.83s-.37.08-.23.24c.29.32.57.67.85,1-.14.32-.29.64-.44,1-.28.58-.58,1.14-.89,1.69l-.36-.46c-.12-.16-.39,0-.28.17s.28.43.44.65q-.58,1-1.23,2c-.08-.14-.17-.28-.25-.43s-.43,0-.32.19.21.41.33.61c-.43.62-.86,1.23-1.31,1.83a2.35,2.35,0,0,0-.19-.25c-.11-.15-.37,0-.26.2l.23.35-.57.74c-.11.14.09.34.2.2l.54-.66c.15.27.29.54.42.82s.53,0,.39-.22a9.23,9.23,0,0,0-.56-.91c.45-.57.89-1.15,1.31-1.74a9.73,9.73,0,0,0,.87,1.23c.2.24.51-.1.33-.33-.33-.42-.65-.84-.93-1.28.44-.63.87-1.28,1.27-2a8.77,8.77,0,0,0,1.12,1.16c.22.19.55-.13.32-.33a15.36,15.36,0,0,1-1.22-1.2c.35-.59.67-1.19,1-1.81.13-.26.25-.53.37-.8a10.1,10.1,0,0,0,.76.84c.2.2.48-.09.31-.3a11.75,11.75,0,0,0-.88-1c.36-.84.68-1.69,1-2.56l.28.26c.23.21.57-.13.34-.34l-.46-.41c.26-.78.51-1.58.75-2.37l.72.51C235.46,92.81,235.71,92.38,235.44,92.22Z"/><path class="cls-26" d="M239.76,87.93a2.61,2.61,0,0,0-1.38-.56,1.52,1.52,0,0,0-1,.57,4.74,4.74,0,0,0-.85,1.93c-1.25,4.78-4.06,9.18-4.38,14.11a12.46,12.46,0,0,0,.13,3.45c.39,1.86,1.56,3.52,1.73,5.41.09,1,0,2.18.77,2.79a2.66,2.66,0,0,0,1.33.43l5,.68a6.09,6.09,0,0,0,3.57-.24c1.35-.68,2-2.22,2.44-3.66,1.7-5.42,2.28-11.13,2.85-16.79.26-2.56.75-8.4-3-8.73-1.37-.12-2.75.62-4.06.89C241.13,88.57,241.3,88.87,239.76,87.93Z"/><path class="cls-25" d="M248.54,101.3l-2.41.15c0-.87,0-1.74.08-2.6l1.16-.06a.14.14,0,0,0,0-.28l-1.14,0c0-.94.09-1.87.16-2.8l.45,0c.26,0,.26-.43,0-.41l-.42,0c.09-1.3.21-2.59.35-3.88,0-.16-.22-.16-.24,0-.15,1.3-.28,2.6-.4,3.9-.93.06-1.85.1-2.78.13.05-.51.11-1,.17-1.53a9,9,0,0,0,2.07,0c.21,0,.16-.41-.06-.39a11.77,11.77,0,0,1-2,0c.08-.65.18-1.29.28-1.93,0-.12-.17-.18-.19,0-.12.65-.22,1.31-.32,2-.77,0-1.54-.12-2.3-.18-.16,0-.15.22,0,.24.73.08,1.49.21,2.25.29-.07.52-.14,1-.2,1.57l-1.71,0-1.18,0c.07-.46.14-.92.22-1.38,0-.14-.2-.21-.23-.06q-.13.72-.24,1.44l-1.15,0a10.74,10.74,0,0,1-2.4-.24q.45-1.7.93-3.39c0-.1-.13-.15-.17,0-.34,1.11-.67,2.24-1,3.37l-.41-.16c-.13-.07-.25.13-.12.19a4.62,4.62,0,0,0,.47.19c-.23.83-.44,1.66-.64,2.5h-.08c-.27,0-.39.37-.11.41l.1,0c-.23,1-.43,2-.58,3.09l-.84-.1c-.16,0-.23.22-.07.24s.58.09.87.12c-.11.77-.19,1.55-.24,2.33l-1.13-.14c-.23,0-.28.37,0,.41s.77.14,1.16.2c0,.74,0,1.47,0,2.22l-.95-.09a0,0,0,0,0-.09,0l0,.06s0,0,0,.06c.14.24.61.33,1.09.38,0,.28,0,.57.07.86s.32.2.3,0-.05-.56-.06-.84l.74,0,1.47.16c0,.28,0,.55,0,.83a.09.09,0,0,0,.17,0c0-.27,0-.54,0-.81.78.09,1.57.17,2.35.24,2,.2,4.11.46,6.17.53,0,.17,0,.34,0,.51s.46.29.45,0,0-.33,0-.49c.46,0,.92,0,1.37,0a.21.21,0,0,0,0-.41l-1.38,0c0-.92,0-1.84,0-2.76l1.85-.14c.2,0,.2-.32,0-.31-.61,0-1.23.09-1.85.12,0-.89,0-1.77,0-2.65.81,0,1.61-.09,2.42-.17C248.79,101.68,248.8,101.28,248.54,101.3Zm-2.78.16c-.92,0-1.84.08-2.77.09,0-.89,0-1.77.1-2.65.93,0,1.86,0,2.79,0C245.83,99.73,245.79,100.6,245.76,101.46Zm-6.31.44c0,.86,0,1.73.09,2.59-.79,0-1.58-.12-2.36-.2,0-.81,0-1.63,0-2.44C238,101.88,238.71,101.89,239.45,101.9Zm-2.21-.36c0-1,.08-2,.14-3,.73.08,1.46.15,2.2.2-.07.93-.12,1.87-.12,2.8C238.72,101.56,238,101.56,237.24,101.54Zm2.58.36,1.13,0,1.66,0c0,.89,0,1.77,0,2.66-.65,0-1.3,0-1.95,0l-.71,0C239.88,103.65,239.84,102.78,239.82,101.9Zm1.46-.34c-.48,0-1,0-1.46,0,0-.93,0-1.85.06-2.78,1,.06,1.92.1,2.88.11-.06.89-.11,1.77-.14,2.66Zm4.82-5.79c-.08.92-.15,1.85-.2,2.78-.93,0-1.86,0-2.79,0,0-.89.12-1.78.2-2.67Q244.71,95.85,246.1,95.77Zm-5.38.07c.78,0,1.55,0,2.32,0-.1.89-.19,1.78-.26,2.66-1,0-1.92-.08-2.88-.16.06-.84.14-1.69.25-2.53Zm-4.39-.38a12.79,12.79,0,0,0,3.56.37c-.11.83-.21,1.67-.28,2.51-.74-.06-1.47-.13-2.21-.21,0-.67.08-1.34.13-2,0-.22-.32-.22-.34,0,0,.65-.07,1.31-.1,2l-1.36-.17C235.91,97.1,236.12,96.28,236.33,95.46Zm-.69,2.88,1.43.19c0,1-.07,2-.08,3-.64,0-1.28-.06-1.92-.11C235.22,100.39,235.41,99.37,235.64,98.34Zm-.6,3.36c.64.06,1.29.11,1.94.14,0,.81,0,1.62,0,2.43l-2.16-.25C234.85,103.24,234.93,102.47,235,101.7Zm-.26,5q0-1.1,0-2.19,1.09.17,2.19.27l0,2.14Zm2.4.23c0-.71,0-1.42,0-2.13.8.07,1.6.12,2.4.16.05.71.13,1.42.22,2.14a.26.26,0,0,0,.05.09Zm8.52.68c-1.74-.08-3.46-.21-5.2-.36l-.41,0a.17.17,0,0,0,.1-.17c-.09-.69-.16-1.38-.22-2.07.88,0,1.76,0,2.63,0,0,.66,0,1.31.07,2,0,.27.44.28.43,0,0-.66-.07-1.32-.08-2,.89,0,1.78,0,2.66-.11C245.68,105.79,245.68,106.7,245.7,107.61Zm0-3.07q-1.34.06-2.67.06c0-.89,0-1.77,0-2.66.92,0,1.83,0,2.75,0Q245.7,103.22,245.68,104.54Z"/><path class="cls-18" d="M247,81.83a9.14,9.14,0,0,1-1.88,3,4.53,4.53,0,0,1-7.61-1.26,9.58,9.58,0,0,1-.77-2.32,29.2,29.2,0,0,1-.67-6,6.52,6.52,0,0,1,.91-4,5.19,5.19,0,0,1,3.32-1.81,7.44,7.44,0,0,1,4.49.54C249.37,72.24,248.59,77.87,247,81.83Z"/><path class="cls-27" d="M249.85,168.7l-.27-.7.17,0v-6.62c0-2.89-.14-5.67-.39-8.53-.75-8.47.23-17-.46-25.65a38.76,38.76,0,0,0-.83-6c-.64-2.55-.66-2.89-2.94-3.34a28.41,28.41,0,0,0-11.9.23c0,16.46.89,34.7,2.33,51h.31a10.67,10.67,0,0,1-2.84,1.75,2.19,2.19,0,0,0-.72.4,1,1,0,0,0,.12,1.51,2,2,0,0,0,1.57.08l4.48-1a1.36,1.36,0,0,0,.75-.34,1.34,1.34,0,0,0,.25-.95l0-1.47h.13c1.12-8.88.42-28.72.69-37.62.5,4.14,1.82,17.95,2.82,23.11.46,2.38,1,4.72,1.39,7.13.2,1.23.41,2.45.65,3.67a14.75,14.75,0,0,1,.55,3.23l.23,0a10.77,10.77,0,0,1-2,2.73,2.15,2.15,0,0,0-.52.64,1,1,0,0,0,.69,1.35,2,2,0,0,0,1.48-.51l3.79-2.59a1.35,1.35,0,0,0,.57-.59A1.4,1.4,0,0,0,249.85,168.7Z"/><path class="cls-28" d="M237.72,109c-1.91-.07-4.1-.16-5.44.9a4.18,4.18,0,0,0-1.14,1.59c-1.32,2.88-1.44,6-1.53,9.07-.16,5-.33,10-.1,15a.92.92,0,0,0,.18.59,1.57,1.57,0,0,0,1,.32,97.33,97.33,0,0,0,15.65.41c2-.1,4.25-.44,5.13-1.81a3.39,3.39,0,0,0,.37-2c-.11-3-.92-5.91-1.29-8.87-.45-3.58-.26-7.2-.76-10.78-.33-2.32-.71-4.86-4.38-4.69C242.81,108.84,240.31,109.07,237.72,109Z"/><path class="cls-29" d="M239.09,94.12a31,31,0,0,1-.42-6.08c0-.06,0-.14.06-.17a.21.21,0,0,1,.16,0,14.6,14.6,0,0,1,2.64.47c.42.16.3.22,0,.58s-.45.65-.66,1a17.34,17.34,0,0,0-1.07,2A6.65,6.65,0,0,0,239.09,94.12Z"/><path class="cls-25" d="M244,89.25c.06,0,.12.1.11.17a.21.21,0,0,1-.11.1l-.92.45a.44.44,0,0,0-.26.22c-.07.19.12.37.28.5a1.78,1.78,0,0,1,.53.89.22.22,0,0,1,0,.16.41.41,0,0,1-.12.11l-4.63,2.75a4.39,4.39,0,0,1,.51-2c.35-.79.71-1.56,1.1-2.33a3.88,3.88,0,0,1,1.32-1.72C242.44,88.17,243.45,88.87,244,89.25Z"/><path class="cls-25" d="M237.09,88c-.2,0-.46.12-.45.32a.53.53,0,0,0,.12.22l.75.85-.8.35c-.08,0-.18.09-.2.18a.32.32,0,0,0,.09.24,14.81,14.81,0,0,1,2,3.41,3,3,0,0,0,.62,1.11,43.47,43.47,0,0,1-.32-4.7c0-.47.23-1.6-.11-2S237.49,88,237.09,88Z"/><path class="cls-30" d="M234.53,74.62a1,1,0,0,0,0,.65,1,1,0,0,0,.87.4,11.65,11.65,0,0,1,2.27-.18c.33.07.64.23,1,.33,1.25.37,2.63-.15,3.88.22a2.94,2.94,0,0,1,1.87,3.65,1.87,1.87,0,0,1,.95-.91c.42-.13,1,.13,1,.58s-.55.76-.81,1.16a2.76,2.76,0,0,0-.13,1.78,4.47,4.47,0,0,1-.9,3c.75-.71,1.72-1.14,2.52-1.79a8.73,8.73,0,0,0,2.56-4.09,10.33,10.33,0,0,0,.15-7.2,9.76,9.76,0,0,0-1.3-2.17A4.34,4.34,0,0,0,247.36,69a5.17,5.17,0,0,0-2.59-.58,19.75,19.75,0,0,0-4.21.1A7.1,7.1,0,0,0,234.53,74.62Z"/><path class="cls-30" d="M251.68,69.7a6.31,6.31,0,0,1,3.32,1,9,9,0,0,1,4.08,8.57,27.72,27.72,0,0,1-1.69,5.45,8.53,8.53,0,0,0-.36,5.6,10,10,0,0,0,1,1.8,10.2,10.2,0,0,0,3.77,3.91,2.85,2.85,0,0,0,2.74.1c.3.86-.44,1.73-1.22,2.2a6.42,6.42,0,0,1-7.57-.91,11,11,0,0,1-2.06-3.16A14.37,14.37,0,0,1,252,88.45a22,22,0,0,1,.42-3.7,34.22,34.22,0,0,0,.35-3.64,4.58,4.58,0,0,0-.26-2.15c-.78-1.68-3.17-2-4.06-3.67a5.2,5.2,0,0,1-.48-1.6C247.51,71.4,249.43,69.71,251.68,69.7Z"/><path class="cls-31" d="M227.9,102.24a25.06,25.06,0,0,0-2.08-2.42,1.37,1.37,0,0,0-1.75-.26,1.72,1.72,0,0,0-.69,1.66,7.39,7.39,0,0,0,.26,1.63,6.61,6.61,0,0,1,.23,1.68,1.69,1.69,0,0,0,.92,1.62,1.68,1.68,0,0,0,1.65-.28l.1,0a3.71,3.71,0,0,0,2.11-1.62C229,103.4,228.34,102.78,227.9,102.24Z"/><path class="cls-32" d="M228.87,106.85c-.4-.61-.79-1.21-1.15-1.85-.26-.47-.43-1-.73-1.47s-.63-.64-1-.34c-.57.42-.17,1.13.14,1.55.46,1.07.94,2.13,1.42,3.19a14,14,0,0,0,1.43,2.94c.9,1.12,1.91-.06,1.53-1.15A14,14,0,0,0,228.87,106.85Z"/><path class="cls-32" d="M224.72,99.84c0-.06-.14,0-.12,0a17.16,17.16,0,0,0,1.5,3.4c.08.13.3,0,.22-.11A21.24,21.24,0,0,1,224.72,99.84Z"/><path class="cls-18" d="M226.82,108.41c.51-.55,1.5.06,2.18-.29.14-.07.26-.19.39-.27a1.29,1.29,0,0,1,1.35,0c.26.16.45.42.74.52a1.6,1.6,0,0,0,.62,0l12.2-.85a5.42,5.42,0,0,1,2,.11,1.84,1.84,0,0,1,1.34,1.33l.29.45A63.4,63.4,0,0,1,237,111.15a36.66,36.66,0,0,0-6.71.5,3.63,3.63,0,0,1-2.71,0,2.71,2.71,0,0,1-1-2.43A1.23,1.23,0,0,1,226.82,108.41Z"/><path class="cls-25" d="M249.81,88.43c2.11,1.93,2.45,5.06,3,7.88.62,3.12,1.65,6.15,2.3,9.26a4.19,4.19,0,0,1-.1,2.78c-.63,1.21-2.18,1.55-3.53,1.75l-4.74.71c-3.5.53-3.71.26-7.67.71a1.41,1.41,0,0,1-.87-.21,1.91,1.91,0,0,1-.73-.9,8.82,8.82,0,0,1-.81-2.55,2,2,0,0,1,.27-1.59,2.14,2.14,0,0,1,1.17-.56c4.19-1,5.39,0,9.59-1a4.9,4.9,0,0,0,1-.35c1.1-.6-.6-3.35-.85-4.58s-.13-2.84-.78-3.92a26.21,26.21,0,0,1-1.5-2.94,5.49,5.49,0,0,1-.6-3.06A2.83,2.83,0,0,1,249.81,88.43Z"/><path class="cls-26" d="M239.64,109.13c-.27-.69-.6-1.36-.87-2-.13-.34-.25-.68-.35-1s-.2-.62-.47-.73a.89.89,0,0,0-.62,0,4.72,4.72,0,0,0-1,.49.69.69,0,0,0-.29.27.72.72,0,0,0-.06.29,4.83,4.83,0,0,0,.35,1.79,26.17,26.17,0,0,0,1.42,3.31,1.54,1.54,0,0,0,.33.47,2.17,2.17,0,0,0,1.94,0c.64-.28.23-1.07.09-1.56S239.8,109.57,239.64,109.13Z"/><path class="cls-26" d="M254.34,103.06l-.88-.06-.63-3.69c-.46-2.65-.92-5.29-1.6-7.89a.13.13,0,0,0-.25,0c-.14,0-.35.09-.3.26a4.77,4.77,0,0,0-.77.08c-.18-.66-.38-1.32-.57-2,.22-.06.37-.13.37-.22,0,.24.39.31.43.06v0a.24.24,0,0,0-.15-.28,1.82,1.82,0,0,0-.88.06.28.28,0,0,0-.25.07l-.51.14c-.61.14-1.21.29-1.81.48l0-.08c0-.13-.24-.08-.2,0l0,.09-.28.09a.11.11,0,0,0,.06.22l.29-.07c.19.63.36,1.25.53,1.88l-.63.1c-.16,0-.12.3,0,.29l.66-.08c.23.89.45,1.78.66,2.68l-.23,0c-.2,0-.11.33.09.3l.21,0,.06.27c.29,1.23.6,2.45.88,3.69l-.54,0a.15.15,0,0,0,0,.3h.61c.12.56.24,1.11.34,1.67,0,.14,0,.28.08.43-.15,0-.27.19-.12.31l.2.13a2.46,2.46,0,0,1-.46,2.26h0c-.12-.06-.26.07-.24.21a4.57,4.57,0,0,1-1.82.79l-.25-.48c-.11-.2-.4,0-.31.17s.13.26.2.38l-.14,0c-.83.15-1.67.25-2.51.34-.08-.19-.17-.38-.25-.58s-.34,0-.28.12.13.33.19.49l-2.07.2c-.16-.33-.33-.65-.5-1-.09-.16-.33,0-.25.15s.29.57.43.86l-.92.11c-.27,0-.28.46,0,.43l1.12-.1c.21.46.4.93.58,1.4-.42.09-.84.19-1.25.31a.15.15,0,0,0,.08.28c.42-.11.86-.2,1.29-.28.08.23.17.47.24.71l-1,.07c-.31,0-.32.51,0,.49l1.15-.06.18.61c.08.28.53.15.44-.12l-.18-.52c.65,0,1.31-.11,2-.18,0,.11.09.21.13.31s.47.06.38-.16c0-.07-.05-.13-.07-.2,1-.11,2-.26,2.94-.46l.36.66a.23.23,0,0,0,.4-.23l-.3-.52a15.54,15.54,0,0,0,3-.86l.54.5c.23.2.57-.13.34-.34l-.43-.39a3.36,3.36,0,0,0,1.56-1.62,4.71,4.71,0,0,0,0-2.71l.8,0C254.64,103.53,254.63,103.08,254.34,103.06ZM253,103c-.33,0-.66,0-1-.09a12,12,0,0,0-.17-3h.61l.27,1.64C252.83,102,252.93,102.47,253,103ZM250.2,92.21c.28,0,.74,0,.88-.27.46,2,.8,4.13,1.13,6.21.06.42.13.83.2,1.24l-.62,0c-.13-.73-.3-1.44-.45-2.1s-.34-1.44-.52-2.16a1.93,1.93,0,0,0,.64-.21c.26-.13,0-.53-.22-.38a1.66,1.66,0,0,1-.53.19c-.21-.84-.44-1.68-.68-2.52Zm-3.58-1.86,1.24-.28c.14,0,.6-.07,1-.14.19.65.38,1.3.56,1.95l-2.25.36C247,91.61,246.81,91,246.62,90.35Zm.67,2.21,2.26-.27c.24.85.47,1.7.7,2.55-.32,0-.64.07-.89.12L248,95.2C247.8,94.32,247.54,93.43,247.29,92.56Zm1.16,4.28c-.11-.44-.22-.88-.34-1.32l1.64-.24.59-.07.33,1.32c.23.93.47,1.91.65,2.9l-2.16.09C248.93,98.61,248.67,97.71,248.45,96.84Zm2.94,3a12.91,12.91,0,0,1,.16,3,6.17,6.17,0,0,1-1.86-.56,16.61,16.61,0,0,0-.45-2.4Zm-1.63,3.39a5.44,5.44,0,0,0,0-.57,7.33,7.33,0,0,0,1.77.57.88.88,0,0,1,0,.16,3.67,3.67,0,0,1-1.54,2.46c-.29-.3-.58-.6-.86-.91A2.28,2.28,0,0,0,249.76,103.24Zm-1,2c.26.31.52.61.79.91a8.81,8.81,0,0,1-2.1.94c-.19-.33-.37-.66-.55-1A5,5,0,0,0,248.8,105.2Zm-2.23.94.53,1-.57.15c-.7.17-1.4.3-2.1.41-.17-.39-.34-.79-.52-1.19C244.81,106.44,245.7,106.32,246.57,106.14Zm-5,.63,2-.19c.15.41.31.82.46,1.22-.62.11-1.25.21-1.87.33C242,107.67,241.74,107.22,241.53,106.77Zm1,2.41c-.09-.24-.19-.49-.29-.74l1.88-.29c.11.3.23.59.35.87C243.85,109.08,243.21,109.14,242.56,109.18ZM245,109c-.12-.3-.24-.6-.37-.89a22.82,22.82,0,0,0,2.71-.55c.18.34.36.68.55,1C246.88,108.75,245.91,108.88,245,109Zm3.34-.51q-.3-.51-.6-1a9.26,9.26,0,0,0,2.21-1c.4.43.81.84,1.22,1.25A13.81,13.81,0,0,1,248.29,108.47Zm5-3.46a2.75,2.75,0,0,1-1.68,2.47q-.68-.63-1.32-1.29a4,4,0,0,0,1.51-2,4.91,4.91,0,0,0,.21-.86c.38.06.76.1,1.14.13A9.11,9.11,0,0,1,253.26,105Z"/><path class="cls-13" d="M218.1,112.15a.85.85,0,0,1-.6.81,15.68,15.68,0,0,1-2.94.92,3,3,0,0,1-2.1,0c-.39-.2-1.21-3.12-1.39-3.52a5.61,5.61,0,0,1-.37-1.27.7.7,0,0,1,0-.38.74.74,0,0,1,.55-.38,48.68,48.68,0,0,1,4.82-1.07c.42-.09,1.39-.27,1.6.24.13.29,0,.59,0,.91S218.15,111.76,218.1,112.15Z"/><path class="cls-28" d="M226.47,120.55a2.62,2.62,0,0,0-1.13-1.15,21.84,21.84,0,0,1-1.85-1.35,4.57,4.57,0,0,0-2.61-1.46c-.08,0-.1.14,0,.15h0c-.29.2-.32.55-.42.91a4.92,4.92,0,0,1-1,1.9,5.59,5.59,0,0,1-1.72,1.25c-.45.24-1.34.43-1.63.88s.29.74.7.74c1.64,0,3.26-.14,4.91,0C222.83,122.47,227.48,123,226.47,120.55Z"/><path class="cls-33" d="M221.67,117.29a.91.91,0,0,0-.47-.61c-1.07-.7-2.6-.49-3.79-.41-2,.12-5.7,0-6.22,2.57s3.15,3.18,5,3.43l.1,0h.05c1.19-.23,2.35,0,3.39-.75a5.45,5.45,0,0,0,1.95-2.43,3.1,3.1,0,0,0,0-.86A4.86,4.86,0,0,0,221.67,117.29Z"/><path class="cls-19" d="M221.37,119.56a3.65,3.65,0,0,0-1.25-1,4.12,4.12,0,0,0-1.88,0,17.9,17.9,0,0,1-2.39-.53c-.52,0-.75.27-1.23.42s-.78,0-1.07.4c-.14.16-.11.25-.19.43l0,.24a2,2,0,0,1-.53.39,2.49,2.49,0,0,1-1.35.53,2.38,2.38,0,0,0-.8,0,1.54,1.54,0,0,0-.75.72c-.13.22-.49.65-.31.93s.67.17.95.18l4.83,0a14.79,14.79,0,0,0,1.89-.24,5.3,5.3,0,0,0,1.67-.35,4.72,4.72,0,0,0,2.3-2.11A.09.09,0,0,0,221.37,119.56Z"/><path class="cls-20" d="M216.2,121.13c-.46.32-.87-.22-1.33-.28a1.89,1.89,0,0,0-1.05.18s0,.08,0,.06a1.73,1.73,0,0,1,.93-.07,4.26,4.26,0,0,1,.81.38.76.76,0,0,0,.73-.05C216.47,121.26,216.34,121,216.2,121.13Z"/><path class="cls-20" d="M217.7,119.54c0,.07-.53-.15-.64-.17a1.35,1.35,0,0,0-.53,0,.7.7,0,0,0-.52.62c0,.16.23.16.25,0,0-.38.48-.42.78-.35a3.3,3.3,0,0,1,.43.19.35.35,0,0,0,.47-.15A.14.14,0,0,0,217.7,119.54Z"/><path class="cls-20" d="M219.51,119.39a.68.68,0,0,0-.62.06.11.11,0,0,0,.12.19.43.43,0,0,1,.4,0C219.55,119.7,219.65,119.46,219.51,119.39Z"/><path class="cls-20" d="M210.71,121.42a.55.55,0,0,0-.38.18.14.14,0,0,0,0,.21.14.14,0,0,0,.21,0l.08-.1,0,0h0a.11.11,0,0,0,.17,0A.17.17,0,0,0,210.71,121.42Z"/><path class="cls-20" d="M212.86,121.66c-.3,0-.46-.31-.74-.36a.39.39,0,0,0-.44.21c-.06.14.14.27.21.12s.43.1.54.18a.56.56,0,0,0,.46.11A.13.13,0,0,0,212.86,121.66Z"/><path class="cls-20" d="M213.23,120.32a.24.24,0,0,0-.18.29c0,.14.24.11.26,0S213.4,120.27,213.23,120.32Z"/><path class="cls-20" d="M215,119a.16.16,0,0,0,0,.32A.16.16,0,0,0,215,119Z"/><path class="cls-20" d="M218.71,120.56l-.3,0a1.23,1.23,0,0,1-.33-.08.3.3,0,0,0-.33.11c-.07.11.09.2.17.13s.33.08.43.09a1.2,1.2,0,0,0,.42-.07A.12.12,0,0,0,218.71,120.56Z"/><path class="cls-18" d="M165.61,108a2.83,2.83,0,0,0,0-.77,1.57,1.57,0,0,0-.36-.77.89.89,0,0,0-.78-.3c-.53.09-.83.74-1.37.79-.23,0-.46-.07-.68,0a1.34,1.34,0,0,0-.75.52,16.36,16.36,0,0,1-3,2.36,1.44,1.44,0,0,1-.93.35c-.52-.05-.82-.61-1-1.1L155.49,106a6.7,6.7,0,0,0-1.88-3,1.68,1.68,0,0,0-1.66-.32,1.22,1.22,0,0,0-.48.42,1.89,1.89,0,0,0-.06,2c.35.7.67,1.38,1,2.11a33.52,33.52,0,0,0,1.61,3.3c.37.69.74,1.38,1.1,2.07a3.63,3.63,0,0,0,.59.89,1.27,1.27,0,0,0,1,.42,2,2,0,0,0,.54-.16,19.67,19.67,0,0,0,3.43-2.07c1.43-1,2.89-1.93,4.39-2.82a1.19,1.19,0,0,0,.45-.35A1.1,1.1,0,0,0,165.61,108Z"/><path class="cls-34" d="M165.63,107.71c-.4.54-.79,1.1-1.17,1.65a7.09,7.09,0,0,0-.87,1.54,11.62,11.62,0,0,1-.73,2.5,2.39,2.39,0,0,1-2.25,1A3,3,0,0,1,158.5,113a4.35,4.35,0,0,1-.67-2.46,3.08,3.08,0,0,1,.1-.75,2.61,2.61,0,0,1,.32-.7,2.52,2.52,0,0,1,1.09-1,4.06,4.06,0,0,1,1.19-.24,7.47,7.47,0,0,0,4-1.51c.49-.43,1.22-1.14,1.86-.52S166,107.19,165.63,107.71Z"/><path class="cls-35" d="M166.35,107.23c-.51-.46-1-.93-1.51-1.43a.44.44,0,0,1-.15-.32.78.78,0,0,1,.3-.44l.61-.56a.65.65,0,0,1,.27-.17.31.31,0,0,1,.27.12l.9.88a2.85,2.85,0,0,1,.44.48.74.74,0,0,1-.07,1c-.15.13-.33.24-.49.37S166.53,107.39,166.35,107.23Z"/><path class="cls-36" d="M168.05,107a.23.23,0,0,1-.06.12l-.29.42s0,0-.06.06h-.06a.41.41,0,0,1-.29,0,.58.58,0,0,1-.17-.23,1.39,1.39,0,0,0-.23-.31.15.15,0,0,1-.07-.12.11.11,0,0,1,0-.08c.14-.21.37-.52.66-.42S168.05,106.86,168.05,107Z"/><path class="cls-37" d="M159.82,109.65a1.42,1.42,0,0,0-1.23.35,1.12,1.12,0,0,0-.22.72,3.17,3.17,0,0,0,.12.75,3.76,3.76,0,0,0,.25.76,2.74,2.74,0,0,0,.36.51,2.4,2.4,0,0,0,.79.63,3.19,3.19,0,0,0,1.34.16,1.46,1.46,0,0,0,.83-.19,1.44,1.44,0,0,0,.34-.49,7.94,7.94,0,0,0,.45-1.14,3.48,3.48,0,0,0,.27-1.23c0-.34-.35-.32-.63-.33a6.33,6.33,0,0,1-1.23-.21A11.84,11.84,0,0,0,159.82,109.65Z"/><path class="cls-35" d="M166,108.21c-.17.42-.25.88-.38,1.31,0,.07,0,.15-.12.17a.16.16,0,0,1-.18-.11.49.49,0,0,1,0-.24c.05-.21.12-.41.18-.62s.2-.64.29-1,.11-.34.16-.5a.69.69,0,0,1,.15-.31.25.25,0,0,1,.32,0C166.69,107.16,166.11,108,166,108.21Z"/><path class="cls-38" d="M137.15,125.22a2.15,2.15,0,0,1-.05.91,2,2,0,0,1-1.19,1,13.78,13.78,0,0,1-2.33.84,5.09,5.09,0,0,0-2.13.87,1.42,1.42,0,0,0-.17,2,34.28,34.28,0,0,0,8.13-1.8,1.53,1.53,0,0,0,1.29-1.77c.11-3.94-.18-7.91.43-11.8a2.76,2.76,0,0,0-.22-2.14,3.79,3.79,0,0,0-3.7-.79c-1.08.41-1.09,1.39-1,2.4C136.45,118.42,136.83,121.82,137.15,125.22Z"/><path class="cls-38" d="M145.58,123.12a23.76,23.76,0,0,1,.46,3.14c.17,3.6-1.72,7-2.1,10.57a8.36,8.36,0,0,1-2.65-.43,23,23,0,0,1,1-4.21,10,10,0,0,0,.42-2.08,11.31,11.31,0,0,0-.11-3.39,45.56,45.56,0,0,1-1.65-7.67,5.87,5.87,0,0,1,0-1.62c.23-1.33,2.71-3.65,3.69-1.72.48.94.32,2.53.44,3.57C145.18,120.57,145.35,121.85,145.58,123.12Z"/><path class="cls-39" d="M152.14,102.23a4,4,0,0,0-1.5-.54,2.88,2.88,0,0,0-1.93.65c-.54.4-1,.91-1.46,1.35a18.67,18.67,0,0,1-2.78,1.9,68.23,68.23,0,0,0-6.11,4.3,9.82,9.82,0,0,0-2.47,2.47,10.81,10.81,0,0,0-1,4.46,5.7,5.7,0,0,1-1.94,4.12c-.58.42-1.37.83-1.34,1.48a1.1,1.1,0,0,0,.77.9,3.46,3.46,0,0,0,1.33.19,22.18,22.18,0,0,1,2.94,0c1,.13,2,.52,3,.73a12.92,12.92,0,0,0,5.36-.16,3.84,3.84,0,0,0,2.13-1,2.27,2.27,0,0,0,.49-1.34c.11-1.8-1.05-3.49-1.11-5.3s.91-3.4,1.9-4.94a12.3,12.3,0,0,1,3.3-3.79c1.22-.84,2.75-1.34,3.88-2.28.93-.78.34-1.19-.51-1.65Z"/><path class="cls-18" d="M152.43,95.52a7.69,7.69,0,0,0-.25,1.84,6.2,6.2,0,0,0,.71,2.65,6.49,6.49,0,0,0,2.93,3.14,3.82,3.82,0,0,0,4.12-.42,4.94,4.94,0,0,0,1.19-1.91,9.49,9.49,0,0,0,.54-5.54A6.3,6.3,0,0,0,158.29,91a3.5,3.5,0,0,0-1.52-.33,3.34,3.34,0,0,0-1.41.45A6.2,6.2,0,0,0,152.43,95.52Z"/><path class="cls-40" d="M157,105a.64.64,0,0,0-.65-.44,11.45,11.45,0,0,1-2.26,1.38,12.34,12.34,0,0,1-2.13.67,42.65,42.65,0,0,1-6.2.93,4.08,4.08,0,0,0-.79.14c-1.42.14-2.84.28-4.25.45a1.17,1.17,0,0,0,.1-.94.41.41,0,0,0-.58-.27c-.36.2-.33.78-.26,1.2a1.85,1.85,0,0,1-.46.08c-.11,0-.18-.1-.29-.1-.51,0-.76.1-.94.5-.33.74.4.8,1,.55a5.21,5.21,0,0,1-1,.66,10.33,10.33,0,0,0-1.12.81,2.84,2.84,0,0,0-1,1.49c0,.15.27.19.33.05a4.65,4.65,0,0,1,2-2.13c.53-.35,1.34-.71,1.29-1.33a.14.14,0,0,0-.06-.11.94.94,0,0,0,.48-.07h0a4.83,4.83,0,0,0,1.08,1,21.87,21.87,0,0,0-5.78,5.82c-1.16,1.54-2.34,3.14-2.29,4.87a.6.6,0,0,0,.23.51,1.91,1.91,0,0,0,1,.21l13.47.43A8,8,0,0,1,149,116a30.14,30.14,0,0,1,3.38-4.89l4.38-5.57A.9.9,0,0,0,157,105Zm-17.49,3.6c-.16.36-.38.44-.67.26-.3,0-.34-.15-.11-.35s.6-.07.88,0A.14.14,0,0,0,139.53,108.56Zm.65-.55c0-.11,0-.22,0-.33s.13-.7.39-.29S140.51,107.87,140.18,108Zm1.93,1.09-.42.25a7.34,7.34,0,0,1-1.09-.81,10.82,10.82,0,0,0,2.2.16C142.57,108.84,142.34,109,142.11,109.1Zm1.18-.7a15.41,15.41,0,0,1-2.8,0,.52.52,0,0,0,.11-.1c1.14-.07,2.28-.17,3.42-.27C143.77,108.13,143.52,108.26,143.29,108.4Z"/><path class="cls-18" d="M157,121.79a.6.6,0,0,0-.42-.18,6.44,6.44,0,0,1-1,0,5.1,5.1,0,0,1-.55-.19l-.1,0c.64-4.85,1.24-9.77.41-14.58a3.6,3.6,0,0,0-.73-1.88,1.39,1.39,0,0,0-1.82-.31,1.63,1.63,0,0,0-.51.9,7.16,7.16,0,0,0-.13,1.67q0,4.22.38,8.42c.13,1.38.28,2.76.47,4.13a4.67,4.67,0,0,0,.28,1.68,1.23,1.23,0,0,0-.17.87c.09.26.43.34.71.37a17.52,17.52,0,0,0,2.29,0,1.39,1.39,0,0,0,.7-.16A.49.49,0,0,0,157,121.79Z"/><path class="cls-10" d="M144,137.11a.45.45,0,0,0,.23,0,.41.41,0,0,0,.13-.2,1.87,1.87,0,0,1,1.05-1,1.49,1.49,0,0,1,1.4.2,2.31,2.31,0,0,1,.63,2,.34.34,0,0,1-.05.17.35.35,0,0,1-.2.07c-.6.08-1.2.09-1.8.11a19.72,19.72,0,0,1-4.74-.23.68.68,0,0,1-.44-.33C139.62,136.83,143.63,137.11,144,137.11Z"/><path class="cls-10" d="M129.84,129.05a.61.61,0,0,1,.13.22,16.93,16.93,0,0,1,.76,2.28.89.89,0,0,0,.14.35.73.73,0,0,0,.49.25,7.73,7.73,0,0,0,.83,0,1.17,1.17,0,0,1,.77.27,1.45,1.45,0,0,1,.32,1,1.43,1.43,0,0,1-.07.74,1.17,1.17,0,0,1-.44.47,3.51,3.51,0,0,1-1.58.63,1,1,0,0,1-.75-.12,1.15,1.15,0,0,1-.3-.48,17.94,17.94,0,0,1-1.42-4.59.79.79,0,0,1,.24-.79C129.19,129.08,129.57,128.79,129.84,129.05Z"/><path class="cls-41" d="M161.71,92.22a3.94,3.94,0,0,0-1.59-1.52A4.34,4.34,0,0,0,159,89.62a4.49,4.49,0,0,0-2.36-.57,7.35,7.35,0,0,0-6.24,3.38,4.94,4.94,0,0,0-.64,1.56c0,.05,0,.1,0,.15a6.93,6.93,0,0,0-.52,1.46,4.69,4.69,0,0,1-1.68,2.32,8,8,0,0,1-2.57.9c-1.36.34-2.81,1-3.39,2.23-.28.6-.36,1.36-.91,1.74s-1.31.24-1.81.65a1.36,1.36,0,0,0-.4,1.2,4.13,4.13,0,0,0,.42,1.24c.31.65.69,1.36,1.37,1.55s1.44-.14,1.9.33a2,2,0,0,1,.4.95,2.57,2.57,0,0,0,1.92,1.77,2.36,2.36,0,0,0,2.39-1,9,9,0,0,0,.57-1.44,1.84,1.84,0,0,1,1-1.15c.34-.12.76-.09,1-.33s.25-.88.4-1.33a1.92,1.92,0,0,1,1.39-1.1,5.33,5.33,0,0,1,2.91,0,1.11,1.11,0,0,0,.5.07.68.68,0,0,0,.38-.92l0-.06a5.27,5.27,0,0,0,.79,0,2.06,2.06,0,0,1-.94-1.29,1.89,1.89,0,0,0-.26-.89c-.28-.35-.85-.38-1.08-.76a.61.61,0,0,1,.18-.8.63.63,0,0,1,.81.15c-.43-.59.41-2.2.81-2.62a3.8,3.8,0,0,1,.78-.65c.48,0,1.18-.32,1.64-.21s1,.39,1.47.48a1.1,1.1,0,0,0,1.28-.61c.27.55,1,.53,1.63.44a.42.42,0,0,0,.25-.09.44.44,0,0,0,.09-.27A6.61,6.61,0,0,0,161.71,92.22Z"/><path class="cls-17" d="M127.7,139.1c0,1,1.91.76,1.81-.25-.29-2.82-1.11-5.53-1.56-8.33s-1.08-5.57-1.63-8.35c-.14-.73-1-.63-1,.11a58.53,58.53,0,0,0,1.13,8.15l.21,1.29c.23,1.78.46,3.56.66,5.35l.09.81C127.47,138.3,127.7,138.68,127.7,139.1Z"/><path id="Path_764" data-name="Path 764" class="cls-42" d="M184.74,27.1c-32,20.4-64.65,50-104,57.85-26.86,5.38-56.28-2.68-72.14,25.84-20.5,36.86-2.11,71.79,32.32,90.77,31,17.13,63.49,14.57,97.27,9.6,50.16-7.37,90.05,16.7,138.25,17.72,33.15.7,70.5-14.84,82.84-47.86,15.29-41-10.49-126.87-42.6-155.51C269.35-16.68,226.7.36,184.74,27.1Z"/></g></g></g></svg>