<svg xmlns="http://www.w3.org/2000/svg" xmlns:xlink="http://www.w3.org/1999/xlink" viewBox="0 0 66.2 107.57"><defs><style>.cls-1{mask:url(#mask);filter:url(#luminosity-noclip-2);}.cls-2,.cls-5{mix-blend-mode:multiply;}.cls-2{fill:url(#linear-gradient);}.cls-3{isolation:isolate;}.cls-4{mask:url(#mask-2);}.cls-5{opacity:0.2;fill:url(#linear-gradient-2);}.cls-6{fill:#d3e4ea;}.cls-7{fill:#999;}.cls-8{fill:#fff;}.cls-9{fill:#b1657d;}.cls-10{fill:#ff8fa0;}.cls-11{fill:#f9fbfc;}.cls-12{fill:#e0c74e;}.cls-13{opacity:0.62;}.cls-14{fill:#e5e8ed;}.cls-15{fill:#eef1f3;}.cls-16{fill:#afc3d0;opacity:0.26;}.cls-17{fill:#414141;}.cls-18{fill:#d0d1d3;}.cls-19{fill:#d8d8d8;}.cls-20{fill:#d1ac9d;}.cls-21{fill:#ebefeb;}.cls-22{fill:#aa6a64;}.cls-23{fill:#585973;}.cls-24{fill:#333;}.cls-25{fill:#e5e8e3;}.cls-26{fill:#afd9c4;}.cls-27{filter:url(#luminosity-noclip);}</style><filter id="luminosity-noclip" x="5.65" y="-8188.23" width="31.76" height="32766" filterUnits="userSpaceOnUse" color-interpolation-filters="sRGB"><feFlood flood-color="#fff" result="bg"/><feBlend in="SourceGraphic" in2="bg"/></filter><mask id="mask" x="5.65" y="-8188.23" width="31.76" height="32766" maskUnits="userSpaceOnUse"><g class="cls-27"/></mask><linearGradient id="linear-gradient" x1="-2.2" y1="2341.89" x2="29.59" y2="2341.89" gradientTransform="matrix(-1, 0.03, -0.03, -1, 109.45, 2445.81)" gradientUnits="userSpaceOnUse"><stop offset="0" stop-color="#fff"/><stop offset="1"/></linearGradient><filter id="luminosity-noclip-2" x="5.65" y="103.38" width="31.76" height="4.18" filterUnits="userSpaceOnUse" color-interpolation-filters="sRGB"><feFlood flood-color="#fff" result="bg"/><feBlend in="SourceGraphic" in2="bg"/></filter><mask id="mask-2" x="5.65" y="103.38" width="31.76" height="4.18" maskUnits="userSpaceOnUse"><g class="cls-1"><path class="cls-2" d="M5.91,107.29A1.35,1.35,0,0,1,6,105.6a2.14,2.14,0,0,1,1.44-.51c8.58-.7,17.16-1.32,25.75-1.7.85,0,5.37.13,3.93,2.57-.74,1.26-3.58.85-4.63.86l-16.9.3-4.84.09C9.84,107.22,6.61,108,5.91,107.29Z"/></g></mask><linearGradient id="linear-gradient-2" x1="-2.2" y1="2341.89" x2="29.59" y2="2341.89" gradientTransform="matrix(-1, 0.03, -0.03, -1, 109.45, 2445.81)" gradientUnits="userSpaceOnUse"><stop offset="0"/><stop offset="1"/></linearGradient></defs><title>new_parent_support</title><g class="cls-3"><g id="Layer_2" data-name="Layer 2"><g id="Object"><g class="cls-4"><path class="cls-5" d="M5.91,107.29A1.35,1.35,0,0,1,6,105.6a2.14,2.14,0,0,1,1.44-.51c8.58-.7,17.16-1.32,25.75-1.7.85,0,5.37.13,3.93,2.57-.74,1.26-3.58.85-4.63.86l-16.9.3-4.84.09C9.84,107.22,6.61,108,5.91,107.29Z"/></g><path class="cls-6" d="M39.62.45C27.33.39,13.77.32,2.13.58c-.51,9.71.46,19.42.43,28.73q18.52.14,37.06,0C39.07,19.62,39.89,10.15,39.62.45Z"/><path class="cls-7" d="M40.28.45a.32.32,0,0,0-.17-.26.82.82,0,0,0-.49-.13C27.13,0,14.62-.08,2.13.18c-.37,0-.65.18-.66.4-.47,9.58.45,19.15.43,28.73,0,.21.3.39.66.39q18.52.14,37.06,0c.35,0,.67-.18.66-.39C39.76,19.69,40.52,10.07,40.28.45ZM3.21,28.92c0-9.32-.87-18.64-.44-28C14.83.72,26.91.78,39,.84c.2,9.36-.5,18.72,0,28.08Q21.08,29,3.21,28.92Z"/><path class="cls-8" d="M19.38,19.63Q13.55,22.45,8,25.47c-.08,0,0,.1.12.06q5.6-3,11.47-5.8C19.69,19.67,19.51,19.56,19.38,19.63Z"/><path class="cls-8" d="M15.57,23.39l-4.75,2.47c-.05,0,0,.07.08,0l4.81-2.42C15.81,23.43,15.67,23.34,15.57,23.39Z"/><path class="cls-8" d="M29.12,2.3c-2.92,1.77-5.87,3.53-8.8,5.3-.12.07.07.18.2.11l8.76-5.32C29.38,2.33,29.22,2.24,29.12,2.3Z"/><path class="cls-8" d="M33.42,2.05c-4.07,2.5-8.11,5-12,7.61-.13.08.08.2.2.12,3.9-2.59,7.8-5.17,11.86-7.68C33.55,2.07,33.47,2,33.42,2.05Z"/><path class="cls-9" d="M7.82,34.45a.57.57,0,0,1,0,.14s0,.08-.09.09h0s0,0,0,0,.14.06.17,0A1,1,0,0,0,8,34.4a.21.21,0,0,0,0-.11.16.16,0,0,0-.11-.07s-.12,0-.12,0l0,0,0,0s0,.07,0,.1S7.83,34.44,7.82,34.45Z"/><path class="cls-10" d="M8,34.57l.18-.4.3-.78c.58-1.62,1-3.27,1.48-4.92.05-.18.13-.38.31-.41s.25.08.38.07c.31,0,.4-.56.46-.78s.2-.5,0-.6a1.31,1.31,0,0,0-.59-.1.33.33,0,0,0-.17,0,.43.43,0,0,0-.1.09,6,6,0,0,0-.86,1.93c-.25.75-.49,1.49-.78,2.22a20,20,0,0,0-1,3.47.6.6,0,0,0,0,.35.23.23,0,0,0,.28.15C7.88,34.88,8,34.63,8,34.57Zm-.21.13c-.11,0-.12-.1-.11-.18a.67.67,0,0,1,.07-.18l0-.07c.07-.06.16,0,.16.09a.15.15,0,0,1,0,.11.58.58,0,0,1-.06.15A.14.14,0,0,1,7.77,34.7Z"/><path class="cls-11" d="M10.79,27a3.7,3.7,0,0,0-.28.72.92.92,0,0,0,0,.28c0,.12.19.17.29.2s.23-.2.28-.33.08-.14.09-.22,0-.07,0-.11,0,0,0-.08a1.22,1.22,0,0,0,0-.17.75.75,0,0,0,.06-.13.91.91,0,0,0,.07-.14.64.64,0,0,1,0-.07s0-.06,0-.09-.23-.12-.29-.14-.23.12-.29.25Z"/><path class="cls-9" d="M8.81,34.46a1.16,1.16,0,0,1,0,.18.14.14,0,0,1,0,.14s0,0,0,0h0c.07,0,.19,0,.19-.11a1,1,0,0,0-.07-.43.19.19,0,0,0-.08-.11.15.15,0,0,0-.16,0s-.14.07-.11.1,0,0,0,0h.06s.07.06.09.1Z"/><path class="cls-12" d="M9.05,34.47c0-.18-.06-.36-.1-.54-.07-.34-.15-.68-.23-1-.53-2.09-1.22-4.12-1.91-6.16-.08-.22-.13-.49,0-.64s.31-.1.44-.19c.31-.24,0-.87-.07-1.14s-.14-.67-.43-.62a1.77,1.77,0,0,0-.69.3.49.49,0,0,0-.15.17.86.86,0,0,0,0,.17,7.52,7.52,0,0,0,.46,2.61c.26.95.53,1.89.74,2.86A25.29,25.29,0,0,0,8.48,34.6a.77.77,0,0,0,.24.37.27.27,0,0,0,.39,0C9.16,34.87,9.06,34.56,9.05,34.47Zm-.13.28c-.1.11-.19,0-.24-.11a.87.87,0,0,1,0-.22.24.24,0,0,1,0-.12c0-.11.17-.1.24,0a.5.5,0,0,1,.05.13c0,.05,0,.13,0,.2A.23.23,0,0,1,8.92,34.75Z"/><path class="cls-11" d="M6.67,24.64a4.51,4.51,0,0,0,.22.95,1.09,1.09,0,0,0,.15.33c.1.11.31,0,.44,0s.1-.37.06-.54,0-.2-.06-.29A.67.67,0,0,1,7.42,25a.5.5,0,0,1,0-.12,1.31,1.31,0,0,0-.08-.21c0-.05,0-.11,0-.17a.75.75,0,0,0,0-.2l0-.08a.35.35,0,0,0,0-.11c-.07-.07-.33.05-.4.07-.23.06-.16.28-.13.45Z"/><g class="cls-13"><path class="cls-14" d="M10,28.47c.17,0,.37.07.44.22a.13.13,0,0,1,0,.13c0,.1-.13.13-.23.15a8.23,8.23,0,0,1-1.65.13H6.5c-.23,0-.59-.17-.3-.37a3.82,3.82,0,0,1,1.13-.19A10,10,0,0,1,10,28.47Z"/><path class="cls-15" d="M10.5,28.76q.15,3.31,0,6.63a.58.58,0,0,1-.07.32.6.6,0,0,1-.3.19,5.3,5.3,0,0,1-2.37.24,2.62,2.62,0,0,1-1.25-.45.74.74,0,0,1-.28-.33,1.1,1.1,0,0,1,0-.4c0-2,0-4.07-.17-6.1a11.46,11.46,0,0,0,4.25.07A.28.28,0,0,0,10.5,28.76Z"/><path class="cls-16" d="M8,35.41a13,13,0,0,1,2.07-.08.2.2,0,0,1,.15,0,.16.16,0,0,1,0,.22.36.36,0,0,1-.22.11,6,6,0,0,1-2.56.13c-.08,0-.85-.14-.66-.4,0,0,.44,0,.52,0A4.25,4.25,0,0,0,8,35.41Z"/></g><path class="cls-17" d="M.26,36.06A.48.48,0,0,1,.5,36c.39,0,1.87,0,2.3,0H41.62c.48,0,.93,0,1.2,0s.33.07.31.12a4.64,4.64,0,0,1,.17,1.12,7.63,7.63,0,0,1-.24,1.6l-.4,0-2.51,0H2.79c-.44,0-1.93,0-2.32,0s-.4,0-.38-.12A12.48,12.48,0,0,1,0,37.38C0,37-.07,36.34.26,36.06Z"/><path class="cls-17" d="M21.71,60.94a1.61,1.61,0,0,0,.11.66,1.47,1.47,0,0,0,.7.6c.42.21,1,.38,1.31,0a1.22,1.22,0,0,0,.27-.86c.07-2,.15-4,.22-6a1.93,1.93,0,0,0-.47-1.65A1.88,1.88,0,0,0,22,53.64c-.54.35-.44,1-.43,1.56C21.61,57.11,21.66,59,21.71,60.94Z"/><path class="cls-18" d="M5.34,46.1a14.07,14.07,0,0,0,9.82,10,27.67,27.67,0,0,0,8.67.44c4.18-.23,8.44-.47,12.33-2a4.4,4.4,0,0,0,1.54-.9,5,5,0,0,0,1-1.94c.58-1.66,1.23-4.33,1.81-6Z"/><path class="cls-19" d="M6,46.39a97.32,97.32,0,0,0,13.87.23c1.93-.15,3.85-.42,5.78-.5,4.88-.21,9.77.75,14.64.32.39,0,.91-.27.79-.64s-.4-.32-.67-.34a112.07,112.07,0,0,0-16.79-.27c-2.79.21-5.55.61-8.34.69a56.85,56.85,0,0,1-7.15-.3c-.6-.06-2.76-.63-3.2-.24C4.21,46,5.56,46.36,6,46.39Z"/><path class="cls-20" d="M28,104.55a1.14,1.14,0,0,0,.15.45c.19.3,1.09.17,1.4.13l3.87-.54a4.23,4.23,0,0,0,1-.23.62.62,0,0,0,.41-.56.55.55,0,0,0-.07-.25c-.11-.27-.25-.55-.49-.63a1,1,0,0,0-.52,0,9.51,9.51,0,0,1-1.31,0c-.31,0-.62.08-.94.08a1.23,1.23,0,0,1-.88-.33,2.49,2.49,0,0,1-.48-1.29c-.06-.39-.13-.78-.19-1.17a.54.54,0,0,0-.07-.19.31.31,0,0,0-.11-.09,1.75,1.75,0,0,0-1.17.06,4,4,0,0,0-.88.3c-.21.24,0,.49.09.73a6.53,6.53,0,0,1,.11,1.17A17.47,17.47,0,0,0,28,104.55Z"/><path class="cls-20" d="M15.75,102.56a10.31,10.31,0,0,1-.24,2,2.12,2.12,0,0,0,.14,1.7,1.88,1.88,0,0,0,1.35.54,1.92,1.92,0,0,0,1.3-.21,1.51,1.51,0,0,0,.42-1.51c-.11-.54-.38-1-.52-1.57a4.74,4.74,0,0,1-.12-1.55c0-.66.11-1.45-.4-1.86s-1.7-.5-2,.07S15.76,101.92,15.75,102.56Z"/><path class="cls-20" d="M15.51,40.89a4.44,4.44,0,0,0,1.77-.75,1.54,1.54,0,0,0,.55-1.72.51.51,0,0,0-.26-.28.61.61,0,0,0-.27,0,42.75,42.75,0,0,0-7.75,1.56c-.85.25-2,.64-2.33,1.57a1,1,0,0,0,1.06,1.48,20.52,20.52,0,0,0,3.57-.9Z"/><path class="cls-20" d="M14.45,33.65a2.5,2.5,0,0,0,.18-.91,1.51,1.51,0,0,0-.48-1.07,1.64,1.64,0,0,0-1.34-.47c-1.39.16-1.92,1.68-2.57,2.92-.79,1.51-1.64,3-2.53,4.44a8.87,8.87,0,0,0-1.35,2.83,1.69,1.69,0,0,0,.11,1.23,1.05,1.05,0,0,0,.81.42,2.22,2.22,0,0,0,1.31-.35,7.36,7.36,0,0,0,2.28-3q1.19-2.17,2.54-4.25A9.78,9.78,0,0,0,14.45,33.65Z"/><path class="cls-21" d="M10.08,31.52a27.55,27.55,0,0,1,4-4.53,3.16,3.16,0,0,1,2.41-1,2.26,2.26,0,0,1,1.71,1.85,4.47,4.47,0,0,1-.44,2.61c-.37.82-.86,1.58-1.21,2.41-.56,1.26-.8,2.66-1.39,3.91A.48.48,0,0,1,15,37a.56.56,0,0,1-.21.06,4,4,0,0,1-2-.27,6.9,6.9,0,0,1-1.25-.75,27.59,27.59,0,0,1-2.85-2c-.46-.43,0-.71.3-1.15Z"/><path class="cls-9" d="M32.64,21.11h.18a.22.22,0,0,0,.14-.06s0,0,0,0h0c0,.07,0,.19-.07.21a1.08,1.08,0,0,1-.44,0,.17.17,0,0,1-.12,0,.18.18,0,0,1,0-.17s0-.14.07-.13a.08.08,0,0,1,0,0,.07.07,0,0,0,0,.05s.07.06.12.07Z"/><path class="cls-12" d="M33.17,21.3a.29.29,0,0,0-.05-.39.79.79,0,0,0-.42-.15,25.5,25.5,0,0,0-4.53-.31c-1,0-2,0-3-.07a7.62,7.62,0,0,0-2.65.17.33.33,0,0,0-.16.07.38.38,0,0,0-.12.18,1.57,1.57,0,0,0-.13.74c0,.29.48.24.69.27s1,.16,1.13-.19c.06-.15,0-.34.08-.48s.39-.21.61-.18c2.15.2,4.28.4,6.44.43h1l.55,0C32.79,21.34,33.11,21.36,33.17,21.3Zm-.36-.07h-.2a.3.3,0,0,1-.13,0c-.1,0-.14-.17,0-.23a.19.19,0,0,1,.1,0h.24c.1,0,.25.09.16.21A.21.21,0,0,1,32.81,21.23Z"/><path class="cls-11" d="M22.59,21.31a5.25,5.25,0,0,1,1,0,1,1,0,0,1,.36.07c.13.08.11.3.11.43s-.34.18-.52.18a1.51,1.51,0,0,1-.3,0,.5.5,0,0,0-.13,0L23,22a2.07,2.07,0,0,1-.22,0c-.06,0-.11,0-.17,0a.67.67,0,0,1-.2,0h-.08s-.09,0-.12,0,0-.32,0-.4c0-.24.24-.22.41-.23Z"/><path class="cls-20" d="M36.62,31.53c-3.34-.32-6.41-1.91-9.47-3.31A2.47,2.47,0,0,0,24.74,28a1.54,1.54,0,0,0-.46,1.7,2.9,2.9,0,0,0,1.15,1.44,10.88,10.88,0,0,0,3.5,1.44A91.83,91.83,0,0,0,38.45,35a1.59,1.59,0,0,0,1.27-.14,1.28,1.28,0,0,0,.39-.65,3.33,3.33,0,0,0,0-2.07A6.41,6.41,0,0,0,39,30.33,98.71,98.71,0,0,0,31.64,22a1.19,1.19,0,0,0-.56-.39c-.41-.08-.65.24-.91.48-.52.49-.6.59-.26,1.13a24.49,24.49,0,0,0,2.51,2.59A38.06,38.06,0,0,1,36.62,31.53Z"/><path class="cls-21" d="M26.63,26.79c1.49.65,2.86,1.65,4.46,1.94A6.07,6.07,0,0,1,32.3,29a1.1,1.1,0,0,1,.72.94,1.4,1.4,0,0,1-.28.72,9.11,9.11,0,0,1-3.41,3.14A1,1,0,0,1,28,33.62a37.31,37.31,0,0,1-2.83-2.49c-.74-.72-3.39-2.94-3-4.09C22.7,25.54,25.66,26.36,26.63,26.79Z"/><path class="cls-22" d="M29.57,78.33c-.33-6.43.37-13,.31-19.48a13.46,13.46,0,0,0-1-6.64,1.05,1.05,0,0,0-.23-.36c-.35-.32-.95-.15-1.41,0a17.15,17.15,0,0,1-13.72-1,7.62,7.62,0,0,0-1.22,3.6,54.58,54.58,0,0,0-.76,6.08h0c0,.44,0,.87,0,1.31a50.73,50.73,0,0,0,1.06,7.53,31.43,31.43,0,0,1,.57,4.92,15.41,15.41,0,0,0,.15,3.9c.85,3.26.86,6.81,1.22,10.13.39,3.57.3,8.31.61,11.88,0,.14,0,.28,0,.42.21,0,3.37.68,3.37,0,.25-6.92,1-15,1.23-22,.11-2.92-.13-12.76.72-15.54l1.05.09c1.93,9.17,3.74,26.4,5.67,35.56.17.81.07,2.07.86,2s1.89.37,2.07-.43C29.53,93.27,29.94,85.34,29.57,78.33Z"/><path class="cls-21" d="M22.92,25.08a3.08,3.08,0,0,1,1.46,1.2,19.85,19.85,0,0,1,4.25,8.14c.19.91.27,1.84.37,2.77q.72,7.45,1.94,14.85A4.76,4.76,0,0,1,30.82,55a3.9,3.9,0,0,1-3,1.74,34.86,34.86,0,0,1-5.31.27,47.56,47.56,0,0,0-7.15.69c-1.31.22-2.84.44-3.8-.5a3.22,3.22,0,0,1-.66-2.95c.22-1,.7-2,1-3a17.74,17.74,0,0,0,.49-3.57A111.6,111.6,0,0,1,14.5,33.07c.45-2.15.93-5.49,2.68-7C18.34,25.07,21.58,24.7,22.92,25.08Z"/><path class="cls-20" d="M17.13,11.12A7.59,7.59,0,0,0,15.83,16a18.86,18.86,0,0,0,.45,4A7.24,7.24,0,0,0,18,23.48a4,4,0,0,0,3.91,1.08c1.55-.53,2.28-2.12,2.78-3.56a12.9,12.9,0,0,0,1-6.42,7.38,7.38,0,0,0-3.46-4.7C20.53,8.74,18.24,9.71,17.13,11.12Z"/><path class="cls-23" d="M21.62,27.45l-1.09-.2a1.21,1.21,0,0,0-.84,1.25,2.16,2.16,0,0,0,1.7-.13c.22-.08.47-.21.5-.44A.57.57,0,0,0,21.62,27.45Z"/><path class="cls-24" d="M19.85,30.52a14.76,14.76,0,0,1,.52,1.95,4.57,4.57,0,0,1-.73,2.18,2.76,2.76,0,0,0-.35,2.22c.15.37.43.67.55,1.05a5.19,5.19,0,0,1-.14,1.83A4.37,4.37,0,0,0,20.29,42c.29.58.75,1.22,1.39,1.15a1.1,1.1,0,0,0,.64-.33,1.91,1.91,0,0,0,.52-1.86,2.61,2.61,0,0,1-.16-.61A2.59,2.59,0,0,1,23,39.4a3.9,3.9,0,0,0,.15-1.18l0-2.24a5.11,5.11,0,0,0-.08-1.24c-.13-.61-.47-1.16-.57-1.77a6.14,6.14,0,0,1,0-1c0-1-.12-3.14-1.12-3.71C20.21,27.53,19.71,29.76,19.85,30.52Z"/><path class="cls-24" d="M27.49,18.32c0-.6-.28-1.17-.31-1.78a10,10,0,0,0,0-1.34,2.5,2.5,0,0,0-.36-.86,7.15,7.15,0,0,0-.69-3,6.12,6.12,0,0,0-3.16-3l-.48-.16A1.79,1.79,0,0,0,21.26,8a4.66,4.66,0,0,0-3.83,1.27,4.83,4.83,0,0,0-.43.58,9.4,9.4,0,0,0-3,3.45,16.12,16.12,0,0,0-1.28,6.35,3.47,3.47,0,0,0,.12,1.4c.29.8,1.14,1.39,1.13,2.24,0,.33-.15.64-.18,1a2.42,2.42,0,0,0,1.56,2.17c.84.43,3.61.41,4.34,1a1.12,1.12,0,0,0,.58.32.63.63,0,0,0,.48-.24l0,0c.49.4,1.67-.12,2.1-.43s.69-.65,1.09-.9c.75-.48,1.86-.57,2.21-1.39a3.77,3.77,0,0,0,0-1.64C26.16,21.48,27.59,20,27.49,18.32Z"/><path class="cls-20" d="M27.57,21.85c-.22,0-.34.28-.27.48a.94.94,0,0,0,.47.43,5.51,5.51,0,0,0,1.93.61.55.55,0,0,0,.31,0c.19-.07.27-.28.41-.43.31-.35.89-.34,1.24-.65A1.69,1.69,0,0,0,32,21a2.08,2.08,0,0,0-.47-1.66,2.09,2.09,0,0,0-1.91-.09l-.95.27a2.85,2.85,0,0,0-.77.29C27.29,20.2,27.49,21.19,27.57,21.85Z"/><path class="cls-25" d="M66.19,2.9c0-1.67-2.78-1.48-4.71-1.48h-7.1c-1.63,0-4.28-.29-5.24.77a1.52,1.52,0,0,0-.37.89,15.93,15.93,0,0,0-.11,2V21.21a1.63,1.63,0,0,0,1.63,1.62H64.38A1.81,1.81,0,0,0,66.19,21V6.6C66.19,5.36,66.21,4.13,66.19,2.9Z"/><path class="cls-21" d="M65.66,3.44c0-1.54-2.58-1.36-4.37-1.36H54.72c-1.52,0-4-.28-4.86.71a1.41,1.41,0,0,0-.34.82,13.58,13.58,0,0,0-.1,1.8v15a1.5,1.5,0,0,0,1.5,1.5H64a1.68,1.68,0,0,0,1.68-1.67V6.87C65.66,5.73,65.67,4.58,65.66,3.44Z"/><path class="cls-26" d="M55.12,5.55a.11.11,0,0,0-.11-.1h0a1.17,1.17,0,0,0-.32,0h-.54c0-.26,0-.52,0-.78a.14.14,0,0,0,0-.06.09.09,0,0,0-.08-.1h-.77a.09.09,0,0,0-.08.14v.81l-.86,0-.06,0a.1.1,0,0,0-.11.09c0,.25,0,.51,0,.77a.1.1,0,0,0,.15.08h.87c0,.12,0,.24,0,.36a1.08,1.08,0,0,0,0,.36l0,.05v.08a.13.13,0,0,0,.12.12h.48A.44.44,0,0,0,54,7.35a.1.1,0,0,0,.09-.11h0a1.06,1.06,0,0,0,0-.31c0-.15,0-.3,0-.45v0h.38a1.14,1.14,0,0,0,.37,0s0,0,.05,0H55a.13.13,0,0,0,.13-.12c0-.16,0-.32,0-.48A.4.4,0,0,0,55.12,5.55Z"/><path class="cls-8" d="M55.36,16c-1.54,1.23-3,2.53-4.45,3.89,0,0,0,.09.05.05q2.16-2,4.48-3.85C55.5,16,55.42,15.91,55.36,16Z"/><path class="cls-8" d="M55,17.94,51.64,20.5s0,.12,0,.08l3.37-2.53C55.11,18,55.05,17.89,55,17.94Z"/><path class="cls-8" d="M60.89,6,59.68,7.19a0,0,0,1,0,.06.06c.41-.38.81-.77,1.21-1.16C61,6.05,60.93,6,60.89,6Z"/><path class="cls-8" d="M62.46,5.65c-1,1.15-2,2.25-3.08,3.33,0,0,0,.11.07.07,1.06-1.08,2.07-2.2,3-3.35C62.53,5.67,62.48,5.62,62.46,5.65Z"/></g></g></g></svg>