<svg xmlns="http://www.w3.org/2000/svg" xmlns:xlink="http://www.w3.org/1999/xlink" viewBox="0 0 50.17 102.46"><defs><style>.cls-1{mask:url(#mask);filter:url(#luminosity-noclip-2);}.cls-2,.cls-5{mix-blend-mode:multiply;}.cls-2{fill:url(#linear-gradient);}.cls-3{isolation:isolate;}.cls-4{mask:url(#mask-2);}.cls-5{opacity:0.2;fill:url(#linear-gradient-2);}.cls-6{fill:#3d3d3d;}.cls-7{fill:#4d4d4d;}.cls-8{fill:#ccaf9b;}.cls-9{fill:#8fa0a8;}.cls-10{fill:#6b6883;}.cls-11{fill:#333;}.cls-12{fill:#97a8b2;}.cls-13{fill:#efefef;}.cls-14{fill:#b59b8a;}.cls-15{fill:#473d36;}.cls-16{fill:#65627d;}.cls-17{fill:#662e2a;}.cls-18{filter:url(#luminosity-noclip);}</style><filter id="luminosity-noclip" x="0" y="-8439.12" width="50.17" height="32766" filterUnits="userSpaceOnUse" color-interpolation-filters="sRGB"><feFlood flood-color="#fff" result="bg"/><feBlend in="SourceGraphic" in2="bg"/></filter><mask id="mask" x="0" y="-8439.12" width="50.17" height="32766" maskUnits="userSpaceOnUse"><g class="cls-18"/></mask><linearGradient id="linear-gradient" x1="923.66" y1="2074.62" x2="973.84" y2="2074.62" gradientTransform="translate(990.22 2167.24) rotate(179.55)" gradientUnits="userSpaceOnUse"><stop offset="0" stop-color="#fff"/><stop offset="1"/></linearGradient><filter id="luminosity-noclip-2" x="0" y="97.92" width="50.17" height="4.54" filterUnits="userSpaceOnUse" color-interpolation-filters="sRGB"><feFlood flood-color="#fff" result="bg"/><feBlend in="SourceGraphic" in2="bg"/></filter><mask id="mask-2" x="0" y="97.92" width="50.17" height="4.54" maskUnits="userSpaceOnUse"><g class="cls-1"><path class="cls-2" d="M1.64,100a2.93,2.93,0,0,0-1.21.53,1.05,1.05,0,0,0-.36,1.18C2.33,103.37,32,101.91,48,101c1.09-.07,2.86-.86,2-2.26-.55-.87-2.09-.69-3-.66-3.58.12-7.13.22-10.71.16-7.45-.13-14.91-.59-22.35-.12A64.38,64.38,0,0,0,1.64,100Z"/></g></mask><linearGradient id="linear-gradient-2" x1="923.66" y1="2074.62" x2="973.84" y2="2074.62" gradientTransform="translate(990.22 2167.24) rotate(179.55)" gradientUnits="userSpaceOnUse"><stop offset="0"/><stop offset="1"/></linearGradient></defs><title>nurturing_mum</title><g class="cls-3"><g id="Layer_2" data-name="Layer 2"><g id="Object"><g class="cls-4"><path class="cls-5" d="M1.64,100a2.93,2.93,0,0,0-1.21.53,1.05,1.05,0,0,0-.36,1.18C2.33,103.37,32,101.91,48,101c1.09-.07,2.86-.86,2-2.26-.55-.87-2.09-.69-3-.66-3.58.12-7.13.22-10.71.16-7.45-.13-14.91-.59-22.35-.12A64.38,64.38,0,0,0,1.64,100Z"/></g><path class="cls-6" d="M26.73,94.05a1,1,0,0,1,.34,0,.74.74,0,0,1,.3.23,8.89,8.89,0,0,1,1.11,1.86,1,1,0,0,0,.26.35,1.18,1.18,0,0,0,.52.17l3.34.56a.61.61,0,0,1,.41.17.64.64,0,0,1,.1.43v.82a.42.42,0,0,1,0,.25.44.44,0,0,1-.34.13,32,32,0,0,1-8.06-.51,7.08,7.08,0,0,1-1.12-.29.89.89,0,0,1-.43-.3.87.87,0,0,1-.1-.39c-.06-.6-.09-1.2-.1-1.8,0-.34-.13-1.05.2-1.27a4.69,4.69,0,0,1,1.73-.28C25.46,94.13,26.09,94.08,26.73,94.05Z"/><path class="cls-7" d="M28.09,47.79q-.12,23.43-2,46.81a7.15,7.15,0,0,1-2,.61,1,1,0,0,1-.53,0c-.31-.15-.37-.55-.4-.89C21.93,78.06,19,62,16.35,46a2.76,2.76,0,0,1,0-1.4,2.46,2.46,0,0,1,1.25-1.19,12.43,12.43,0,0,1,7.74-1.29c1,.17,2.35.27,2.69,1.31S28.1,46.54,28.09,47.79Z"/><path class="cls-7" d="M8.12,47.28a30.05,30.05,0,0,0,0,5.45c.21,1.65.68,3.25,1,4.88a77.12,77.12,0,0,1,1.21,9.71q1,11.54,2.59,23a43.63,43.63,0,0,0,1,5.43l2.4-.28a1.23,1.23,0,0,0,.79-.28,1.21,1.21,0,0,0,.26-.79q.41-4,.79-8a37.8,37.8,0,0,0,.25-4.12c0-1.67-.24-3.33-.3-5-.14-4.27.87-8.49,1.64-12.7a111.13,111.13,0,0,0,1.74-17.36,3.89,3.89,0,0,0-.26-1.83,3.44,3.44,0,0,0-1.82-1.48,13.18,13.18,0,0,0-4.94-1.16c-.9,0-1.8,0-2.7-.07s-1.82-.65-2.64-.7c-1.16-.07-.88.73-.94,1.8S8.18,46.12,8.12,47.28Z"/><path class="cls-8" d="M44.81,97.45a.94.94,0,0,0-.4-.13,4.41,4.41,0,0,0-1,0c-.39,0-.77.13-1.16.15a1.66,1.66,0,0,1-1.11-.28,1.74,1.74,0,0,1-.57-1.06.75.75,0,0,0,0-.16c0-6.91-1.44-49-1.44-49-.74-4.86-2.23-3.74-9.6-4.18s-7.17,4.46-7.17,4.46C22,57,25.41,96.41,25.41,96.41h0a3.88,3.88,0,0,0,0,.77c0,.36,0,.72,0,1.08a1.47,1.47,0,0,0,.23.93,1.4,1.4,0,0,0,.65.34,15.37,15.37,0,0,0,4.54.38.77.77,0,0,0,.88-.87c0-.33.07-.73-.19-1a1,1,0,0,0-.44-.17,8.39,8.39,0,0,0-.86-.1,6.2,6.2,0,0,1-1.36-.12,1.33,1.33,0,0,1-1-.87c0-.14,0-.29-.1-.42h0c-.62-2.54,1.65-37.62,2-37.77a8.24,8.24,0,0,1,2.26.31c2.22,2,6.08,34.17,6.42,37a.81.81,0,0,0,0,.16c0,.76.09,1.51.13,2.27a1.29,1.29,0,0,0,.2.73,1.27,1.27,0,0,0,.87.35,30.56,30.56,0,0,0,4.06,0,1.33,1.33,0,0,0,.88-.25,1.31,1.31,0,0,0,.28-.55,2.29,2.29,0,0,0,.14-.68A.72.72,0,0,0,44.81,97.45Z"/><path class="cls-9" d="M39,22.14a4.08,4.08,0,0,1,.75,1.62c.9,2.95,2.33,5.7,3.3,8.62.24.74.46,1.5.67,2.26.17.58.34,1.17.5,1.75a3.34,3.34,0,0,1,.2,1.36,1.18,1.18,0,0,1-.77,1,1.19,1.19,0,0,1-1.07-.32,3.55,3.55,0,0,1-.67-1c-.21-.39-.43-.78-.64-1.18a18.65,18.65,0,0,1-1.48-3.17c-.76-2.4-.49-5-1.15-7.45a19.68,19.68,0,0,0-.67-2c-.15-.4-.82-1.52-.53-1.91S38.66,21.82,39,22.14Z"/><path class="cls-10" d="M27.84,35.53Q26,29.14,24.58,22.63a24,24,0,0,0-2-6.42c-1.09-2-2.44-.87-4.07-.75a18.1,18.1,0,0,0-3.09.37c-4.11.35-6.89,1.69-7.51,6.23a53.1,53.1,0,0,0,0,9.52A39.05,39.05,0,0,0,8.57,39a14.84,14.84,0,0,0-.75,2.25,5.23,5.23,0,0,0,1.79,5.1,4.51,4.51,0,0,0,2.29.87A47.43,47.43,0,0,0,26.8,47a2.61,2.61,0,0,0,1.25-.55,3,3,0,0,0,.76-1.47C29.63,41.86,28.7,38.58,27.84,35.53Z"/><path class="cls-11" d="M36.91,9.91a4.12,4.12,0,0,1,.4,1.64c0,.72-.44,1.43-.24,2.12.28,1,1.59,1.29,2.15,2.15a2.57,2.57,0,0,1,.35,1.31,3.6,3.6,0,0,1-.74,2.44,2.32,2.32,0,0,1-2.32.83,2.28,2.28,0,0,0-.57-.15c-.72,0-1.12.84-1.78,1.14s-1.62-.16-2.43-.4a3.69,3.69,0,0,0-2,0,.6.6,0,0,1-.54,0,.5.5,0,0,1-.14-.27,8.16,8.16,0,0,1-.6-3.66c.11-.75.42-1.47.47-2.23a5.59,5.59,0,0,1,.05-1,2.84,2.84,0,0,1,.63-1.2c1-1.21,2.21-2.22,2.85-3.63a4.54,4.54,0,0,1,.74-1.37A2.38,2.38,0,0,1,34.39,7c.29-.06.8-.32,1.08-.22s.59,1,.73,1.34C36.44,8.71,36.67,9.31,36.91,9.91Z"/><path class="cls-12" d="M37.6,21.12a8.05,8.05,0,0,1,1.77,3.58,46,46,0,0,1,.74,5.76c.21,1.81.58,3.61.94,5.4q1.11,5.4,2.21,10.82a39.26,39.26,0,0,1,.88,5.7,1.25,1.25,0,0,1-.11.74,1.35,1.35,0,0,1-.77.48,8.29,8.29,0,0,1-2.23.51,2.78,2.78,0,0,1-2.11-.74,4.13,4.13,0,0,1-.86-2.1L36.38,43c-.5-2.42-1-4.85-1.26-7.3-.41-3.74-.28-7.53-.7-11.27-.09-.79-1-4.16-.39-4.73C34.84,18.9,37.07,20.56,37.6,21.12Z"/><path class="cls-8" d="M31,18.87a3,3,0,0,1-2-1c-1.95-2-1.9-5.09-1.7-7.84a1.61,1.61,0,0,1,.21-.84,1.66,1.66,0,0,1,1.23-.52c1.95,0,3.87.09,5.84.18A.83.83,0,0,1,35,9a.72.72,0,0,1,.22.46,15.32,15.32,0,0,1-.11,2.43A12.93,12.93,0,0,1,35,14.37a5.75,5.75,0,0,1-2.44,4A3,3,0,0,1,31,18.87Z"/><path class="cls-11" d="M33.31,10.62a11,11,0,0,0-7.63,1.18l.53-3.57a5.61,5.61,0,0,1,.37-1.49,2.87,2.87,0,0,1,2.63-1.4c2.16-.17,4.48-.09,6.28,1.51a2.81,2.81,0,0,1,.73.92A3.84,3.84,0,0,1,36.49,9c.07.67.24,3.44-.6,3-.4-.2-.76-.68-1.18-.9A6,6,0,0,0,33.31,10.62Z"/><path class="cls-13" d="M43.55,41.73a12,12,0,0,0-1-4.09c-1.77-4.65-5.73-8-6.68-12.95-.28-1.44-.26-3-1-4.27a1.64,1.64,0,0,0-.79-.79A2.4,2.4,0,0,0,33,19.58a17.83,17.83,0,0,1-2.83,0,18.76,18.76,0,0,0-2.63-.34c-1.31.12-1.92,1.45-2.25,2.52-1.68,5.48-1.54,11.32-2.91,16.88-.54,2.18-1.3,4.31-1.77,6.51a13.67,13.67,0,0,0-.09,6l-.21,2.11L19.06,66.1a2.9,2.9,0,0,0,.33,2.15,2.64,2.64,0,0,0,.87.54c1.06.55,1.79,1.8,2.84,2.37,1.67.92,3.57-.12,5.38-.47,2.09-.4,4.21.15,6.32.41s4.37.18,6.12-1.31a4.86,4.86,0,0,0,1.39-1.94c.74-1.88.25-4.1-.17-6.12a74.81,74.81,0,0,1-1.2-8.21c-.06-.63,0-1.47,0-2.34a8.93,8.93,0,0,0,2.36-4.5A30.38,30.38,0,0,0,43.55,41.73Z"/><path class="cls-12" d="M28.9,25c0,1.6.12,3.2,0,4.79s-.5,2.91-.77,4.36c-1.09,5.72-.95,11.6-1,17.43a2.72,2.72,0,0,1-.47,1.86,2.76,2.76,0,0,1-2.21.57l-5.14-.17a.77.77,0,0,1-.48-.13.65.65,0,0,1-.16-.45c-.35-3.05.34-6.11,1-9.1.29-1.23.57-2.47.86-3.7a31.43,31.43,0,0,1,.9-3.33A23.63,23.63,0,0,0,23,32.63c.16-1.24,0-2.49.11-3.73.25-2.34,1.61-4.48,1.67-6.83a4.76,4.76,0,0,1,.19-1.81A2.33,2.33,0,0,1,26.79,19a3.87,3.87,0,0,1,2.09.15c.44.37.22,1,.18,1.6C29,22.17,28.9,23.58,28.9,25Z"/><path class="cls-14" d="M20.08,13.56a5,5,0,0,0,.73-2.67,12.32,12.32,0,0,0-1.08-5.76c-1-2-3.5-4-5.93-3.31-2.84.76-2.47,4.46-2.15,6.91a8,8,0,0,0,2.58,5.16C16.49,15.76,18.9,15.38,20.08,13.56Z"/><path class="cls-11" d="M26.5,6.54a7.06,7.06,0,0,1-1.12,1.58c-.61.55-1.55.82-1.83,1.59a4.17,4.17,0,0,0,.05,1.72,2.91,2.91,0,0,1-.42,1.65c-.26.41-.63.75-.92,1.14a1.75,1.75,0,0,0-.4,1.36,2.77,2.77,0,0,1,.13.57c0,.48-.54.79-.74,1.23A1.36,1.36,0,0,0,21.89,19a3.93,3.93,0,0,0,1.83.41,4.09,4.09,0,0,1,1.84.4c.23.14.43.32.66.47a5.89,5.89,0,0,0,2.51.77,1.19,1.19,0,0,0,.46,0,1.13,1.13,0,0,0,.43-.26c.35-.31.71-.75.59-1.2a1.31,1.31,0,0,0-.24-.45,13.27,13.27,0,0,1-2.77-6.08,10.4,10.4,0,0,1,.46-3.87,7.71,7.71,0,0,0,.53-3c-.06-.55-.13-.87-.71-.59A2.68,2.68,0,0,0,26.5,6.54Z"/><path class="cls-15" d="M19.73,4.29a1.16,1.16,0,0,1-1.25.12c.08.51-.52.89-1,.87s-1-.29-1.5-.36a.87.87,0,0,1-.45.9,1.73,1.73,0,0,1-1,.17,1.82,1.82,0,0,0-.57,0,.46.46,0,0,0-.37.38c0,.13.07.28,0,.39a.41.41,0,0,1-.26.11c-.51.14-.63.81-.61,1.34A11,11,0,0,0,12.86,10a.92.92,0,0,0-.54-.26c-.23.17-.18.54,0,.78a2.56,2.56,0,0,1,.46.73c.1.37-.1.87.21,1.11a3.19,3.19,0,0,1-1.2-1.29,6.05,6.05,0,0,0-1.62-1.61c-.33-.24-.75-.58-.61-1,.05-.12.15-.22.21-.34.2-.38-.09-.85-.42-1.13s-.74-.53-.88-.94.08-1,0-1.45a5.77,5.77,0,0,1-.16-.72,1.3,1.3,0,0,1,.66-1c.35-.23.75-.38,1.08-.64s.74-.83,1.25-1c.18-.05.38-.05.56-.11.45-.13.74-.57,1.17-.76.73-.31,1.61.2,2.34-.11.31-.13.61-.41.93-.32s.41.36.67.46c.47.17,1-.41,1.44-.13.16.1.26.32.45.31a1.55,1.55,0,0,0,.21,0c.22,0,.36.22.44.43C19.78,1.76,20.46,3.64,19.73,4.29Z"/><path class="cls-14" d="M30.07,36.05a5.08,5.08,0,0,0,1.53.31,7.3,7.3,0,0,1,.81,0,.82.82,0,0,1,.66.41,2.78,2.78,0,0,0,.16.4.81.81,0,0,0,.31.21,7.72,7.72,0,0,0,1.25.44.71.71,0,0,1,.35.16.73.73,0,0,1,.15.41,3.45,3.45,0,0,1,0,1.11,1.21,1.21,0,0,1-.59.9c-.54.27-1.18,0-1.72-.31-1.95-1-4.12-1.37-6.13-2.18-.72-.29-1.42-.63-2.12-1L22,35.6a1.08,1.08,0,0,1-.42-.3.83.83,0,0,1-.15-.44c0-.52.27-1.66.91-1.77.33-.06.86.33,1.16.47l1.3.56C26.5,34.84,28.27,35.49,30.07,36.05Z"/><path class="cls-16" d="M14.49,18.54a3.05,3.05,0,0,1,3,1.17,6.08,6.08,0,0,1,.76,1.75q1.25,4,2.51,8.07A7.15,7.15,0,0,0,22,32.13,7.19,7.19,0,0,0,25.81,34l.34-.69c.8.1,1.76.34,2,1.11a2,2,0,0,1,0,.87,14.1,14.1,0,0,1-.5,2.32,2.57,2.57,0,0,1-1.3,1.68c-.67.28-1.63-.18-1.6-.91a1.13,1.13,0,0,0,0-.41.72.72,0,0,0-.37-.34,29.93,29.93,0,0,0-3.08-1.47,15.73,15.73,0,0,1-3.3-1.6c-2.25-1.63-3.15-4.51-3.9-7.18-.56-1.95-1.26-3.92-1.67-5.9C12.18,20.45,13,18.28,14.49,18.54Z"/><path class="cls-14" d="M17.6,16a2.56,2.56,0,0,0,1.42.2c.09.3-.49.49-.41.79a.47.47,0,0,0,.16.21,5.91,5.91,0,0,1,1.31,2c-.09-.57-.18-1.14-.26-1.71a2.54,2.54,0,0,1-.05-.73c.06-.48.39-1,.28-1.43A.21.21,0,0,0,20,15.2a.33.33,0,0,0-.2,0l-2.65.31a1,1,0,0,0-.47.11A4.21,4.21,0,0,1,17.6,16Z"/><path class="cls-9" d="M24.54,19.56a2.78,2.78,0,0,0-1.32,1.83,9.08,9.08,0,0,0-.17,2.39c0,2,.07,4,.1,6a6,6,0,0,0,.39,2.5A5.59,5.59,0,0,0,25,34c2.08,1.85,4.62,5.22,6.69,7.07.25.22.56.46.88.37a1.08,1.08,0,0,0,.45-.38c.29-.34,1.11-1.38,1.39-1.72-1.81-1.92-4.54-4.73-6.21-6.79a4.15,4.15,0,0,1-.75-1.18,5,5,0,0,1,.06-2.51,25.51,25.51,0,0,0,.23-7.35c-.08-.69-.2-1.64-.81-2A3.2,3.2,0,0,0,24.54,19.56Z"/><path class="cls-8" d="M34.26,39.19a5.33,5.33,0,0,1,1.27,1.66.77.77,0,0,0,.14.27.93.93,0,0,0,.41.2,1.51,1.51,0,0,1,.59.4,1.4,1.4,0,0,1-.17,2,1.32,1.32,0,0,1-.9.24,2.66,2.66,0,0,1-1.35-.76c-.69-.6-2.08-1.47-2-2.5C32.24,40,33.56,38.49,34.26,39.19Z"/><path class="cls-14" d="M43.12,36.6a5.54,5.54,0,0,0-.6-1.28,2.15,2.15,0,0,0-.48-.64.75.75,0,0,0-.75-.17l-.06.26h0c-.17.77-.16,1.23-.78,1.71a1.3,1.3,0,0,0-.36.34,1.58,1.58,0,0,0-.13.34c-.2.64-.82,1.11-.93,1.78a1.42,1.42,0,0,0,1.11,1.53A1.83,1.83,0,0,0,42,39.73a10.64,10.64,0,0,0,.55-.92,5.06,5.06,0,0,0,.55-.84A2,2,0,0,0,43.12,36.6Z"/><path class="cls-8" d="M41.73,37.51a.66.66,0,0,0-.58.12c-.06.07-.09.16-.15.23s-.5.17-.77.21a1,1,0,0,0-.8.7,1,1,0,0,0,.26,1,1.83,1.83,0,0,0,1.06.41,8.33,8.33,0,0,0,1.58.06,1.78,1.78,0,0,0,.61-.11,1.39,1.39,0,0,0,.76-1,3.25,3.25,0,0,0,0-.88c0-.32,0-.42-.29-.5A11.14,11.14,0,0,0,41.73,37.51Z"/><path class="cls-8" d="M33.26,21.26a4,4,0,0,1-.46,1,.76.76,0,0,1-.31.33.45.45,0,0,1-.48-.09,1.7,1.7,0,0,1-.35-.45A23.05,23.05,0,0,1,30.49,20a.36.36,0,0,1-.06-.24.27.27,0,0,1,.18-.19,1.7,1.7,0,0,1,.84,0,5.21,5.21,0,0,0,1,0,4.73,4.73,0,0,0,.52,0,2.09,2.09,0,0,1,.49-.08c.24.08,0,.52,0,.75A9.51,9.51,0,0,1,33.26,21.26Z"/><path class="cls-17" d="M24.66,99a.84.84,0,0,0-.4.23.36.36,0,0,0,0,.44.5.5,0,0,0,.31.14,30.85,30.85,0,0,0,7,.75,5.52,5.52,0,0,0,1.57-.17,2.25,2.25,0,0,0,1.28-.87,2.19,2.19,0,0,0-.3-2.55,2.25,2.25,0,0,0-.81-.63,2.13,2.13,0,0,0-.89-.22,1.93,1.93,0,0,0-1.64.71,3.15,3.15,0,0,0-.39.88c-.14.38-.29.75-.46,1.11a.53.53,0,0,1-.17.25.64.64,0,0,1-.34.05c-.87-.05-1.74-.08-2.61-.16A4.64,4.64,0,0,0,24.66,99Z"/><path class="cls-17" d="M39.39,98.91a2.71,2.71,0,0,0-1.53.27.78.78,0,0,0-.3.35.39.39,0,0,0,.1.42,1,1,0,0,0,.56.16c.41,0,.8.15,1.2.22a16.91,16.91,0,0,0,2.47.21,27.11,27.11,0,0,0,3.25,0,5.27,5.27,0,0,0,1-.2,2.24,2.24,0,0,0,0-4.3,3.48,3.48,0,0,0-1.4-.16,2.7,2.7,0,0,0-1.67.63,1.63,1.63,0,0,0-.51,1.14,2.91,2.91,0,0,1,0,.59,1,1,0,0,1-1.05.76Z"/><path class="cls-6" d="M16.85,95a.92.92,0,0,1,.37,0c.35.11.45.53.59.87a2.77,2.77,0,0,0,1.59,1.41,13.6,13.6,0,0,0,2.11.54,3.91,3.91,0,0,1,1.33.51,2.22,2.22,0,0,1,.89,2.29.78.78,0,0,1-.15.32.84.84,0,0,1-.68.16,42.88,42.88,0,0,1-9-1.23.42.42,0,0,1-.22-.11.48.48,0,0,1-.09-.26c-.06-.65-.11-1.31-.15-2,0-.32,0-.63,0-1a3.23,3.23,0,0,1,0-1c.16-.32,1.23-.35,1.61-.41C15.63,95.09,16.24,95,16.85,95Z"/><path class="cls-15" d="M17.16,14.63a1.39,1.39,0,0,0,.64,0,.6.6,0,0,0,.43-.43c0-.13,0-.3.11-.37a.36.36,0,0,1,.18,0H19l0,.34a.32.32,0,0,1,.51.28c0,.21-.28.3-.49.36a11.13,11.13,0,0,1-1.72.34,3.11,3.11,0,0,1-1,0,3.61,3.61,0,0,1-1.5-.87c-.36-.3-1.28-.77-1.29-1.27s.33-.52.59-.24A5,5,0,0,0,17.16,14.63Z"/></g></g></g></svg>