<svg xmlns="http://www.w3.org/2000/svg" xmlns:xlink="http://www.w3.org/1999/xlink" viewBox="0 0 62.5 103.92"><defs><style>.cls-1{mask:url(#mask);filter:url(#luminosity-noclip-2);}.cls-2,.cls-5{mix-blend-mode:multiply;}.cls-2{fill:url(#linear-gradient);}.cls-3{isolation:isolate;}.cls-4{mask:url(#mask-2);}.cls-5{opacity:0.22;fill:url(#linear-gradient-2);}.cls-6{fill:#d6b49c;}.cls-7{fill:#6c99b9;}.cls-8{fill:#6792b0;}.cls-9{fill:#d3e4ea;}.cls-10{fill:#4d4d4d;}.cls-11{fill:#c7ab96;}.cls-12{fill:#ccaf9b;}.cls-13{fill:#f2f2f2;}.cls-14{fill:#ededed;}.cls-15{filter:url(#luminosity-noclip);}</style><filter id="luminosity-noclip" x="1.97" y="-8317.81" width="60.54" height="32766" filterUnits="userSpaceOnUse" color-interpolation-filters="sRGB"><feFlood flood-color="#fff" result="bg"/><feBlend in="SourceGraphic" in2="bg"/></filter><mask id="mask" x="1.97" y="-8317.81" width="60.54" height="32766" maskUnits="userSpaceOnUse"><g class="cls-15"/></mask><linearGradient id="linear-gradient" x1="1.97" y1="101.62" x2="62.5" y2="101.62" gradientUnits="userSpaceOnUse"><stop offset="0" stop-color="#fff"/><stop offset="1"/></linearGradient><filter id="luminosity-noclip-2" x="1.97" y="99.33" width="60.54" height="4.58" filterUnits="userSpaceOnUse" color-interpolation-filters="sRGB"><feFlood flood-color="#fff" result="bg"/><feBlend in="SourceGraphic" in2="bg"/></filter><mask id="mask-2" x="1.97" y="99.33" width="60.54" height="4.58" maskUnits="userSpaceOnUse"><g class="cls-1"><path class="cls-2" d="M2,101.94c5,2.06,10.57,2.19,16,1.81s10.76-1.25,16.17-1.07c3.74.13,7.46.75,11.2.82a77.16,77.16,0,0,0,9.23-.59c2.33-.24,4.66-.48,7-.9.49-.09,1.11-.39,1-.86a74.8,74.8,0,0,0-9.1-.64c-7.38,0-14.79-.42-22.17-.63l-11.08-.31c-3.15-.09-6.47-.53-9.57.08C8,100.14,3.56,99.28,2,101.94Z"/></g></mask><linearGradient id="linear-gradient-2" x1="1.97" y1="101.62" x2="62.5" y2="101.62" gradientUnits="userSpaceOnUse"><stop offset="0"/><stop offset="1"/></linearGradient></defs><title>parenting_mentor</title><g class="cls-3"><g id="Layer_2" data-name="Layer 2"><g id="Object"><g class="cls-4"><path class="cls-5" d="M2,101.94c5,2.06,10.57,2.19,16,1.81s10.76-1.25,16.17-1.07c3.74.13,7.46.75,11.2.82a77.16,77.16,0,0,0,9.23-.59c2.33-.24,4.66-.48,7-.9.49-.09,1.11-.39,1-.86a74.8,74.8,0,0,0-9.1-.64c-7.38,0-14.79-.42-22.17-.63l-11.08-.31c-3.15-.09-6.47-.53-9.57.08C8,100.14,3.56,99.28,2,101.94Z"/></g><path class="cls-6" d="M46.26,90.06a3.51,3.51,0,0,0,0,1.82,3.65,3.65,0,0,0,1.09,1.39c1.18,1.08,2.36,2.18,3.51,3.3a2.93,2.93,0,0,1,.68.85c.49,1.11-.52,2.35-.43,3.56a2.71,2.71,0,0,0,1.3.53c1-1.26.62-2.23,1.57-3.55a1.09,1.09,0,0,0,.25-.52c0-.36-.29-.65-.58-.87-2-1.54-2.43-3.58-4.12-5.43a1.73,1.73,0,0,1-.42-.65,1.7,1.7,0,0,1,.1-.83c.4-1.34.82-2.68,1.24-4,.28-.88.2-1.1-.7-1.46A1.93,1.93,0,0,0,48.39,84c-.79.26-1,1.21-1.21,1.92C46.81,87.29,46.53,88.68,46.26,90.06Z"/><path class="cls-6" d="M39.47,85.68c.12,1.58.23,3.17.42,4.75.36,3,1,6,1.14,9a1.89,1.89,0,0,1-.27,1.33,2.21,2.21,0,0,1-.88.54,1.5,1.5,0,0,0-.82.61.58.58,0,0,0,.29.85.77.77,0,0,0,.47-.08L43,101.57a1.34,1.34,0,0,0,.57-.32c.39-.4.2-1.06,0-1.6-.74-2.33-.52-4.84-.43-7.29.05-1.55,0-3.1,0-4.65l0-5.42a2.45,2.45,0,0,0-.11-.9,2,2,0,0,0-1.35-1c-.92-.28-2.39-.12-2.53,1A22.37,22.37,0,0,0,39.47,85.68Z"/><path class="cls-6" d="M47.86,63.08a7.09,7.09,0,0,0,.85-4.45A4.91,4.91,0,0,0,46,55a4,4,0,0,0-4.47.69,4.76,4.76,0,0,0-1.1,2.56,8.39,8.39,0,0,0,.26,4.22c.45,1.25,1.77,3.26,3.31,3.47C45.71,66.17,47.21,64.32,47.86,63.08Z"/><path class="cls-6" d="M39.84,70.7A6.58,6.58,0,0,1,40,69a4,4,0,0,1,2.87-2.5,11.14,11.14,0,0,1,4-.15,2.66,2.66,0,0,1,1.47.42,2.74,2.74,0,0,1,.77,1.64q.8,3.78,1.6,7.55c.21,1,.38,2.2-.31,3a3.07,3.07,0,0,1-1.83.78,19.87,19.87,0,0,1-7.49-.21c-.71-.16-2-.3-2.37-1.09s.45-2.43.62-3.28A29.65,29.65,0,0,0,39.84,70.7Z"/><path class="cls-7" d="M37.83,86.08a14.92,14.92,0,0,0-.4,2.28c0,.6.06,1.19,0,1.79a2,2,0,0,0,.06.88c.21.53.85.71,1.41.81q2.7.51,5.41.88a.64.64,0,0,0,.41,0c.13-.07.19-.22.3-.32a.88.88,0,0,1,.42-.18,17,17,0,0,1,2.11-.39c.73-.08,1.47-.06,2.2-.14a7.74,7.74,0,0,0,2.12-.57,2.89,2.89,0,0,0,1.18-.82,3.57,3.57,0,0,0,.31-2.7c-.24-1.51-.47-3-.7-4.54a17.67,17.67,0,0,0-1.31-5.09.75.75,0,0,0-.27-.36.87.87,0,0,0-.53-.09l-9.27.37a7.71,7.71,0,0,1-1.86,0c-.32-.06-.77-.3-1.1-.17-1,.39-.36,2.64-.3,3.41A19.27,19.27,0,0,1,37.83,86.08Z"/><path class="cls-8" d="M41.62,78.13c1.1,0,2.19-.29,3.29-.32a.92.92,0,0,1,.52.1,1,1,0,0,1,.33.69,21.64,21.64,0,0,1,.07,3.69,78.27,78.27,0,0,0,.39,9.06,1.55,1.55,0,0,1-.36,1.4c-.4.3-1,.12-1.46,0-1.79-.5-3.71-.24-5.54-.58a2,2,0,0,1-1.59-1,2.17,2.17,0,0,1-.08-1c.15-2.28.29-4.56.44-6.84a26.18,26.18,0,0,0,.08-2.8c0-.74-.33-2.82.71-3,.37-.07.86.27,1.21.37A6.06,6.06,0,0,0,41.62,78.13Z"/><path class="cls-9" d="M52,87.66l-.37,0a1.87,1.87,0,0,0-.07-.22.1.1,0,0,0-.2,0l-.09.21h-.49a.13.13,0,0,0-.07.23l.35.25-.06.11-.13.08c-.15.08,0,.31.13.23l.36-.22a3.62,3.62,0,0,0,.32.22c.1.08.2-.06.16-.16a2.31,2.31,0,0,1-.1-.28l.33-.19A.13.13,0,0,0,52,87.66Z"/><path class="cls-9" d="M43.36,86.6l-.37,0a1.87,1.87,0,0,0-.07-.22.1.1,0,0,0-.2,0l-.09.21h-.5a.12.12,0,0,0-.06.23l.35.25-.06.11-.13.08c-.15.08,0,.31.13.23l.36-.22.31.22c.11.08.21-.06.17-.16a.94.94,0,0,1-.1-.28l.32-.19A.13.13,0,0,0,43.36,86.6Z"/><path class="cls-9" d="M40.32,89.59l-.37,0a1.87,1.87,0,0,0-.07-.22.1.1,0,0,0-.2,0l-.09.21h-.5a.12.12,0,0,0-.06.23l.35.25-.06.11-.13.08c-.15.08,0,.31.13.23l.36-.22.31.22c.11.08.21-.06.17-.16a.94.94,0,0,1-.1-.28l.32-.2A.12.12,0,0,0,40.32,89.59Z"/><path class="cls-9" d="M50,79.32h-.37a1.42,1.42,0,0,0-.07-.22.1.1,0,0,0-.2,0l-.09.21h-.49a.13.13,0,0,0-.07.23l.35.24-.06.12L48.9,80c-.15.08,0,.31.13.22l.36-.21a3.62,3.62,0,0,0,.32.22c.1.07.2-.06.16-.16s-.07-.19-.1-.28l.33-.2A.13.13,0,0,0,50,79.32Z"/><path class="cls-9" d="M51.14,84.23h-.25a1.59,1.59,0,0,1-.07-.2.12.12,0,0,0-.21,0,1.59,1.59,0,0,0-.14.26l-.34,0a.13.13,0,0,0-.06.24l.23.14a1.26,1.26,0,0,0,0,.27.17.17,0,0,0,0,.07.09.09,0,0,0,0,0s0,0,.08,0a.11.11,0,0,0,.12,0l.2-.16.2.11a.12.12,0,0,0,.18-.14L51,84.64l.23-.19C51.32,84.38,51.24,84.23,51.14,84.23Z"/><path class="cls-9" d="M47.67,82.42h-.25a1.18,1.18,0,0,0-.07-.2.12.12,0,0,0-.21,0l-.14.25-.33,0a.13.13,0,0,0-.07.24l.24.14a.82.82,0,0,0,0,.26.08.08,0,0,0,0,.08v0a.05.05,0,0,0,.09,0,.14.14,0,0,0,.12,0l.2-.17.19.12a.12.12,0,0,0,.18-.14l-.06-.24.23-.19A.13.13,0,0,0,47.67,82.42Z"/><path class="cls-9" d="M40.29,80.06H40c0-.06,0-.13-.07-.2a.12.12,0,0,0-.21,0l-.14.25-.34,0a.13.13,0,0,0-.06.24l.24.14a.84.84,0,0,0,0,.27.08.08,0,0,0,0,.08v0a.05.05,0,0,0,.08,0,.16.16,0,0,0,.13,0l.19-.16.2.11a.12.12,0,0,0,.18-.14l-.06-.24a2.11,2.11,0,0,0,.23-.19A.13.13,0,0,0,40.29,80.06Z"/><path class="cls-9" d="M43.73,83.4h-.25c0-.06,0-.13-.07-.2a.12.12,0,0,0-.21,0l-.14.25-.33,0c-.12,0-.19.17-.07.24l.24.14a.84.84,0,0,0,0,.27.08.08,0,0,0,0,.08v0a.05.05,0,0,0,.08,0,.13.13,0,0,0,.13,0l.2-.16.19.12a.13.13,0,0,0,.18-.15l-.06-.24.23-.19A.13.13,0,0,0,43.73,83.4Z"/><path class="cls-9" d="M47.23,85.86h-.29a1.67,1.67,0,0,0-.08-.3.11.11,0,0,0-.21,0c0,.1-.07.2-.11.31h-.28a.13.13,0,0,0-.06.23l.2.14-.09.23-.06.06c-.11.11.07.3.19.18a3.07,3.07,0,0,1,.26-.25l.25.21c.1.1.23,0,.18-.14a1.32,1.32,0,0,1-.1-.3l.26-.15C47.41,86,47.35,85.86,47.23,85.86Z"/><path class="cls-9" d="M44.71,89.46h-.29c0-.1-.05-.2-.08-.3a.11.11,0,0,0-.21,0c0,.1-.07.2-.11.31h-.28a.13.13,0,0,0-.06.23l.2.14-.09.23-.06.06a.13.13,0,0,0,.19.18,3.07,3.07,0,0,1,.26-.25l.25.21a.11.11,0,0,0,.18-.13,1.12,1.12,0,0,1-.1-.31l.26-.15C44.89,89.64,44.83,89.46,44.71,89.46Z"/><path class="cls-9" d="M40.07,84.84h-.29c0-.1-.05-.2-.08-.3a.11.11,0,0,0-.21,0c0,.1-.07.21-.11.31H39.1a.13.13,0,0,0-.06.23l.2.14-.09.23-.06.06c-.11.12.07.3.18.18a2.91,2.91,0,0,1,.27-.24,1.64,1.64,0,0,1,.25.21.12.12,0,0,0,.18-.14,1.82,1.82,0,0,1-.11-.3,1.82,1.82,0,0,1,.27-.15A.13.13,0,0,0,40.07,84.84Z"/><path class="cls-9" d="M44.71,80.1h-.29c0-.1-.05-.2-.08-.3a.11.11,0,0,0-.21,0c0,.1-.07.2-.11.31h-.28a.13.13,0,0,0-.06.23l.2.14-.09.23-.06.06a.13.13,0,0,0,.19.18,2,2,0,0,1,.26-.24,1.64,1.64,0,0,1,.25.21.12.12,0,0,0,.18-.14,1.18,1.18,0,0,1-.1-.3,1.35,1.35,0,0,1,.26-.15A.13.13,0,0,0,44.71,80.1Z"/><path class="cls-9" d="M48.56,89.81H48.1a2.66,2.66,0,0,0-.08-.33.1.1,0,0,0-.18,0l-.15.37H47.3c-.1,0-.18.14-.09.21a1.94,1.94,0,0,0,.33.23l-.06.16a.5.5,0,0,0-.08.12.13.13,0,0,0,0,.12v0s0,0,.06,0a.13.13,0,0,0,.18,0,.62.62,0,0,1,.22-.2,2.09,2.09,0,0,1,.28.22.12.12,0,0,0,.18-.14c0-.09-.07-.18-.1-.27l.4-.24A.14.14,0,0,0,48.56,89.81Z"/><path class="cls-6" d="M36.85,63a7,7,0,0,0,3.71,3.71c.78.29,1.72.46,2.12,1.19a2.61,2.61,0,0,1,0,1.85,3.11,3.11,0,0,1-.43,1.13,1.14,1.14,0,0,1-1,.53,1.66,1.66,0,0,1-.81-.44c-1.16-.95-2.28-2-3.39-3a4.12,4.12,0,0,1-1.48-2.35A30.2,30.2,0,0,1,34.36,58c0-.53.13-1.24.66-1.26.95,0,.74,1.84.81,2.4A13.25,13.25,0,0,0,36.85,63Z"/><path class="cls-6" d="M50.05,65.59a8.45,8.45,0,0,0,1.69-3.22,23.51,23.51,0,0,0,1.12-6.22c0-.45.12-1,.57-1.1s.77.55.84,1.05A30.61,30.61,0,0,1,54,64a6.16,6.16,0,0,1-.43,1.85A5.5,5.5,0,0,1,52.79,67a27.07,27.07,0,0,1-2.68,2.78c-.59.52-1.37,1.06-2.11.78a2.44,2.44,0,0,1-1-2.84c.28-.45,1-.65,1.48-.91A7,7,0,0,0,50.05,65.59Z"/><path class="cls-10" d="M50.24,57.74a2.07,2.07,0,0,0,.68-1.68.91.91,0,0,0-.26-.66.48.48,0,0,0-.65,0,2.72,2.72,0,0,0-.52-1.65,1.23,1.23,0,0,0-1.57-.33,1.91,1.91,0,0,0-.43-1.3,1.66,1.66,0,0,0-1-.35c-.57-.06-1.28,0-1.5.58a2.87,2.87,0,0,0-3.43,0,.69.69,0,0,0-.33.55,2,2,0,0,0-1.23.18,1.91,1.91,0,0,0-.69,1.21c-.08.32-.08.76.23.87a1.16,1.16,0,0,0-1,1.27,1.19,1.19,0,0,0,1.1,1,.41.41,0,0,0,.13.27.81.81,0,0,0,.55.13A2.05,2.05,0,0,0,42,56.53a.4.4,0,0,0,.16.35.86.86,0,0,0,.55.09,1.62,1.62,0,0,0,.84-.25.82.82,0,0,0,.38-.74c0,.32.35.17.5.33s.15.58.46.8a1.14,1.14,0,0,0,1.33,0,.83.83,0,0,0,1.25.87,1.51,1.51,0,0,0-.1,1,.72.72,0,0,0,.73.53.66.66,0,0,0,.1,1.24,1,1,0,0,0,0,1.28,1.77,1.77,0,0,0-.5,1,.59.59,0,0,0,.05.35.24.24,0,0,0,.32.09.54.54,0,0,0-.17.3,1.18,1.18,0,0,0,1.08-.26,1.2,1.2,0,0,0,.35-1.06A1.93,1.93,0,0,0,50.6,61a.68.68,0,0,0-.06-.49.31.31,0,0,0-.43-.11,1.14,1.14,0,0,0,.67-.67,2.45,2.45,0,0,0,.13-1,1.45,1.45,0,0,0-.12-.65A.58.58,0,0,0,50.24,57.74Z"/><path class="cls-11" d="M23,17c.49-.46,2-1.38,1.76-2s-.87-.68-1.43-.77l-10-1.53a5,5,0,0,1,.15-2,39.25,39.25,0,0,1,14.92.76,3,3,0,0,1,1.62.81,2.55,2.55,0,0,1,.48,1.23,3.92,3.92,0,0,1-.13,2A4.75,4.75,0,0,1,28.71,18c-2.55,2.06-4.29,4.95-6.64,7.24a2.5,2.5,0,0,1-2.12.95,2.56,2.56,0,0,1-1.28-1c-.38-.45-1.76-1.78-1.7-2.38s.05-2.87.51-3.24C19.12,18.19,21.41,18.41,23,17Z"/><path class="cls-12" d="M25,101.06a4.71,4.71,0,0,0-1.52-.42,3.73,3.73,0,0,1-1.45-.57,2.59,2.59,0,0,1-.92-1.28c-.08-.22-.07-.52-.13-.78h0c0-.14,0-.28,0-.42.3-3.52.67-7,1.05-10.54.34-3.27.35-6.77,1.17-10a15.48,15.48,0,0,0,.15-3.85A30.38,30.38,0,0,1,24,68.38,50.34,50.34,0,0,0,25,61c0-.43,0-.86,0-1.29h0a55.1,55.1,0,0,0-.72-6,7.72,7.72,0,0,0-1.18-3.55,16.22,16.22,0,0,1-13.22,1c-.45-.16-1-.33-1.36,0a.9.9,0,0,0-.22.36,13.51,13.51,0,0,0-1,6.54c-.06,6.38.62,12.85.3,19.19-.35,6.85-.42,13.69-1,20.53-.14,1.05-.24,2.42-.27,3a1.06,1.06,0,0,0,.08.58,1.06,1.06,0,0,0,.59.41,19.45,19.45,0,0,0,5.82,1.07,2.13,2.13,0,0,0,.87-.06.76.76,0,0,0,.54-.63.87.87,0,0,0-.34-.67,9.14,9.14,0,0,0-2.34-1,3.19,3.19,0,0,1-1.48-3.62h0a5.78,5.78,0,0,0,.12-.57c1.86-9,3.28-24.93,5.14-34l1-.09c.82,2.74.59,12.44.69,15.31l.72,20.19h0a2.62,2.62,0,0,1,0,.28s0,0,0,0c.06.94,0,2,.1,2.88a1,1,0,0,0,.26.72,1,1,0,0,0,.45.17,30.46,30.46,0,0,0,7,.62A1.12,1.12,0,0,0,25,101.06Z"/><path class="cls-12" d="M15,19a4.52,4.52,0,0,1-1.65.5,2.81,2.81,0,0,1-1.45-.48A5.37,5.37,0,0,1,9.46,17,5.62,5.62,0,0,1,9,15.08c-.19-1.65-.3-3.3-.33-5a4.67,4.67,0,0,1,.41-2.47c.71-1.22,2.24-1.47,3.58-1.6a6.92,6.92,0,0,1,3.91.4c1.25.66,1,1.7,1.12,3,.17,1.6.29,3.21.34,4.82a5.38,5.38,0,0,1-.38,2.68A6.42,6.42,0,0,1,15,19Z"/><path class="cls-13" d="M14.32,46.73a22.67,22.67,0,0,0,8.56-1.37c.27,1.39.5,2.79.7,4.19.66,4.81.9,9.67,1.14,14.53L25.2,74a2.9,2.9,0,0,1-.07,1,2.08,2.08,0,0,1-1.37,1.23,8.88,8.88,0,0,1-2.89.42A32.28,32.28,0,0,1,8,74.69a6.37,6.37,0,0,1-3.66-3,8.42,8.42,0,0,1-.21-4.52C4.75,62.1,5.17,57,5.34,51.88c.09-2.54.58-6.47,1.93-8.68C9.75,45,11.22,46.52,14.32,46.73Z"/><path class="cls-14" d="M21.42,43.26a.93.93,0,0,1,.75,0,1.12,1.12,0,0,1,.36.75c1.91,9.68,3.73,20.84,3.55,30.73a.91.91,0,0,1-.14.59.8.8,0,0,1-.65.24,24.86,24.86,0,0,1-5.71-.31,2.57,2.57,0,0,1-1.81-.91,3.08,3.08,0,0,1-.32-1.68l0-17.24a83.06,83.06,0,0,1,0-8.35C17.62,45,19.73,43.63,21.42,43.26Z"/><path class="cls-12" d="M11.6,20c-1.45-.11-3-.46-4.33,0A4,4,0,0,0,4.9,22.69a7.8,7.8,0,0,0-.16,2.77C5.2,31.33,7.28,37,7.27,42.89c0,1,0,2.13.71,2.76a2.58,2.58,0,0,0,.7.41c3,1.31,6.35,1.34,9.58,1.1a4.31,4.31,0,0,0,2.68-.85c1-1,1.1-2.64,1.11-4.12a107,107,0,0,1,.81-12,24.56,24.56,0,0,0,.26-5.34,7.5,7.5,0,0,0-2.06-4.74,4,4,0,0,0-4.12-.91A11.48,11.48,0,0,1,11.6,20Z"/><path class="cls-11" d="M4.49,22.3a11.39,11.39,0,0,0-1.77,3.47A53,53,0,0,0,0,37.57a1.78,1.78,0,0,0,.08,1,1.74,1.74,0,0,0,.52.56,27.89,27.89,0,0,0,9,4.22c2.24.72,4.49,1.4,6.75,2.08a3.48,3.48,0,0,0,2.08.19c.68-.22,1.19-1.07.8-1.66-.23-.36-.69-.5-1-.8-.11-.1-.19-.23-.31-.33a2.47,2.47,0,0,0-.52-.31c-3.84-1.81-7.54-3.9-11.24-6a2,2,0,0,1-.64-.49,2.09,2.09,0,0,1,0-1.92A110.8,110.8,0,0,0,8.78,23.34a3.76,3.76,0,0,0,.12-1.76C8.35,19.23,5.34,21.26,4.49,22.3Z"/><path class="cls-10" d="M19.92,5.49a1.56,1.56,0,0,0-.17-1.75A1.52,1.52,0,0,0,18,3.36a1.23,1.23,0,0,0-.05-2,2.68,2.68,0,0,0-2.3-.16A2.86,2.86,0,0,0,11.23.94a2.75,2.75,0,0,0-4,1.28,2.44,2.44,0,0,0-2.77.35,2.45,2.45,0,0,0-.5,2.75A2.21,2.21,0,0,0,1.69,6.87a2.22,2.22,0,0,0,1.08,2.5,1.45,1.45,0,0,0-1.31,1.75,2.56,2.56,0,0,0,1.7,1.73,1.25,1.25,0,0,0,.26,1.86,3.57,3.57,0,0,0,2.07.47A1.37,1.37,0,0,0,6.37,17a3.68,3.68,0,0,0,2.26-.18A1.39,1.39,0,0,0,10.5,18a8,8,0,0,1-.61-3.49,1.08,1.08,0,0,1-.29-1.4h.52a1.39,1.39,0,0,0-.26-2.34c.59-.06.64-.53,1-.76s.37-.1.71-.23c.61-.24,1.16,0,.58-.82a2.32,2.32,0,0,0,3.45.15,2.62,2.62,0,0,0,3.59-.89A1.47,1.47,0,0,0,20.66,7.1,1.45,1.45,0,0,0,19.92,5.49Z"/></g></g></g></svg>