<svg xmlns="http://www.w3.org/2000/svg" xmlns:xlink="http://www.w3.org/1999/xlink" viewBox="0 0 51.08 101.44"><defs><style>.cls-1{mask:url(#mask);filter:url(#luminosity-noclip-2);}.cls-2,.cls-5{mix-blend-mode:multiply;}.cls-2{fill:url(#linear-gradient);}.cls-3{isolation:isolate;}.cls-4{mask:url(#mask-2);}.cls-5{opacity:0.2;fill:url(#linear-gradient-2);}.cls-6{fill:#f9e9de;}.cls-7{fill:#97a8b2;}.cls-8{fill:#ebefeb;}.cls-9{fill:#441a19;}.cls-10{fill:#f9e0cf;}.cls-11{fill:#afd9c4;}.cls-12{fill:#333;}.cls-13{fill:#fff;}.cls-14{fill:#efefef;}.cls-15{fill:#666;}.cls-16{filter:url(#luminosity-noclip);}</style><filter id="luminosity-noclip" x="17.96" y="-7935.51" width="33.12" height="32766" filterUnits="userSpaceOnUse" color-interpolation-filters="sRGB"><feFlood flood-color="#fff" result="bg"/><feBlend in="SourceGraphic" in2="bg"/></filter><mask id="mask" x="17.96" y="-7935.51" width="33.12" height="32766" maskUnits="userSpaceOnUse"><g class="cls-16"/></mask><linearGradient id="linear-gradient" x1="17.96" y1="99.67" x2="51.08" y2="99.67" gradientUnits="userSpaceOnUse"><stop offset="0" stop-color="#fff"/><stop offset="1"/></linearGradient><filter id="luminosity-noclip-2" x="17.96" y="97.91" width="33.12" height="3.54" filterUnits="userSpaceOnUse" color-interpolation-filters="sRGB"><feFlood flood-color="#fff" result="bg"/><feBlend in="SourceGraphic" in2="bg"/></filter><mask id="mask-2" x="17.96" y="97.91" width="33.12" height="3.54" maskUnits="userSpaceOnUse"><g class="cls-1"><path class="cls-2" d="M18.81,99.56c-.36.12-.76.3-.84.67-.12.58.64.91,1.22,1a43.78,43.78,0,0,0,7.06.17L40.87,101c3.21-.1,6.49-.2,9.47-1.37.36-.14.78-.39.74-.77a22.92,22.92,0,0,0-6.67-.44A125.85,125.85,0,0,1,31.24,98,30.38,30.38,0,0,0,18.81,99.56Z"/></g></mask><linearGradient id="linear-gradient-2" x1="17.96" y1="99.67" x2="51.08" y2="99.67" gradientUnits="userSpaceOnUse"><stop offset="0"/><stop offset="1"/></linearGradient></defs><title>post_natal_massage</title><g class="cls-3"><g id="Layer_2" data-name="Layer 2"><g id="Object"><g class="cls-4"><path class="cls-5" d="M18.81,99.56c-.36.12-.76.3-.84.67-.12.58.64.91,1.22,1a43.78,43.78,0,0,0,7.06.17L40.87,101c3.21-.1,6.49-.2,9.47-1.37.36-.14.78-.39.74-.77a22.92,22.92,0,0,0-6.67-.44A125.85,125.85,0,0,1,31.24,98,30.38,30.38,0,0,0,18.81,99.56Z"/></g><path class="cls-6" d="M37.84,94.19a.31.31,0,0,0,.06.13.29.29,0,0,0,.19.05,10.15,10.15,0,0,0,1.45-.13c.21,0,.46-.12.5-.33a.48.48,0,0,0-.06-.28c-.2-.55-.41-1.09-.62-1.64,0,0,0,0,0,0a.13.13,0,0,0-.09,0,4.49,4.49,0,0,0-1,.09c-.22,0-.62.07-.73.3s.07.61.12.83Z"/><path class="cls-6" d="M26.07,94.19l2,.09a.21.21,0,0,0,.13,0s0-.09,0-.14a13.68,13.68,0,0,0,0-1.81.25.25,0,0,0,0-.13.31.31,0,0,0-.15-.08A13.76,13.76,0,0,0,26.61,92a1.25,1.25,0,0,0-.66.14c-.2.12-.16.2-.13.41C25.91,93.08,26,93.64,26.07,94.19Z"/><path class="cls-7" d="M37,92.31A4.48,4.48,0,0,0,39.81,92c-1-3.34-1.29-4.32-2.28-7.66a19.92,19.92,0,0,1-.75-3.21,18.91,18.91,0,0,1,.1-4c.5-5.23,1.78-22.55,2.28-27.77a3.39,3.39,0,0,0,0-1.31c-.39-1.2-3.86-1.41-5.12-1.51a12.15,12.15,0,0,0-2.57.12c-.26.19-2.3-.19-2.35.12-.61,4.1,1.67,12.72,1.71,17.11,0,1.46.6,10.79.71,12.24a23.25,23.25,0,0,0,2.06,7.62A91.53,91.53,0,0,1,37,92.31Z"/><path class="cls-7" d="M29.86,47.21a19.66,19.66,0,0,0-3.8-.5l-4.94.09c-.12,8,1.47,29.85,3,37.67.65,3.37,1.4,4.51,1.41,7.94h2.79c.25-10.74,2.32-33.1,2.56-43.84C30.89,48,30.28,47.55,29.86,47.21Z"/><path class="cls-8" d="M24.2,19.88c.72.12,1.41.4,2.12.57a7.17,7.17,0,0,0,4.32-.32c.66-.26,1.28-.62,2-.84a2.63,2.63,0,0,1,2.08.1A3.36,3.36,0,0,1,36,22c.5,3.64.08,7.36.72,11a36.12,36.12,0,0,0,.91,3.69c.63,2.25,1.27,4.51,1.9,6.77.44,1.57.82,3.46-.26,4.69a4.84,4.84,0,0,1-2.91,1.26,58.3,58.3,0,0,1-14.69.69,1.38,1.38,0,0,1-.54-.13,1.19,1.19,0,0,1-.46-.63c-.73-1.91-.28-4,.07-6,1.2-7,1.05-14.14,1.29-21.24C22.05,20.4,22.35,19.57,24.2,19.88Z"/><path class="cls-9" d="M22.88,4a2.73,2.73,0,0,1-.07-1.3,2.8,2.8,0,0,1,.57-1.06,4.61,4.61,0,0,1,5-1.37A3.18,3.18,0,0,1,30.58,3a3,3,0,0,1-2.21,2.64C26.73,6.17,23.4,5.92,22.88,4Z"/><path class="cls-6" d="M23.71,23.9c.26-1,.6-3-.16-3.53a2.42,2.42,0,0,0-2.86.45,5.34,5.34,0,0,0-1,1.84l-3.42,9.12a14,14,0,0,0-.67,2.15,1.1,1.1,0,0,0,0,.54.72.72,0,0,0,.37.36c.8.43,1.81,1.4,2.64.66.32-.29.55-1.28.77-1.69a87.4,87.4,0,0,0,3.68-8.06A16.67,16.67,0,0,0,23.71,23.9Z"/><path class="cls-6" d="M34.77,19.69c.72,0,1.21.71,1.7,1.25a26.91,26.91,0,0,0,3.33,2.55,18.9,18.9,0,0,1,2.13,2.16l1.91,2.15A7,7,0,0,1,44.75,29a4.67,4.67,0,0,1-.22,4.41,14,14,0,0,1-3,3.46L39.25,39c-.58.53-1.17,1.07-1.8,1.54a4.5,4.5,0,0,1-1.8.9,2.08,2.08,0,0,1-1.89-.5c-.18-.19-.32-.49-.17-.71A.76.76,0,0,1,34,40l.87-.27a.82.82,0,0,0,.35-.17,1.9,1.9,0,0,0,.21-.4,1.57,1.57,0,0,1,.61-.53,10.63,10.63,0,0,0,5.16-6.22,1.91,1.91,0,0,0,0-.89,2.32,2.32,0,0,0-.34-.71,20.36,20.36,0,0,0-1.7-2.4,35.59,35.59,0,0,0-3.18-3A9.25,9.25,0,0,1,33.46,22C33.09,20.93,33.5,19.66,34.77,19.69Z"/><path class="cls-10" d="M39.09,16.57a3.42,3.42,0,0,0-1.34.3,2.28,2.28,0,0,0-1,1.15,7,7,0,0,0-.56,2,4,4,0,0,0,.49,2.82,3.22,3.22,0,0,0,2.87,1.47,3,3,0,0,0,2.08-1.58,18.79,18.79,0,0,0,1-1.86,3.76,3.76,0,0,0,.46-1.42,3.34,3.34,0,0,0-.34-1.61C42.19,16.42,40.45,16.45,39.09,16.57Z"/><path class="cls-11" d="M40.5,24.85a1.35,1.35,0,0,1,.79.65,1.54,1.54,0,0,1,.08.57c0,1.44.08,2.89.13,4.33a9.59,9.59,0,0,1-.47,4,6.7,6.7,0,0,1-3.37,3.16,42.59,42.59,0,0,1-4.45,1.56,2.64,2.64,0,0,1-2.17.14,2.41,2.41,0,0,1-.92-1.76.87.87,0,0,1,0-.48c.17-.48.91-.36,1.31-.68s.36-.74.55-1.12c.53-1.1,2.3-1.19,2.72-2.34a2.83,2.83,0,0,0,0-1.47,13.31,13.31,0,0,1-.22-2.18,10.89,10.89,0,0,0-.09-1.71,6.16,6.16,0,0,0-2.74-3.69,4.12,4.12,0,0,1-.95-.81,1.13,1.13,0,0,1-.15-1.19,1.2,1.2,0,0,1,.78-.52,3.89,3.89,0,0,1,3.21,1.06,13,13,0,0,1,1.34,1.23,2.28,2.28,0,0,0,1.23.58A21.89,21.89,0,0,1,40.5,24.85Z"/><path class="cls-9" d="M43.81,18.72a1.92,1.92,0,0,0-.68-1.43l-.2-.1a.9.9,0,0,0-.15-.19,1.71,1.71,0,0,0-.56-.31,8.56,8.56,0,0,0-1.93-.5,4,4,0,0,0-2.5.22,3.76,3.76,0,0,0-.64.62,1.42,1.42,0,0,1-.49.35s-.53.1-.52,0c0,.26.27.43.51.53a.57.57,0,0,1-.67.18,1.63,1.63,0,0,0,.85.31A11.32,11.32,0,0,0,38,18.27h0a8.12,8.12,0,0,0,1.08.53c1.07.63,2.13,1.55,3.45,1.56a1.39,1.39,0,0,0,1.09-.42A1.61,1.61,0,0,0,43.81,18.72Z"/><path class="cls-12" d="M21.68,15.5a1.35,1.35,0,0,0-.93.6,1,1,0,0,0,.13.95c.19.29.44.51.65.78A6.31,6.31,0,0,1,22.17,19c.34.72.73,1.41,1.12,2.11a2.56,2.56,0,0,0,.79,1,1.88,1.88,0,0,0,1.77,0,6.52,6.52,0,0,0,1.38-.95.92.92,0,0,0,.28-.31c.16-.32-.05-.69-.26-1-.81-1.16-1.62-2.3-2.44-3.45-.25-.34-.76-1.41-1.17-1.47a2.77,2.77,0,0,0-.91.26Z"/><path class="cls-13" d="M24.63,21,27,19.72a6.14,6.14,0,0,1-.78-1c-.13-.22-.27-.44-.41-.66a25,25,0,0,0-1.92-2.78.14.14,0,0,0-.1-.08.25.25,0,0,0-.12,0l-1.49.53a3.39,3.39,0,0,0-1.05.5s-.07.06-.08.1a.26.26,0,0,0,.05.19c.46.74.91,1.49,1.33,2.25s.84,1.54,1.24,2.32c.09.19.15.38.38.26Z"/><path class="cls-13" d="M25.32,21.16a.44.44,0,0,0,.31.44.5.5,0,0,0,.27,0,.35.35,0,0,0,.23-.14.27.27,0,0,0,.05-.15.46.46,0,0,0-.11-.37A.43.43,0,0,0,25.32,21.16Z"/><path class="cls-6" d="M26.66,8.38A8.25,8.25,0,0,1,30,11.69a7.32,7.32,0,0,1,1.06,5,4.18,4.18,0,0,1-3.39,3.43,4.85,4.85,0,0,1-3.21-1,8.8,8.8,0,0,1-3.56-7.69c.08-1.19.31-2.69,1.42-3.28A5.56,5.56,0,0,1,26.66,8.38Z"/><path class="cls-9" d="M21,14a2.66,2.66,0,0,0,1.06-.73A12,12,0,0,1,26,10.76a2.86,2.86,0,0,1,1.31-.25,1.8,1.8,0,0,1,1.27.88A4.91,4.91,0,0,1,29,12.84c.17.05.29-.17.44-.25s.58.24.53.56-.26.63-.14.92a1.15,1.15,0,0,0,.36.4,3.2,3.2,0,0,1,1,1.34.38.38,0,0,0,.13.21.35.35,0,0,0,.2,0,1.64,1.64,0,0,0,1.27-.83,3,3,0,0,0,.35-1.45A13.44,13.44,0,0,0,31.5,7.92a5.66,5.66,0,0,0-.82-1.41,4.9,4.9,0,0,0-1.41-1,8.71,8.71,0,0,0-2.18-.9A7.79,7.79,0,0,0,22.55,5a6.53,6.53,0,0,0-1.47.8,6.69,6.69,0,0,0-2.42,4.7C18.61,11.59,19.36,14.35,21,14Z"/><path class="cls-6" d="M12.45,34.38c.89-.25,1.76-.56,2.67-.76a11.22,11.22,0,0,1,2.45-.27,1.42,1.42,0,0,1,1,.3,1.52,1.52,0,0,1,.27,1.19,2.5,2.5,0,0,1-.18.94,2,2,0,0,1-1.35.92,9.63,9.63,0,0,1-1.93.25,47.12,47.12,0,0,1-9.72-.08c-.48-.07-1.62-.36-1.47-1.08s1.52-.51,2-.54A30.46,30.46,0,0,0,12.45,34.38Z"/><path class="cls-14" d="M1.32,38a3.93,3.93,0,0,0,.75,1.5,3.9,3.9,0,0,0,1,.69c3.14,1.65,6.35,3.17,9.63,4.53a2.15,2.15,0,0,0,0-1.87,20.23,20.23,0,0,1-.64-3.17,1.83,1.83,0,0,0-.29-1,1.76,1.76,0,0,0-.52-.37c-2-1.09-4-2.17-6.13-3.13-1.07-.49-2.15-.95-3.25-1.36-.77-.29-2.23-1.14-1.85.28S.9,36.72,1.32,38Z"/><path class="cls-15" d="M26.07,94a.8.8,0,0,0-.41.13.9.9,0,0,0-.26.7l-.06,1.06a.7.7,0,0,1-.09.35.55.55,0,0,1-.2.17,13.76,13.76,0,0,1-4.36,1.35,1.17,1.17,0,0,0-.81.46,1.27,1.27,0,0,0-.08.7.92.92,0,0,0,.21.61.89.89,0,0,0,.6.15c.44,0,.88,0,1.31,0l6.72-.32a.53.53,0,0,0,.18,0c.15-.07.16-.27.16-.43-.05-1.41,0-2.83-.15-4.23,0-.49-.19-.67-.68-.72A9.64,9.64,0,0,0,26.07,94Z"/><path class="cls-15" d="M39.64,93.19a1,1,0,0,1,.76,0,.78.78,0,0,1,.27.37,8.17,8.17,0,0,1,.42,1.9c.25,1.51.85,3,1.11,4.46a.61.61,0,0,1,0,.3.56.56,0,0,1-.17.21,3,3,0,0,1-2.07.86,2.3,2.3,0,0,1-1.69-1.25A6.34,6.34,0,0,1,37.7,98a28.39,28.39,0,0,1-.27-3.32c0-.2-.09-.68,0-.85s.32-.17.53-.22Z"/></g></g></g></svg>