<svg xmlns="http://www.w3.org/2000/svg" xmlns:xlink="http://www.w3.org/1999/xlink" viewBox="0 0 80.41 101.65"><defs><style>.cls-1{mask:url(#mask);filter:url(#luminosity-noclip-2);}.cls-2,.cls-5{mix-blend-mode:multiply;}.cls-2{fill:url(#linear-gradient);}.cls-3{isolation:isolate;}.cls-4{mask:url(#mask-2);}.cls-5{opacity:0.2;fill:url(#linear-gradient-2);}.cls-6{fill:#f2e1c6;}.cls-7{fill:#454545;}.cls-8{fill:#494949;}.cls-9{fill:#4d4d4d;}.cls-10{fill:#e8e8e8;}.cls-11{fill:#736357;}.cls-12{fill:#4a4e31;}.cls-13{fill:#d6d6d6;}.cls-14{fill:#e2e2e2;}.cls-15{fill:#edddb2;}.cls-16{fill:#f0dcce;}.cls-17{fill:#ebc9b2;}.cls-18{fill:#acb18f;}.cls-19{fill:#272826;}.cls-20{fill:#d9ac7c;}.cls-21{fill:#c6b697;}.cls-22{filter:url(#luminosity-noclip);}</style><filter id="luminosity-noclip" x="6.27" y="-7933.72" width="74.14" height="32766" filterUnits="userSpaceOnUse" color-interpolation-filters="sRGB"><feFlood flood-color="#fff" result="bg"/><feBlend in="SourceGraphic" in2="bg"/></filter><mask id="mask" x="6.27" y="-7933.72" width="74.14" height="32766" maskUnits="userSpaceOnUse"><g class="cls-22"/></mask><linearGradient id="linear-gradient" x1="6.27" y1="98.68" x2="80.41" y2="98.68" gradientUnits="userSpaceOnUse"><stop offset="0" stop-color="#fff"/><stop offset="1"/></linearGradient><filter id="luminosity-noclip-2" x="6.27" y="95.7" width="74.14" height="5.95" filterUnits="userSpaceOnUse" color-interpolation-filters="sRGB"><feFlood flood-color="#fff" result="bg"/><feBlend in="SourceGraphic" in2="bg"/></filter><mask id="mask-2" x="6.27" y="95.7" width="74.14" height="5.95" maskUnits="userSpaceOnUse"><g class="cls-1"><path class="cls-2" d="M6.59,99.53c-.14.1-.3.21-.32.39s.3.42.57.49c11,2.79,22.45.07,33.75-.49,5.4-.27,10.81,0,16.21,0,5,0,10-.19,15-.38,2.7-.11,5.48-.23,7.94-1.36.4-.18.85-.56.66-1a.84.84,0,0,0-.66-.37,45.05,45.05,0,0,0-6.45-.66q-13.74-.69-27.5-.32Q38.86,96,32,96.46c-4.37.28-8.91,1.14-13.28,1C14.62,97.38,10.22,97.25,6.59,99.53Z"/></g></mask><linearGradient id="linear-gradient-2" x1="6.27" y1="98.68" x2="80.41" y2="98.68" gradientUnits="userSpaceOnUse"><stop offset="0"/><stop offset="1"/></linearGradient></defs><title>post_natal_doula_service</title><g class="cls-3"><g id="Layer_2" data-name="Layer 2"><g id="Object"><g class="cls-4"><path class="cls-5" d="M6.59,99.53c-.14.1-.3.21-.32.39s.3.42.57.49c11,2.79,22.45.07,33.75-.49,5.4-.27,10.81,0,16.21,0,5,0,10-.19,15-.38,2.7-.11,5.48-.23,7.94-1.36.4-.18.85-.56.66-1a.84.84,0,0,0-.66-.37,45.05,45.05,0,0,0-6.45-.66q-13.74-.69-27.5-.32Q38.86,96,32,96.46c-4.37.28-8.91,1.14-13.28,1C14.62,97.38,10.22,97.25,6.59,99.53Z"/></g><path class="cls-6" d="M30.78,17.81a.61.61,0,0,1,0-.27.81.81,0,0,1,.15-.27,4,4,0,0,0,.28-1.53.54.54,0,0,1,.11-.29.49.49,0,0,1,.23-.11,4.42,4.42,0,0,1,1.13-.21,1.18,1.18,0,0,1,.88.22,1.08,1.08,0,0,1,.28.54,3.7,3.7,0,0,1-.16,2c-.2.65-.48,1.27-.63,1.93a.87.87,0,0,1-.3.61.65.65,0,0,1-.34.06c-.45,0-1.34.1-1.45-.47S30.84,18.53,30.78,17.81Z"/><path class="cls-7" d="M21.08,23.71a6.42,6.42,0,0,1,2.16,1.74c.79.81,1.64,1.54,2.5,2.27l3.1,2.63a.53.53,0,0,0,.29.16c.29,0,.42-.35.47-.65.45-3.29.82-6.6,1.1-9.91a6.22,6.22,0,0,1,2,.1.62.62,0,0,1,.38.2.67.67,0,0,1,.06.4c-.21,4.51-.81,9-1.42,13.47a2,2,0,0,1-.42,1.17,1.54,1.54,0,0,1-1.67.1,11.56,11.56,0,0,1-2.5-1.49L23.7,31.46a24.4,24.4,0,0,1-3.29-2.62,6.11,6.11,0,0,1-1.42-2C18.34,25.17,19,22.91,21.08,23.71Z"/><path class="cls-6" d="M10.51,76.48c.26-6.34-.29-12.81-.24-19.19a16.32,16.32,0,0,1,.81-6.55,1,1,0,0,1,.18-.36c.27-.3.74-.14,1.1,0a10.83,10.83,0,0,0,10.68-1A9,9,0,0,1,24,52.94c.25,2,.52,4,.59,6h0c0,.43,0,.86,0,1.29a61.45,61.45,0,0,1-.82,7.42,37.36,37.36,0,0,0-.44,4.85c0,1.33-.27,2.31-.42,4.14-.27,3.25-.37,6.41-.65,9.69-.3,3.51-.6,7-.85,10.54l0,.42c-.16,0-2.62.67-2.62,0q-.3-10.23-.59-20.48c-.09-2.87-.5-11.92-.56-15.31l-.55.06c-.67,9.31-2.86,24.77-4.36,33.8a5.5,5.5,0,0,1-1.46,2.28.86.86,0,0,1-1.51-.42C10.17,90.29,10.22,83.39,10.51,76.48Z"/><path class="cls-8" d="M17.66,97.23a2.25,2.25,0,0,0,.08-.24,11.34,11.34,0,0,0,.46-3.16,5,5,0,0,1,.1-1.45c.71,0,2.71-.1,3.42-.09a.24.24,0,0,1,.17,0c.06,0,.07.09.08.15.31,1.47-.74,3.08-.35,4.54.15.58.78.79,1.36,1.08a6.2,6.2,0,0,0,2.08.9,2.78,2.78,0,0,1,1,.47.63.63,0,0,1,.12.88,1.33,1.33,0,0,1-.9.24,45,45,0,0,1-7.42-.55.77.77,0,0,1-.4-.14.5.5,0,0,1-.16-.27A3.5,3.5,0,0,1,17.66,97.23Z"/><path class="cls-8" d="M9.19,98c.08-.23.25-.42.34-.64a1.94,1.94,0,0,0,.05-.76c0-1.11,0-2.22,0-3.33,0-.34,0-.74.37-.91a1.34,1.34,0,0,1,.77,0l2.27.34a.81.81,0,0,1,.53.21.62.62,0,0,1,0,.5,13.1,13.1,0,0,0-.26,3.24,5.89,5.89,0,0,1,0,.94,14.4,14.4,0,0,0,2.87,1.63,2.29,2.29,0,0,1,.82.47.56.56,0,0,1,.05.79,1.22,1.22,0,0,1-.83.17,40.58,40.58,0,0,1-6.61-.9.65.65,0,0,1-.36-.15.49.49,0,0,1-.12-.25A2.34,2.34,0,0,1,9.19,98Z"/><path class="cls-6" d="M17.39,21.94a5.35,5.35,0,0,0,1.09-2.15,14.1,14.1,0,0,0,.75-5.18,7.43,7.43,0,0,0-2.05-4.77A5.13,5.13,0,0,0,12.3,8.46a5.3,5.3,0,0,0-3.49,4.62A10.26,10.26,0,0,0,10.32,19C11.52,21.15,14.89,24.53,17.39,21.94Z"/><path class="cls-9" d="M11,37.3a22.11,22.11,0,0,1,.45,9.9c2.24-.09,4.55.28,6.79-.1s4.34-.81,6.49-1.35a24.09,24.09,0,0,1-2.26-5.58c-.94-4.07,0-8.38.66-12.54a7.34,7.34,0,0,0,0-3.06c-.27-1-1.08-1.8-1.92-1.61l-.79-.51A18,18,0,0,1,13,24.28a3.64,3.64,0,0,0-1.92.37A3.4,3.4,0,0,0,10,26.05a10.3,10.3,0,0,0-.5,7.22C9.87,34.66,10.52,35.93,11,37.3Z"/><path class="cls-9" d="M10,49.06a14,14,0,0,0-1.11,4A42.94,42.94,0,0,1,3.76,66.11a1.56,1.56,0,0,0-.27.79,1.44,1.44,0,0,0,.28.66,9.77,9.77,0,0,0,2.45,2.91,7.56,7.56,0,0,0,2.22,1,24.16,24.16,0,0,0,11.2.82,50.07,50.07,0,0,0,5.12-1.21,1.64,1.64,0,0,0,.73-.34A1.86,1.86,0,0,0,26,69.61c.88-5.68-.31-11.46-.46-17.22a23.38,23.38,0,0,0-.57-6.21,1.17,1.17,0,0,0-.34-.59,1.08,1.08,0,0,0-.67-.15L14,45.52c-.88,0-2.06-.07-2.54.75S10.43,48.15,10,49.06Z"/><path class="cls-10" d="M29.51,48c-.29-2-1.44-3.51-2.18-5.75-.27-.82-.76-2.24-1-3.05A2.16,2.16,0,0,0,25.22,38a3.23,3.23,0,0,0-1.2-.21Q19,37.54,13.88,37.6a4.36,4.36,0,0,0-1.53.21,1.31,1.31,0,0,0-.62.44,1.19,1.19,0,0,0-.19.68,2.22,2.22,0,0,0,.39,1.35l.14.23c1.46,2.3,1.86,5.09,3,7.58a2.19,2.19,0,0,0,.64.92,2.46,2.46,0,0,0,1.61.32c1.35,0,2.69-.12,4-.12,2,0,5.51.48,7.43-.12a1.08,1.08,0,0,0,.72-.49A1.09,1.09,0,0,0,29.51,48Z"/><path class="cls-7" d="M.62,36.57A2.89,2.89,0,0,0,0,37.81a2,2,0,0,0,.53,1.51,4.59,4.59,0,0,0,1.24.86,45.6,45.6,0,0,0,9.86,4.23.58.58,0,0,0,.43,0,.79.79,0,0,0,.31-.4c.22-.47.45-.93.67-1.4a.75.75,0,0,0,.1-.33c0-.23-.21-.36-.38-.46a58.45,58.45,0,0,1-6.12-3.9,1.55,1.55,0,0,1-.78-1.11,1.69,1.69,0,0,1,.35-.94c1.88-2.83,4.68-5,5.7-8.34a4.09,4.09,0,0,0,.1-2.42c-.18-.52-.74-1.22-1.27-1.14s-.82.77-1.15,1.13c-1.06,1.19-2.1,2.41-3.1,3.66C4.47,31.29,2.55,33.93.62,36.57Z"/><path class="cls-6" d="M13.1,44.7a7.62,7.62,0,0,0,1.05.65,6.73,6.73,0,0,0,1,.38,2.76,2.76,0,0,0,.85.19,1.52,1.52,0,0,0,.8-.23,1,1,0,0,0,.48-.93,1,1,0,0,0-.39-.61c-.19-.16-.4-.28-.59-.43s-.09-.09-.07-.15.06-.06.09-.09-.05-.22-.16-.27a10.89,10.89,0,0,0-1.93-.63l-1.09-.28a.67.67,0,0,0-.52,0,.74.74,0,0,0-.24.31c-.13.25-.57,1-.47,1.23s.46.34.58.42Z"/><path class="cls-11" d="M13.46,12.1A4.32,4.32,0,0,0,12,13.2c-.75,1-.63,2.38-1,3.58a.52.52,0,0,0-.87.06.88.88,0,0,0,.26.92,4.62,4.62,0,0,1,.69.71,3.1,3.1,0,0,1,.17,1.69,5.3,5.3,0,0,0,1,3,14.62,14.62,0,0,0,2.15,2.3,6.73,6.73,0,0,1-5.4,1.27c-1.2-.25-2.45-.82-3.6-.38a4.6,4.6,0,0,1,.4-1.77,17.74,17.74,0,0,0,.36-5c0-1.23.16-2.46.3-3.68a21.82,21.82,0,0,1,.6-3.6A8.17,8.17,0,0,1,9.61,8.22,5,5,0,0,1,14,7.05a2.33,2.33,0,0,1,1.66,2.4A3.47,3.47,0,0,1,13.46,12.1Z"/><path class="cls-11" d="M15.3,11.28a8.28,8.28,0,0,0,1.41.75A4.16,4.16,0,0,1,19,14.22a3.93,3.93,0,0,1,.17,1.45,21.41,21.41,0,0,1-.92,4.15A6,6,0,0,0,18.4,24a14.37,14.37,0,0,1,2-.15,15.48,15.48,0,0,1-.26-3.53c.14-2.84,1.13-5.7.51-8.46a7.24,7.24,0,0,0-2.72-4.2,3.42,3.42,0,0,0-1.78-.74,1.83,1.83,0,0,0-1.69.81A3.34,3.34,0,0,0,15.3,11.28Z"/><path class="cls-12" d="M38.81,35.92a25,25,0,0,1,.08-4.15,14.63,14.63,0,0,1,.87-3.49,6.19,6.19,0,0,1,1.82-2.74,1.8,1.8,0,0,1,1.71-.42,1.54,1.54,0,0,1,.86,1.1,4.35,4.35,0,0,1,0,1.44,18.72,18.72,0,0,1-.41,2.58c-.3,1.13-.78,2.21-1.11,3.33a25.2,25.2,0,0,0-.74,5.68L41.46,48a.36.36,0,0,1-.06.23,1.33,1.33,0,0,1-1.11.21c-.31-.22-.3-1.16-.35-1.51-.2-1.24-.38-2.48-.53-3.73C39.11,40.79,38.91,38.35,38.81,35.92Z"/><path class="cls-13" d="M55,20.48a30.18,30.18,0,0,0-2.74,2.8,55.35,55.35,0,0,0-4.46,5.44,4.45,4.45,0,0,0-1,2.32,1.72,1.72,0,0,0,1.43,1.8,2.49,2.49,0,0,0,1.61-.8l7.36-6.2a6.71,6.71,0,0,0,1.6-1.72c.61-1.07,1.14-3.87.18-4.88S55.83,19.77,55,20.48Z"/><path class="cls-14" d="M40.4,79.67c-.22,4.6-.52,6.7-1,11.29l1.42-.19c.69-2.67,1.44-3,1.91-5.67.33-1.91.77-3.81,1.21-5.71q1.86-8,3.71-15.9a53.6,53.6,0,0,1,2-7c.92-2.42,2-5.86-1.19-7a5.15,5.15,0,0,0-5.54,1.25c-1.42,1.78-1.29,4.55-1.4,6.67L41,67.94Z"/><path class="cls-14" d="M48,52.19a2.5,2.5,0,0,1,.85-1.27,2.89,2.89,0,0,1,1.93-.3c1,.08,2,.21,3,.39A3.32,3.32,0,0,1,56,52a3.52,3.52,0,0,1,.44,2.23c-.14,5.7-.38,11.39-.69,17.08-.29,5.22-1.46,8.82-1.9,14-.16,2-.31,1.68-.68,5.42,0,.29,0,.12-.13.29a.61.61,0,0,0-.25-.08c-.34,0-.28.28-.62.26a.6.6,0,0,0-.2,0,5,5,0,0,1-.28-1.37,196.33,196.33,0,0,0-3.45-27.33C47.57,59.14,46.76,55.48,48,52.19Z"/><path class="cls-14" d="M41.19,48.84a1.69,1.69,0,0,1,.1-.92,2,2,0,0,1,1-.81A22.84,22.84,0,0,1,53.7,44.89a2,2,0,0,1,1.08.28,1.91,1.91,0,0,1,.62,1.28c.28,1.49.57,3,.86,4.48a4.18,4.18,0,0,1-.16,3,3.89,3.89,0,0,1-1.25,1.17A14.54,14.54,0,0,1,44,57c-1.4-.31-2.26-.8-2.37-2.22C41.44,52.82,41.36,50.83,41.19,48.84Z"/><path class="cls-15" d="M39.35,90.19a.57.57,0,0,0-.35.18.61.61,0,0,0-.11.29c-.18.86-.32,1.72-.43,2.59a5.16,5.16,0,0,1-.26,1.24,3.39,3.39,0,0,1-1.88,1.78,8.38,8.38,0,0,1-2,.5c-.22,0-.49,0-.6.24a.87.87,0,0,0,.22.81,1.25,1.25,0,0,0,1.17.15c1.14-.26,2.25-.61,3.37-1a1.55,1.55,0,0,0,.72-.37,1.69,1.69,0,0,0,.23-.36c.24-.47.46-1,.68-1.43a12.9,12.9,0,0,0,.38,1.72.5.5,0,0,1,.34,0c-.12-2.18-.16-4.38-.11-6.57A5,5,0,0,0,39.35,90.19Z"/><path class="cls-15" d="M50.79,92.64a6.83,6.83,0,0,1-.45,1.91,3.87,3.87,0,0,1-2.52,1.74.52.52,0,0,0-.29.16.46.46,0,0,0-.06.26l-.06.9a.3.3,0,0,0,0,.13c0,.06.13.06.2.06a30.84,30.84,0,0,1,3.33.06.78.78,0,0,0,.5-.06.7.7,0,0,0,.26-.69,2.57,2.57,0,0,1-.06-.78c.05-.26.31-.5.56-.42a5,5,0,0,1-.08,1.72,1.43,1.43,0,0,0,.68.07,18.88,18.88,0,0,1,.07-4.57c.09-.52.44-1.25.21-1.77s-.77-.51-1.23-.52-.58.19-.77.68A7.14,7.14,0,0,0,50.79,92.64Z"/><path class="cls-16" d="M42.33,13.68c-.5,2.27-.71,4.77.44,6.79,1,1.83,3.4,3,5.34,2.18s2.84-3.2,3.21-5.35C52.45,10.64,44.16,5.5,42.33,13.68Z"/><path class="cls-17" d="M60.07,4a12.48,12.48,0,0,0-2,6.09,8.09,8.09,0,0,0,.86,5,5,5,0,0,0,3.72,2.33,4.81,4.81,0,0,0,4.07-1.62,9.37,9.37,0,0,0,1.68-4.29c.15-.75.31-1.49.47-2.24.34-1.66.68-3.44,0-5C67.21.39,62.18.93,60.07,4Z"/><path class="cls-12" d="M47.13,23.55c1.23-.23,2.4-.63,3.65-.78a1.39,1.39,0,0,1,.79.08.92.92,0,0,1,.33.38c1.9,3.4,2.48,7.13,3,10.81Q56.46,44.3,58,54.55a39.24,39.24,0,0,1-12.72,2,12,12,0,0,1-4.59-.74,2.58,2.58,0,0,1-1-.72,2.17,2.17,0,0,1-.22-1.62q1.83-13.53,3.34-27.1c.08-.76-.13-2.06.8-2.55S46.15,23.73,47.13,23.55Z"/><path class="cls-18" d="M48.72,33.35a73.69,73.69,0,0,1-2.28,10,2.23,2.23,0,0,0,0,1.81,2.22,2.22,0,0,0,1.4.76c2.9.72,5.9,1.45,8.83.93a1.18,1.18,0,0,0,.63-.26,1.21,1.21,0,0,0,.22-1c-.25-2.94-.75-5.85-1.25-8.76a73.65,73.65,0,0,0-3.37-14,.94.94,0,0,0-.3-.45.87.87,0,0,0-.69,0c-.79.2-2.7.33-3.28.89s.07,2.11.17,2.89A28.07,28.07,0,0,1,48.72,33.35Z"/><path class="cls-18" d="M42.49,45.74a.58.58,0,0,1-.05.29.51.51,0,0,1-.4.15l-2.26.17c.21-1,.35-2,.47-3,.74-6.21.78-12.52,2.16-18.63a2.16,2.16,0,0,1,.47-1.08c.53-.53.88-.26.91.28a12.77,12.77,0,0,1-.45,2.33c-.27,1.54-.46,3.09-.6,4.64-.29,3.14-.37,6.29-.35,9.44C42.4,42.13,42.44,43.93,42.49,45.74Z"/><path class="cls-12" d="M53.54,24.76a7.14,7.14,0,0,1,2,2.77,28.74,28.74,0,0,1,1.89,4.89,36.75,36.75,0,0,1,.91,7.33,21.81,21.81,0,0,1,0,3.79,4,4,0,0,1-.67,2,1.82,1.82,0,0,1-1.88.76.55.55,0,0,1-.22-.1.83.83,0,0,1-.17-.72,27.93,27.93,0,0,0-3.87-16.84c-.53-.89-1.75-2.58-1.31-3.71S52.72,24.16,53.54,24.76Z"/><path class="cls-19" d="M73.16,93.43c-.09-.22-.17-.45-.25-.67l.16-.05V86.35c0-2.78-.13-5.46-.36-8.21-.7-8.16,1.64-17,1-25.36A37.09,37.09,0,0,0,72.93,47c-.58-2.45-2-2.12-4.15-2.55-3.28-.67-10-.82-13.23.12,0,15.85,3,33.51,4.34,49.24h.29a9.78,9.78,0,0,1-2.64,1.68,2.07,2.07,0,0,0-.66.38A1,1,0,0,0,57,97.34a1.78,1.78,0,0,0,1.45.09l4.15-1a1.29,1.29,0,0,0,.71-.32,1.44,1.44,0,0,0,.23-.92c0-.47,0-.94,0-1.41h.13c1-8.55.73-16.65,1-25.22.47,4,1.35,6.28,2.27,11.24.43,2.3.93,4.55,1.29,6.87.19,1.18.39,2.36.61,3.53a14.85,14.85,0,0,1,.51,3.11l.21,0A10.61,10.61,0,0,1,67.7,96a1.88,1.88,0,0,0-.48.61,1,1,0,0,0,.63,1.3,1.79,1.79,0,0,0,1.37-.48l3.52-2.5a1.27,1.27,0,0,0,.53-.57A1.41,1.41,0,0,0,73.16,93.43Z"/><path class="cls-14" d="M66.25,17.56A4,4,0,0,1,68,17.3c1.11.21,1.52,1.36,1.68,2.32.37,2.18.54,4.38,1,6.55.91,4.4,3,8.59,3.91,13a26.58,26.58,0,0,1,.59,6.71,5.46,5.46,0,0,1-.34,1.91A5.49,5.49,0,0,1,72,50.31,25.29,25.29,0,0,1,64.78,52c-3.1.43-6.33.85-9.34.09a2.08,2.08,0,0,1-.8-.35,1.49,1.49,0,0,1-.41-1c-1.41-10.07,2.13-20.14,2.37-30.28,0-1.54.34-3.78,2.58-3.4C61.73,17.54,63.55,18.31,66.25,17.56Z"/><path class="cls-13" d="M66.92,19.23a3.09,3.09,0,0,1,2.64.05A4.47,4.47,0,0,1,71,20.8a42.94,42.94,0,0,1,4.5,10.26,2.56,2.56,0,0,1,.2,1.08,2.51,2.51,0,0,1-.64,1.29,57.13,57.13,0,0,1-9.17,8.68,1.64,1.64,0,0,1-.74.43A1.77,1.77,0,0,1,63.79,42l-1-.79a.37.37,0,0,1-.16-.21.39.39,0,0,1,.17-.32A58.14,58.14,0,0,0,69,34a3.67,3.67,0,0,0,.73-1.25,3.69,3.69,0,0,0-.31-2.16A62.69,62.69,0,0,0,66.57,24c-.38-.77-1.49-2.12-1.54-2.95S66.24,19.51,66.92,19.23Z"/><path class="cls-17" d="M60.93,42.3c-.27.14-.59.38-.5.68,0,.09.09.17.09.27a.42.42,0,0,1-.17.25,2,2,0,0,0-.73,1.17,1.28,1.28,0,0,0,.6,1.22,1.63,1.63,0,0,0,1.49,0,4.36,4.36,0,0,0,1.22-1,20.39,20.39,0,0,0,1.74-2.08.88.88,0,0,0,.19-.34c.09-.38-.27-.72-.62-.9-.58-.3-.86-.57-1.49-.25S61.54,42,60.93,42.3Z"/><path class="cls-20" d="M40.69,13.49a.41.41,0,0,0,0,.29.44.44,0,0,0,.37.13,7.58,7.58,0,0,0,1.65-.09A10.62,10.62,0,0,1,44,13.56a4.29,4.29,0,0,1,.88.06l2.58.37a1.53,1.53,0,0,0,.85,0c.34-.15.7-.55,1-.33s.17.34.18.54l.05,2.6a.42.42,0,0,1,.51-.35.45.45,0,0,1,.29.55c-.09.29-.46.42-.59.7a1.43,1.43,0,0,1,.24,1,9.48,9.48,0,0,1-.44,3.18,4.06,4.06,0,0,1-2.06,2.38A7.65,7.65,0,0,0,50.41,23c1.39-.79,2.87-1.69,3.48-3.18a7,7,0,0,0,.39-2,21.29,21.29,0,0,0,.08-3.91,7.67,7.67,0,0,0-1.28-3.67,8.56,8.56,0,0,0-1-1.1,4.63,4.63,0,0,0-1.17-.9,4.75,4.75,0,0,0-1.49-.34,16.76,16.76,0,0,0-3.61,0,4,4,0,0,0-2.14.89A6.58,6.58,0,0,0,40.69,13.49Z"/><path class="cls-21" d="M70.69,3.39a1.57,1.57,0,0,0-.43-.15l-.15-.15c-.51-.46-1-.92-1.52-1.39A7.33,7.33,0,0,0,66.84.41,5.3,5.3,0,0,0,64.61,0a10.66,10.66,0,0,0-2.92.4,10.53,10.53,0,0,1-2,.52A2.21,2.21,0,0,1,57.73.25c0,.91.07,2,.83,2.47A7,7,0,0,1,55.8,2,6.29,6.29,0,0,0,60,5.9c1.74.53,3.29.24,5.05.18a1.72,1.72,0,0,1,.72.17c.25.22.56.39.83.61.12.12.24.24.35.37.53.79.16,2.15,1,2.58a1.08,1.08,0,0,1,.3.16c.27.28-.08.7-.3,1a2.67,2.67,0,0,0-.37,1.34c-.1.92-.19,1.84-.29,2.76a2.59,2.59,0,0,1,.85-1.35c.3-.25.65-.43,1-.65A7.22,7.22,0,0,0,71.38,10a8.08,8.08,0,0,0,.91-3.61A3.56,3.56,0,0,0,70.69,3.39Z"/></g></g></g></svg>